G04 #@! TF.GenerationSoftware,KiCad,Pcbnew,8.0.9-8.0.9-0~ubuntu24.04.1*
G04 #@! TF.CreationDate,2025-02-19T22:05:32+00:00*
G04 #@! TF.ProjectId,rusefiSTI2004,72757365-6669-4535-9449-323030342e6b,rev?*
G04 #@! TF.SameCoordinates,Original*
G04 #@! TF.FileFunction,Legend,Bot*
G04 #@! TF.FilePolarity,Positive*
%FSLAX46Y46*%
G04 Gerber Fmt 4.6, Leading zero omitted, Abs format (unit mm)*
G04 Created by KiCad (PCBNEW 8.0.9-8.0.9-0~ubuntu24.04.1) date 2025-02-19 22:05:32*
%MOMM*%
%LPD*%
G01*
G04 APERTURE LIST*
%ADD10C,0.127000*%
%ADD11C,0.200000*%
%ADD12C,0.100000*%
%ADD13C,0.120000*%
G04 APERTURE END LIST*
D10*
X92581768Y65899000D02*
X92581768Y66153000D01*
X92980911Y66153000D02*
X92218911Y66153000D01*
X92218911Y66153000D02*
X92218911Y65790143D01*
X92291483Y65536143D02*
X92255197Y65499857D01*
X92255197Y65499857D02*
X92218911Y65427285D01*
X92218911Y65427285D02*
X92218911Y65245857D01*
X92218911Y65245857D02*
X92255197Y65173285D01*
X92255197Y65173285D02*
X92291483Y65137000D01*
X92291483Y65137000D02*
X92364054Y65100714D01*
X92364054Y65100714D02*
X92436626Y65100714D01*
X92436626Y65100714D02*
X92545483Y65137000D01*
X92545483Y65137000D02*
X92980911Y65572428D01*
X92980911Y65572428D02*
X92980911Y65100714D01*
X92581768Y62779000D02*
X92581768Y63033000D01*
X92980911Y63033000D02*
X92218911Y63033000D01*
X92218911Y63033000D02*
X92218911Y62670143D01*
X92218911Y62452428D02*
X92218911Y61980714D01*
X92218911Y61980714D02*
X92509197Y62234714D01*
X92509197Y62234714D02*
X92509197Y62125857D01*
X92509197Y62125857D02*
X92545483Y62053285D01*
X92545483Y62053285D02*
X92581768Y62017000D01*
X92581768Y62017000D02*
X92654340Y61980714D01*
X92654340Y61980714D02*
X92835768Y61980714D01*
X92835768Y61980714D02*
X92908340Y62017000D01*
X92908340Y62017000D02*
X92944626Y62053285D01*
X92944626Y62053285D02*
X92980911Y62125857D01*
X92980911Y62125857D02*
X92980911Y62343571D01*
X92980911Y62343571D02*
X92944626Y62416143D01*
X92944626Y62416143D02*
X92908340Y62452428D01*
X92581768Y59659000D02*
X92581768Y59913000D01*
X92980911Y59913000D02*
X92218911Y59913000D01*
X92218911Y59913000D02*
X92218911Y59550143D01*
X92472911Y58933285D02*
X92980911Y58933285D01*
X92182626Y59114714D02*
X92726911Y59296143D01*
X92726911Y59296143D02*
X92726911Y58824428D01*
X92581768Y56539000D02*
X92581768Y56793000D01*
X92980911Y56793000D02*
X92218911Y56793000D01*
X92218911Y56793000D02*
X92218911Y56430143D01*
X92218911Y55777000D02*
X92218911Y56139857D01*
X92218911Y56139857D02*
X92581768Y56176143D01*
X92581768Y56176143D02*
X92545483Y56139857D01*
X92545483Y56139857D02*
X92509197Y56067285D01*
X92509197Y56067285D02*
X92509197Y55885857D01*
X92509197Y55885857D02*
X92545483Y55813285D01*
X92545483Y55813285D02*
X92581768Y55777000D01*
X92581768Y55777000D02*
X92654340Y55740714D01*
X92654340Y55740714D02*
X92835768Y55740714D01*
X92835768Y55740714D02*
X92908340Y55777000D01*
X92908340Y55777000D02*
X92944626Y55813285D01*
X92944626Y55813285D02*
X92980911Y55885857D01*
X92980911Y55885857D02*
X92980911Y56067285D01*
X92980911Y56067285D02*
X92944626Y56139857D01*
X92944626Y56139857D02*
X92908340Y56176143D01*
X92581768Y69019000D02*
X92581768Y69273000D01*
X92980911Y69273000D02*
X92218911Y69273000D01*
X92218911Y69273000D02*
X92218911Y68910143D01*
X92980911Y68220714D02*
X92980911Y68656143D01*
X92980911Y68438428D02*
X92218911Y68438428D01*
X92218911Y68438428D02*
X92327768Y68511000D01*
X92327768Y68511000D02*
X92400340Y68583571D01*
X92400340Y68583571D02*
X92436626Y68656143D01*
D11*
G04 #@! TO.C,M6*
X87625000Y33112500D02*
X87625000Y26712500D01*
X87625000Y23512500D02*
X87625000Y24812500D01*
X87625000Y23512500D02*
X102625000Y23512500D01*
X102025000Y33112500D02*
X87625000Y33112500D01*
X102625000Y23512500D02*
X102625000Y28612500D01*
G04 #@! TO.C,M3*
X75675000Y46275000D02*
X48175000Y46275000D01*
X48175000Y32375000D01*
X75675000Y32375000D01*
X75675000Y46275000D01*
G04 #@! TO.C,M9*
D12*
X135975000Y44675000D02*
X122275000Y44675000D01*
X122275000Y34775000D01*
X135975000Y34775000D01*
X135975000Y44675000D01*
D13*
G04 #@! TO.C,F2*
X99035000Y66645000D02*
X94185000Y66645000D01*
X99035000Y64645000D02*
X94185000Y64645000D01*
X94185000Y64645000D02*
G75*
G02*
X94185000Y66645000I0J1000000D01*
G01*
X99085000Y66645000D02*
G75*
G02*
X99085000Y64645000I0J-1000000D01*
G01*
G04 #@! TO.C,F3*
X99035000Y63525000D02*
X94185000Y63525000D01*
X99035000Y61525000D02*
X94185000Y61525000D01*
X94185000Y61525000D02*
G75*
G02*
X94185000Y63525000I0J1000000D01*
G01*
X99085000Y63525000D02*
G75*
G02*
X99085000Y61525000I0J-1000000D01*
G01*
D11*
G04 #@! TO.C,M5*
X87625000Y44162500D02*
X87625000Y37762500D01*
X87625000Y34562500D02*
X87625000Y35862500D01*
X87625000Y34562500D02*
X102625000Y34562500D01*
X102025000Y44162500D02*
X87625000Y44162500D01*
X102625000Y34562500D02*
X102625000Y39662500D01*
G04 #@! TO.C,M8*
X102699999Y15649996D02*
X102699999Y18849999D01*
X102699999Y3549996D02*
X102699999Y13949998D01*
X102699999Y1649996D02*
X102699999Y1949996D01*
X102699999Y1649996D02*
X118099999Y1649996D01*
X104199999Y22249994D02*
X119499998Y22249996D01*
X119499996Y15549998D02*
X119499996Y20349998D01*
X119499996Y9349996D02*
X119499996Y12049996D01*
X119499996Y6649998D02*
X119499996Y7750001D01*
X119499996Y3099996D02*
X119500001Y4649996D01*
X119499998Y21949998D02*
X119499998Y22249996D01*
G04 #@! TO.C,M4*
X101494997Y69686153D02*
X112669997Y69725000D01*
X101494997Y63988331D02*
X101494997Y69686153D01*
X101494997Y63988331D02*
X101770001Y63713325D01*
X101770001Y62888326D02*
X101770001Y63713325D01*
X101770001Y62888326D02*
X101826203Y62838326D01*
X101826203Y62838326D02*
X112669997Y62838326D01*
X112669997Y62832123D02*
X112669997Y69725000D01*
G04 #@! TO.C,M7*
X101495000Y61395000D02*
X110595000Y61395000D01*
X101495000Y58294997D02*
X101495000Y59294999D01*
X101495000Y58294997D02*
X110595000Y58294997D01*
G04 #@! TO.C,M13*
X101495000Y56844997D02*
X110595000Y56844997D01*
X101495000Y53744994D02*
X101495000Y54744996D01*
X101495000Y53744994D02*
X110595000Y53744994D01*
D13*
G04 #@! TO.C,F4*
X99035000Y60405000D02*
X94185000Y60405000D01*
X99035000Y58405000D02*
X94185000Y58405000D01*
X94185000Y58405000D02*
G75*
G02*
X94185000Y60405000I0J1000000D01*
G01*
X99085000Y60405000D02*
G75*
G02*
X99085000Y58405000I0J-1000000D01*
G01*
D11*
G04 #@! TO.C,M1*
X37474998Y108074995D02*
X78275001Y108074995D01*
X37474998Y68174996D02*
X37474998Y108074995D01*
X37474998Y68174996D02*
X79574998Y68174996D01*
X78275001Y108074995D02*
X79575001Y108074995D01*
X79574998Y68174996D02*
X79575001Y108074995D01*
G04 #@! TO.C,M2*
D12*
X135975000Y55925000D02*
X122275000Y55925000D01*
X122275000Y46025000D01*
X135975000Y46025000D01*
X135975000Y55925000D01*
D13*
G04 #@! TO.C,F5*
X99035000Y57285000D02*
X94185000Y57285000D01*
X99035000Y55285000D02*
X94185000Y55285000D01*
X94185000Y55285000D02*
G75*
G02*
X94185000Y57285000I0J1000000D01*
G01*
X99085000Y57285000D02*
G75*
G02*
X99085000Y55285000I0J-1000000D01*
G01*
G04 #@! TO.C,F1*
X99035000Y69765000D02*
X94185000Y69765000D01*
X99035000Y67765000D02*
X94185000Y67765000D01*
X94185000Y67765000D02*
G75*
G02*
X94185000Y69765000I0J1000000D01*
G01*
X99085000Y69765000D02*
G75*
G02*
X99085000Y67765000I0J-1000000D01*
G01*
D11*
G04 #@! TO.C,M14*
X120950001Y15649996D02*
X120950001Y18849999D01*
X120950001Y3549996D02*
X120950001Y13949998D01*
X120950001Y1649996D02*
X120950001Y1949996D01*
X120950001Y1649996D02*
X136350001Y1649996D01*
X122450001Y22249994D02*
X137750000Y22249996D01*
X137749998Y15549998D02*
X137749998Y20349998D01*
X137749998Y9349996D02*
X137749998Y12049996D01*
X137749998Y6649998D02*
X137749998Y7750001D01*
X137749998Y3099996D02*
X137750003Y4649996D01*
X137750000Y21949998D02*
X137750000Y22249996D01*
G04 #@! TD*
M02*
