G04 #@! TF.GenerationSoftware,KiCad,Pcbnew,8.0.9-8.0.9-0~ubuntu24.04.1*
G04 #@! TF.CreationDate,2025-02-19T21:10:22+00:00*
G04 #@! TF.ProjectId,rusefiSTI2004,72757365-6669-4535-9449-323030342e6b,rev?*
G04 #@! TF.SameCoordinates,Original*
G04 #@! TF.FileFunction,Soldermask,Top*
G04 #@! TF.FilePolarity,Negative*
%FSLAX46Y46*%
G04 Gerber Fmt 4.6, Leading zero omitted, Abs format (unit mm)*
G04 Created by KiCad (PCBNEW 8.0.9-8.0.9-0~ubuntu24.04.1) date 2025-02-19 21:10:22*
%MOMM*%
%LPD*%
G01*
G04 APERTURE LIST*
%ADD10C,0.600000*%
%ADD11R,6.400000X5.800000*%
%ADD12C,1.524000*%
%ADD13C,1.500000*%
%ADD14O,0.499999X0.250000*%
%ADD15O,0.250000X0.499999*%
%ADD16C,0.599999*%
%ADD17C,3.500000*%
%ADD18C,2.000000*%
G04 APERTURE END LIST*
D10*
G04 #@! TO.C,M6*
X102325000Y30312500D03*
X102325000Y29112500D03*
X102325000Y31512500D03*
X102325000Y32712500D03*
X87900000Y26252500D03*
X87900000Y25252500D03*
G04 #@! TD*
G04 #@! TO.C,R6*
G36*
G01*
X105275000Y97311267D02*
X105275000Y98091267D01*
G75*
G02*
X105345000Y98161267I70000J0D01*
G01*
X105905000Y98161267D01*
G75*
G02*
X105975000Y98091267I0J-70000D01*
G01*
X105975000Y97311267D01*
G75*
G02*
X105905000Y97241267I-70000J0D01*
G01*
X105345000Y97241267D01*
G75*
G02*
X105275000Y97311267I0J70000D01*
G01*
G37*
G36*
G01*
X106875000Y97311267D02*
X106875000Y98091267D01*
G75*
G02*
X106945000Y98161267I70000J0D01*
G01*
X107505000Y98161267D01*
G75*
G02*
X107575000Y98091267I0J-70000D01*
G01*
X107575000Y97311267D01*
G75*
G02*
X107505000Y97241267I-70000J0D01*
G01*
X106945000Y97241267D01*
G75*
G02*
X106875000Y97311267I0J70000D01*
G01*
G37*
G04 #@! TD*
G04 #@! TO.C,Q2*
G36*
G01*
X93400000Y94250000D02*
X93400000Y95210000D01*
G75*
G02*
X93520000Y95330000I120000J0D01*
G01*
X95480000Y95330000D01*
G75*
G02*
X95600000Y95210000I0J-120000D01*
G01*
X95600000Y94250000D01*
G75*
G02*
X95480000Y94130000I-120000J0D01*
G01*
X93520000Y94130000D01*
G75*
G02*
X93400000Y94250000I0J120000D01*
G01*
G37*
D11*
X100800000Y92450000D03*
G36*
G01*
X93400000Y89690000D02*
X93400000Y90650000D01*
G75*
G02*
X93520000Y90770000I120000J0D01*
G01*
X95480000Y90770000D01*
G75*
G02*
X95600000Y90650000I0J-120000D01*
G01*
X95600000Y89690000D01*
G75*
G02*
X95480000Y89570000I-120000J0D01*
G01*
X93520000Y89570000D01*
G75*
G02*
X93400000Y89690000I0J120000D01*
G01*
G37*
G04 #@! TD*
D12*
G04 #@! TO.C,F2*
X94185000Y65645000D03*
G36*
G01*
X95529990Y64745000D02*
X94839990Y64745000D01*
G75*
G02*
X94609990Y64975000I0J230000D01*
G01*
X94609990Y66315000D01*
G75*
G02*
X94839990Y66545000I230000J0D01*
G01*
X95529990Y66545000D01*
G75*
G02*
X95759990Y66315000I0J-230000D01*
G01*
X95759990Y64975000D01*
G75*
G02*
X95529990Y64745000I-230000J0D01*
G01*
G37*
G36*
G01*
X98430010Y64745000D02*
X97740010Y64745000D01*
G75*
G02*
X97510010Y64975000I0J230000D01*
G01*
X97510010Y66315000D01*
G75*
G02*
X97740010Y66545000I230000J0D01*
G01*
X98430010Y66545000D01*
G75*
G02*
X98660010Y66315000I0J-230000D01*
G01*
X98660010Y64975000D01*
G75*
G02*
X98430010Y64745000I-230000J0D01*
G01*
G37*
X99085000Y65645000D03*
G04 #@! TD*
G04 #@! TO.C,R8*
G36*
G01*
X122725000Y101209359D02*
X122725000Y101989359D01*
G75*
G02*
X122795000Y102059359I70000J0D01*
G01*
X123355000Y102059359D01*
G75*
G02*
X123425000Y101989359I0J-70000D01*
G01*
X123425000Y101209359D01*
G75*
G02*
X123355000Y101139359I-70000J0D01*
G01*
X122795000Y101139359D01*
G75*
G02*
X122725000Y101209359I0J70000D01*
G01*
G37*
G36*
G01*
X124325000Y101209359D02*
X124325000Y101989359D01*
G75*
G02*
X124395000Y102059359I70000J0D01*
G01*
X124955000Y102059359D01*
G75*
G02*
X125025000Y101989359I0J-70000D01*
G01*
X125025000Y101209359D01*
G75*
G02*
X124955000Y101139359I-70000J0D01*
G01*
X124395000Y101139359D01*
G75*
G02*
X124325000Y101209359I0J70000D01*
G01*
G37*
G04 #@! TD*
G04 #@! TO.C,R2*
G36*
G01*
X93125000Y51409359D02*
X93125000Y52189359D01*
G75*
G02*
X93195000Y52259359I70000J0D01*
G01*
X93755000Y52259359D01*
G75*
G02*
X93825000Y52189359I0J-70000D01*
G01*
X93825000Y51409359D01*
G75*
G02*
X93755000Y51339359I-70000J0D01*
G01*
X93195000Y51339359D01*
G75*
G02*
X93125000Y51409359I0J70000D01*
G01*
G37*
G36*
G01*
X94725000Y51409359D02*
X94725000Y52189359D01*
G75*
G02*
X94795000Y52259359I70000J0D01*
G01*
X95355000Y52259359D01*
G75*
G02*
X95425000Y52189359I0J-70000D01*
G01*
X95425000Y51409359D01*
G75*
G02*
X95355000Y51339359I-70000J0D01*
G01*
X94795000Y51339359D01*
G75*
G02*
X94725000Y51409359I0J70000D01*
G01*
G37*
G04 #@! TD*
G04 #@! TO.C,F3*
X94185000Y62525000D03*
G36*
G01*
X95529990Y61625000D02*
X94839990Y61625000D01*
G75*
G02*
X94609990Y61855000I0J230000D01*
G01*
X94609990Y63195000D01*
G75*
G02*
X94839990Y63425000I230000J0D01*
G01*
X95529990Y63425000D01*
G75*
G02*
X95759990Y63195000I0J-230000D01*
G01*
X95759990Y61855000D01*
G75*
G02*
X95529990Y61625000I-230000J0D01*
G01*
G37*
G36*
G01*
X98430010Y61625000D02*
X97740010Y61625000D01*
G75*
G02*
X97510010Y61855000I0J230000D01*
G01*
X97510010Y63195000D01*
G75*
G02*
X97740010Y63425000I230000J0D01*
G01*
X98430010Y63425000D01*
G75*
G02*
X98660010Y63195000I0J-230000D01*
G01*
X98660010Y61855000D01*
G75*
G02*
X98430010Y61625000I-230000J0D01*
G01*
G37*
X99085000Y62525000D03*
G04 #@! TD*
G04 #@! TO.C,R5*
G36*
G01*
X105275000Y99260313D02*
X105275000Y100040313D01*
G75*
G02*
X105345000Y100110313I70000J0D01*
G01*
X105905000Y100110313D01*
G75*
G02*
X105975000Y100040313I0J-70000D01*
G01*
X105975000Y99260313D01*
G75*
G02*
X105905000Y99190313I-70000J0D01*
G01*
X105345000Y99190313D01*
G75*
G02*
X105275000Y99260313I0J70000D01*
G01*
G37*
G36*
G01*
X106875000Y99260313D02*
X106875000Y100040313D01*
G75*
G02*
X106945000Y100110313I70000J0D01*
G01*
X107505000Y100110313D01*
G75*
G02*
X107575000Y100040313I0J-70000D01*
G01*
X107575000Y99260313D01*
G75*
G02*
X107505000Y99190313I-70000J0D01*
G01*
X106945000Y99190313D01*
G75*
G02*
X106875000Y99260313I0J70000D01*
G01*
G37*
G04 #@! TD*
G04 #@! TO.C,Q4*
G36*
G01*
X93400000Y78150000D02*
X93400000Y79110000D01*
G75*
G02*
X93520000Y79230000I120000J0D01*
G01*
X95480000Y79230000D01*
G75*
G02*
X95600000Y79110000I0J-120000D01*
G01*
X95600000Y78150000D01*
G75*
G02*
X95480000Y78030000I-120000J0D01*
G01*
X93520000Y78030000D01*
G75*
G02*
X93400000Y78150000I0J120000D01*
G01*
G37*
D11*
X100800000Y76350000D03*
G36*
G01*
X93400000Y73590000D02*
X93400000Y74550000D01*
G75*
G02*
X93520000Y74670000I120000J0D01*
G01*
X95480000Y74670000D01*
G75*
G02*
X95600000Y74550000I0J-120000D01*
G01*
X95600000Y73590000D01*
G75*
G02*
X95480000Y73470000I-120000J0D01*
G01*
X93520000Y73470000D01*
G75*
G02*
X93400000Y73590000I0J120000D01*
G01*
G37*
G04 #@! TD*
D10*
G04 #@! TO.C,M5*
X102325000Y41362500D03*
X102325000Y40162500D03*
X102325000Y42562500D03*
X102325000Y43762500D03*
X87900000Y37302500D03*
X87900000Y36302500D03*
G04 #@! TD*
D13*
G04 #@! TO.C,M8*
X118849995Y21149996D03*
X118849995Y14749999D03*
X118849995Y12849996D03*
X118849995Y8549996D03*
D10*
X119299994Y6149999D03*
X119299994Y5149998D03*
D13*
X118849995Y2299996D03*
X103349998Y21599998D03*
X103349998Y19749999D03*
X103349998Y14799996D03*
X103349998Y2749998D03*
G04 #@! TD*
D14*
G04 #@! TO.C,M4*
X112394993Y63013329D03*
D15*
X102044999Y63063327D03*
X102545000Y63063327D03*
D16*
X109094997Y64113325D03*
X108219995Y64638325D03*
X109394999Y65388323D03*
X109319996Y68938324D03*
G04 #@! TD*
G04 #@! TO.C,Q7*
G36*
G01*
X110850000Y86200000D02*
X110850000Y87160000D01*
G75*
G02*
X110970000Y87280000I120000J0D01*
G01*
X112930000Y87280000D01*
G75*
G02*
X113050000Y87160000I0J-120000D01*
G01*
X113050000Y86200000D01*
G75*
G02*
X112930000Y86080000I-120000J0D01*
G01*
X110970000Y86080000D01*
G75*
G02*
X110850000Y86200000I0J120000D01*
G01*
G37*
D11*
X118250000Y84400000D03*
G36*
G01*
X110850000Y81640000D02*
X110850000Y82600000D01*
G75*
G02*
X110970000Y82720000I120000J0D01*
G01*
X112930000Y82720000D01*
G75*
G02*
X113050000Y82600000I0J-120000D01*
G01*
X113050000Y81640000D01*
G75*
G02*
X112930000Y81520000I-120000J0D01*
G01*
X110970000Y81520000D01*
G75*
G02*
X110850000Y81640000I0J120000D01*
G01*
G37*
G04 #@! TD*
D10*
G04 #@! TO.C,M7*
X110395000Y60794997D03*
X110395000Y59844997D03*
X110395000Y58894999D03*
X101695000Y59894997D03*
X101695000Y60794997D03*
G04 #@! TD*
G04 #@! TO.C,Q1*
G36*
G01*
X93400000Y102300000D02*
X93400000Y103260000D01*
G75*
G02*
X93520000Y103380000I120000J0D01*
G01*
X95480000Y103380000D01*
G75*
G02*
X95600000Y103260000I0J-120000D01*
G01*
X95600000Y102300000D01*
G75*
G02*
X95480000Y102180000I-120000J0D01*
G01*
X93520000Y102180000D01*
G75*
G02*
X93400000Y102300000I0J120000D01*
G01*
G37*
D11*
X100800000Y100500000D03*
G36*
G01*
X93400000Y97740000D02*
X93400000Y98700000D01*
G75*
G02*
X93520000Y98820000I120000J0D01*
G01*
X95480000Y98820000D01*
G75*
G02*
X95600000Y98700000I0J-120000D01*
G01*
X95600000Y97740000D01*
G75*
G02*
X95480000Y97620000I-120000J0D01*
G01*
X93520000Y97620000D01*
G75*
G02*
X93400000Y97740000I0J120000D01*
G01*
G37*
G04 #@! TD*
G04 #@! TO.C,Q3*
G36*
G01*
X93400000Y86200000D02*
X93400000Y87160000D01*
G75*
G02*
X93520000Y87280000I120000J0D01*
G01*
X95480000Y87280000D01*
G75*
G02*
X95600000Y87160000I0J-120000D01*
G01*
X95600000Y86200000D01*
G75*
G02*
X95480000Y86080000I-120000J0D01*
G01*
X93520000Y86080000D01*
G75*
G02*
X93400000Y86200000I0J120000D01*
G01*
G37*
X100800000Y84400000D03*
G36*
G01*
X93400000Y81640000D02*
X93400000Y82600000D01*
G75*
G02*
X93520000Y82720000I120000J0D01*
G01*
X95480000Y82720000D01*
G75*
G02*
X95600000Y82600000I0J-120000D01*
G01*
X95600000Y81640000D01*
G75*
G02*
X95480000Y81520000I-120000J0D01*
G01*
X93520000Y81520000D01*
G75*
G02*
X93400000Y81640000I0J120000D01*
G01*
G37*
G04 #@! TD*
G04 #@! TO.C,R9*
G36*
G01*
X122725000Y99260313D02*
X122725000Y100040313D01*
G75*
G02*
X122795000Y100110313I70000J0D01*
G01*
X123355000Y100110313D01*
G75*
G02*
X123425000Y100040313I0J-70000D01*
G01*
X123425000Y99260313D01*
G75*
G02*
X123355000Y99190313I-70000J0D01*
G01*
X122795000Y99190313D01*
G75*
G02*
X122725000Y99260313I0J70000D01*
G01*
G37*
G36*
G01*
X124325000Y99260313D02*
X124325000Y100040313D01*
G75*
G02*
X124395000Y100110313I70000J0D01*
G01*
X124955000Y100110313D01*
G75*
G02*
X125025000Y100040313I0J-70000D01*
G01*
X125025000Y99260313D01*
G75*
G02*
X124955000Y99190313I-70000J0D01*
G01*
X124395000Y99190313D01*
G75*
G02*
X124325000Y99260313I0J70000D01*
G01*
G37*
G04 #@! TD*
D10*
G04 #@! TO.C,M13*
X110395000Y56244994D03*
X110395000Y55294994D03*
X110395000Y54344996D03*
X101695000Y55344994D03*
X101695000Y56244994D03*
G04 #@! TD*
G04 #@! TO.C,Q5*
G36*
G01*
X110850000Y102300000D02*
X110850000Y103260000D01*
G75*
G02*
X110970000Y103380000I120000J0D01*
G01*
X112930000Y103380000D01*
G75*
G02*
X113050000Y103260000I0J-120000D01*
G01*
X113050000Y102300000D01*
G75*
G02*
X112930000Y102180000I-120000J0D01*
G01*
X110970000Y102180000D01*
G75*
G02*
X110850000Y102300000I0J120000D01*
G01*
G37*
D11*
X118250000Y100500000D03*
G36*
G01*
X110850000Y97740000D02*
X110850000Y98700000D01*
G75*
G02*
X110970000Y98820000I120000J0D01*
G01*
X112930000Y98820000D01*
G75*
G02*
X113050000Y98700000I0J-120000D01*
G01*
X113050000Y97740000D01*
G75*
G02*
X112930000Y97620000I-120000J0D01*
G01*
X110970000Y97620000D01*
G75*
G02*
X110850000Y97740000I0J120000D01*
G01*
G37*
G04 #@! TD*
G04 #@! TO.C,Q8*
G36*
G01*
X110850000Y78150000D02*
X110850000Y79110000D01*
G75*
G02*
X110970000Y79230000I120000J0D01*
G01*
X112930000Y79230000D01*
G75*
G02*
X113050000Y79110000I0J-120000D01*
G01*
X113050000Y78150000D01*
G75*
G02*
X112930000Y78030000I-120000J0D01*
G01*
X110970000Y78030000D01*
G75*
G02*
X110850000Y78150000I0J120000D01*
G01*
G37*
X118250000Y76350000D03*
G36*
G01*
X110850000Y73590000D02*
X110850000Y74550000D01*
G75*
G02*
X110970000Y74670000I120000J0D01*
G01*
X112930000Y74670000D01*
G75*
G02*
X113050000Y74550000I0J-120000D01*
G01*
X113050000Y73590000D01*
G75*
G02*
X112930000Y73470000I-120000J0D01*
G01*
X110970000Y73470000D01*
G75*
G02*
X110850000Y73590000I0J120000D01*
G01*
G37*
G04 #@! TD*
G04 #@! TO.C,R10*
G36*
G01*
X122725000Y97311267D02*
X122725000Y98091267D01*
G75*
G02*
X122795000Y98161267I70000J0D01*
G01*
X123355000Y98161267D01*
G75*
G02*
X123425000Y98091267I0J-70000D01*
G01*
X123425000Y97311267D01*
G75*
G02*
X123355000Y97241267I-70000J0D01*
G01*
X122795000Y97241267D01*
G75*
G02*
X122725000Y97311267I0J70000D01*
G01*
G37*
G36*
G01*
X124325000Y97311267D02*
X124325000Y98091267D01*
G75*
G02*
X124395000Y98161267I70000J0D01*
G01*
X124955000Y98161267D01*
G75*
G02*
X125025000Y98091267I0J-70000D01*
G01*
X125025000Y97311267D01*
G75*
G02*
X124955000Y97241267I-70000J0D01*
G01*
X124395000Y97241267D01*
G75*
G02*
X124325000Y97311267I0J70000D01*
G01*
G37*
G04 #@! TD*
G04 #@! TO.C,R4*
G36*
G01*
X105275000Y101209359D02*
X105275000Y101989359D01*
G75*
G02*
X105345000Y102059359I70000J0D01*
G01*
X105905000Y102059359D01*
G75*
G02*
X105975000Y101989359I0J-70000D01*
G01*
X105975000Y101209359D01*
G75*
G02*
X105905000Y101139359I-70000J0D01*
G01*
X105345000Y101139359D01*
G75*
G02*
X105275000Y101209359I0J70000D01*
G01*
G37*
G36*
G01*
X106875000Y101209359D02*
X106875000Y101989359D01*
G75*
G02*
X106945000Y102059359I70000J0D01*
G01*
X107505000Y102059359D01*
G75*
G02*
X107575000Y101989359I0J-70000D01*
G01*
X107575000Y101209359D01*
G75*
G02*
X107505000Y101139359I-70000J0D01*
G01*
X106945000Y101139359D01*
G75*
G02*
X106875000Y101209359I0J70000D01*
G01*
G37*
G04 #@! TD*
G04 #@! TO.C,R1*
G36*
G01*
X93125000Y53358405D02*
X93125000Y54138405D01*
G75*
G02*
X93195000Y54208405I70000J0D01*
G01*
X93755000Y54208405D01*
G75*
G02*
X93825000Y54138405I0J-70000D01*
G01*
X93825000Y53358405D01*
G75*
G02*
X93755000Y53288405I-70000J0D01*
G01*
X93195000Y53288405D01*
G75*
G02*
X93125000Y53358405I0J70000D01*
G01*
G37*
G36*
G01*
X94725000Y53358405D02*
X94725000Y54138405D01*
G75*
G02*
X94795000Y54208405I70000J0D01*
G01*
X95355000Y54208405D01*
G75*
G02*
X95425000Y54138405I0J-70000D01*
G01*
X95425000Y53358405D01*
G75*
G02*
X95355000Y53288405I-70000J0D01*
G01*
X94795000Y53288405D01*
G75*
G02*
X94725000Y53358405I0J70000D01*
G01*
G37*
G04 #@! TD*
G04 #@! TO.C,R3*
G36*
G01*
X105275000Y103158405D02*
X105275000Y103938405D01*
G75*
G02*
X105345000Y104008405I70000J0D01*
G01*
X105905000Y104008405D01*
G75*
G02*
X105975000Y103938405I0J-70000D01*
G01*
X105975000Y103158405D01*
G75*
G02*
X105905000Y103088405I-70000J0D01*
G01*
X105345000Y103088405D01*
G75*
G02*
X105275000Y103158405I0J70000D01*
G01*
G37*
G36*
G01*
X106875000Y103158405D02*
X106875000Y103938405D01*
G75*
G02*
X106945000Y104008405I70000J0D01*
G01*
X107505000Y104008405D01*
G75*
G02*
X107575000Y103938405I0J-70000D01*
G01*
X107575000Y103158405D01*
G75*
G02*
X107505000Y103088405I-70000J0D01*
G01*
X106945000Y103088405D01*
G75*
G02*
X106875000Y103158405I0J70000D01*
G01*
G37*
G04 #@! TD*
D12*
G04 #@! TO.C,F4*
X94185000Y59405000D03*
G36*
G01*
X95529990Y58505000D02*
X94839990Y58505000D01*
G75*
G02*
X94609990Y58735000I0J230000D01*
G01*
X94609990Y60075000D01*
G75*
G02*
X94839990Y60305000I230000J0D01*
G01*
X95529990Y60305000D01*
G75*
G02*
X95759990Y60075000I0J-230000D01*
G01*
X95759990Y58735000D01*
G75*
G02*
X95529990Y58505000I-230000J0D01*
G01*
G37*
G36*
G01*
X98430010Y58505000D02*
X97740010Y58505000D01*
G75*
G02*
X97510010Y58735000I0J230000D01*
G01*
X97510010Y60075000D01*
G75*
G02*
X97740010Y60305000I230000J0D01*
G01*
X98430010Y60305000D01*
G75*
G02*
X98660010Y60075000I0J-230000D01*
G01*
X98660010Y58735000D01*
G75*
G02*
X98430010Y58505000I-230000J0D01*
G01*
G37*
X99085000Y59405000D03*
G04 #@! TD*
D17*
G04 #@! TO.C,J1*
X22200000Y103600000D03*
X22200000Y57850000D03*
X22200000Y11000000D03*
D18*
X5750000Y108800000D03*
X5750000Y105600000D03*
X5750000Y102400000D03*
X5750000Y99200000D03*
X5750000Y96000000D03*
X5750000Y92800000D03*
X5750000Y89600000D03*
X10750000Y109100000D03*
X9250000Y106900000D03*
X10750000Y104700000D03*
X9250000Y102500000D03*
X10750000Y100300000D03*
X9250000Y98100000D03*
X10750000Y95900000D03*
X9250000Y93700000D03*
X10750000Y91500000D03*
X9250000Y89300000D03*
X13750000Y109100000D03*
X12250000Y106900000D03*
X13750000Y104700000D03*
X12250000Y102500000D03*
X13750000Y100300000D03*
X12250000Y98100000D03*
X13750000Y91500000D03*
X12250000Y89300000D03*
X16750000Y109100000D03*
X15250000Y106900000D03*
X16750000Y100300000D03*
X15250000Y98100000D03*
X16750000Y91500000D03*
X15250000Y89300000D03*
X5750000Y80500000D03*
X5750000Y77300000D03*
X5750000Y74100000D03*
X5750000Y70900000D03*
X5850000Y64500000D03*
X5850000Y61300000D03*
X9250000Y80800000D03*
X10750000Y78600000D03*
X9250000Y76400000D03*
X10750000Y74200000D03*
X9250000Y72000000D03*
X10750000Y69800000D03*
X9250000Y67600000D03*
X10750000Y65400000D03*
X9250000Y63200000D03*
X10750000Y61000000D03*
X13750000Y83000000D03*
X12350000Y80800000D03*
X13750000Y78600000D03*
X12250000Y76400000D03*
X13750000Y74200000D03*
X12250000Y72000000D03*
X13750000Y69800000D03*
X12250000Y67600000D03*
X13750000Y65400000D03*
X12250000Y63200000D03*
X13750000Y61000000D03*
X16750000Y83000000D03*
X15250000Y80800000D03*
X16750000Y78600000D03*
X16750000Y69800000D03*
X15250000Y67600000D03*
X16750000Y65400000D03*
X15250000Y63200000D03*
X16750000Y61000000D03*
X5750000Y54400000D03*
X5750000Y51200000D03*
X5750000Y44800000D03*
X5750000Y41600000D03*
X5750000Y38400000D03*
X5750000Y35200000D03*
X5750000Y32000000D03*
X10650000Y54700000D03*
X9250000Y52500000D03*
X10750000Y50300000D03*
X9250000Y48100000D03*
X10750000Y45900000D03*
X9250000Y43700000D03*
X10750000Y41500000D03*
X9250000Y39300000D03*
X10750000Y37100000D03*
X9250000Y34900000D03*
X10750000Y32700000D03*
X9250000Y30500000D03*
X13750000Y54700000D03*
X12250000Y52500000D03*
X13750000Y50300000D03*
X12250000Y48100000D03*
X13750000Y41500000D03*
X12250000Y39300000D03*
X13750000Y32700000D03*
X12250000Y30500000D03*
X16750000Y54700000D03*
X15250000Y52500000D03*
X16750000Y50300000D03*
X15250000Y48100000D03*
X16750000Y41500000D03*
X15250000Y39300000D03*
X16750000Y32700000D03*
X15250000Y30500000D03*
X5750000Y23900000D03*
X5750000Y20700000D03*
X5750000Y17500000D03*
X5750000Y14300000D03*
X5750000Y11100000D03*
X5750000Y7900000D03*
X5750000Y4700000D03*
X10750000Y24200000D03*
X9250000Y22000000D03*
X10750000Y19800000D03*
X9250000Y17600000D03*
X10750000Y15400000D03*
X9250000Y13200000D03*
X10750000Y11000000D03*
X9250000Y8800000D03*
X10750000Y6600000D03*
X9250000Y4400000D03*
X13750000Y24200000D03*
X12250000Y22000000D03*
X13750000Y19800000D03*
X12250000Y17600000D03*
X13750000Y15400000D03*
X12250000Y13200000D03*
X13750000Y11000000D03*
X12250000Y8800000D03*
X13750000Y6600000D03*
X12250000Y4400000D03*
X16750000Y24200000D03*
X15250000Y22000000D03*
X16750000Y19800000D03*
X15250000Y17600000D03*
X16750000Y15400000D03*
X16750000Y6600000D03*
X15250000Y4400000D03*
G04 #@! TD*
G04 #@! TO.C,Q6*
G36*
G01*
X110850000Y94250000D02*
X110850000Y95210000D01*
G75*
G02*
X110970000Y95330000I120000J0D01*
G01*
X112930000Y95330000D01*
G75*
G02*
X113050000Y95210000I0J-120000D01*
G01*
X113050000Y94250000D01*
G75*
G02*
X112930000Y94130000I-120000J0D01*
G01*
X110970000Y94130000D01*
G75*
G02*
X110850000Y94250000I0J120000D01*
G01*
G37*
D11*
X118250000Y92450000D03*
G36*
G01*
X110850000Y89690000D02*
X110850000Y90650000D01*
G75*
G02*
X110970000Y90770000I120000J0D01*
G01*
X112930000Y90770000D01*
G75*
G02*
X113050000Y90650000I0J-120000D01*
G01*
X113050000Y89690000D01*
G75*
G02*
X112930000Y89570000I-120000J0D01*
G01*
X110970000Y89570000D01*
G75*
G02*
X110850000Y89690000I0J120000D01*
G01*
G37*
G04 #@! TD*
D12*
G04 #@! TO.C,F5*
X94185000Y56285000D03*
G36*
G01*
X95529990Y55385000D02*
X94839990Y55385000D01*
G75*
G02*
X94609990Y55615000I0J230000D01*
G01*
X94609990Y56955000D01*
G75*
G02*
X94839990Y57185000I230000J0D01*
G01*
X95529990Y57185000D01*
G75*
G02*
X95759990Y56955000I0J-230000D01*
G01*
X95759990Y55615000D01*
G75*
G02*
X95529990Y55385000I-230000J0D01*
G01*
G37*
G36*
G01*
X98430010Y55385000D02*
X97740010Y55385000D01*
G75*
G02*
X97510010Y55615000I0J230000D01*
G01*
X97510010Y56955000D01*
G75*
G02*
X97740010Y57185000I230000J0D01*
G01*
X98430010Y57185000D01*
G75*
G02*
X98660010Y56955000I0J-230000D01*
G01*
X98660010Y55615000D01*
G75*
G02*
X98430010Y55385000I-230000J0D01*
G01*
G37*
X99085000Y56285000D03*
G04 #@! TD*
G04 #@! TO.C,R7*
G36*
G01*
X122725000Y103158405D02*
X122725000Y103938405D01*
G75*
G02*
X122795000Y104008405I70000J0D01*
G01*
X123355000Y104008405D01*
G75*
G02*
X123425000Y103938405I0J-70000D01*
G01*
X123425000Y103158405D01*
G75*
G02*
X123355000Y103088405I-70000J0D01*
G01*
X122795000Y103088405D01*
G75*
G02*
X122725000Y103158405I0J70000D01*
G01*
G37*
G36*
G01*
X124325000Y103158405D02*
X124325000Y103938405D01*
G75*
G02*
X124395000Y104008405I70000J0D01*
G01*
X124955000Y104008405D01*
G75*
G02*
X125025000Y103938405I0J-70000D01*
G01*
X125025000Y103158405D01*
G75*
G02*
X124955000Y103088405I-70000J0D01*
G01*
X124395000Y103088405D01*
G75*
G02*
X124325000Y103158405I0J70000D01*
G01*
G37*
G04 #@! TD*
G04 #@! TO.C,F1*
X94185000Y68765000D03*
G36*
G01*
X95529990Y67865000D02*
X94839990Y67865000D01*
G75*
G02*
X94609990Y68095000I0J230000D01*
G01*
X94609990Y69435000D01*
G75*
G02*
X94839990Y69665000I230000J0D01*
G01*
X95529990Y69665000D01*
G75*
G02*
X95759990Y69435000I0J-230000D01*
G01*
X95759990Y68095000D01*
G75*
G02*
X95529990Y67865000I-230000J0D01*
G01*
G37*
G36*
G01*
X98430010Y67865000D02*
X97740010Y67865000D01*
G75*
G02*
X97510010Y68095000I0J230000D01*
G01*
X97510010Y69435000D01*
G75*
G02*
X97740010Y69665000I230000J0D01*
G01*
X98430010Y69665000D01*
G75*
G02*
X98660010Y69435000I0J-230000D01*
G01*
X98660010Y68095000D01*
G75*
G02*
X98430010Y67865000I-230000J0D01*
G01*
G37*
X99085000Y68765000D03*
G04 #@! TD*
D13*
G04 #@! TO.C,M14*
X137099997Y21149996D03*
X137099997Y14749999D03*
X137099997Y12849996D03*
X137099997Y8549996D03*
D10*
X137549996Y6149999D03*
X137549996Y5149998D03*
D13*
X137099997Y2299996D03*
X121600000Y21599998D03*
X121600000Y19749999D03*
X121600000Y14799996D03*
X121600000Y2749998D03*
G04 #@! TD*
M02*
