G04 #@! TF.GenerationSoftware,KiCad,Pcbnew,8.0.9-8.0.9-0~ubuntu24.04.1*
G04 #@! TF.CreationDate,2025-02-19T22:05:32+00:00*
G04 #@! TF.ProjectId,rusefiSTI2004,72757365-6669-4535-9449-323030342e6b,rev?*
G04 #@! TF.SameCoordinates,Original*
G04 #@! TF.FileFunction,Legend,Top*
G04 #@! TF.FilePolarity,Positive*
%FSLAX46Y46*%
G04 Gerber Fmt 4.6, Leading zero omitted, Abs format (unit mm)*
G04 Created by KiCad (PCBNEW 8.0.9-8.0.9-0~ubuntu24.04.1) date 2025-02-19 22:05:32*
%MOMM*%
%LPD*%
G01*
G04 APERTURE LIST*
%ADD10C,0.300000*%
%ADD11C,0.170000*%
%ADD12C,0.150000*%
%ADD13C,0.127000*%
%ADD14C,0.200000*%
%ADD15C,0.203200*%
%ADD16C,0.120000*%
%ADD17C,0.100000*%
G04 APERTURE END LIST*
D10*
X55315225Y20674168D02*
X55886653Y20674168D01*
X55529510Y21174168D02*
X55529510Y19888454D01*
X55529510Y19888454D02*
X55600939Y19745596D01*
X55600939Y19745596D02*
X55743796Y19674168D01*
X55743796Y19674168D02*
X55886653Y19674168D01*
X56958082Y19745596D02*
X56815225Y19674168D01*
X56815225Y19674168D02*
X56529511Y19674168D01*
X56529511Y19674168D02*
X56386653Y19745596D01*
X56386653Y19745596D02*
X56315225Y19888454D01*
X56315225Y19888454D02*
X56315225Y20459882D01*
X56315225Y20459882D02*
X56386653Y20602739D01*
X56386653Y20602739D02*
X56529511Y20674168D01*
X56529511Y20674168D02*
X56815225Y20674168D01*
X56815225Y20674168D02*
X56958082Y20602739D01*
X56958082Y20602739D02*
X57029511Y20459882D01*
X57029511Y20459882D02*
X57029511Y20317025D01*
X57029511Y20317025D02*
X56315225Y20174168D01*
X57600939Y19745596D02*
X57743796Y19674168D01*
X57743796Y19674168D02*
X58029510Y19674168D01*
X58029510Y19674168D02*
X58172367Y19745596D01*
X58172367Y19745596D02*
X58243796Y19888454D01*
X58243796Y19888454D02*
X58243796Y19959882D01*
X58243796Y19959882D02*
X58172367Y20102739D01*
X58172367Y20102739D02*
X58029510Y20174168D01*
X58029510Y20174168D02*
X57815225Y20174168D01*
X57815225Y20174168D02*
X57672367Y20245596D01*
X57672367Y20245596D02*
X57600939Y20388454D01*
X57600939Y20388454D02*
X57600939Y20459882D01*
X57600939Y20459882D02*
X57672367Y20602739D01*
X57672367Y20602739D02*
X57815225Y20674168D01*
X57815225Y20674168D02*
X58029510Y20674168D01*
X58029510Y20674168D02*
X58172367Y20602739D01*
X58672368Y20674168D02*
X59243796Y20674168D01*
X58886653Y21174168D02*
X58886653Y19888454D01*
X58886653Y19888454D02*
X58958082Y19745596D01*
X58958082Y19745596D02*
X59100939Y19674168D01*
X59100939Y19674168D02*
X59243796Y19674168D01*
X59600939Y21174168D02*
X60529511Y21174168D01*
X60529511Y21174168D02*
X60029511Y20602739D01*
X60029511Y20602739D02*
X60243796Y20602739D01*
X60243796Y20602739D02*
X60386654Y20531311D01*
X60386654Y20531311D02*
X60458082Y20459882D01*
X60458082Y20459882D02*
X60529511Y20317025D01*
X60529511Y20317025D02*
X60529511Y19959882D01*
X60529511Y19959882D02*
X60458082Y19817025D01*
X60458082Y19817025D02*
X60386654Y19745596D01*
X60386654Y19745596D02*
X60243796Y19674168D01*
X60243796Y19674168D02*
X59815225Y19674168D01*
X59815225Y19674168D02*
X59672368Y19745596D01*
X59672368Y19745596D02*
X59600939Y19817025D01*
D11*
X105965092Y98464282D02*
X105691759Y98854758D01*
X105496521Y98464282D02*
X105496521Y99284282D01*
X105496521Y99284282D02*
X105808902Y99284282D01*
X105808902Y99284282D02*
X105886997Y99245234D01*
X105886997Y99245234D02*
X105926044Y99206187D01*
X105926044Y99206187D02*
X105965092Y99128091D01*
X105965092Y99128091D02*
X105965092Y99010949D01*
X105965092Y99010949D02*
X105926044Y98932853D01*
X105926044Y98932853D02*
X105886997Y98893806D01*
X105886997Y98893806D02*
X105808902Y98854758D01*
X105808902Y98854758D02*
X105496521Y98854758D01*
X106667949Y99284282D02*
X106511759Y99284282D01*
X106511759Y99284282D02*
X106433663Y99245234D01*
X106433663Y99245234D02*
X106394616Y99206187D01*
X106394616Y99206187D02*
X106316521Y99089044D01*
X106316521Y99089044D02*
X106277473Y98932853D01*
X106277473Y98932853D02*
X106277473Y98620472D01*
X106277473Y98620472D02*
X106316521Y98542377D01*
X106316521Y98542377D02*
X106355568Y98503329D01*
X106355568Y98503329D02*
X106433663Y98464282D01*
X106433663Y98464282D02*
X106589854Y98464282D01*
X106589854Y98464282D02*
X106667949Y98503329D01*
X106667949Y98503329D02*
X106706997Y98542377D01*
X106706997Y98542377D02*
X106746044Y98620472D01*
X106746044Y98620472D02*
X106746044Y98815710D01*
X106746044Y98815710D02*
X106706997Y98893806D01*
X106706997Y98893806D02*
X106667949Y98932853D01*
X106667949Y98932853D02*
X106589854Y98971901D01*
X106589854Y98971901D02*
X106433663Y98971901D01*
X106433663Y98971901D02*
X106355568Y98932853D01*
X106355568Y98932853D02*
X106316521Y98893806D01*
X106316521Y98893806D02*
X106277473Y98815710D01*
D12*
X98604761Y96399943D02*
X98509523Y96447562D01*
X98509523Y96447562D02*
X98414285Y96542800D01*
X98414285Y96542800D02*
X98271428Y96685658D01*
X98271428Y96685658D02*
X98176190Y96733277D01*
X98176190Y96733277D02*
X98080952Y96733277D01*
X98128571Y96495181D02*
X98033333Y96542800D01*
X98033333Y96542800D02*
X97938095Y96638039D01*
X97938095Y96638039D02*
X97890476Y96828515D01*
X97890476Y96828515D02*
X97890476Y97161848D01*
X97890476Y97161848D02*
X97938095Y97352324D01*
X97938095Y97352324D02*
X98033333Y97447562D01*
X98033333Y97447562D02*
X98128571Y97495181D01*
X98128571Y97495181D02*
X98319047Y97495181D01*
X98319047Y97495181D02*
X98414285Y97447562D01*
X98414285Y97447562D02*
X98509523Y97352324D01*
X98509523Y97352324D02*
X98557142Y97161848D01*
X98557142Y97161848D02*
X98557142Y96828515D01*
X98557142Y96828515D02*
X98509523Y96638039D01*
X98509523Y96638039D02*
X98414285Y96542800D01*
X98414285Y96542800D02*
X98319047Y96495181D01*
X98319047Y96495181D02*
X98128571Y96495181D01*
X98938095Y97399943D02*
X98985714Y97447562D01*
X98985714Y97447562D02*
X99080952Y97495181D01*
X99080952Y97495181D02*
X99319047Y97495181D01*
X99319047Y97495181D02*
X99414285Y97447562D01*
X99414285Y97447562D02*
X99461904Y97399943D01*
X99461904Y97399943D02*
X99509523Y97304705D01*
X99509523Y97304705D02*
X99509523Y97209467D01*
X99509523Y97209467D02*
X99461904Y97066610D01*
X99461904Y97066610D02*
X98890476Y96495181D01*
X98890476Y96495181D02*
X99509523Y96495181D01*
D13*
X92581768Y65391001D02*
X92581768Y65137001D01*
X92980911Y65137001D02*
X92218911Y65137001D01*
X92218911Y65137001D02*
X92218911Y65499858D01*
X92291483Y65753858D02*
X92255197Y65790144D01*
X92255197Y65790144D02*
X92218911Y65862715D01*
X92218911Y65862715D02*
X92218911Y66044144D01*
X92218911Y66044144D02*
X92255197Y66116715D01*
X92255197Y66116715D02*
X92291483Y66153001D01*
X92291483Y66153001D02*
X92364054Y66189287D01*
X92364054Y66189287D02*
X92436626Y66189287D01*
X92436626Y66189287D02*
X92545483Y66153001D01*
X92545483Y66153001D02*
X92980911Y65717573D01*
X92980911Y65717573D02*
X92980911Y66189287D01*
D11*
X123415092Y102362374D02*
X123141759Y102752850D01*
X122946521Y102362374D02*
X122946521Y103182374D01*
X122946521Y103182374D02*
X123258902Y103182374D01*
X123258902Y103182374D02*
X123336997Y103143326D01*
X123336997Y103143326D02*
X123376044Y103104279D01*
X123376044Y103104279D02*
X123415092Y103026183D01*
X123415092Y103026183D02*
X123415092Y102909041D01*
X123415092Y102909041D02*
X123376044Y102830945D01*
X123376044Y102830945D02*
X123336997Y102791898D01*
X123336997Y102791898D02*
X123258902Y102752850D01*
X123258902Y102752850D02*
X122946521Y102752850D01*
X123883663Y102830945D02*
X123805568Y102869993D01*
X123805568Y102869993D02*
X123766521Y102909041D01*
X123766521Y102909041D02*
X123727473Y102987136D01*
X123727473Y102987136D02*
X123727473Y103026183D01*
X123727473Y103026183D02*
X123766521Y103104279D01*
X123766521Y103104279D02*
X123805568Y103143326D01*
X123805568Y103143326D02*
X123883663Y103182374D01*
X123883663Y103182374D02*
X124039854Y103182374D01*
X124039854Y103182374D02*
X124117949Y103143326D01*
X124117949Y103143326D02*
X124156997Y103104279D01*
X124156997Y103104279D02*
X124196044Y103026183D01*
X124196044Y103026183D02*
X124196044Y102987136D01*
X124196044Y102987136D02*
X124156997Y102909041D01*
X124156997Y102909041D02*
X124117949Y102869993D01*
X124117949Y102869993D02*
X124039854Y102830945D01*
X124039854Y102830945D02*
X123883663Y102830945D01*
X123883663Y102830945D02*
X123805568Y102791898D01*
X123805568Y102791898D02*
X123766521Y102752850D01*
X123766521Y102752850D02*
X123727473Y102674755D01*
X123727473Y102674755D02*
X123727473Y102518564D01*
X123727473Y102518564D02*
X123766521Y102440469D01*
X123766521Y102440469D02*
X123805568Y102401421D01*
X123805568Y102401421D02*
X123883663Y102362374D01*
X123883663Y102362374D02*
X124039854Y102362374D01*
X124039854Y102362374D02*
X124117949Y102401421D01*
X124117949Y102401421D02*
X124156997Y102440469D01*
X124156997Y102440469D02*
X124196044Y102518564D01*
X124196044Y102518564D02*
X124196044Y102674755D01*
X124196044Y102674755D02*
X124156997Y102752850D01*
X124156997Y102752850D02*
X124117949Y102791898D01*
X124117949Y102791898D02*
X124039854Y102830945D01*
X93815092Y52562374D02*
X93541759Y52952850D01*
X93346521Y52562374D02*
X93346521Y53382374D01*
X93346521Y53382374D02*
X93658902Y53382374D01*
X93658902Y53382374D02*
X93736997Y53343326D01*
X93736997Y53343326D02*
X93776044Y53304279D01*
X93776044Y53304279D02*
X93815092Y53226183D01*
X93815092Y53226183D02*
X93815092Y53109041D01*
X93815092Y53109041D02*
X93776044Y53030945D01*
X93776044Y53030945D02*
X93736997Y52991898D01*
X93736997Y52991898D02*
X93658902Y52952850D01*
X93658902Y52952850D02*
X93346521Y52952850D01*
X94127473Y53304279D02*
X94166521Y53343326D01*
X94166521Y53343326D02*
X94244616Y53382374D01*
X94244616Y53382374D02*
X94439854Y53382374D01*
X94439854Y53382374D02*
X94517949Y53343326D01*
X94517949Y53343326D02*
X94556997Y53304279D01*
X94556997Y53304279D02*
X94596044Y53226183D01*
X94596044Y53226183D02*
X94596044Y53148088D01*
X94596044Y53148088D02*
X94556997Y53030945D01*
X94556997Y53030945D02*
X94088425Y52562374D01*
X94088425Y52562374D02*
X94596044Y52562374D01*
D13*
X92581768Y62271001D02*
X92581768Y62017001D01*
X92980911Y62017001D02*
X92218911Y62017001D01*
X92218911Y62017001D02*
X92218911Y62379858D01*
X92218911Y62597573D02*
X92218911Y63069287D01*
X92218911Y63069287D02*
X92509197Y62815287D01*
X92509197Y62815287D02*
X92509197Y62924144D01*
X92509197Y62924144D02*
X92545483Y62996715D01*
X92545483Y62996715D02*
X92581768Y63033001D01*
X92581768Y63033001D02*
X92654340Y63069287D01*
X92654340Y63069287D02*
X92835768Y63069287D01*
X92835768Y63069287D02*
X92908340Y63033001D01*
X92908340Y63033001D02*
X92944626Y62996715D01*
X92944626Y62996715D02*
X92980911Y62924144D01*
X92980911Y62924144D02*
X92980911Y62706430D01*
X92980911Y62706430D02*
X92944626Y62633858D01*
X92944626Y62633858D02*
X92908340Y62597573D01*
D11*
X105965092Y100413328D02*
X105691759Y100803804D01*
X105496521Y100413328D02*
X105496521Y101233328D01*
X105496521Y101233328D02*
X105808902Y101233328D01*
X105808902Y101233328D02*
X105886997Y101194280D01*
X105886997Y101194280D02*
X105926044Y101155233D01*
X105926044Y101155233D02*
X105965092Y101077137D01*
X105965092Y101077137D02*
X105965092Y100959995D01*
X105965092Y100959995D02*
X105926044Y100881899D01*
X105926044Y100881899D02*
X105886997Y100842852D01*
X105886997Y100842852D02*
X105808902Y100803804D01*
X105808902Y100803804D02*
X105496521Y100803804D01*
X106706997Y101233328D02*
X106316521Y101233328D01*
X106316521Y101233328D02*
X106277473Y100842852D01*
X106277473Y100842852D02*
X106316521Y100881899D01*
X106316521Y100881899D02*
X106394616Y100920947D01*
X106394616Y100920947D02*
X106589854Y100920947D01*
X106589854Y100920947D02*
X106667949Y100881899D01*
X106667949Y100881899D02*
X106706997Y100842852D01*
X106706997Y100842852D02*
X106746044Y100764756D01*
X106746044Y100764756D02*
X106746044Y100569518D01*
X106746044Y100569518D02*
X106706997Y100491423D01*
X106706997Y100491423D02*
X106667949Y100452375D01*
X106667949Y100452375D02*
X106589854Y100413328D01*
X106589854Y100413328D02*
X106394616Y100413328D01*
X106394616Y100413328D02*
X106316521Y100452375D01*
X106316521Y100452375D02*
X106277473Y100491423D01*
D12*
X98604761Y80299943D02*
X98509523Y80347562D01*
X98509523Y80347562D02*
X98414285Y80442800D01*
X98414285Y80442800D02*
X98271428Y80585658D01*
X98271428Y80585658D02*
X98176190Y80633277D01*
X98176190Y80633277D02*
X98080952Y80633277D01*
X98128571Y80395181D02*
X98033333Y80442800D01*
X98033333Y80442800D02*
X97938095Y80538039D01*
X97938095Y80538039D02*
X97890476Y80728515D01*
X97890476Y80728515D02*
X97890476Y81061848D01*
X97890476Y81061848D02*
X97938095Y81252324D01*
X97938095Y81252324D02*
X98033333Y81347562D01*
X98033333Y81347562D02*
X98128571Y81395181D01*
X98128571Y81395181D02*
X98319047Y81395181D01*
X98319047Y81395181D02*
X98414285Y81347562D01*
X98414285Y81347562D02*
X98509523Y81252324D01*
X98509523Y81252324D02*
X98557142Y81061848D01*
X98557142Y81061848D02*
X98557142Y80728515D01*
X98557142Y80728515D02*
X98509523Y80538039D01*
X98509523Y80538039D02*
X98414285Y80442800D01*
X98414285Y80442800D02*
X98319047Y80395181D01*
X98319047Y80395181D02*
X98128571Y80395181D01*
X99414285Y81061848D02*
X99414285Y80395181D01*
X99176190Y81442800D02*
X98938095Y80728515D01*
X98938095Y80728515D02*
X99557142Y80728515D01*
X116054761Y88349943D02*
X115959523Y88397562D01*
X115959523Y88397562D02*
X115864285Y88492800D01*
X115864285Y88492800D02*
X115721428Y88635658D01*
X115721428Y88635658D02*
X115626190Y88683277D01*
X115626190Y88683277D02*
X115530952Y88683277D01*
X115578571Y88445181D02*
X115483333Y88492800D01*
X115483333Y88492800D02*
X115388095Y88588039D01*
X115388095Y88588039D02*
X115340476Y88778515D01*
X115340476Y88778515D02*
X115340476Y89111848D01*
X115340476Y89111848D02*
X115388095Y89302324D01*
X115388095Y89302324D02*
X115483333Y89397562D01*
X115483333Y89397562D02*
X115578571Y89445181D01*
X115578571Y89445181D02*
X115769047Y89445181D01*
X115769047Y89445181D02*
X115864285Y89397562D01*
X115864285Y89397562D02*
X115959523Y89302324D01*
X115959523Y89302324D02*
X116007142Y89111848D01*
X116007142Y89111848D02*
X116007142Y88778515D01*
X116007142Y88778515D02*
X115959523Y88588039D01*
X115959523Y88588039D02*
X115864285Y88492800D01*
X115864285Y88492800D02*
X115769047Y88445181D01*
X115769047Y88445181D02*
X115578571Y88445181D01*
X116340476Y89445181D02*
X117007142Y89445181D01*
X117007142Y89445181D02*
X116578571Y88445181D01*
X101536741Y62314426D02*
X101536741Y62914426D01*
X101536741Y62914426D02*
X101736741Y62485855D01*
X101736741Y62485855D02*
X101936741Y62914426D01*
X101936741Y62914426D02*
X101936741Y62314426D01*
X102165312Y62914426D02*
X102565312Y62914426D01*
X102565312Y62914426D02*
X102308169Y62314426D01*
X98604761Y104449943D02*
X98509523Y104497562D01*
X98509523Y104497562D02*
X98414285Y104592800D01*
X98414285Y104592800D02*
X98271428Y104735658D01*
X98271428Y104735658D02*
X98176190Y104783277D01*
X98176190Y104783277D02*
X98080952Y104783277D01*
X98128571Y104545181D02*
X98033333Y104592800D01*
X98033333Y104592800D02*
X97938095Y104688039D01*
X97938095Y104688039D02*
X97890476Y104878515D01*
X97890476Y104878515D02*
X97890476Y105211848D01*
X97890476Y105211848D02*
X97938095Y105402324D01*
X97938095Y105402324D02*
X98033333Y105497562D01*
X98033333Y105497562D02*
X98128571Y105545181D01*
X98128571Y105545181D02*
X98319047Y105545181D01*
X98319047Y105545181D02*
X98414285Y105497562D01*
X98414285Y105497562D02*
X98509523Y105402324D01*
X98509523Y105402324D02*
X98557142Y105211848D01*
X98557142Y105211848D02*
X98557142Y104878515D01*
X98557142Y104878515D02*
X98509523Y104688039D01*
X98509523Y104688039D02*
X98414285Y104592800D01*
X98414285Y104592800D02*
X98319047Y104545181D01*
X98319047Y104545181D02*
X98128571Y104545181D01*
X99509523Y104545181D02*
X98938095Y104545181D01*
X99223809Y104545181D02*
X99223809Y105545181D01*
X99223809Y105545181D02*
X99128571Y105402324D01*
X99128571Y105402324D02*
X99033333Y105307086D01*
X99033333Y105307086D02*
X98938095Y105259467D01*
X98604761Y88349943D02*
X98509523Y88397562D01*
X98509523Y88397562D02*
X98414285Y88492800D01*
X98414285Y88492800D02*
X98271428Y88635658D01*
X98271428Y88635658D02*
X98176190Y88683277D01*
X98176190Y88683277D02*
X98080952Y88683277D01*
X98128571Y88445181D02*
X98033333Y88492800D01*
X98033333Y88492800D02*
X97938095Y88588039D01*
X97938095Y88588039D02*
X97890476Y88778515D01*
X97890476Y88778515D02*
X97890476Y89111848D01*
X97890476Y89111848D02*
X97938095Y89302324D01*
X97938095Y89302324D02*
X98033333Y89397562D01*
X98033333Y89397562D02*
X98128571Y89445181D01*
X98128571Y89445181D02*
X98319047Y89445181D01*
X98319047Y89445181D02*
X98414285Y89397562D01*
X98414285Y89397562D02*
X98509523Y89302324D01*
X98509523Y89302324D02*
X98557142Y89111848D01*
X98557142Y89111848D02*
X98557142Y88778515D01*
X98557142Y88778515D02*
X98509523Y88588039D01*
X98509523Y88588039D02*
X98414285Y88492800D01*
X98414285Y88492800D02*
X98319047Y88445181D01*
X98319047Y88445181D02*
X98128571Y88445181D01*
X98890476Y89445181D02*
X99509523Y89445181D01*
X99509523Y89445181D02*
X99176190Y89064229D01*
X99176190Y89064229D02*
X99319047Y89064229D01*
X99319047Y89064229D02*
X99414285Y89016610D01*
X99414285Y89016610D02*
X99461904Y88968991D01*
X99461904Y88968991D02*
X99509523Y88873753D01*
X99509523Y88873753D02*
X99509523Y88635658D01*
X99509523Y88635658D02*
X99461904Y88540420D01*
X99461904Y88540420D02*
X99414285Y88492800D01*
X99414285Y88492800D02*
X99319047Y88445181D01*
X99319047Y88445181D02*
X99033333Y88445181D01*
X99033333Y88445181D02*
X98938095Y88492800D01*
X98938095Y88492800D02*
X98890476Y88540420D01*
D11*
X123415092Y100413328D02*
X123141759Y100803804D01*
X122946521Y100413328D02*
X122946521Y101233328D01*
X122946521Y101233328D02*
X123258902Y101233328D01*
X123258902Y101233328D02*
X123336997Y101194280D01*
X123336997Y101194280D02*
X123376044Y101155233D01*
X123376044Y101155233D02*
X123415092Y101077137D01*
X123415092Y101077137D02*
X123415092Y100959995D01*
X123415092Y100959995D02*
X123376044Y100881899D01*
X123376044Y100881899D02*
X123336997Y100842852D01*
X123336997Y100842852D02*
X123258902Y100803804D01*
X123258902Y100803804D02*
X122946521Y100803804D01*
X123805568Y100413328D02*
X123961759Y100413328D01*
X123961759Y100413328D02*
X124039854Y100452375D01*
X124039854Y100452375D02*
X124078902Y100491423D01*
X124078902Y100491423D02*
X124156997Y100608566D01*
X124156997Y100608566D02*
X124196044Y100764756D01*
X124196044Y100764756D02*
X124196044Y101077137D01*
X124196044Y101077137D02*
X124156997Y101155233D01*
X124156997Y101155233D02*
X124117949Y101194280D01*
X124117949Y101194280D02*
X124039854Y101233328D01*
X124039854Y101233328D02*
X123883663Y101233328D01*
X123883663Y101233328D02*
X123805568Y101194280D01*
X123805568Y101194280D02*
X123766521Y101155233D01*
X123766521Y101155233D02*
X123727473Y101077137D01*
X123727473Y101077137D02*
X123727473Y100881899D01*
X123727473Y100881899D02*
X123766521Y100803804D01*
X123766521Y100803804D02*
X123805568Y100764756D01*
X123805568Y100764756D02*
X123883663Y100725709D01*
X123883663Y100725709D02*
X124039854Y100725709D01*
X124039854Y100725709D02*
X124117949Y100764756D01*
X124117949Y100764756D02*
X124156997Y100803804D01*
X124156997Y100803804D02*
X124196044Y100881899D01*
D12*
X101536741Y57764423D02*
X101536741Y58364423D01*
X101536741Y58364423D02*
X101736741Y57935852D01*
X101736741Y57935852D02*
X101936741Y58364423D01*
X101936741Y58364423D02*
X101936741Y57764423D01*
X102536740Y57764423D02*
X102193883Y57764423D01*
X102365312Y57764423D02*
X102365312Y58364423D01*
X102365312Y58364423D02*
X102308169Y58278709D01*
X102308169Y58278709D02*
X102251026Y58221566D01*
X102251026Y58221566D02*
X102193883Y58192994D01*
X102736741Y58364423D02*
X103108169Y58364423D01*
X103108169Y58364423D02*
X102908169Y58135852D01*
X102908169Y58135852D02*
X102993884Y58135852D01*
X102993884Y58135852D02*
X103051027Y58107280D01*
X103051027Y58107280D02*
X103079598Y58078709D01*
X103079598Y58078709D02*
X103108169Y58021566D01*
X103108169Y58021566D02*
X103108169Y57878709D01*
X103108169Y57878709D02*
X103079598Y57821566D01*
X103079598Y57821566D02*
X103051027Y57792994D01*
X103051027Y57792994D02*
X102993884Y57764423D01*
X102993884Y57764423D02*
X102822455Y57764423D01*
X102822455Y57764423D02*
X102765312Y57792994D01*
X102765312Y57792994D02*
X102736741Y57821566D01*
X116054761Y104449943D02*
X115959523Y104497562D01*
X115959523Y104497562D02*
X115864285Y104592800D01*
X115864285Y104592800D02*
X115721428Y104735658D01*
X115721428Y104735658D02*
X115626190Y104783277D01*
X115626190Y104783277D02*
X115530952Y104783277D01*
X115578571Y104545181D02*
X115483333Y104592800D01*
X115483333Y104592800D02*
X115388095Y104688039D01*
X115388095Y104688039D02*
X115340476Y104878515D01*
X115340476Y104878515D02*
X115340476Y105211848D01*
X115340476Y105211848D02*
X115388095Y105402324D01*
X115388095Y105402324D02*
X115483333Y105497562D01*
X115483333Y105497562D02*
X115578571Y105545181D01*
X115578571Y105545181D02*
X115769047Y105545181D01*
X115769047Y105545181D02*
X115864285Y105497562D01*
X115864285Y105497562D02*
X115959523Y105402324D01*
X115959523Y105402324D02*
X116007142Y105211848D01*
X116007142Y105211848D02*
X116007142Y104878515D01*
X116007142Y104878515D02*
X115959523Y104688039D01*
X115959523Y104688039D02*
X115864285Y104592800D01*
X115864285Y104592800D02*
X115769047Y104545181D01*
X115769047Y104545181D02*
X115578571Y104545181D01*
X116911904Y105545181D02*
X116435714Y105545181D01*
X116435714Y105545181D02*
X116388095Y105068991D01*
X116388095Y105068991D02*
X116435714Y105116610D01*
X116435714Y105116610D02*
X116530952Y105164229D01*
X116530952Y105164229D02*
X116769047Y105164229D01*
X116769047Y105164229D02*
X116864285Y105116610D01*
X116864285Y105116610D02*
X116911904Y105068991D01*
X116911904Y105068991D02*
X116959523Y104973753D01*
X116959523Y104973753D02*
X116959523Y104735658D01*
X116959523Y104735658D02*
X116911904Y104640420D01*
X116911904Y104640420D02*
X116864285Y104592800D01*
X116864285Y104592800D02*
X116769047Y104545181D01*
X116769047Y104545181D02*
X116530952Y104545181D01*
X116530952Y104545181D02*
X116435714Y104592800D01*
X116435714Y104592800D02*
X116388095Y104640420D01*
X116054761Y80299943D02*
X115959523Y80347562D01*
X115959523Y80347562D02*
X115864285Y80442800D01*
X115864285Y80442800D02*
X115721428Y80585658D01*
X115721428Y80585658D02*
X115626190Y80633277D01*
X115626190Y80633277D02*
X115530952Y80633277D01*
X115578571Y80395181D02*
X115483333Y80442800D01*
X115483333Y80442800D02*
X115388095Y80538039D01*
X115388095Y80538039D02*
X115340476Y80728515D01*
X115340476Y80728515D02*
X115340476Y81061848D01*
X115340476Y81061848D02*
X115388095Y81252324D01*
X115388095Y81252324D02*
X115483333Y81347562D01*
X115483333Y81347562D02*
X115578571Y81395181D01*
X115578571Y81395181D02*
X115769047Y81395181D01*
X115769047Y81395181D02*
X115864285Y81347562D01*
X115864285Y81347562D02*
X115959523Y81252324D01*
X115959523Y81252324D02*
X116007142Y81061848D01*
X116007142Y81061848D02*
X116007142Y80728515D01*
X116007142Y80728515D02*
X115959523Y80538039D01*
X115959523Y80538039D02*
X115864285Y80442800D01*
X115864285Y80442800D02*
X115769047Y80395181D01*
X115769047Y80395181D02*
X115578571Y80395181D01*
X116578571Y80966610D02*
X116483333Y81014229D01*
X116483333Y81014229D02*
X116435714Y81061848D01*
X116435714Y81061848D02*
X116388095Y81157086D01*
X116388095Y81157086D02*
X116388095Y81204705D01*
X116388095Y81204705D02*
X116435714Y81299943D01*
X116435714Y81299943D02*
X116483333Y81347562D01*
X116483333Y81347562D02*
X116578571Y81395181D01*
X116578571Y81395181D02*
X116769047Y81395181D01*
X116769047Y81395181D02*
X116864285Y81347562D01*
X116864285Y81347562D02*
X116911904Y81299943D01*
X116911904Y81299943D02*
X116959523Y81204705D01*
X116959523Y81204705D02*
X116959523Y81157086D01*
X116959523Y81157086D02*
X116911904Y81061848D01*
X116911904Y81061848D02*
X116864285Y81014229D01*
X116864285Y81014229D02*
X116769047Y80966610D01*
X116769047Y80966610D02*
X116578571Y80966610D01*
X116578571Y80966610D02*
X116483333Y80918991D01*
X116483333Y80918991D02*
X116435714Y80871372D01*
X116435714Y80871372D02*
X116388095Y80776134D01*
X116388095Y80776134D02*
X116388095Y80585658D01*
X116388095Y80585658D02*
X116435714Y80490420D01*
X116435714Y80490420D02*
X116483333Y80442800D01*
X116483333Y80442800D02*
X116578571Y80395181D01*
X116578571Y80395181D02*
X116769047Y80395181D01*
X116769047Y80395181D02*
X116864285Y80442800D01*
X116864285Y80442800D02*
X116911904Y80490420D01*
X116911904Y80490420D02*
X116959523Y80585658D01*
X116959523Y80585658D02*
X116959523Y80776134D01*
X116959523Y80776134D02*
X116911904Y80871372D01*
X116911904Y80871372D02*
X116864285Y80918991D01*
X116864285Y80918991D02*
X116769047Y80966610D01*
D11*
X123415092Y98464282D02*
X123141759Y98854758D01*
X122946521Y98464282D02*
X122946521Y99284282D01*
X122946521Y99284282D02*
X123258902Y99284282D01*
X123258902Y99284282D02*
X123336997Y99245234D01*
X123336997Y99245234D02*
X123376044Y99206187D01*
X123376044Y99206187D02*
X123415092Y99128091D01*
X123415092Y99128091D02*
X123415092Y99010949D01*
X123415092Y99010949D02*
X123376044Y98932853D01*
X123376044Y98932853D02*
X123336997Y98893806D01*
X123336997Y98893806D02*
X123258902Y98854758D01*
X123258902Y98854758D02*
X122946521Y98854758D01*
X124196044Y98464282D02*
X123727473Y98464282D01*
X123961759Y98464282D02*
X123961759Y99284282D01*
X123961759Y99284282D02*
X123883663Y99167139D01*
X123883663Y99167139D02*
X123805568Y99089044D01*
X123805568Y99089044D02*
X123727473Y99049996D01*
X124703663Y99284282D02*
X124781758Y99284282D01*
X124781758Y99284282D02*
X124859854Y99245234D01*
X124859854Y99245234D02*
X124898901Y99206187D01*
X124898901Y99206187D02*
X124937949Y99128091D01*
X124937949Y99128091D02*
X124976996Y98971901D01*
X124976996Y98971901D02*
X124976996Y98776663D01*
X124976996Y98776663D02*
X124937949Y98620472D01*
X124937949Y98620472D02*
X124898901Y98542377D01*
X124898901Y98542377D02*
X124859854Y98503329D01*
X124859854Y98503329D02*
X124781758Y98464282D01*
X124781758Y98464282D02*
X124703663Y98464282D01*
X124703663Y98464282D02*
X124625568Y98503329D01*
X124625568Y98503329D02*
X124586520Y98542377D01*
X124586520Y98542377D02*
X124547473Y98620472D01*
X124547473Y98620472D02*
X124508425Y98776663D01*
X124508425Y98776663D02*
X124508425Y98971901D01*
X124508425Y98971901D02*
X124547473Y99128091D01*
X124547473Y99128091D02*
X124586520Y99206187D01*
X124586520Y99206187D02*
X124625568Y99245234D01*
X124625568Y99245234D02*
X124703663Y99284282D01*
X105965092Y102362374D02*
X105691759Y102752850D01*
X105496521Y102362374D02*
X105496521Y103182374D01*
X105496521Y103182374D02*
X105808902Y103182374D01*
X105808902Y103182374D02*
X105886997Y103143326D01*
X105886997Y103143326D02*
X105926044Y103104279D01*
X105926044Y103104279D02*
X105965092Y103026183D01*
X105965092Y103026183D02*
X105965092Y102909041D01*
X105965092Y102909041D02*
X105926044Y102830945D01*
X105926044Y102830945D02*
X105886997Y102791898D01*
X105886997Y102791898D02*
X105808902Y102752850D01*
X105808902Y102752850D02*
X105496521Y102752850D01*
X106667949Y102909041D02*
X106667949Y102362374D01*
X106472711Y103221421D02*
X106277473Y102635707D01*
X106277473Y102635707D02*
X106785092Y102635707D01*
X93815092Y54511420D02*
X93541759Y54901896D01*
X93346521Y54511420D02*
X93346521Y55331420D01*
X93346521Y55331420D02*
X93658902Y55331420D01*
X93658902Y55331420D02*
X93736997Y55292372D01*
X93736997Y55292372D02*
X93776044Y55253325D01*
X93776044Y55253325D02*
X93815092Y55175229D01*
X93815092Y55175229D02*
X93815092Y55058087D01*
X93815092Y55058087D02*
X93776044Y54979991D01*
X93776044Y54979991D02*
X93736997Y54940944D01*
X93736997Y54940944D02*
X93658902Y54901896D01*
X93658902Y54901896D02*
X93346521Y54901896D01*
X94596044Y54511420D02*
X94127473Y54511420D01*
X94361759Y54511420D02*
X94361759Y55331420D01*
X94361759Y55331420D02*
X94283663Y55214277D01*
X94283663Y55214277D02*
X94205568Y55136182D01*
X94205568Y55136182D02*
X94127473Y55097134D01*
X105965092Y104311420D02*
X105691759Y104701896D01*
X105496521Y104311420D02*
X105496521Y105131420D01*
X105496521Y105131420D02*
X105808902Y105131420D01*
X105808902Y105131420D02*
X105886997Y105092372D01*
X105886997Y105092372D02*
X105926044Y105053325D01*
X105926044Y105053325D02*
X105965092Y104975229D01*
X105965092Y104975229D02*
X105965092Y104858087D01*
X105965092Y104858087D02*
X105926044Y104779991D01*
X105926044Y104779991D02*
X105886997Y104740944D01*
X105886997Y104740944D02*
X105808902Y104701896D01*
X105808902Y104701896D02*
X105496521Y104701896D01*
X106238425Y105131420D02*
X106746044Y105131420D01*
X106746044Y105131420D02*
X106472711Y104819039D01*
X106472711Y104819039D02*
X106589854Y104819039D01*
X106589854Y104819039D02*
X106667949Y104779991D01*
X106667949Y104779991D02*
X106706997Y104740944D01*
X106706997Y104740944D02*
X106746044Y104662848D01*
X106746044Y104662848D02*
X106746044Y104467610D01*
X106746044Y104467610D02*
X106706997Y104389515D01*
X106706997Y104389515D02*
X106667949Y104350467D01*
X106667949Y104350467D02*
X106589854Y104311420D01*
X106589854Y104311420D02*
X106355568Y104311420D01*
X106355568Y104311420D02*
X106277473Y104350467D01*
X106277473Y104350467D02*
X106238425Y104389515D01*
D13*
X92581768Y59151001D02*
X92581768Y58897001D01*
X92980911Y58897001D02*
X92218911Y58897001D01*
X92218911Y58897001D02*
X92218911Y59259858D01*
X92472911Y59876715D02*
X92980911Y59876715D01*
X92182626Y59695287D02*
X92726911Y59513858D01*
X92726911Y59513858D02*
X92726911Y59985573D01*
D12*
X21641666Y95620177D02*
X21641666Y94905892D01*
X21641666Y94905892D02*
X21594047Y94763035D01*
X21594047Y94763035D02*
X21498809Y94667796D01*
X21498809Y94667796D02*
X21355952Y94620177D01*
X21355952Y94620177D02*
X21260714Y94620177D01*
X22641666Y94620177D02*
X22070238Y94620177D01*
X22355952Y94620177D02*
X22355952Y95620177D01*
X22355952Y95620177D02*
X22260714Y95477320D01*
X22260714Y95477320D02*
X22165476Y95382082D01*
X22165476Y95382082D02*
X22070238Y95334463D01*
X14196140Y59317143D02*
X13859422Y58980425D01*
X13859422Y58980425D02*
X14162468Y58610036D01*
X14162468Y58610036D02*
X14162468Y58677380D01*
X14162468Y58677380D02*
X14196140Y58778395D01*
X14196140Y58778395D02*
X14364498Y58946754D01*
X14364498Y58946754D02*
X14465514Y58980425D01*
X14465514Y58980425D02*
X14532857Y58980425D01*
X14532857Y58980425D02*
X14633872Y58946754D01*
X14633872Y58946754D02*
X14802231Y58778395D01*
X14802231Y58778395D02*
X14835903Y58677380D01*
X14835903Y58677380D02*
X14835903Y58610036D01*
X14835903Y58610036D02*
X14802231Y58509021D01*
X14802231Y58509021D02*
X14633872Y58340662D01*
X14633872Y58340662D02*
X14532857Y58306990D01*
X14532857Y58306990D02*
X14465514Y58306990D01*
X14936918Y59451830D02*
X14835903Y59418158D01*
X14835903Y59418158D02*
X14768559Y59418158D01*
X14768559Y59418158D02*
X14667544Y59451830D01*
X14667544Y59451830D02*
X14633872Y59485502D01*
X14633872Y59485502D02*
X14600201Y59586517D01*
X14600201Y59586517D02*
X14600201Y59653860D01*
X14600201Y59653860D02*
X14633872Y59754876D01*
X14633872Y59754876D02*
X14768559Y59889563D01*
X14768559Y59889563D02*
X14869575Y59923234D01*
X14869575Y59923234D02*
X14936918Y59923234D01*
X14936918Y59923234D02*
X15037933Y59889563D01*
X15037933Y59889563D02*
X15071605Y59855891D01*
X15071605Y59855891D02*
X15105277Y59754876D01*
X15105277Y59754876D02*
X15105277Y59687532D01*
X15105277Y59687532D02*
X15071605Y59586517D01*
X15071605Y59586517D02*
X14936918Y59451830D01*
X14936918Y59451830D02*
X14903246Y59350815D01*
X14903246Y59350815D02*
X14903246Y59283471D01*
X14903246Y59283471D02*
X14936918Y59182456D01*
X14936918Y59182456D02*
X15071605Y59047769D01*
X15071605Y59047769D02*
X15172620Y59014097D01*
X15172620Y59014097D02*
X15239964Y59014097D01*
X15239964Y59014097D02*
X15340979Y59047769D01*
X15340979Y59047769D02*
X15475666Y59182456D01*
X15475666Y59182456D02*
X15509338Y59283471D01*
X15509338Y59283471D02*
X15509338Y59350815D01*
X15509338Y59350815D02*
X15475666Y59451830D01*
X15475666Y59451830D02*
X15340979Y59586517D01*
X15340979Y59586517D02*
X15239964Y59620189D01*
X15239964Y59620189D02*
X15172620Y59620189D01*
X15172620Y59620189D02*
X15071605Y59586517D01*
X12398170Y84847769D02*
X12869575Y84376364D01*
X11960437Y84948784D02*
X12297155Y84275349D01*
X12297155Y84275349D02*
X12734888Y84713082D01*
X12936918Y85251830D02*
X12835903Y85218158D01*
X12835903Y85218158D02*
X12768559Y85218158D01*
X12768559Y85218158D02*
X12667544Y85251830D01*
X12667544Y85251830D02*
X12633872Y85285502D01*
X12633872Y85285502D02*
X12600201Y85386517D01*
X12600201Y85386517D02*
X12600201Y85453860D01*
X12600201Y85453860D02*
X12633872Y85554876D01*
X12633872Y85554876D02*
X12768559Y85689563D01*
X12768559Y85689563D02*
X12869575Y85723234D01*
X12869575Y85723234D02*
X12936918Y85723234D01*
X12936918Y85723234D02*
X13037933Y85689563D01*
X13037933Y85689563D02*
X13071605Y85655891D01*
X13071605Y85655891D02*
X13105277Y85554876D01*
X13105277Y85554876D02*
X13105277Y85487532D01*
X13105277Y85487532D02*
X13071605Y85386517D01*
X13071605Y85386517D02*
X12936918Y85251830D01*
X12936918Y85251830D02*
X12903246Y85150815D01*
X12903246Y85150815D02*
X12903246Y85083471D01*
X12903246Y85083471D02*
X12936918Y84982456D01*
X12936918Y84982456D02*
X13071605Y84847769D01*
X13071605Y84847769D02*
X13172620Y84814097D01*
X13172620Y84814097D02*
X13239964Y84814097D01*
X13239964Y84814097D02*
X13340979Y84847769D01*
X13340979Y84847769D02*
X13475666Y84982456D01*
X13475666Y84982456D02*
X13509338Y85083471D01*
X13509338Y85083471D02*
X13509338Y85150815D01*
X13509338Y85150815D02*
X13475666Y85251830D01*
X13475666Y85251830D02*
X13340979Y85386517D01*
X13340979Y85386517D02*
X13239964Y85420189D01*
X13239964Y85420189D02*
X13172620Y85420189D01*
X13172620Y85420189D02*
X13071605Y85386517D01*
X14793094Y110879410D02*
X14793094Y110946754D01*
X14793094Y110946754D02*
X14826766Y111047769D01*
X14826766Y111047769D02*
X14995124Y111216128D01*
X14995124Y111216128D02*
X15096140Y111249799D01*
X15096140Y111249799D02*
X15163483Y111249799D01*
X15163483Y111249799D02*
X15264498Y111216128D01*
X15264498Y111216128D02*
X15331842Y111148784D01*
X15331842Y111148784D02*
X15399185Y111014097D01*
X15399185Y111014097D02*
X15399185Y110205975D01*
X15399185Y110205975D02*
X15836918Y110643708D01*
X15735903Y111956906D02*
X15601216Y111822219D01*
X15601216Y111822219D02*
X15567544Y111721204D01*
X15567544Y111721204D02*
X15567544Y111653860D01*
X15567544Y111653860D02*
X15601216Y111485502D01*
X15601216Y111485502D02*
X15702231Y111317143D01*
X15702231Y111317143D02*
X15971605Y111047769D01*
X15971605Y111047769D02*
X16072620Y111014097D01*
X16072620Y111014097D02*
X16139964Y111014097D01*
X16139964Y111014097D02*
X16240979Y111047769D01*
X16240979Y111047769D02*
X16375666Y111182456D01*
X16375666Y111182456D02*
X16409338Y111283471D01*
X16409338Y111283471D02*
X16409338Y111350815D01*
X16409338Y111350815D02*
X16375666Y111451830D01*
X16375666Y111451830D02*
X16207307Y111620189D01*
X16207307Y111620189D02*
X16106292Y111653860D01*
X16106292Y111653860D02*
X16038949Y111653860D01*
X16038949Y111653860D02*
X15937933Y111620189D01*
X15937933Y111620189D02*
X15803246Y111485502D01*
X15803246Y111485502D02*
X15769575Y111384486D01*
X15769575Y111384486D02*
X15769575Y111317143D01*
X15769575Y111317143D02*
X15803246Y111216128D01*
X12936918Y110643708D02*
X12532857Y110239647D01*
X12734888Y110441677D02*
X12027781Y111148784D01*
X12027781Y111148784D02*
X12061453Y110980425D01*
X12061453Y110980425D02*
X12061453Y110845738D01*
X12061453Y110845738D02*
X12027781Y110744723D01*
X12936918Y111451830D02*
X12835903Y111418158D01*
X12835903Y111418158D02*
X12768559Y111418158D01*
X12768559Y111418158D02*
X12667544Y111451830D01*
X12667544Y111451830D02*
X12633872Y111485502D01*
X12633872Y111485502D02*
X12600201Y111586517D01*
X12600201Y111586517D02*
X12600201Y111653860D01*
X12600201Y111653860D02*
X12633872Y111754876D01*
X12633872Y111754876D02*
X12768559Y111889563D01*
X12768559Y111889563D02*
X12869575Y111923234D01*
X12869575Y111923234D02*
X12936918Y111923234D01*
X12936918Y111923234D02*
X13037933Y111889563D01*
X13037933Y111889563D02*
X13071605Y111855891D01*
X13071605Y111855891D02*
X13105277Y111754876D01*
X13105277Y111754876D02*
X13105277Y111687532D01*
X13105277Y111687532D02*
X13071605Y111586517D01*
X13071605Y111586517D02*
X12936918Y111451830D01*
X12936918Y111451830D02*
X12903246Y111350815D01*
X12903246Y111350815D02*
X12903246Y111283471D01*
X12903246Y111283471D02*
X12936918Y111182456D01*
X12936918Y111182456D02*
X13071605Y111047769D01*
X13071605Y111047769D02*
X13172620Y111014097D01*
X13172620Y111014097D02*
X13239964Y111014097D01*
X13239964Y111014097D02*
X13340979Y111047769D01*
X13340979Y111047769D02*
X13475666Y111182456D01*
X13475666Y111182456D02*
X13509338Y111283471D01*
X13509338Y111283471D02*
X13509338Y111350815D01*
X13509338Y111350815D02*
X13475666Y111451830D01*
X13475666Y111451830D02*
X13340979Y111586517D01*
X13340979Y111586517D02*
X13239964Y111620189D01*
X13239964Y111620189D02*
X13172620Y111620189D01*
X13172620Y111620189D02*
X13071605Y111586517D01*
X4040476Y93345181D02*
X3850000Y93345181D01*
X3850000Y93345181D02*
X3754762Y93297562D01*
X3754762Y93297562D02*
X3707143Y93249943D01*
X3707143Y93249943D02*
X3611905Y93107086D01*
X3611905Y93107086D02*
X3564286Y92916610D01*
X3564286Y92916610D02*
X3564286Y92535658D01*
X3564286Y92535658D02*
X3611905Y92440420D01*
X3611905Y92440420D02*
X3659524Y92392800D01*
X3659524Y92392800D02*
X3754762Y92345181D01*
X3754762Y92345181D02*
X3945238Y92345181D01*
X3945238Y92345181D02*
X4040476Y92392800D01*
X4040476Y92392800D02*
X4088095Y92440420D01*
X4088095Y92440420D02*
X4135714Y92535658D01*
X4135714Y92535658D02*
X4135714Y92773753D01*
X4135714Y92773753D02*
X4088095Y92868991D01*
X4088095Y92868991D02*
X4040476Y92916610D01*
X4040476Y92916610D02*
X3945238Y92964229D01*
X3945238Y92964229D02*
X3754762Y92964229D01*
X3754762Y92964229D02*
X3659524Y92916610D01*
X3659524Y92916610D02*
X3611905Y92868991D01*
X3611905Y92868991D02*
X3564286Y92773753D01*
X3416667Y102945181D02*
X4035714Y102945181D01*
X4035714Y102945181D02*
X3702381Y102564229D01*
X3702381Y102564229D02*
X3845238Y102564229D01*
X3845238Y102564229D02*
X3940476Y102516610D01*
X3940476Y102516610D02*
X3988095Y102468991D01*
X3988095Y102468991D02*
X4035714Y102373753D01*
X4035714Y102373753D02*
X4035714Y102135658D01*
X4035714Y102135658D02*
X3988095Y102040420D01*
X3988095Y102040420D02*
X3940476Y101992800D01*
X3940476Y101992800D02*
X3845238Y101945181D01*
X3845238Y101945181D02*
X3559524Y101945181D01*
X3559524Y101945181D02*
X3464286Y101992800D01*
X3464286Y101992800D02*
X3416667Y102040420D01*
X9600201Y111015113D02*
X9499186Y110981441D01*
X9499186Y110981441D02*
X9431842Y110981441D01*
X9431842Y110981441D02*
X9330827Y111015113D01*
X9330827Y111015113D02*
X9297155Y111048784D01*
X9297155Y111048784D02*
X9263483Y111149800D01*
X9263483Y111149800D02*
X9263483Y111217143D01*
X9263483Y111217143D02*
X9297155Y111318158D01*
X9297155Y111318158D02*
X9431842Y111452845D01*
X9431842Y111452845D02*
X9532857Y111486517D01*
X9532857Y111486517D02*
X9600201Y111486517D01*
X9600201Y111486517D02*
X9701216Y111452845D01*
X9701216Y111452845D02*
X9734888Y111419174D01*
X9734888Y111419174D02*
X9768560Y111318158D01*
X9768560Y111318158D02*
X9768560Y111250815D01*
X9768560Y111250815D02*
X9734888Y111149800D01*
X9734888Y111149800D02*
X9600201Y111015113D01*
X9600201Y111015113D02*
X9566529Y110914097D01*
X9566529Y110914097D02*
X9566529Y110846754D01*
X9566529Y110846754D02*
X9600201Y110745739D01*
X9600201Y110745739D02*
X9734888Y110611052D01*
X9734888Y110611052D02*
X9835903Y110577380D01*
X9835903Y110577380D02*
X9903247Y110577380D01*
X9903247Y110577380D02*
X10004262Y110611052D01*
X10004262Y110611052D02*
X10138949Y110745739D01*
X10138949Y110745739D02*
X10172621Y110846754D01*
X10172621Y110846754D02*
X10172621Y110914097D01*
X10172621Y110914097D02*
X10138949Y111015113D01*
X10138949Y111015113D02*
X10004262Y111149800D01*
X10004262Y111149800D02*
X9903247Y111183471D01*
X9903247Y111183471D02*
X9835903Y111183471D01*
X9835903Y111183471D02*
X9734888Y111149800D01*
X2964285Y45345181D02*
X2773809Y45345181D01*
X2773809Y45345181D02*
X2678571Y45297562D01*
X2678571Y45297562D02*
X2630952Y45249943D01*
X2630952Y45249943D02*
X2535714Y45107086D01*
X2535714Y45107086D02*
X2488095Y44916610D01*
X2488095Y44916610D02*
X2488095Y44535658D01*
X2488095Y44535658D02*
X2535714Y44440420D01*
X2535714Y44440420D02*
X2583333Y44392800D01*
X2583333Y44392800D02*
X2678571Y44345181D01*
X2678571Y44345181D02*
X2869047Y44345181D01*
X2869047Y44345181D02*
X2964285Y44392800D01*
X2964285Y44392800D02*
X3011904Y44440420D01*
X3011904Y44440420D02*
X3059523Y44535658D01*
X3059523Y44535658D02*
X3059523Y44773753D01*
X3059523Y44773753D02*
X3011904Y44868991D01*
X3011904Y44868991D02*
X2964285Y44916610D01*
X2964285Y44916610D02*
X2869047Y44964229D01*
X2869047Y44964229D02*
X2678571Y44964229D01*
X2678571Y44964229D02*
X2583333Y44916610D01*
X2583333Y44916610D02*
X2535714Y44868991D01*
X2535714Y44868991D02*
X2488095Y44773753D01*
X3535714Y44345181D02*
X3726190Y44345181D01*
X3726190Y44345181D02*
X3821428Y44392800D01*
X3821428Y44392800D02*
X3869047Y44440420D01*
X3869047Y44440420D02*
X3964285Y44583277D01*
X3964285Y44583277D02*
X4011904Y44773753D01*
X4011904Y44773753D02*
X4011904Y45154705D01*
X4011904Y45154705D02*
X3964285Y45249943D01*
X3964285Y45249943D02*
X3916666Y45297562D01*
X3916666Y45297562D02*
X3821428Y45345181D01*
X3821428Y45345181D02*
X3630952Y45345181D01*
X3630952Y45345181D02*
X3535714Y45297562D01*
X3535714Y45297562D02*
X3488095Y45249943D01*
X3488095Y45249943D02*
X3440476Y45154705D01*
X3440476Y45154705D02*
X3440476Y44916610D01*
X3440476Y44916610D02*
X3488095Y44821372D01*
X3488095Y44821372D02*
X3535714Y44773753D01*
X3535714Y44773753D02*
X3630952Y44726134D01*
X3630952Y44726134D02*
X3821428Y44726134D01*
X3821428Y44726134D02*
X3916666Y44773753D01*
X3916666Y44773753D02*
X3964285Y44821372D01*
X3964285Y44821372D02*
X4011904Y44916610D01*
X9600201Y25106991D02*
X9196140Y24702930D01*
X9398170Y24904960D02*
X8691064Y25612067D01*
X8691064Y25612067D02*
X8724735Y25443708D01*
X8724735Y25443708D02*
X8724735Y25309021D01*
X8724735Y25309021D02*
X8691064Y25208006D01*
X9330827Y26251830D02*
X9398170Y26319174D01*
X9398170Y26319174D02*
X9499186Y26352845D01*
X9499186Y26352845D02*
X9566529Y26352845D01*
X9566529Y26352845D02*
X9667544Y26319174D01*
X9667544Y26319174D02*
X9835903Y26218158D01*
X9835903Y26218158D02*
X10004262Y26049800D01*
X10004262Y26049800D02*
X10105277Y25881441D01*
X10105277Y25881441D02*
X10138949Y25780426D01*
X10138949Y25780426D02*
X10138949Y25713082D01*
X10138949Y25713082D02*
X10105277Y25612067D01*
X10105277Y25612067D02*
X10037934Y25544723D01*
X10037934Y25544723D02*
X9936918Y25511052D01*
X9936918Y25511052D02*
X9869575Y25511052D01*
X9869575Y25511052D02*
X9768560Y25544723D01*
X9768560Y25544723D02*
X9600201Y25645739D01*
X9600201Y25645739D02*
X9431842Y25814097D01*
X9431842Y25814097D02*
X9330827Y25982456D01*
X9330827Y25982456D02*
X9297155Y26083471D01*
X9297155Y26083471D02*
X9297155Y26150815D01*
X9297155Y26150815D02*
X9330827Y26251830D01*
X10610354Y26117143D02*
X10745041Y26251830D01*
X10745041Y26251830D02*
X10778712Y26352846D01*
X10778712Y26352846D02*
X10778712Y26420189D01*
X10778712Y26420189D02*
X10745041Y26588548D01*
X10745041Y26588548D02*
X10644025Y26756907D01*
X10644025Y26756907D02*
X10374651Y27026281D01*
X10374651Y27026281D02*
X10273636Y27059952D01*
X10273636Y27059952D02*
X10206293Y27059952D01*
X10206293Y27059952D02*
X10105277Y27026281D01*
X10105277Y27026281D02*
X9970590Y26891594D01*
X9970590Y26891594D02*
X9936918Y26790578D01*
X9936918Y26790578D02*
X9936918Y26723235D01*
X9936918Y26723235D02*
X9970590Y26622220D01*
X9970590Y26622220D02*
X10138949Y26453861D01*
X10138949Y26453861D02*
X10239964Y26420189D01*
X10239964Y26420189D02*
X10307308Y26420189D01*
X10307308Y26420189D02*
X10408323Y26453861D01*
X10408323Y26453861D02*
X10543010Y26588548D01*
X10543010Y26588548D02*
X10576682Y26689563D01*
X10576682Y26689563D02*
X10576682Y26756907D01*
X10576682Y26756907D02*
X10543010Y26857922D01*
X2440476Y38945181D02*
X3107142Y38945181D01*
X3107142Y38945181D02*
X2678571Y37945181D01*
X4011904Y37945181D02*
X3440476Y37945181D01*
X3726190Y37945181D02*
X3726190Y38945181D01*
X3726190Y38945181D02*
X3630952Y38802324D01*
X3630952Y38802324D02*
X3535714Y38707086D01*
X3535714Y38707086D02*
X3440476Y38659467D01*
X16500201Y28106991D02*
X16096140Y27702930D01*
X16298170Y27904960D02*
X15591064Y28612067D01*
X15591064Y28612067D02*
X15624735Y28443708D01*
X15624735Y28443708D02*
X15624735Y28309021D01*
X15624735Y28309021D02*
X15591064Y28208006D01*
X16230827Y29251830D02*
X16298170Y29319174D01*
X16298170Y29319174D02*
X16399186Y29352845D01*
X16399186Y29352845D02*
X16466529Y29352845D01*
X16466529Y29352845D02*
X16567544Y29319174D01*
X16567544Y29319174D02*
X16735903Y29218158D01*
X16735903Y29218158D02*
X16904262Y29049800D01*
X16904262Y29049800D02*
X17005277Y28881441D01*
X17005277Y28881441D02*
X17038949Y28780426D01*
X17038949Y28780426D02*
X17038949Y28713082D01*
X17038949Y28713082D02*
X17005277Y28612067D01*
X17005277Y28612067D02*
X16937934Y28544723D01*
X16937934Y28544723D02*
X16836918Y28511052D01*
X16836918Y28511052D02*
X16769575Y28511052D01*
X16769575Y28511052D02*
X16668560Y28544723D01*
X16668560Y28544723D02*
X16500201Y28645739D01*
X16500201Y28645739D02*
X16331842Y28814097D01*
X16331842Y28814097D02*
X16230827Y28982456D01*
X16230827Y28982456D02*
X16197155Y29083471D01*
X16197155Y29083471D02*
X16197155Y29150815D01*
X16197155Y29150815D02*
X16230827Y29251830D01*
X17847071Y29453861D02*
X17443010Y29049800D01*
X17645041Y29251830D02*
X16937934Y29958937D01*
X16937934Y29958937D02*
X16971606Y29790578D01*
X16971606Y29790578D02*
X16971606Y29655891D01*
X16971606Y29655891D02*
X16937934Y29554876D01*
X2340476Y74645181D02*
X2959523Y74645181D01*
X2959523Y74645181D02*
X2626190Y74264229D01*
X2626190Y74264229D02*
X2769047Y74264229D01*
X2769047Y74264229D02*
X2864285Y74216610D01*
X2864285Y74216610D02*
X2911904Y74168991D01*
X2911904Y74168991D02*
X2959523Y74073753D01*
X2959523Y74073753D02*
X2959523Y73835658D01*
X2959523Y73835658D02*
X2911904Y73740420D01*
X2911904Y73740420D02*
X2864285Y73692800D01*
X2864285Y73692800D02*
X2769047Y73645181D01*
X2769047Y73645181D02*
X2483333Y73645181D01*
X2483333Y73645181D02*
X2388095Y73692800D01*
X2388095Y73692800D02*
X2340476Y73740420D01*
X3816666Y74311848D02*
X3816666Y73645181D01*
X3578571Y74692800D02*
X3340476Y73978515D01*
X3340476Y73978515D02*
X3959523Y73978515D01*
X2083333Y17045181D02*
X1511905Y17045181D01*
X1797619Y17045181D02*
X1797619Y18045181D01*
X1797619Y18045181D02*
X1702381Y17902324D01*
X1702381Y17902324D02*
X1607143Y17807086D01*
X1607143Y17807086D02*
X1511905Y17759467D01*
X2702381Y18045181D02*
X2797619Y18045181D01*
X2797619Y18045181D02*
X2892857Y17997562D01*
X2892857Y17997562D02*
X2940476Y17949943D01*
X2940476Y17949943D02*
X2988095Y17854705D01*
X2988095Y17854705D02*
X3035714Y17664229D01*
X3035714Y17664229D02*
X3035714Y17426134D01*
X3035714Y17426134D02*
X2988095Y17235658D01*
X2988095Y17235658D02*
X2940476Y17140420D01*
X2940476Y17140420D02*
X2892857Y17092800D01*
X2892857Y17092800D02*
X2797619Y17045181D01*
X2797619Y17045181D02*
X2702381Y17045181D01*
X2702381Y17045181D02*
X2607143Y17092800D01*
X2607143Y17092800D02*
X2559524Y17140420D01*
X2559524Y17140420D02*
X2511905Y17235658D01*
X2511905Y17235658D02*
X2464286Y17426134D01*
X2464286Y17426134D02*
X2464286Y17664229D01*
X2464286Y17664229D02*
X2511905Y17854705D01*
X2511905Y17854705D02*
X2559524Y17949943D01*
X2559524Y17949943D02*
X2607143Y17997562D01*
X2607143Y17997562D02*
X2702381Y18045181D01*
X3892857Y17711848D02*
X3892857Y17045181D01*
X3654762Y18092800D02*
X3416667Y17378515D01*
X3416667Y17378515D02*
X4035714Y17378515D01*
X2440476Y42145181D02*
X3107142Y42145181D01*
X3107142Y42145181D02*
X2678571Y41145181D01*
X3678571Y42145181D02*
X3773809Y42145181D01*
X3773809Y42145181D02*
X3869047Y42097562D01*
X3869047Y42097562D02*
X3916666Y42049943D01*
X3916666Y42049943D02*
X3964285Y41954705D01*
X3964285Y41954705D02*
X4011904Y41764229D01*
X4011904Y41764229D02*
X4011904Y41526134D01*
X4011904Y41526134D02*
X3964285Y41335658D01*
X3964285Y41335658D02*
X3916666Y41240420D01*
X3916666Y41240420D02*
X3869047Y41192800D01*
X3869047Y41192800D02*
X3773809Y41145181D01*
X3773809Y41145181D02*
X3678571Y41145181D01*
X3678571Y41145181D02*
X3583333Y41192800D01*
X3583333Y41192800D02*
X3535714Y41240420D01*
X3535714Y41240420D02*
X3488095Y41335658D01*
X3488095Y41335658D02*
X3440476Y41526134D01*
X3440476Y41526134D02*
X3440476Y41764229D01*
X3440476Y41764229D02*
X3488095Y41954705D01*
X3488095Y41954705D02*
X3535714Y42049943D01*
X3535714Y42049943D02*
X3583333Y42097562D01*
X3583333Y42097562D02*
X3678571Y42145181D01*
X2083333Y20245181D02*
X1511905Y20245181D01*
X1797619Y20245181D02*
X1797619Y21245181D01*
X1797619Y21245181D02*
X1702381Y21102324D01*
X1702381Y21102324D02*
X1607143Y21007086D01*
X1607143Y21007086D02*
X1511905Y20959467D01*
X2702381Y21245181D02*
X2797619Y21245181D01*
X2797619Y21245181D02*
X2892857Y21197562D01*
X2892857Y21197562D02*
X2940476Y21149943D01*
X2940476Y21149943D02*
X2988095Y21054705D01*
X2988095Y21054705D02*
X3035714Y20864229D01*
X3035714Y20864229D02*
X3035714Y20626134D01*
X3035714Y20626134D02*
X2988095Y20435658D01*
X2988095Y20435658D02*
X2940476Y20340420D01*
X2940476Y20340420D02*
X2892857Y20292800D01*
X2892857Y20292800D02*
X2797619Y20245181D01*
X2797619Y20245181D02*
X2702381Y20245181D01*
X2702381Y20245181D02*
X2607143Y20292800D01*
X2607143Y20292800D02*
X2559524Y20340420D01*
X2559524Y20340420D02*
X2511905Y20435658D01*
X2511905Y20435658D02*
X2464286Y20626134D01*
X2464286Y20626134D02*
X2464286Y20864229D01*
X2464286Y20864229D02*
X2511905Y21054705D01*
X2511905Y21054705D02*
X2559524Y21149943D01*
X2559524Y21149943D02*
X2607143Y21197562D01*
X2607143Y21197562D02*
X2702381Y21245181D01*
X3369048Y21245181D02*
X3988095Y21245181D01*
X3988095Y21245181D02*
X3654762Y20864229D01*
X3654762Y20864229D02*
X3797619Y20864229D01*
X3797619Y20864229D02*
X3892857Y20816610D01*
X3892857Y20816610D02*
X3940476Y20768991D01*
X3940476Y20768991D02*
X3988095Y20673753D01*
X3988095Y20673753D02*
X3988095Y20435658D01*
X3988095Y20435658D02*
X3940476Y20340420D01*
X3940476Y20340420D02*
X3892857Y20292800D01*
X3892857Y20292800D02*
X3797619Y20245181D01*
X3797619Y20245181D02*
X3511905Y20245181D01*
X3511905Y20245181D02*
X3416667Y20292800D01*
X3416667Y20292800D02*
X3369048Y20340420D01*
X11100201Y806991D02*
X10696140Y402930D01*
X10898170Y604960D02*
X10191064Y1312067D01*
X10191064Y1312067D02*
X10224735Y1143708D01*
X10224735Y1143708D02*
X10224735Y1009021D01*
X10224735Y1009021D02*
X10191064Y908006D01*
X10729812Y1716128D02*
X10729812Y1783471D01*
X10729812Y1783471D02*
X10763483Y1884487D01*
X10763483Y1884487D02*
X10931842Y2052845D01*
X10931842Y2052845D02*
X11032857Y2086517D01*
X11032857Y2086517D02*
X11100201Y2086517D01*
X11100201Y2086517D02*
X11201216Y2052845D01*
X11201216Y2052845D02*
X11268560Y1985502D01*
X11268560Y1985502D02*
X11335903Y1850815D01*
X11335903Y1850815D02*
X11335903Y1042693D01*
X11335903Y1042693D02*
X11773636Y1480426D01*
X11773636Y2288548D02*
X11672621Y2254876D01*
X11672621Y2254876D02*
X11605277Y2254876D01*
X11605277Y2254876D02*
X11504262Y2288548D01*
X11504262Y2288548D02*
X11470590Y2322220D01*
X11470590Y2322220D02*
X11436918Y2423235D01*
X11436918Y2423235D02*
X11436918Y2490578D01*
X11436918Y2490578D02*
X11470590Y2591594D01*
X11470590Y2591594D02*
X11605277Y2726281D01*
X11605277Y2726281D02*
X11706293Y2759952D01*
X11706293Y2759952D02*
X11773636Y2759952D01*
X11773636Y2759952D02*
X11874651Y2726281D01*
X11874651Y2726281D02*
X11908323Y2692609D01*
X11908323Y2692609D02*
X11941995Y2591594D01*
X11941995Y2591594D02*
X11941995Y2524250D01*
X11941995Y2524250D02*
X11908323Y2423235D01*
X11908323Y2423235D02*
X11773636Y2288548D01*
X11773636Y2288548D02*
X11739964Y2187533D01*
X11739964Y2187533D02*
X11739964Y2120189D01*
X11739964Y2120189D02*
X11773636Y2019174D01*
X11773636Y2019174D02*
X11908323Y1884487D01*
X11908323Y1884487D02*
X12009338Y1850815D01*
X12009338Y1850815D02*
X12076682Y1850815D01*
X12076682Y1850815D02*
X12177697Y1884487D01*
X12177697Y1884487D02*
X12312384Y2019174D01*
X12312384Y2019174D02*
X12346056Y2120189D01*
X12346056Y2120189D02*
X12346056Y2187533D01*
X12346056Y2187533D02*
X12312384Y2288548D01*
X12312384Y2288548D02*
X12177697Y2423235D01*
X12177697Y2423235D02*
X12076682Y2456907D01*
X12076682Y2456907D02*
X12009338Y2456907D01*
X12009338Y2456907D02*
X11908323Y2423235D01*
X2340476Y61845181D02*
X2959523Y61845181D01*
X2959523Y61845181D02*
X2626190Y61464229D01*
X2626190Y61464229D02*
X2769047Y61464229D01*
X2769047Y61464229D02*
X2864285Y61416610D01*
X2864285Y61416610D02*
X2911904Y61368991D01*
X2911904Y61368991D02*
X2959523Y61273753D01*
X2959523Y61273753D02*
X2959523Y61035658D01*
X2959523Y61035658D02*
X2911904Y60940420D01*
X2911904Y60940420D02*
X2864285Y60892800D01*
X2864285Y60892800D02*
X2769047Y60845181D01*
X2769047Y60845181D02*
X2483333Y60845181D01*
X2483333Y60845181D02*
X2388095Y60892800D01*
X2388095Y60892800D02*
X2340476Y60940420D01*
X3292857Y61845181D02*
X3959523Y61845181D01*
X3959523Y61845181D02*
X3530952Y60845181D01*
X2340476Y71445181D02*
X2959523Y71445181D01*
X2959523Y71445181D02*
X2626190Y71064229D01*
X2626190Y71064229D02*
X2769047Y71064229D01*
X2769047Y71064229D02*
X2864285Y71016610D01*
X2864285Y71016610D02*
X2911904Y70968991D01*
X2911904Y70968991D02*
X2959523Y70873753D01*
X2959523Y70873753D02*
X2959523Y70635658D01*
X2959523Y70635658D02*
X2911904Y70540420D01*
X2911904Y70540420D02*
X2864285Y70492800D01*
X2864285Y70492800D02*
X2769047Y70445181D01*
X2769047Y70445181D02*
X2483333Y70445181D01*
X2483333Y70445181D02*
X2388095Y70492800D01*
X2388095Y70492800D02*
X2340476Y70540420D01*
X3864285Y71445181D02*
X3388095Y71445181D01*
X3388095Y71445181D02*
X3340476Y70968991D01*
X3340476Y70968991D02*
X3388095Y71016610D01*
X3388095Y71016610D02*
X3483333Y71064229D01*
X3483333Y71064229D02*
X3721428Y71064229D01*
X3721428Y71064229D02*
X3816666Y71016610D01*
X3816666Y71016610D02*
X3864285Y70968991D01*
X3864285Y70968991D02*
X3911904Y70873753D01*
X3911904Y70873753D02*
X3911904Y70635658D01*
X3911904Y70635658D02*
X3864285Y70540420D01*
X3864285Y70540420D02*
X3816666Y70492800D01*
X3816666Y70492800D02*
X3721428Y70445181D01*
X3721428Y70445181D02*
X3483333Y70445181D01*
X3483333Y70445181D02*
X3388095Y70492800D01*
X3388095Y70492800D02*
X3340476Y70540420D01*
X3516667Y90045181D02*
X4183333Y90045181D01*
X4183333Y90045181D02*
X3754762Y89045181D01*
X12393094Y86979410D02*
X12393094Y87046754D01*
X12393094Y87046754D02*
X12426766Y87147769D01*
X12426766Y87147769D02*
X12595124Y87316128D01*
X12595124Y87316128D02*
X12696140Y87349799D01*
X12696140Y87349799D02*
X12763483Y87349799D01*
X12763483Y87349799D02*
X12864498Y87316128D01*
X12864498Y87316128D02*
X12931842Y87248784D01*
X12931842Y87248784D02*
X12999185Y87114097D01*
X12999185Y87114097D02*
X12999185Y86305975D01*
X12999185Y86305975D02*
X13436918Y86743708D01*
X13369575Y88090578D02*
X13032857Y87753860D01*
X13032857Y87753860D02*
X13335903Y87383471D01*
X13335903Y87383471D02*
X13335903Y87450815D01*
X13335903Y87450815D02*
X13369575Y87551830D01*
X13369575Y87551830D02*
X13537933Y87720189D01*
X13537933Y87720189D02*
X13638949Y87753860D01*
X13638949Y87753860D02*
X13706292Y87753860D01*
X13706292Y87753860D02*
X13807307Y87720189D01*
X13807307Y87720189D02*
X13975666Y87551830D01*
X13975666Y87551830D02*
X14009338Y87450815D01*
X14009338Y87450815D02*
X14009338Y87383471D01*
X14009338Y87383471D02*
X13975666Y87282456D01*
X13975666Y87282456D02*
X13807307Y87114097D01*
X13807307Y87114097D02*
X13706292Y87080425D01*
X13706292Y87080425D02*
X13638949Y87080425D01*
X11398170Y59047769D02*
X11869575Y58576364D01*
X10960437Y59148784D02*
X11297155Y58475349D01*
X11297155Y58475349D02*
X11734888Y58913082D01*
X11465514Y59586517D02*
X11936918Y60057921D01*
X11936918Y60057921D02*
X12340979Y59047769D01*
X10263483Y28178395D02*
X10162468Y28144723D01*
X10162468Y28144723D02*
X10095124Y28144723D01*
X10095124Y28144723D02*
X9994109Y28178395D01*
X9994109Y28178395D02*
X9960437Y28212067D01*
X9960437Y28212067D02*
X9926766Y28313082D01*
X9926766Y28313082D02*
X9926766Y28380425D01*
X9926766Y28380425D02*
X9960437Y28481441D01*
X9960437Y28481441D02*
X10095124Y28616128D01*
X10095124Y28616128D02*
X10196140Y28649799D01*
X10196140Y28649799D02*
X10263483Y28649799D01*
X10263483Y28649799D02*
X10364498Y28616128D01*
X10364498Y28616128D02*
X10398170Y28582456D01*
X10398170Y28582456D02*
X10431842Y28481441D01*
X10431842Y28481441D02*
X10431842Y28414097D01*
X10431842Y28414097D02*
X10398170Y28313082D01*
X10398170Y28313082D02*
X10263483Y28178395D01*
X10263483Y28178395D02*
X10229811Y28077380D01*
X10229811Y28077380D02*
X10229811Y28010036D01*
X10229811Y28010036D02*
X10263483Y27909021D01*
X10263483Y27909021D02*
X10398170Y27774334D01*
X10398170Y27774334D02*
X10499185Y27740662D01*
X10499185Y27740662D02*
X10566529Y27740662D01*
X10566529Y27740662D02*
X10667544Y27774334D01*
X10667544Y27774334D02*
X10802231Y27909021D01*
X10802231Y27909021D02*
X10835903Y28010036D01*
X10835903Y28010036D02*
X10835903Y28077380D01*
X10835903Y28077380D02*
X10802231Y28178395D01*
X10802231Y28178395D02*
X10667544Y28313082D01*
X10667544Y28313082D02*
X10566529Y28346754D01*
X10566529Y28346754D02*
X10499185Y28346754D01*
X10499185Y28346754D02*
X10398170Y28313082D01*
X10869575Y29390578D02*
X10532857Y29053860D01*
X10532857Y29053860D02*
X10835903Y28683471D01*
X10835903Y28683471D02*
X10835903Y28750815D01*
X10835903Y28750815D02*
X10869575Y28851830D01*
X10869575Y28851830D02*
X11037933Y29020189D01*
X11037933Y29020189D02*
X11138949Y29053860D01*
X11138949Y29053860D02*
X11206292Y29053860D01*
X11206292Y29053860D02*
X11307307Y29020189D01*
X11307307Y29020189D02*
X11475666Y28851830D01*
X11475666Y28851830D02*
X11509338Y28750815D01*
X11509338Y28750815D02*
X11509338Y28683471D01*
X11509338Y28683471D02*
X11475666Y28582456D01*
X11475666Y28582456D02*
X11307307Y28414097D01*
X11307307Y28414097D02*
X11206292Y28380425D01*
X11206292Y28380425D02*
X11138949Y28380425D01*
X15196140Y85217143D02*
X14859422Y84880425D01*
X14859422Y84880425D02*
X15162468Y84510036D01*
X15162468Y84510036D02*
X15162468Y84577380D01*
X15162468Y84577380D02*
X15196140Y84678395D01*
X15196140Y84678395D02*
X15364498Y84846754D01*
X15364498Y84846754D02*
X15465514Y84880425D01*
X15465514Y84880425D02*
X15532857Y84880425D01*
X15532857Y84880425D02*
X15633872Y84846754D01*
X15633872Y84846754D02*
X15802231Y84678395D01*
X15802231Y84678395D02*
X15835903Y84577380D01*
X15835903Y84577380D02*
X15835903Y84510036D01*
X15835903Y84510036D02*
X15802231Y84409021D01*
X15802231Y84409021D02*
X15633872Y84240662D01*
X15633872Y84240662D02*
X15532857Y84206990D01*
X15532857Y84206990D02*
X15465514Y84206990D01*
X16273636Y84880425D02*
X16408323Y85015112D01*
X16408323Y85015112D02*
X16441994Y85116128D01*
X16441994Y85116128D02*
X16441994Y85183471D01*
X16441994Y85183471D02*
X16408323Y85351830D01*
X16408323Y85351830D02*
X16307307Y85520189D01*
X16307307Y85520189D02*
X16037933Y85789563D01*
X16037933Y85789563D02*
X15936918Y85823234D01*
X15936918Y85823234D02*
X15869575Y85823234D01*
X15869575Y85823234D02*
X15768559Y85789563D01*
X15768559Y85789563D02*
X15633872Y85654876D01*
X15633872Y85654876D02*
X15600201Y85553860D01*
X15600201Y85553860D02*
X15600201Y85486517D01*
X15600201Y85486517D02*
X15633872Y85385502D01*
X15633872Y85385502D02*
X15802231Y85217143D01*
X15802231Y85217143D02*
X15903246Y85183471D01*
X15903246Y85183471D02*
X15970590Y85183471D01*
X15970590Y85183471D02*
X16071605Y85217143D01*
X16071605Y85217143D02*
X16206292Y85351830D01*
X16206292Y85351830D02*
X16239964Y85452845D01*
X16239964Y85452845D02*
X16239964Y85520189D01*
X16239964Y85520189D02*
X16206292Y85621204D01*
X12600201Y25306991D02*
X12196140Y24902930D01*
X12398170Y25104960D02*
X11691064Y25812067D01*
X11691064Y25812067D02*
X11724735Y25643708D01*
X11724735Y25643708D02*
X11724735Y25509021D01*
X11724735Y25509021D02*
X11691064Y25408006D01*
X13273636Y25980426D02*
X12869575Y25576365D01*
X13071605Y25778395D02*
X12364499Y26485502D01*
X12364499Y26485502D02*
X12398170Y26317143D01*
X12398170Y26317143D02*
X12398170Y26182456D01*
X12398170Y26182456D02*
X12364499Y26081441D01*
X13610354Y26317143D02*
X13745041Y26451830D01*
X13745041Y26451830D02*
X13778712Y26552846D01*
X13778712Y26552846D02*
X13778712Y26620189D01*
X13778712Y26620189D02*
X13745041Y26788548D01*
X13745041Y26788548D02*
X13644025Y26956907D01*
X13644025Y26956907D02*
X13374651Y27226281D01*
X13374651Y27226281D02*
X13273636Y27259952D01*
X13273636Y27259952D02*
X13206293Y27259952D01*
X13206293Y27259952D02*
X13105277Y27226281D01*
X13105277Y27226281D02*
X12970590Y27091594D01*
X12970590Y27091594D02*
X12936918Y26990578D01*
X12936918Y26990578D02*
X12936918Y26923235D01*
X12936918Y26923235D02*
X12970590Y26822220D01*
X12970590Y26822220D02*
X13138949Y26653861D01*
X13138949Y26653861D02*
X13239964Y26620189D01*
X13239964Y26620189D02*
X13307308Y26620189D01*
X13307308Y26620189D02*
X13408323Y26653861D01*
X13408323Y26653861D02*
X13543010Y26788548D01*
X13543010Y26788548D02*
X13576682Y26889563D01*
X13576682Y26889563D02*
X13576682Y26956907D01*
X13576682Y26956907D02*
X13543010Y27057922D01*
X14100201Y806991D02*
X13696140Y402930D01*
X13898170Y604960D02*
X13191064Y1312067D01*
X13191064Y1312067D02*
X13224735Y1143708D01*
X13224735Y1143708D02*
X13224735Y1009021D01*
X13224735Y1009021D02*
X13191064Y908006D01*
X13628796Y1749800D02*
X14066529Y2187532D01*
X14066529Y2187532D02*
X14100201Y1682456D01*
X14100201Y1682456D02*
X14201216Y1783471D01*
X14201216Y1783471D02*
X14302231Y1817143D01*
X14302231Y1817143D02*
X14369575Y1817143D01*
X14369575Y1817143D02*
X14470590Y1783471D01*
X14470590Y1783471D02*
X14638949Y1615113D01*
X14638949Y1615113D02*
X14672621Y1514097D01*
X14672621Y1514097D02*
X14672621Y1446754D01*
X14672621Y1446754D02*
X14638949Y1345739D01*
X14638949Y1345739D02*
X14436918Y1143708D01*
X14436918Y1143708D02*
X14335903Y1110036D01*
X14335903Y1110036D02*
X14268560Y1110036D01*
X14706293Y2827296D02*
X14369575Y2490578D01*
X14369575Y2490578D02*
X14672621Y2120189D01*
X14672621Y2120189D02*
X14672621Y2187533D01*
X14672621Y2187533D02*
X14706293Y2288548D01*
X14706293Y2288548D02*
X14874651Y2456907D01*
X14874651Y2456907D02*
X14975667Y2490578D01*
X14975667Y2490578D02*
X15043010Y2490578D01*
X15043010Y2490578D02*
X15144025Y2456907D01*
X15144025Y2456907D02*
X15312384Y2288548D01*
X15312384Y2288548D02*
X15346056Y2187533D01*
X15346056Y2187533D02*
X15346056Y2120189D01*
X15346056Y2120189D02*
X15312384Y2019174D01*
X15312384Y2019174D02*
X15144025Y1850815D01*
X15144025Y1850815D02*
X15043010Y1817143D01*
X15043010Y1817143D02*
X14975667Y1817143D01*
X2440476Y32545181D02*
X3107142Y32545181D01*
X3107142Y32545181D02*
X2678571Y31545181D01*
X3392857Y32545181D02*
X4011904Y32545181D01*
X4011904Y32545181D02*
X3678571Y32164229D01*
X3678571Y32164229D02*
X3821428Y32164229D01*
X3821428Y32164229D02*
X3916666Y32116610D01*
X3916666Y32116610D02*
X3964285Y32068991D01*
X3964285Y32068991D02*
X4011904Y31973753D01*
X4011904Y31973753D02*
X4011904Y31735658D01*
X4011904Y31735658D02*
X3964285Y31640420D01*
X3964285Y31640420D02*
X3916666Y31592800D01*
X3916666Y31592800D02*
X3821428Y31545181D01*
X3821428Y31545181D02*
X3535714Y31545181D01*
X3535714Y31545181D02*
X3440476Y31592800D01*
X3440476Y31592800D02*
X3392857Y31640420D01*
X2340476Y65045181D02*
X2959523Y65045181D01*
X2959523Y65045181D02*
X2626190Y64664229D01*
X2626190Y64664229D02*
X2769047Y64664229D01*
X2769047Y64664229D02*
X2864285Y64616610D01*
X2864285Y64616610D02*
X2911904Y64568991D01*
X2911904Y64568991D02*
X2959523Y64473753D01*
X2959523Y64473753D02*
X2959523Y64235658D01*
X2959523Y64235658D02*
X2911904Y64140420D01*
X2911904Y64140420D02*
X2864285Y64092800D01*
X2864285Y64092800D02*
X2769047Y64045181D01*
X2769047Y64045181D02*
X2483333Y64045181D01*
X2483333Y64045181D02*
X2388095Y64092800D01*
X2388095Y64092800D02*
X2340476Y64140420D01*
X3816666Y65045181D02*
X3626190Y65045181D01*
X3626190Y65045181D02*
X3530952Y64997562D01*
X3530952Y64997562D02*
X3483333Y64949943D01*
X3483333Y64949943D02*
X3388095Y64807086D01*
X3388095Y64807086D02*
X3340476Y64616610D01*
X3340476Y64616610D02*
X3340476Y64235658D01*
X3340476Y64235658D02*
X3388095Y64140420D01*
X3388095Y64140420D02*
X3435714Y64092800D01*
X3435714Y64092800D02*
X3530952Y64045181D01*
X3530952Y64045181D02*
X3721428Y64045181D01*
X3721428Y64045181D02*
X3816666Y64092800D01*
X3816666Y64092800D02*
X3864285Y64140420D01*
X3864285Y64140420D02*
X3911904Y64235658D01*
X3911904Y64235658D02*
X3911904Y64473753D01*
X3911904Y64473753D02*
X3864285Y64568991D01*
X3864285Y64568991D02*
X3816666Y64616610D01*
X3816666Y64616610D02*
X3721428Y64664229D01*
X3721428Y64664229D02*
X3530952Y64664229D01*
X3530952Y64664229D02*
X3435714Y64616610D01*
X3435714Y64616610D02*
X3388095Y64568991D01*
X3388095Y64568991D02*
X3340476Y64473753D01*
X2083333Y13845181D02*
X1511905Y13845181D01*
X1797619Y13845181D02*
X1797619Y14845181D01*
X1797619Y14845181D02*
X1702381Y14702324D01*
X1702381Y14702324D02*
X1607143Y14607086D01*
X1607143Y14607086D02*
X1511905Y14559467D01*
X2702381Y14845181D02*
X2797619Y14845181D01*
X2797619Y14845181D02*
X2892857Y14797562D01*
X2892857Y14797562D02*
X2940476Y14749943D01*
X2940476Y14749943D02*
X2988095Y14654705D01*
X2988095Y14654705D02*
X3035714Y14464229D01*
X3035714Y14464229D02*
X3035714Y14226134D01*
X3035714Y14226134D02*
X2988095Y14035658D01*
X2988095Y14035658D02*
X2940476Y13940420D01*
X2940476Y13940420D02*
X2892857Y13892800D01*
X2892857Y13892800D02*
X2797619Y13845181D01*
X2797619Y13845181D02*
X2702381Y13845181D01*
X2702381Y13845181D02*
X2607143Y13892800D01*
X2607143Y13892800D02*
X2559524Y13940420D01*
X2559524Y13940420D02*
X2511905Y14035658D01*
X2511905Y14035658D02*
X2464286Y14226134D01*
X2464286Y14226134D02*
X2464286Y14464229D01*
X2464286Y14464229D02*
X2511905Y14654705D01*
X2511905Y14654705D02*
X2559524Y14749943D01*
X2559524Y14749943D02*
X2607143Y14797562D01*
X2607143Y14797562D02*
X2702381Y14845181D01*
X3940476Y14845181D02*
X3464286Y14845181D01*
X3464286Y14845181D02*
X3416667Y14368991D01*
X3416667Y14368991D02*
X3464286Y14416610D01*
X3464286Y14416610D02*
X3559524Y14464229D01*
X3559524Y14464229D02*
X3797619Y14464229D01*
X3797619Y14464229D02*
X3892857Y14416610D01*
X3892857Y14416610D02*
X3940476Y14368991D01*
X3940476Y14368991D02*
X3988095Y14273753D01*
X3988095Y14273753D02*
X3988095Y14035658D01*
X3988095Y14035658D02*
X3940476Y13940420D01*
X3940476Y13940420D02*
X3892857Y13892800D01*
X3892857Y13892800D02*
X3797619Y13845181D01*
X3797619Y13845181D02*
X3559524Y13845181D01*
X3559524Y13845181D02*
X3464286Y13892800D01*
X3464286Y13892800D02*
X3416667Y13940420D01*
X2083333Y10645181D02*
X1511905Y10645181D01*
X1797619Y10645181D02*
X1797619Y11645181D01*
X1797619Y11645181D02*
X1702381Y11502324D01*
X1702381Y11502324D02*
X1607143Y11407086D01*
X1607143Y11407086D02*
X1511905Y11359467D01*
X2702381Y11645181D02*
X2797619Y11645181D01*
X2797619Y11645181D02*
X2892857Y11597562D01*
X2892857Y11597562D02*
X2940476Y11549943D01*
X2940476Y11549943D02*
X2988095Y11454705D01*
X2988095Y11454705D02*
X3035714Y11264229D01*
X3035714Y11264229D02*
X3035714Y11026134D01*
X3035714Y11026134D02*
X2988095Y10835658D01*
X2988095Y10835658D02*
X2940476Y10740420D01*
X2940476Y10740420D02*
X2892857Y10692800D01*
X2892857Y10692800D02*
X2797619Y10645181D01*
X2797619Y10645181D02*
X2702381Y10645181D01*
X2702381Y10645181D02*
X2607143Y10692800D01*
X2607143Y10692800D02*
X2559524Y10740420D01*
X2559524Y10740420D02*
X2511905Y10835658D01*
X2511905Y10835658D02*
X2464286Y11026134D01*
X2464286Y11026134D02*
X2464286Y11264229D01*
X2464286Y11264229D02*
X2511905Y11454705D01*
X2511905Y11454705D02*
X2559524Y11549943D01*
X2559524Y11549943D02*
X2607143Y11597562D01*
X2607143Y11597562D02*
X2702381Y11645181D01*
X3892857Y11645181D02*
X3702381Y11645181D01*
X3702381Y11645181D02*
X3607143Y11597562D01*
X3607143Y11597562D02*
X3559524Y11549943D01*
X3559524Y11549943D02*
X3464286Y11407086D01*
X3464286Y11407086D02*
X3416667Y11216610D01*
X3416667Y11216610D02*
X3416667Y10835658D01*
X3416667Y10835658D02*
X3464286Y10740420D01*
X3464286Y10740420D02*
X3511905Y10692800D01*
X3511905Y10692800D02*
X3607143Y10645181D01*
X3607143Y10645181D02*
X3797619Y10645181D01*
X3797619Y10645181D02*
X3892857Y10692800D01*
X3892857Y10692800D02*
X3940476Y10740420D01*
X3940476Y10740420D02*
X3988095Y10835658D01*
X3988095Y10835658D02*
X3988095Y11073753D01*
X3988095Y11073753D02*
X3940476Y11168991D01*
X3940476Y11168991D02*
X3892857Y11216610D01*
X3892857Y11216610D02*
X3797619Y11264229D01*
X3797619Y11264229D02*
X3607143Y11264229D01*
X3607143Y11264229D02*
X3511905Y11216610D01*
X3511905Y11216610D02*
X3464286Y11168991D01*
X3464286Y11168991D02*
X3416667Y11073753D01*
X4040476Y93345181D02*
X3850000Y93345181D01*
X3850000Y93345181D02*
X3754762Y93297562D01*
X3754762Y93297562D02*
X3707143Y93249943D01*
X3707143Y93249943D02*
X3611905Y93107086D01*
X3611905Y93107086D02*
X3564286Y92916610D01*
X3564286Y92916610D02*
X3564286Y92535658D01*
X3564286Y92535658D02*
X3611905Y92440420D01*
X3611905Y92440420D02*
X3659524Y92392800D01*
X3659524Y92392800D02*
X3754762Y92345181D01*
X3754762Y92345181D02*
X3945238Y92345181D01*
X3945238Y92345181D02*
X4040476Y92392800D01*
X4040476Y92392800D02*
X4088095Y92440420D01*
X4088095Y92440420D02*
X4135714Y92535658D01*
X4135714Y92535658D02*
X4135714Y92773753D01*
X4135714Y92773753D02*
X4088095Y92868991D01*
X4088095Y92868991D02*
X4040476Y92916610D01*
X4040476Y92916610D02*
X3945238Y92964229D01*
X3945238Y92964229D02*
X3754762Y92964229D01*
X3754762Y92964229D02*
X3659524Y92916610D01*
X3659524Y92916610D02*
X3611905Y92868991D01*
X3611905Y92868991D02*
X3564286Y92773753D01*
X2964285Y51745181D02*
X2773809Y51745181D01*
X2773809Y51745181D02*
X2678571Y51697562D01*
X2678571Y51697562D02*
X2630952Y51649943D01*
X2630952Y51649943D02*
X2535714Y51507086D01*
X2535714Y51507086D02*
X2488095Y51316610D01*
X2488095Y51316610D02*
X2488095Y50935658D01*
X2488095Y50935658D02*
X2535714Y50840420D01*
X2535714Y50840420D02*
X2583333Y50792800D01*
X2583333Y50792800D02*
X2678571Y50745181D01*
X2678571Y50745181D02*
X2869047Y50745181D01*
X2869047Y50745181D02*
X2964285Y50792800D01*
X2964285Y50792800D02*
X3011904Y50840420D01*
X3011904Y50840420D02*
X3059523Y50935658D01*
X3059523Y50935658D02*
X3059523Y51173753D01*
X3059523Y51173753D02*
X3011904Y51268991D01*
X3011904Y51268991D02*
X2964285Y51316610D01*
X2964285Y51316610D02*
X2869047Y51364229D01*
X2869047Y51364229D02*
X2678571Y51364229D01*
X2678571Y51364229D02*
X2583333Y51316610D01*
X2583333Y51316610D02*
X2535714Y51268991D01*
X2535714Y51268991D02*
X2488095Y51173753D01*
X3630952Y51316610D02*
X3535714Y51364229D01*
X3535714Y51364229D02*
X3488095Y51411848D01*
X3488095Y51411848D02*
X3440476Y51507086D01*
X3440476Y51507086D02*
X3440476Y51554705D01*
X3440476Y51554705D02*
X3488095Y51649943D01*
X3488095Y51649943D02*
X3535714Y51697562D01*
X3535714Y51697562D02*
X3630952Y51745181D01*
X3630952Y51745181D02*
X3821428Y51745181D01*
X3821428Y51745181D02*
X3916666Y51697562D01*
X3916666Y51697562D02*
X3964285Y51649943D01*
X3964285Y51649943D02*
X4011904Y51554705D01*
X4011904Y51554705D02*
X4011904Y51507086D01*
X4011904Y51507086D02*
X3964285Y51411848D01*
X3964285Y51411848D02*
X3916666Y51364229D01*
X3916666Y51364229D02*
X3821428Y51316610D01*
X3821428Y51316610D02*
X3630952Y51316610D01*
X3630952Y51316610D02*
X3535714Y51268991D01*
X3535714Y51268991D02*
X3488095Y51221372D01*
X3488095Y51221372D02*
X3440476Y51126134D01*
X3440476Y51126134D02*
X3440476Y50935658D01*
X3440476Y50935658D02*
X3488095Y50840420D01*
X3488095Y50840420D02*
X3535714Y50792800D01*
X3535714Y50792800D02*
X3630952Y50745181D01*
X3630952Y50745181D02*
X3821428Y50745181D01*
X3821428Y50745181D02*
X3916666Y50792800D01*
X3916666Y50792800D02*
X3964285Y50840420D01*
X3964285Y50840420D02*
X4011904Y50935658D01*
X4011904Y50935658D02*
X4011904Y51126134D01*
X4011904Y51126134D02*
X3964285Y51221372D01*
X3964285Y51221372D02*
X3916666Y51268991D01*
X3916666Y51268991D02*
X3821428Y51316610D01*
X8692079Y56513082D02*
X9163483Y56984486D01*
X9163483Y56984486D02*
X9567544Y55974334D01*
X9971605Y57321204D02*
X10443010Y56849799D01*
X9533872Y57422219D02*
X9870590Y56748784D01*
X9870590Y56748784D02*
X10308323Y57186517D01*
X4035714Y108345181D02*
X3464286Y108345181D01*
X3750000Y108345181D02*
X3750000Y109345181D01*
X3750000Y109345181D02*
X3654762Y109202324D01*
X3654762Y109202324D02*
X3559524Y109107086D01*
X3559524Y109107086D02*
X3464286Y109059467D01*
X2083333Y7445181D02*
X1511905Y7445181D01*
X1797619Y7445181D02*
X1797619Y8445181D01*
X1797619Y8445181D02*
X1702381Y8302324D01*
X1702381Y8302324D02*
X1607143Y8207086D01*
X1607143Y8207086D02*
X1511905Y8159467D01*
X2702381Y8445181D02*
X2797619Y8445181D01*
X2797619Y8445181D02*
X2892857Y8397562D01*
X2892857Y8397562D02*
X2940476Y8349943D01*
X2940476Y8349943D02*
X2988095Y8254705D01*
X2988095Y8254705D02*
X3035714Y8064229D01*
X3035714Y8064229D02*
X3035714Y7826134D01*
X3035714Y7826134D02*
X2988095Y7635658D01*
X2988095Y7635658D02*
X2940476Y7540420D01*
X2940476Y7540420D02*
X2892857Y7492800D01*
X2892857Y7492800D02*
X2797619Y7445181D01*
X2797619Y7445181D02*
X2702381Y7445181D01*
X2702381Y7445181D02*
X2607143Y7492800D01*
X2607143Y7492800D02*
X2559524Y7540420D01*
X2559524Y7540420D02*
X2511905Y7635658D01*
X2511905Y7635658D02*
X2464286Y7826134D01*
X2464286Y7826134D02*
X2464286Y8064229D01*
X2464286Y8064229D02*
X2511905Y8254705D01*
X2511905Y8254705D02*
X2559524Y8349943D01*
X2559524Y8349943D02*
X2607143Y8397562D01*
X2607143Y8397562D02*
X2702381Y8445181D01*
X3369048Y8445181D02*
X4035714Y8445181D01*
X4035714Y8445181D02*
X3607143Y7445181D01*
X2083333Y23445181D02*
X1511905Y23445181D01*
X1797619Y23445181D02*
X1797619Y24445181D01*
X1797619Y24445181D02*
X1702381Y24302324D01*
X1702381Y24302324D02*
X1607143Y24207086D01*
X1607143Y24207086D02*
X1511905Y24159467D01*
X2702381Y24445181D02*
X2797619Y24445181D01*
X2797619Y24445181D02*
X2892857Y24397562D01*
X2892857Y24397562D02*
X2940476Y24349943D01*
X2940476Y24349943D02*
X2988095Y24254705D01*
X2988095Y24254705D02*
X3035714Y24064229D01*
X3035714Y24064229D02*
X3035714Y23826134D01*
X3035714Y23826134D02*
X2988095Y23635658D01*
X2988095Y23635658D02*
X2940476Y23540420D01*
X2940476Y23540420D02*
X2892857Y23492800D01*
X2892857Y23492800D02*
X2797619Y23445181D01*
X2797619Y23445181D02*
X2702381Y23445181D01*
X2702381Y23445181D02*
X2607143Y23492800D01*
X2607143Y23492800D02*
X2559524Y23540420D01*
X2559524Y23540420D02*
X2511905Y23635658D01*
X2511905Y23635658D02*
X2464286Y23826134D01*
X2464286Y23826134D02*
X2464286Y24064229D01*
X2464286Y24064229D02*
X2511905Y24254705D01*
X2511905Y24254705D02*
X2559524Y24349943D01*
X2559524Y24349943D02*
X2607143Y24397562D01*
X2607143Y24397562D02*
X2702381Y24445181D01*
X3416667Y24349943D02*
X3464286Y24397562D01*
X3464286Y24397562D02*
X3559524Y24445181D01*
X3559524Y24445181D02*
X3797619Y24445181D01*
X3797619Y24445181D02*
X3892857Y24397562D01*
X3892857Y24397562D02*
X3940476Y24349943D01*
X3940476Y24349943D02*
X3988095Y24254705D01*
X3988095Y24254705D02*
X3988095Y24159467D01*
X3988095Y24159467D02*
X3940476Y24016610D01*
X3940476Y24016610D02*
X3369048Y23445181D01*
X3369048Y23445181D02*
X3988095Y23445181D01*
X15600201Y55806990D02*
X15734888Y55941677D01*
X15734888Y55941677D02*
X15768559Y56042693D01*
X15768559Y56042693D02*
X15768559Y56110036D01*
X15768559Y56110036D02*
X15734888Y56278395D01*
X15734888Y56278395D02*
X15633872Y56446754D01*
X15633872Y56446754D02*
X15364498Y56716128D01*
X15364498Y56716128D02*
X15263483Y56749799D01*
X15263483Y56749799D02*
X15196140Y56749799D01*
X15196140Y56749799D02*
X15095124Y56716128D01*
X15095124Y56716128D02*
X14960437Y56581441D01*
X14960437Y56581441D02*
X14926766Y56480425D01*
X14926766Y56480425D02*
X14926766Y56413082D01*
X14926766Y56413082D02*
X14960437Y56312067D01*
X14960437Y56312067D02*
X15128796Y56143708D01*
X15128796Y56143708D02*
X15229811Y56110036D01*
X15229811Y56110036D02*
X15297155Y56110036D01*
X15297155Y56110036D02*
X15398170Y56143708D01*
X15398170Y56143708D02*
X15532857Y56278395D01*
X15532857Y56278395D02*
X15566529Y56379410D01*
X15566529Y56379410D02*
X15566529Y56446754D01*
X15566529Y56446754D02*
X15532857Y56547769D01*
X16071605Y57221204D02*
X16543010Y56749799D01*
X15633872Y57322219D02*
X15970590Y56648784D01*
X15970590Y56648784D02*
X16408323Y57086517D01*
X15292079Y87013082D02*
X15729811Y87450815D01*
X15729811Y87450815D02*
X15763483Y86945738D01*
X15763483Y86945738D02*
X15864498Y87046754D01*
X15864498Y87046754D02*
X15965514Y87080425D01*
X15965514Y87080425D02*
X16032857Y87080425D01*
X16032857Y87080425D02*
X16133872Y87046754D01*
X16133872Y87046754D02*
X16302231Y86878395D01*
X16302231Y86878395D02*
X16335903Y86777380D01*
X16335903Y86777380D02*
X16335903Y86710036D01*
X16335903Y86710036D02*
X16302231Y86609021D01*
X16302231Y86609021D02*
X16100201Y86406990D01*
X16100201Y86406990D02*
X15999185Y86373319D01*
X15999185Y86373319D02*
X15931842Y86373319D01*
X17110353Y87417143D02*
X16706292Y87013082D01*
X16908323Y87215112D02*
X16201216Y87922219D01*
X16201216Y87922219D02*
X16234888Y87753860D01*
X16234888Y87753860D02*
X16234888Y87619173D01*
X16234888Y87619173D02*
X16201216Y87518158D01*
X15600201Y25306991D02*
X15196140Y24902930D01*
X15398170Y25104960D02*
X14691064Y25812067D01*
X14691064Y25812067D02*
X14724735Y25643708D01*
X14724735Y25643708D02*
X14724735Y25509021D01*
X14724735Y25509021D02*
X14691064Y25408006D01*
X15229812Y26216128D02*
X15229812Y26283471D01*
X15229812Y26283471D02*
X15263483Y26384487D01*
X15263483Y26384487D02*
X15431842Y26552845D01*
X15431842Y26552845D02*
X15532857Y26586517D01*
X15532857Y26586517D02*
X15600201Y26586517D01*
X15600201Y26586517D02*
X15701216Y26552845D01*
X15701216Y26552845D02*
X15768560Y26485502D01*
X15768560Y26485502D02*
X15835903Y26350815D01*
X15835903Y26350815D02*
X15835903Y25542693D01*
X15835903Y25542693D02*
X16273636Y25980426D01*
X16610354Y26317143D02*
X16745041Y26451830D01*
X16745041Y26451830D02*
X16778712Y26552846D01*
X16778712Y26552846D02*
X16778712Y26620189D01*
X16778712Y26620189D02*
X16745041Y26788548D01*
X16745041Y26788548D02*
X16644025Y26956907D01*
X16644025Y26956907D02*
X16374651Y27226281D01*
X16374651Y27226281D02*
X16273636Y27259952D01*
X16273636Y27259952D02*
X16206293Y27259952D01*
X16206293Y27259952D02*
X16105277Y27226281D01*
X16105277Y27226281D02*
X15970590Y27091594D01*
X15970590Y27091594D02*
X15936918Y26990578D01*
X15936918Y26990578D02*
X15936918Y26923235D01*
X15936918Y26923235D02*
X15970590Y26822220D01*
X15970590Y26822220D02*
X16138949Y26653861D01*
X16138949Y26653861D02*
X16239964Y26620189D01*
X16239964Y26620189D02*
X16307308Y26620189D01*
X16307308Y26620189D02*
X16408323Y26653861D01*
X16408323Y26653861D02*
X16543010Y26788548D01*
X16543010Y26788548D02*
X16576682Y26889563D01*
X16576682Y26889563D02*
X16576682Y26956907D01*
X16576682Y26956907D02*
X16543010Y27057922D01*
X10436918Y86643708D02*
X10032857Y86239647D01*
X10234888Y86441677D02*
X9527781Y87148784D01*
X9527781Y87148784D02*
X9561453Y86980425D01*
X9561453Y86980425D02*
X9561453Y86845738D01*
X9561453Y86845738D02*
X9527781Y86744723D01*
X9965514Y87586517D02*
X10436918Y88057921D01*
X10436918Y88057921D02*
X10840979Y87047769D01*
X2340476Y77845181D02*
X2959523Y77845181D01*
X2959523Y77845181D02*
X2626190Y77464229D01*
X2626190Y77464229D02*
X2769047Y77464229D01*
X2769047Y77464229D02*
X2864285Y77416610D01*
X2864285Y77416610D02*
X2911904Y77368991D01*
X2911904Y77368991D02*
X2959523Y77273753D01*
X2959523Y77273753D02*
X2959523Y77035658D01*
X2959523Y77035658D02*
X2911904Y76940420D01*
X2911904Y76940420D02*
X2864285Y76892800D01*
X2864285Y76892800D02*
X2769047Y76845181D01*
X2769047Y76845181D02*
X2483333Y76845181D01*
X2483333Y76845181D02*
X2388095Y76892800D01*
X2388095Y76892800D02*
X2340476Y76940420D01*
X3292857Y77845181D02*
X3911904Y77845181D01*
X3911904Y77845181D02*
X3578571Y77464229D01*
X3578571Y77464229D02*
X3721428Y77464229D01*
X3721428Y77464229D02*
X3816666Y77416610D01*
X3816666Y77416610D02*
X3864285Y77368991D01*
X3864285Y77368991D02*
X3911904Y77273753D01*
X3911904Y77273753D02*
X3911904Y77035658D01*
X3911904Y77035658D02*
X3864285Y76940420D01*
X3864285Y76940420D02*
X3816666Y76892800D01*
X3816666Y76892800D02*
X3721428Y76845181D01*
X3721428Y76845181D02*
X3435714Y76845181D01*
X3435714Y76845181D02*
X3340476Y76892800D01*
X3340476Y76892800D02*
X3292857Y76940420D01*
X2340476Y81045181D02*
X2959523Y81045181D01*
X2959523Y81045181D02*
X2626190Y80664229D01*
X2626190Y80664229D02*
X2769047Y80664229D01*
X2769047Y80664229D02*
X2864285Y80616610D01*
X2864285Y80616610D02*
X2911904Y80568991D01*
X2911904Y80568991D02*
X2959523Y80473753D01*
X2959523Y80473753D02*
X2959523Y80235658D01*
X2959523Y80235658D02*
X2911904Y80140420D01*
X2911904Y80140420D02*
X2864285Y80092800D01*
X2864285Y80092800D02*
X2769047Y80045181D01*
X2769047Y80045181D02*
X2483333Y80045181D01*
X2483333Y80045181D02*
X2388095Y80092800D01*
X2388095Y80092800D02*
X2340476Y80140420D01*
X3340476Y80949943D02*
X3388095Y80997562D01*
X3388095Y80997562D02*
X3483333Y81045181D01*
X3483333Y81045181D02*
X3721428Y81045181D01*
X3721428Y81045181D02*
X3816666Y80997562D01*
X3816666Y80997562D02*
X3864285Y80949943D01*
X3864285Y80949943D02*
X3911904Y80854705D01*
X3911904Y80854705D02*
X3911904Y80759467D01*
X3911904Y80759467D02*
X3864285Y80616610D01*
X3864285Y80616610D02*
X3292857Y80045181D01*
X3292857Y80045181D02*
X3911904Y80045181D01*
X8100201Y806991D02*
X7696140Y402930D01*
X7898170Y604960D02*
X7191064Y1312067D01*
X7191064Y1312067D02*
X7224735Y1143708D01*
X7224735Y1143708D02*
X7224735Y1009021D01*
X7224735Y1009021D02*
X7191064Y908006D01*
X8773636Y1480426D02*
X8369575Y1076365D01*
X8571605Y1278395D02*
X7864499Y1985502D01*
X7864499Y1985502D02*
X7898170Y1817143D01*
X7898170Y1817143D02*
X7898170Y1682456D01*
X7898170Y1682456D02*
X7864499Y1581441D01*
X8773636Y2288548D02*
X8672621Y2254876D01*
X8672621Y2254876D02*
X8605277Y2254876D01*
X8605277Y2254876D02*
X8504262Y2288548D01*
X8504262Y2288548D02*
X8470590Y2322220D01*
X8470590Y2322220D02*
X8436918Y2423235D01*
X8436918Y2423235D02*
X8436918Y2490578D01*
X8436918Y2490578D02*
X8470590Y2591594D01*
X8470590Y2591594D02*
X8605277Y2726281D01*
X8605277Y2726281D02*
X8706293Y2759952D01*
X8706293Y2759952D02*
X8773636Y2759952D01*
X8773636Y2759952D02*
X8874651Y2726281D01*
X8874651Y2726281D02*
X8908323Y2692609D01*
X8908323Y2692609D02*
X8941995Y2591594D01*
X8941995Y2591594D02*
X8941995Y2524250D01*
X8941995Y2524250D02*
X8908323Y2423235D01*
X8908323Y2423235D02*
X8773636Y2288548D01*
X8773636Y2288548D02*
X8739964Y2187533D01*
X8739964Y2187533D02*
X8739964Y2120189D01*
X8739964Y2120189D02*
X8773636Y2019174D01*
X8773636Y2019174D02*
X8908323Y1884487D01*
X8908323Y1884487D02*
X9009338Y1850815D01*
X9009338Y1850815D02*
X9076682Y1850815D01*
X9076682Y1850815D02*
X9177697Y1884487D01*
X9177697Y1884487D02*
X9312384Y2019174D01*
X9312384Y2019174D02*
X9346056Y2120189D01*
X9346056Y2120189D02*
X9346056Y2187533D01*
X9346056Y2187533D02*
X9312384Y2288548D01*
X9312384Y2288548D02*
X9177697Y2423235D01*
X9177697Y2423235D02*
X9076682Y2456907D01*
X9076682Y2456907D02*
X9009338Y2456907D01*
X9009338Y2456907D02*
X8908323Y2423235D01*
X13500201Y27706990D02*
X13634888Y27841677D01*
X13634888Y27841677D02*
X13668559Y27942693D01*
X13668559Y27942693D02*
X13668559Y28010036D01*
X13668559Y28010036D02*
X13634888Y28178395D01*
X13634888Y28178395D02*
X13533872Y28346754D01*
X13533872Y28346754D02*
X13264498Y28616128D01*
X13264498Y28616128D02*
X13163483Y28649799D01*
X13163483Y28649799D02*
X13096140Y28649799D01*
X13096140Y28649799D02*
X12995124Y28616128D01*
X12995124Y28616128D02*
X12860437Y28481441D01*
X12860437Y28481441D02*
X12826766Y28380425D01*
X12826766Y28380425D02*
X12826766Y28313082D01*
X12826766Y28313082D02*
X12860437Y28212067D01*
X12860437Y28212067D02*
X13028796Y28043708D01*
X13028796Y28043708D02*
X13129811Y28010036D01*
X13129811Y28010036D02*
X13197155Y28010036D01*
X13197155Y28010036D02*
X13298170Y28043708D01*
X13298170Y28043708D02*
X13432857Y28178395D01*
X13432857Y28178395D02*
X13466529Y28279410D01*
X13466529Y28279410D02*
X13466529Y28346754D01*
X13466529Y28346754D02*
X13432857Y28447769D01*
X13365514Y28986517D02*
X13803246Y29424250D01*
X13803246Y29424250D02*
X13836918Y28919173D01*
X13836918Y28919173D02*
X13937933Y29020189D01*
X13937933Y29020189D02*
X14038949Y29053860D01*
X14038949Y29053860D02*
X14106292Y29053860D01*
X14106292Y29053860D02*
X14207307Y29020189D01*
X14207307Y29020189D02*
X14375666Y28851830D01*
X14375666Y28851830D02*
X14409338Y28750815D01*
X14409338Y28750815D02*
X14409338Y28683471D01*
X14409338Y28683471D02*
X14375666Y28582456D01*
X14375666Y28582456D02*
X14173636Y28380425D01*
X14173636Y28380425D02*
X14072620Y28346754D01*
X14072620Y28346754D02*
X14005277Y28346754D01*
X2083333Y4245181D02*
X1511905Y4245181D01*
X1797619Y4245181D02*
X1797619Y5245181D01*
X1797619Y5245181D02*
X1702381Y5102324D01*
X1702381Y5102324D02*
X1607143Y5007086D01*
X1607143Y5007086D02*
X1511905Y4959467D01*
X2702381Y5245181D02*
X2797619Y5245181D01*
X2797619Y5245181D02*
X2892857Y5197562D01*
X2892857Y5197562D02*
X2940476Y5149943D01*
X2940476Y5149943D02*
X2988095Y5054705D01*
X2988095Y5054705D02*
X3035714Y4864229D01*
X3035714Y4864229D02*
X3035714Y4626134D01*
X3035714Y4626134D02*
X2988095Y4435658D01*
X2988095Y4435658D02*
X2940476Y4340420D01*
X2940476Y4340420D02*
X2892857Y4292800D01*
X2892857Y4292800D02*
X2797619Y4245181D01*
X2797619Y4245181D02*
X2702381Y4245181D01*
X2702381Y4245181D02*
X2607143Y4292800D01*
X2607143Y4292800D02*
X2559524Y4340420D01*
X2559524Y4340420D02*
X2511905Y4435658D01*
X2511905Y4435658D02*
X2464286Y4626134D01*
X2464286Y4626134D02*
X2464286Y4864229D01*
X2464286Y4864229D02*
X2511905Y5054705D01*
X2511905Y5054705D02*
X2559524Y5149943D01*
X2559524Y5149943D02*
X2607143Y5197562D01*
X2607143Y5197562D02*
X2702381Y5245181D01*
X3607143Y4816610D02*
X3511905Y4864229D01*
X3511905Y4864229D02*
X3464286Y4911848D01*
X3464286Y4911848D02*
X3416667Y5007086D01*
X3416667Y5007086D02*
X3416667Y5054705D01*
X3416667Y5054705D02*
X3464286Y5149943D01*
X3464286Y5149943D02*
X3511905Y5197562D01*
X3511905Y5197562D02*
X3607143Y5245181D01*
X3607143Y5245181D02*
X3797619Y5245181D01*
X3797619Y5245181D02*
X3892857Y5197562D01*
X3892857Y5197562D02*
X3940476Y5149943D01*
X3940476Y5149943D02*
X3988095Y5054705D01*
X3988095Y5054705D02*
X3988095Y5007086D01*
X3988095Y5007086D02*
X3940476Y4911848D01*
X3940476Y4911848D02*
X3892857Y4864229D01*
X3892857Y4864229D02*
X3797619Y4816610D01*
X3797619Y4816610D02*
X3607143Y4816610D01*
X3607143Y4816610D02*
X3511905Y4768991D01*
X3511905Y4768991D02*
X3464286Y4721372D01*
X3464286Y4721372D02*
X3416667Y4626134D01*
X3416667Y4626134D02*
X3416667Y4435658D01*
X3416667Y4435658D02*
X3464286Y4340420D01*
X3464286Y4340420D02*
X3511905Y4292800D01*
X3511905Y4292800D02*
X3607143Y4245181D01*
X3607143Y4245181D02*
X3797619Y4245181D01*
X3797619Y4245181D02*
X3892857Y4292800D01*
X3892857Y4292800D02*
X3940476Y4340420D01*
X3940476Y4340420D02*
X3988095Y4435658D01*
X3988095Y4435658D02*
X3988095Y4626134D01*
X3988095Y4626134D02*
X3940476Y4721372D01*
X3940476Y4721372D02*
X3892857Y4768991D01*
X3892857Y4768991D02*
X3797619Y4816610D01*
X2964285Y54945181D02*
X2773809Y54945181D01*
X2773809Y54945181D02*
X2678571Y54897562D01*
X2678571Y54897562D02*
X2630952Y54849943D01*
X2630952Y54849943D02*
X2535714Y54707086D01*
X2535714Y54707086D02*
X2488095Y54516610D01*
X2488095Y54516610D02*
X2488095Y54135658D01*
X2488095Y54135658D02*
X2535714Y54040420D01*
X2535714Y54040420D02*
X2583333Y53992800D01*
X2583333Y53992800D02*
X2678571Y53945181D01*
X2678571Y53945181D02*
X2869047Y53945181D01*
X2869047Y53945181D02*
X2964285Y53992800D01*
X2964285Y53992800D02*
X3011904Y54040420D01*
X3011904Y54040420D02*
X3059523Y54135658D01*
X3059523Y54135658D02*
X3059523Y54373753D01*
X3059523Y54373753D02*
X3011904Y54468991D01*
X3011904Y54468991D02*
X2964285Y54516610D01*
X2964285Y54516610D02*
X2869047Y54564229D01*
X2869047Y54564229D02*
X2678571Y54564229D01*
X2678571Y54564229D02*
X2583333Y54516610D01*
X2583333Y54516610D02*
X2535714Y54468991D01*
X2535714Y54468991D02*
X2488095Y54373753D01*
X3392857Y54945181D02*
X4059523Y54945181D01*
X4059523Y54945181D02*
X3630952Y53945181D01*
X2440476Y35745181D02*
X3107142Y35745181D01*
X3107142Y35745181D02*
X2678571Y34745181D01*
X3440476Y35649943D02*
X3488095Y35697562D01*
X3488095Y35697562D02*
X3583333Y35745181D01*
X3583333Y35745181D02*
X3821428Y35745181D01*
X3821428Y35745181D02*
X3916666Y35697562D01*
X3916666Y35697562D02*
X3964285Y35649943D01*
X3964285Y35649943D02*
X4011904Y35554705D01*
X4011904Y35554705D02*
X4011904Y35459467D01*
X4011904Y35459467D02*
X3964285Y35316610D01*
X3964285Y35316610D02*
X3392857Y34745181D01*
X3392857Y34745181D02*
X4011904Y34745181D01*
X12263483Y56278395D02*
X12162468Y56244723D01*
X12162468Y56244723D02*
X12095124Y56244723D01*
X12095124Y56244723D02*
X11994109Y56278395D01*
X11994109Y56278395D02*
X11960437Y56312067D01*
X11960437Y56312067D02*
X11926766Y56413082D01*
X11926766Y56413082D02*
X11926766Y56480425D01*
X11926766Y56480425D02*
X11960437Y56581441D01*
X11960437Y56581441D02*
X12095124Y56716128D01*
X12095124Y56716128D02*
X12196140Y56749799D01*
X12196140Y56749799D02*
X12263483Y56749799D01*
X12263483Y56749799D02*
X12364498Y56716128D01*
X12364498Y56716128D02*
X12398170Y56682456D01*
X12398170Y56682456D02*
X12431842Y56581441D01*
X12431842Y56581441D02*
X12431842Y56514097D01*
X12431842Y56514097D02*
X12398170Y56413082D01*
X12398170Y56413082D02*
X12263483Y56278395D01*
X12263483Y56278395D02*
X12229811Y56177380D01*
X12229811Y56177380D02*
X12229811Y56110036D01*
X12229811Y56110036D02*
X12263483Y56009021D01*
X12263483Y56009021D02*
X12398170Y55874334D01*
X12398170Y55874334D02*
X12499185Y55840662D01*
X12499185Y55840662D02*
X12566529Y55840662D01*
X12566529Y55840662D02*
X12667544Y55874334D01*
X12667544Y55874334D02*
X12802231Y56009021D01*
X12802231Y56009021D02*
X12835903Y56110036D01*
X12835903Y56110036D02*
X12835903Y56177380D01*
X12835903Y56177380D02*
X12802231Y56278395D01*
X12802231Y56278395D02*
X12667544Y56413082D01*
X12667544Y56413082D02*
X12566529Y56446754D01*
X12566529Y56446754D02*
X12499185Y56446754D01*
X12499185Y56446754D02*
X12398170Y56413082D01*
X12835903Y57456906D02*
X12701216Y57322219D01*
X12701216Y57322219D02*
X12667544Y57221204D01*
X12667544Y57221204D02*
X12667544Y57153860D01*
X12667544Y57153860D02*
X12701216Y56985502D01*
X12701216Y56985502D02*
X12802231Y56817143D01*
X12802231Y56817143D02*
X13071605Y56547769D01*
X13071605Y56547769D02*
X13172620Y56514097D01*
X13172620Y56514097D02*
X13239964Y56514097D01*
X13239964Y56514097D02*
X13340979Y56547769D01*
X13340979Y56547769D02*
X13475666Y56682456D01*
X13475666Y56682456D02*
X13509338Y56783471D01*
X13509338Y56783471D02*
X13509338Y56850815D01*
X13509338Y56850815D02*
X13475666Y56951830D01*
X13475666Y56951830D02*
X13307307Y57120189D01*
X13307307Y57120189D02*
X13206292Y57153860D01*
X13206292Y57153860D02*
X13138949Y57153860D01*
X13138949Y57153860D02*
X13037933Y57120189D01*
X13037933Y57120189D02*
X12903246Y56985502D01*
X12903246Y56985502D02*
X12869575Y56884486D01*
X12869575Y56884486D02*
X12869575Y56817143D01*
X12869575Y56817143D02*
X12903246Y56716128D01*
X3940476Y99411848D02*
X3940476Y98745181D01*
X3702381Y99792800D02*
X3464286Y99078515D01*
X3464286Y99078515D02*
X4083333Y99078515D01*
X17162468Y59283471D02*
X17027781Y59148784D01*
X17027781Y59148784D02*
X16994109Y59047769D01*
X16994109Y59047769D02*
X16994109Y58980425D01*
X16994109Y58980425D02*
X17027781Y58812067D01*
X17027781Y58812067D02*
X17128796Y58643708D01*
X17128796Y58643708D02*
X17398170Y58374334D01*
X17398170Y58374334D02*
X17499185Y58340662D01*
X17499185Y58340662D02*
X17566529Y58340662D01*
X17566529Y58340662D02*
X17667544Y58374334D01*
X17667544Y58374334D02*
X17802231Y58509021D01*
X17802231Y58509021D02*
X17835903Y58610036D01*
X17835903Y58610036D02*
X17835903Y58677380D01*
X17835903Y58677380D02*
X17802231Y58778395D01*
X17802231Y58778395D02*
X17633872Y58946754D01*
X17633872Y58946754D02*
X17532857Y58980425D01*
X17532857Y58980425D02*
X17465514Y58980425D01*
X17465514Y58980425D02*
X17364498Y58946754D01*
X17364498Y58946754D02*
X17229811Y58812067D01*
X17229811Y58812067D02*
X17196140Y58711051D01*
X17196140Y58711051D02*
X17196140Y58643708D01*
X17196140Y58643708D02*
X17229811Y58542693D01*
X17835903Y59956906D02*
X17701216Y59822219D01*
X17701216Y59822219D02*
X17667544Y59721204D01*
X17667544Y59721204D02*
X17667544Y59653860D01*
X17667544Y59653860D02*
X17701216Y59485502D01*
X17701216Y59485502D02*
X17802231Y59317143D01*
X17802231Y59317143D02*
X18071605Y59047769D01*
X18071605Y59047769D02*
X18172620Y59014097D01*
X18172620Y59014097D02*
X18239964Y59014097D01*
X18239964Y59014097D02*
X18340979Y59047769D01*
X18340979Y59047769D02*
X18475666Y59182456D01*
X18475666Y59182456D02*
X18509338Y59283471D01*
X18509338Y59283471D02*
X18509338Y59350815D01*
X18509338Y59350815D02*
X18475666Y59451830D01*
X18475666Y59451830D02*
X18307307Y59620189D01*
X18307307Y59620189D02*
X18206292Y59653860D01*
X18206292Y59653860D02*
X18138949Y59653860D01*
X18138949Y59653860D02*
X18037933Y59620189D01*
X18037933Y59620189D02*
X17903246Y59485502D01*
X17903246Y59485502D02*
X17869575Y59384486D01*
X17869575Y59384486D02*
X17869575Y59317143D01*
X17869575Y59317143D02*
X17903246Y59216128D01*
X3988095Y96545181D02*
X3511905Y96545181D01*
X3511905Y96545181D02*
X3464286Y96068991D01*
X3464286Y96068991D02*
X3511905Y96116610D01*
X3511905Y96116610D02*
X3607143Y96164229D01*
X3607143Y96164229D02*
X3845238Y96164229D01*
X3845238Y96164229D02*
X3940476Y96116610D01*
X3940476Y96116610D02*
X3988095Y96068991D01*
X3988095Y96068991D02*
X4035714Y95973753D01*
X4035714Y95973753D02*
X4035714Y95735658D01*
X4035714Y95735658D02*
X3988095Y95640420D01*
X3988095Y95640420D02*
X3940476Y95592800D01*
X3940476Y95592800D02*
X3845238Y95545181D01*
X3845238Y95545181D02*
X3607143Y95545181D01*
X3607143Y95545181D02*
X3511905Y95592800D01*
X3511905Y95592800D02*
X3464286Y95640420D01*
X7292079Y82613082D02*
X7729811Y83050815D01*
X7729811Y83050815D02*
X7763483Y82545738D01*
X7763483Y82545738D02*
X7864498Y82646754D01*
X7864498Y82646754D02*
X7965514Y82680425D01*
X7965514Y82680425D02*
X8032857Y82680425D01*
X8032857Y82680425D02*
X8133872Y82646754D01*
X8133872Y82646754D02*
X8302231Y82478395D01*
X8302231Y82478395D02*
X8335903Y82377380D01*
X8335903Y82377380D02*
X8335903Y82310036D01*
X8335903Y82310036D02*
X8302231Y82209021D01*
X8302231Y82209021D02*
X8100201Y82006990D01*
X8100201Y82006990D02*
X7999185Y81973319D01*
X7999185Y81973319D02*
X7931842Y81973319D01*
X8436918Y83151830D02*
X8335903Y83118158D01*
X8335903Y83118158D02*
X8268559Y83118158D01*
X8268559Y83118158D02*
X8167544Y83151830D01*
X8167544Y83151830D02*
X8133872Y83185502D01*
X8133872Y83185502D02*
X8100201Y83286517D01*
X8100201Y83286517D02*
X8100201Y83353860D01*
X8100201Y83353860D02*
X8133872Y83454876D01*
X8133872Y83454876D02*
X8268559Y83589563D01*
X8268559Y83589563D02*
X8369575Y83623234D01*
X8369575Y83623234D02*
X8436918Y83623234D01*
X8436918Y83623234D02*
X8537933Y83589563D01*
X8537933Y83589563D02*
X8571605Y83555891D01*
X8571605Y83555891D02*
X8605277Y83454876D01*
X8605277Y83454876D02*
X8605277Y83387532D01*
X8605277Y83387532D02*
X8571605Y83286517D01*
X8571605Y83286517D02*
X8436918Y83151830D01*
X8436918Y83151830D02*
X8403246Y83050815D01*
X8403246Y83050815D02*
X8403246Y82983471D01*
X8403246Y82983471D02*
X8436918Y82882456D01*
X8436918Y82882456D02*
X8571605Y82747769D01*
X8571605Y82747769D02*
X8672620Y82714097D01*
X8672620Y82714097D02*
X8739964Y82714097D01*
X8739964Y82714097D02*
X8840979Y82747769D01*
X8840979Y82747769D02*
X8975666Y82882456D01*
X8975666Y82882456D02*
X9009338Y82983471D01*
X9009338Y82983471D02*
X9009338Y83050815D01*
X9009338Y83050815D02*
X8975666Y83151830D01*
X8975666Y83151830D02*
X8840979Y83286517D01*
X8840979Y83286517D02*
X8739964Y83320189D01*
X8739964Y83320189D02*
X8672620Y83320189D01*
X8672620Y83320189D02*
X8571605Y83286517D01*
X3464286Y106049943D02*
X3511905Y106097562D01*
X3511905Y106097562D02*
X3607143Y106145181D01*
X3607143Y106145181D02*
X3845238Y106145181D01*
X3845238Y106145181D02*
X3940476Y106097562D01*
X3940476Y106097562D02*
X3988095Y106049943D01*
X3988095Y106049943D02*
X4035714Y105954705D01*
X4035714Y105954705D02*
X4035714Y105859467D01*
X4035714Y105859467D02*
X3988095Y105716610D01*
X3988095Y105716610D02*
X3416667Y105145181D01*
X3416667Y105145181D02*
X4035714Y105145181D01*
X116054761Y96399943D02*
X115959523Y96447562D01*
X115959523Y96447562D02*
X115864285Y96542800D01*
X115864285Y96542800D02*
X115721428Y96685658D01*
X115721428Y96685658D02*
X115626190Y96733277D01*
X115626190Y96733277D02*
X115530952Y96733277D01*
X115578571Y96495181D02*
X115483333Y96542800D01*
X115483333Y96542800D02*
X115388095Y96638039D01*
X115388095Y96638039D02*
X115340476Y96828515D01*
X115340476Y96828515D02*
X115340476Y97161848D01*
X115340476Y97161848D02*
X115388095Y97352324D01*
X115388095Y97352324D02*
X115483333Y97447562D01*
X115483333Y97447562D02*
X115578571Y97495181D01*
X115578571Y97495181D02*
X115769047Y97495181D01*
X115769047Y97495181D02*
X115864285Y97447562D01*
X115864285Y97447562D02*
X115959523Y97352324D01*
X115959523Y97352324D02*
X116007142Y97161848D01*
X116007142Y97161848D02*
X116007142Y96828515D01*
X116007142Y96828515D02*
X115959523Y96638039D01*
X115959523Y96638039D02*
X115864285Y96542800D01*
X115864285Y96542800D02*
X115769047Y96495181D01*
X115769047Y96495181D02*
X115578571Y96495181D01*
X116864285Y97495181D02*
X116673809Y97495181D01*
X116673809Y97495181D02*
X116578571Y97447562D01*
X116578571Y97447562D02*
X116530952Y97399943D01*
X116530952Y97399943D02*
X116435714Y97257086D01*
X116435714Y97257086D02*
X116388095Y97066610D01*
X116388095Y97066610D02*
X116388095Y96685658D01*
X116388095Y96685658D02*
X116435714Y96590420D01*
X116435714Y96590420D02*
X116483333Y96542800D01*
X116483333Y96542800D02*
X116578571Y96495181D01*
X116578571Y96495181D02*
X116769047Y96495181D01*
X116769047Y96495181D02*
X116864285Y96542800D01*
X116864285Y96542800D02*
X116911904Y96590420D01*
X116911904Y96590420D02*
X116959523Y96685658D01*
X116959523Y96685658D02*
X116959523Y96923753D01*
X116959523Y96923753D02*
X116911904Y97018991D01*
X116911904Y97018991D02*
X116864285Y97066610D01*
X116864285Y97066610D02*
X116769047Y97114229D01*
X116769047Y97114229D02*
X116578571Y97114229D01*
X116578571Y97114229D02*
X116483333Y97066610D01*
X116483333Y97066610D02*
X116435714Y97018991D01*
X116435714Y97018991D02*
X116388095Y96923753D01*
D13*
X92581768Y56031001D02*
X92581768Y55777001D01*
X92980911Y55777001D02*
X92218911Y55777001D01*
X92218911Y55777001D02*
X92218911Y56139858D01*
X92218911Y56793001D02*
X92218911Y56430144D01*
X92218911Y56430144D02*
X92581768Y56393858D01*
X92581768Y56393858D02*
X92545483Y56430144D01*
X92545483Y56430144D02*
X92509197Y56502715D01*
X92509197Y56502715D02*
X92509197Y56684144D01*
X92509197Y56684144D02*
X92545483Y56756715D01*
X92545483Y56756715D02*
X92581768Y56793001D01*
X92581768Y56793001D02*
X92654340Y56829287D01*
X92654340Y56829287D02*
X92835768Y56829287D01*
X92835768Y56829287D02*
X92908340Y56793001D01*
X92908340Y56793001D02*
X92944626Y56756715D01*
X92944626Y56756715D02*
X92980911Y56684144D01*
X92980911Y56684144D02*
X92980911Y56502715D01*
X92980911Y56502715D02*
X92944626Y56430144D01*
X92944626Y56430144D02*
X92908340Y56393858D01*
D11*
X123415092Y104311420D02*
X123141759Y104701896D01*
X122946521Y104311420D02*
X122946521Y105131420D01*
X122946521Y105131420D02*
X123258902Y105131420D01*
X123258902Y105131420D02*
X123336997Y105092372D01*
X123336997Y105092372D02*
X123376044Y105053325D01*
X123376044Y105053325D02*
X123415092Y104975229D01*
X123415092Y104975229D02*
X123415092Y104858087D01*
X123415092Y104858087D02*
X123376044Y104779991D01*
X123376044Y104779991D02*
X123336997Y104740944D01*
X123336997Y104740944D02*
X123258902Y104701896D01*
X123258902Y104701896D02*
X122946521Y104701896D01*
X123688425Y105131420D02*
X124235092Y105131420D01*
X124235092Y105131420D02*
X123883663Y104311420D01*
D13*
X92581768Y68511001D02*
X92581768Y68257001D01*
X92980911Y68257001D02*
X92218911Y68257001D01*
X92218911Y68257001D02*
X92218911Y68619858D01*
X92980911Y69309287D02*
X92980911Y68873858D01*
X92980911Y69091573D02*
X92218911Y69091573D01*
X92218911Y69091573D02*
X92327768Y69019001D01*
X92327768Y69019001D02*
X92400340Y68946430D01*
X92400340Y68946430D02*
X92436626Y68873858D01*
D14*
G04 #@! TO.C,M6*
X87625000Y33112500D02*
X87625000Y26712500D01*
X87625000Y23512500D02*
X87625000Y24812500D01*
X87625000Y23512500D02*
X102625000Y23512500D01*
X102025000Y33112500D02*
X87625000Y33112500D01*
X102625000Y23512500D02*
X102625000Y28612500D01*
D15*
G04 #@! TO.C,R6*
X106223944Y97330427D02*
X106623943Y97330416D01*
X106225000Y98076262D02*
X106625000Y98076252D01*
D16*
G04 #@! TO.C,Q2*
X96230000Y95900000D02*
X96230000Y95630000D01*
X96230000Y95630000D02*
X93400000Y95630000D01*
X96230000Y89270000D02*
X95130000Y89270000D01*
X96230000Y89000000D02*
X96230000Y89270000D01*
X97730000Y95900000D02*
X96230000Y95900000D01*
X97730000Y89000000D02*
X96230000Y89000000D01*
G04 #@! TO.C,M3*
D14*
X75675000Y46275000D02*
X48175000Y46275000D01*
X48175000Y32375000D01*
X75675000Y32375000D01*
X75675000Y46275000D01*
G04 #@! TO.C,M9*
D17*
X122275000Y44675000D02*
X135975000Y44675000D01*
X135975000Y34775000D01*
X122275000Y34775000D01*
X122275000Y44675000D01*
D16*
G04 #@! TO.C,F2*
X94235000Y66645000D02*
X99085000Y66645000D01*
X94235000Y64645000D02*
X99085000Y64645000D01*
X94185000Y64645000D02*
G75*
G02*
X94185000Y66645000I0J1000000D01*
G01*
X99085000Y66645000D02*
G75*
G02*
X99085000Y64645000I0J-1000000D01*
G01*
D15*
G04 #@! TO.C,R8*
X123673944Y101228519D02*
X124073943Y101228508D01*
X123675000Y101974354D02*
X124075000Y101974344D01*
G04 #@! TO.C,R2*
X94073944Y51428519D02*
X94473943Y51428508D01*
X94075000Y52174354D02*
X94475000Y52174344D01*
D16*
G04 #@! TO.C,F3*
X94235000Y63525000D02*
X99085000Y63525000D01*
X94235000Y61525000D02*
X99085000Y61525000D01*
X94185000Y61525000D02*
G75*
G02*
X94185000Y63525000I0J1000000D01*
G01*
X99085000Y63525000D02*
G75*
G02*
X99085000Y61525000I0J-1000000D01*
G01*
D15*
G04 #@! TO.C,R5*
X106223944Y99279473D02*
X106623943Y99279462D01*
X106225000Y100025308D02*
X106625000Y100025298D01*
D16*
G04 #@! TO.C,Q4*
X96230000Y79800000D02*
X96230000Y79530000D01*
X96230000Y79530000D02*
X93400000Y79530000D01*
X96230000Y73170000D02*
X95130000Y73170000D01*
X96230000Y72900000D02*
X96230000Y73170000D01*
X97730000Y79800000D02*
X96230000Y79800000D01*
X97730000Y72900000D02*
X96230000Y72900000D01*
D14*
G04 #@! TO.C,M5*
X87625000Y44162500D02*
X87625000Y37762500D01*
X87625000Y34562500D02*
X87625000Y35862500D01*
X87625000Y34562500D02*
X102625000Y34562500D01*
X102025000Y44162500D02*
X87625000Y44162500D01*
X102625000Y34562500D02*
X102625000Y39662500D01*
G04 #@! TO.C,M8*
X102699999Y15649996D02*
X102699999Y18849999D01*
X102699999Y3549996D02*
X102699999Y13949998D01*
X102699999Y1649996D02*
X102699999Y1949996D01*
X102699999Y1649996D02*
X118099999Y1649996D01*
X104199999Y22249994D02*
X119499998Y22249996D01*
X119499996Y15549998D02*
X119499996Y20349998D01*
X119499996Y9349996D02*
X119499996Y12049996D01*
X119499996Y6649998D02*
X119499996Y7750001D01*
X119499996Y3099996D02*
X119500001Y4649996D01*
X119499998Y21949998D02*
X119499998Y22249996D01*
G04 #@! TO.C,M4*
X101494997Y69685805D02*
X112669997Y69724652D01*
X101494997Y63988324D02*
X101494997Y69685805D01*
X101494997Y63988324D02*
X101770001Y63713320D01*
X101770001Y62838326D02*
X101770001Y63713320D01*
X101770001Y62838326D02*
X101770003Y62838323D01*
X101770003Y62838323D02*
X112669997Y62838323D01*
X112669997Y62838323D02*
X112669997Y69724652D01*
D16*
G04 #@! TO.C,Q7*
X113680000Y87850000D02*
X113680000Y87580000D01*
X113680000Y87580000D02*
X110850000Y87580000D01*
X113680000Y81220000D02*
X112580000Y81220000D01*
X113680000Y80950000D02*
X113680000Y81220000D01*
X115180000Y87850000D02*
X113680000Y87850000D01*
X115180000Y80950000D02*
X113680000Y80950000D01*
D14*
G04 #@! TO.C,M7*
X101495000Y61395000D02*
X110595000Y61395000D01*
X101495000Y58294997D02*
X101495000Y59294999D01*
X101495000Y58294997D02*
X110595000Y58294997D01*
D16*
G04 #@! TO.C,Q1*
X96230000Y103950000D02*
X96230000Y103680000D01*
X96230000Y103680000D02*
X93400000Y103680000D01*
X96230000Y97320000D02*
X95130000Y97320000D01*
X96230000Y97050000D02*
X96230000Y97320000D01*
X97730000Y103950000D02*
X96230000Y103950000D01*
X97730000Y97050000D02*
X96230000Y97050000D01*
G04 #@! TO.C,Q3*
X96230000Y87850000D02*
X96230000Y87580000D01*
X96230000Y87580000D02*
X93400000Y87580000D01*
X96230000Y81220000D02*
X95130000Y81220000D01*
X96230000Y80950000D02*
X96230000Y81220000D01*
X97730000Y87850000D02*
X96230000Y87850000D01*
X97730000Y80950000D02*
X96230000Y80950000D01*
D15*
G04 #@! TO.C,R9*
X123673944Y99279473D02*
X124073943Y99279462D01*
X123675000Y100025308D02*
X124075000Y100025298D01*
D14*
G04 #@! TO.C,M13*
X101495000Y56844997D02*
X110595000Y56844997D01*
X101495000Y53744994D02*
X101495000Y54744996D01*
X101495000Y53744994D02*
X110595000Y53744994D01*
D16*
G04 #@! TO.C,Q5*
X113680000Y103950000D02*
X113680000Y103680000D01*
X113680000Y103680000D02*
X110850000Y103680000D01*
X113680000Y97320000D02*
X112580000Y97320000D01*
X113680000Y97050000D02*
X113680000Y97320000D01*
X115180000Y103950000D02*
X113680000Y103950000D01*
X115180000Y97050000D02*
X113680000Y97050000D01*
G04 #@! TO.C,Q8*
X113680000Y79800000D02*
X113680000Y79530000D01*
X113680000Y79530000D02*
X110850000Y79530000D01*
X113680000Y73170000D02*
X112580000Y73170000D01*
X113680000Y72900000D02*
X113680000Y73170000D01*
X115180000Y79800000D02*
X113680000Y79800000D01*
X115180000Y72900000D02*
X113680000Y72900000D01*
D15*
G04 #@! TO.C,R10*
X123673944Y97330427D02*
X124073943Y97330416D01*
X123675000Y98076262D02*
X124075000Y98076252D01*
G04 #@! TO.C,R4*
X106223944Y101228519D02*
X106623943Y101228508D01*
X106225000Y101974354D02*
X106625000Y101974344D01*
G04 #@! TO.C,R1*
X94073944Y53377565D02*
X94473943Y53377554D01*
X94075000Y54123400D02*
X94475000Y54123390D01*
G04 #@! TO.C,R3*
X106223944Y103177565D02*
X106623943Y103177554D01*
X106225000Y103923400D02*
X106625000Y103923390D01*
D16*
G04 #@! TO.C,F4*
X94235000Y60405000D02*
X99085000Y60405000D01*
X94235000Y58405000D02*
X99085000Y58405000D01*
X94185000Y58405000D02*
G75*
G02*
X94185000Y60405000I0J1000000D01*
G01*
X99085000Y60405000D02*
G75*
G02*
X99085000Y58405000I0J-1000000D01*
G01*
D17*
G04 #@! TO.C,J1*
X50000Y111100000D02*
X50000Y2400000D01*
X50000Y2400000D02*
X5850000Y2400000D01*
X8150000Y111100000D02*
X50000Y111100000D01*
X16750000Y113100000D02*
X22150000Y113100000D01*
X16750000Y112300000D02*
X16750000Y113100000D01*
X16750000Y2400000D02*
X16750000Y400000D01*
X16750000Y400000D02*
X22150000Y400000D01*
X22150000Y113300000D02*
X22150000Y113100000D01*
X22150000Y112900000D02*
X22150000Y105700000D01*
X22150000Y600000D02*
X22150000Y8800000D01*
X22150000Y400000D02*
X22150000Y100000D01*
X22150000Y100000D02*
X32550000Y100000D01*
X32450000Y113300000D02*
X22150000Y113300000D01*
D14*
G04 #@! TO.C,M1*
X37474998Y108074995D02*
X78275001Y108074995D01*
X37474998Y68174996D02*
X37474998Y108074995D01*
X37474998Y68174996D02*
X79574998Y68174996D01*
X78275001Y108074995D02*
X79575001Y108074995D01*
X79574998Y68174996D02*
X79575001Y108074995D01*
D16*
G04 #@! TO.C,Q6*
X113680000Y95900000D02*
X113680000Y95630000D01*
X113680000Y95630000D02*
X110850000Y95630000D01*
X113680000Y89270000D02*
X112580000Y89270000D01*
X113680000Y89000000D02*
X113680000Y89270000D01*
X115180000Y95900000D02*
X113680000Y95900000D01*
X115180000Y89000000D02*
X113680000Y89000000D01*
G04 #@! TO.C,M2*
D17*
X122275000Y55925000D02*
X135975000Y55925000D01*
X135975000Y46025000D01*
X122275000Y46025000D01*
X122275000Y55925000D01*
D16*
G04 #@! TO.C,F5*
X94235000Y57285000D02*
X99085000Y57285000D01*
X94235000Y55285000D02*
X99085000Y55285000D01*
X94185000Y55285000D02*
G75*
G02*
X94185000Y57285000I0J1000000D01*
G01*
X99085000Y57285000D02*
G75*
G02*
X99085000Y55285000I0J-1000000D01*
G01*
D15*
G04 #@! TO.C,R7*
X123673944Y103177565D02*
X124073943Y103177554D01*
X123675000Y103923400D02*
X124075000Y103923390D01*
D16*
G04 #@! TO.C,F1*
X94235000Y69765000D02*
X99085000Y69765000D01*
X94235000Y67765000D02*
X99085000Y67765000D01*
X94185000Y67765000D02*
G75*
G02*
X94185000Y69765000I0J1000000D01*
G01*
X99085000Y69765000D02*
G75*
G02*
X99085000Y67765000I0J-1000000D01*
G01*
D14*
G04 #@! TO.C,M14*
X120950001Y15649996D02*
X120950001Y18849999D01*
X120950001Y3549996D02*
X120950001Y13949998D01*
X120950001Y1649996D02*
X120950001Y1949996D01*
X120950001Y1649996D02*
X136350001Y1649996D01*
X122450001Y22249994D02*
X137750000Y22249996D01*
X137749998Y15549998D02*
X137749998Y20349998D01*
X137749998Y9349996D02*
X137749998Y12049996D01*
X137749998Y6649998D02*
X137749998Y7750001D01*
X137749998Y3099996D02*
X137750003Y4649996D01*
X137750000Y21949998D02*
X137750000Y22249996D01*
G04 #@! TD*
M02*
