G04 #@! TF.GenerationSoftware,KiCad,Pcbnew,8.0.9-8.0.9-0~ubuntu24.04.1*
G04 #@! TF.CreationDate,2025-02-19T22:05:32+00:00*
G04 #@! TF.ProjectId,rusefiSTI2004,72757365-6669-4535-9449-323030342e6b,rev?*
G04 #@! TF.SameCoordinates,Original*
G04 #@! TF.FileFunction,Copper,L2,Bot*
G04 #@! TF.FilePolarity,Positive*
%FSLAX46Y46*%
G04 Gerber Fmt 4.6, Leading zero omitted, Abs format (unit mm)*
G04 Created by KiCad (PCBNEW 8.0.9-8.0.9-0~ubuntu24.04.1) date 2025-02-19 22:05:32*
%MOMM*%
%LPD*%
G01*
G04 APERTURE LIST*
G04 #@! TA.AperFunction,ComponentPad*
%ADD10C,0.600000*%
G04 #@! TD*
G04 #@! TA.AperFunction,SMDPad,CuDef*
%ADD11R,0.250000X6.185000*%
G04 #@! TD*
G04 #@! TA.AperFunction,SMDPad,CuDef*
%ADD12R,0.250000X1.115000*%
G04 #@! TD*
G04 #@! TA.AperFunction,SMDPad,CuDef*
%ADD13R,14.275000X0.250000*%
G04 #@! TD*
G04 #@! TA.AperFunction,SMDPad,CuDef*
%ADD14R,15.100000X0.250000*%
G04 #@! TD*
G04 #@! TA.AperFunction,SMDPad,CuDef*
%ADD15R,0.250000X5.175000*%
G04 #@! TD*
G04 #@! TA.AperFunction,ComponentPad*
%ADD16C,0.700000*%
G04 #@! TD*
G04 #@! TA.AperFunction,SMDPad,CuDef*
%ADD17R,0.250000X1.100000*%
G04 #@! TD*
G04 #@! TA.AperFunction,SMDPad,CuDef*
%ADD18R,0.250000X0.980000*%
G04 #@! TD*
G04 #@! TA.AperFunction,SMDPad,CuDef*
%ADD19R,0.250000X6.300000*%
G04 #@! TD*
G04 #@! TA.AperFunction,SMDPad,CuDef*
%ADD20R,27.600000X0.250000*%
G04 #@! TD*
G04 #@! TA.AperFunction,SMDPad,CuDef*
%ADD21R,0.250000X8.750000*%
G04 #@! TD*
G04 #@! TA.AperFunction,SMDPad,CuDef*
%ADD22R,0.250000X0.950000*%
G04 #@! TD*
G04 #@! TA.AperFunction,SMDPad,CuDef*
%ADD23R,0.200000X4.400000*%
G04 #@! TD*
G04 #@! TA.AperFunction,SMDPad,CuDef*
%ADD24R,1.200000X0.200000*%
G04 #@! TD*
G04 #@! TA.AperFunction,SMDPad,CuDef*
%ADD25R,6.800000X0.200000*%
G04 #@! TD*
G04 #@! TA.AperFunction,SMDPad,CuDef*
%ADD26R,4.000000X0.200000*%
G04 #@! TD*
G04 #@! TA.AperFunction,SMDPad,CuDef*
%ADD27R,1.800000X0.200000*%
G04 #@! TD*
G04 #@! TA.AperFunction,SMDPad,CuDef*
%ADD28R,0.200000X10.000000*%
G04 #@! TD*
G04 #@! TA.AperFunction,ComponentPad*
%ADD29C,1.000000*%
G04 #@! TD*
G04 #@! TA.AperFunction,ComponentPad*
%ADD30C,1.524000*%
G04 #@! TD*
G04 #@! TA.AperFunction,ComponentPad*
%ADD31C,1.500000*%
G04 #@! TD*
G04 #@! TA.AperFunction,SMDPad,CuDef*
%ADD32O,0.200000X3.300000*%
G04 #@! TD*
G04 #@! TA.AperFunction,SMDPad,CuDef*
%ADD33O,0.200000X10.200000*%
G04 #@! TD*
G04 #@! TA.AperFunction,SMDPad,CuDef*
%ADD34O,0.200000X0.300000*%
G04 #@! TD*
G04 #@! TA.AperFunction,SMDPad,CuDef*
%ADD35O,17.000000X0.200000*%
G04 #@! TD*
G04 #@! TA.AperFunction,SMDPad,CuDef*
%ADD36O,15.400000X0.200000*%
G04 #@! TD*
G04 #@! TA.AperFunction,SMDPad,CuDef*
%ADD37O,0.200000X4.800000*%
G04 #@! TD*
G04 #@! TA.AperFunction,SMDPad,CuDef*
%ADD38O,0.200000X2.600000*%
G04 #@! TD*
G04 #@! TA.AperFunction,SMDPad,CuDef*
%ADD39O,0.200000X1.000000*%
G04 #@! TD*
G04 #@! TA.AperFunction,SMDPad,CuDef*
%ADD40O,0.200000X1.500000*%
G04 #@! TD*
G04 #@! TA.AperFunction,ComponentPad*
%ADD41C,0.599999*%
G04 #@! TD*
G04 #@! TA.AperFunction,SMDPad,CuDef*
%ADD42O,0.200000X1.225000*%
G04 #@! TD*
G04 #@! TA.AperFunction,SMDPad,CuDef*
%ADD43O,9.300000X0.200000*%
G04 #@! TD*
G04 #@! TA.AperFunction,ComponentPad*
%ADD44C,2.000000*%
G04 #@! TD*
G04 #@! TA.AperFunction,SMDPad,CuDef*
%ADD45R,0.200000X2.300000*%
G04 #@! TD*
G04 #@! TA.AperFunction,SMDPad,CuDef*
%ADD46R,0.200000X5.400000*%
G04 #@! TD*
G04 #@! TA.AperFunction,SMDPad,CuDef*
%ADD47R,0.200000X8.600000*%
G04 #@! TD*
G04 #@! TA.AperFunction,SMDPad,CuDef*
%ADD48R,0.200000X5.000000*%
G04 #@! TD*
G04 #@! TA.AperFunction,SMDPad,CuDef*
%ADD49R,1.400000X0.200000*%
G04 #@! TD*
G04 #@! TA.AperFunction,SMDPad,CuDef*
%ADD50R,5.000000X0.200000*%
G04 #@! TD*
G04 #@! TA.AperFunction,SMDPad,CuDef*
%ADD51R,4.500000X0.200000*%
G04 #@! TD*
G04 #@! TA.AperFunction,SMDPad,CuDef*
%ADD52R,0.200000X1.600000*%
G04 #@! TD*
G04 #@! TA.AperFunction,SMDPad,CuDef*
%ADD53R,0.200000X5.700000*%
G04 #@! TD*
G04 #@! TA.AperFunction,SMDPad,CuDef*
%ADD54R,0.200000X2.000000*%
G04 #@! TD*
G04 APERTURE END LIST*
D10*
G04 #@! TO.P,M6,E1,Thresh_IN*
G04 #@! TO.N,/THRESHOLD_VR_CR*
X102325000Y30312500D03*
G04 #@! TO.P,M6,E2,OUT_A*
G04 #@! TO.N,/VR_ANALOG_CR*
X102325000Y29112500D03*
G04 #@! TO.P,M6,E3,OUT*
G04 #@! TO.N,/IN_CRANK*
X102325000Y31512500D03*
G04 #@! TO.P,M6,E4,V5_IN*
G04 #@! TO.N,+5VA*
X102325000Y32712500D03*
D11*
G04 #@! TO.P,M6,G,GND*
G04 #@! TO.N,GND*
X87675000Y30045000D03*
D12*
X87675000Y23995000D03*
D13*
X94687500Y33012500D03*
D14*
X95100000Y23562500D03*
D15*
X102525000Y26025000D03*
D10*
G04 #@! TO.P,M6,W1,VR-*
G04 #@! TO.N,/IN_CRANK-*
X87900000Y26252500D03*
G04 #@! TO.P,M6,W2,VR+*
G04 #@! TO.N,/IN_CRANK+*
X87900000Y25252500D03*
G04 #@! TD*
D16*
G04 #@! TO.P,M3,E1,LSU_Un*
G04 #@! TO.N,unconnected-(M3-LSU_Un-PadE1)*
X75225000Y33925000D03*
G04 #@! TO.P,M3,E2,LSU_Vm*
G04 #@! TO.N,unconnected-(M3-LSU_Vm-PadE2)*
X75225000Y36925000D03*
G04 #@! TO.P,M3,E3,LSU_Ip*
G04 #@! TO.N,unconnected-(M3-LSU_Ip-PadE3)*
X75225000Y35925000D03*
G04 #@! TO.P,M3,E4,LSU_Rtrim*
G04 #@! TO.N,unconnected-(M3-LSU_Rtrim-PadE4)*
X75225000Y34925000D03*
D17*
G04 #@! TO.P,M3,G,GND*
G04 #@! TO.N,unconnected-(M3-GND-PadG)*
X48250000Y45775000D03*
D18*
X48250000Y41435000D03*
D19*
X48250000Y35475000D03*
D20*
X61925000Y46200000D03*
X61925000Y32450000D03*
D21*
X75600000Y41950000D03*
D22*
X75600000Y32800000D03*
D16*
G04 #@! TO.P,M3,W1,V5_IN*
G04 #@! TO.N,unconnected-(M3-V5_IN-PadW1)*
X48633800Y43575000D03*
G04 #@! TO.P,M3,W2,CAN_VIO*
G04 #@! TO.N,unconnected-(M3-CAN_VIO-PadW2)*
X48633800Y42575000D03*
G04 #@! TO.P,M3,W3,CANL*
G04 #@! TO.N,unconnected-(M3-CANL-PadW3)*
X48633800Y39279000D03*
G04 #@! TO.P,M3,W4,CANH*
G04 #@! TO.N,unconnected-(M3-CANH-PadW4)*
X48633800Y40295000D03*
G04 #@! TO.P,M3,W9,VDDA*
G04 #@! TO.N,unconnected-(M3-VDDA-PadW9)*
X48633800Y44575000D03*
G04 #@! TD*
D23*
G04 #@! TO.P,M9,G,GND*
G04 #@! TO.N,unconnected-(M9-GND-PadG)*
X122325000Y36925000D03*
D24*
X122825000Y34825000D03*
D25*
X127225000Y44625000D03*
X129425000Y34825000D03*
D26*
X134025000Y44625000D03*
D27*
X135125000Y34825000D03*
D28*
X135925000Y39725000D03*
D10*
G04 #@! TO.P,M9,N1,MOSI*
G04 #@! TO.N,unconnected-(M9-MOSI-PadN1)*
X123325000Y44425000D03*
D29*
G04 #@! TO.P,M9,N2,12V_IN*
G04 #@! TO.N,unconnected-(M9-12V_IN-PadN2)*
X131325000Y44225000D03*
G04 #@! TO.P,M9,S1,12V_IN*
G04 #@! TO.N,unconnected-(M9-12V_IN-PadS1)*
X124125000Y35225000D03*
G04 #@! TO.P,M9,S2,OUT-*
G04 #@! TO.N,unconnected-(M9-OUT--PadS2)*
X125325000Y35225000D03*
G04 #@! TO.P,M9,S3,OUT+*
G04 #@! TO.N,unconnected-(M9-OUT+-PadS3)*
X133525000Y35225000D03*
D10*
G04 #@! TO.P,M9,W1,DIS*
G04 #@! TO.N,unconnected-(M9-DIS-PadW1)*
X122525000Y44425000D03*
G04 #@! TO.P,M9,W2,PWM*
G04 #@! TO.N,unconnected-(M9-PWM-PadW2)*
X122525000Y43625000D03*
G04 #@! TO.P,M9,W3,SCLK*
G04 #@! TO.N,unconnected-(M9-SCLK-PadW3)*
X122525000Y42825000D03*
G04 #@! TO.P,M9,W4,DIR*
G04 #@! TO.N,unconnected-(M9-DIR-PadW4)*
X122525000Y42025000D03*
G04 #@! TO.P,M9,W5,3V3_IN*
G04 #@! TO.N,unconnected-(M9-3V3_IN-PadW5)*
X122525000Y41225000D03*
G04 #@! TO.P,M9,W6,MISO*
G04 #@! TO.N,unconnected-(M9-MISO-PadW6)*
X122525000Y40425000D03*
G04 #@! TO.P,M9,W7,~CS*
G04 #@! TO.N,unconnected-(M9-~CS-PadW7)*
X122525000Y39625000D03*
G04 #@! TD*
D30*
G04 #@! TO.P,F2,1,1*
G04 #@! TO.N,Net-(F2-Pad1)*
X94185000Y65645000D03*
G04 #@! TO.P,F2,2,2*
G04 #@! TO.N,/OUT_IGN3*
X99085000Y65645000D03*
G04 #@! TD*
G04 #@! TO.P,F3,1,1*
G04 #@! TO.N,Net-(F3-Pad1)*
X94185000Y62525000D03*
G04 #@! TO.P,F3,2,2*
G04 #@! TO.N,/OUT_IGN2*
X99085000Y62525000D03*
G04 #@! TD*
D10*
G04 #@! TO.P,M5,E1,Thresh_IN*
G04 #@! TO.N,/THRESHOLD_VR_CR*
X102325000Y41362500D03*
G04 #@! TO.P,M5,E2,OUT_A*
G04 #@! TO.N,/VR_ANALOG_CR*
X102325000Y40162500D03*
G04 #@! TO.P,M5,E3,OUT*
G04 #@! TO.N,/IN_CRANK*
X102325000Y42562500D03*
G04 #@! TO.P,M5,E4,V5_IN*
G04 #@! TO.N,+5VA*
X102325000Y43762500D03*
D11*
G04 #@! TO.P,M5,G,GND*
G04 #@! TO.N,GND*
X87675000Y41095000D03*
D12*
X87675000Y35045000D03*
D13*
X94687500Y44062500D03*
D14*
X95100000Y34612500D03*
D15*
X102525000Y37075000D03*
D10*
G04 #@! TO.P,M5,W1,VR-*
G04 #@! TO.N,/IN_CRANK-*
X87900000Y37302500D03*
G04 #@! TO.P,M5,W2,VR+*
G04 #@! TO.N,/IN_CRANK+*
X87900000Y36302500D03*
G04 #@! TD*
D31*
G04 #@! TO.P,M8,E1,VBAT*
G04 #@! TO.N,unconnected-(M8-VBAT-PadE1)*
X118849995Y21149996D03*
G04 #@! TO.P,M8,E2,V12*
G04 #@! TO.N,unconnected-(M8-V12-PadE2)*
X118849995Y14749999D03*
G04 #@! TO.P,M8,E3,VIGN*
G04 #@! TO.N,unconnected-(M8-VIGN-PadE3)*
X118849995Y12849996D03*
G04 #@! TO.P,M8,E4,V5*
G04 #@! TO.N,unconnected-(M8-V5-PadE4)*
X118849995Y8549996D03*
D10*
G04 #@! TO.P,M8,E5,EN_5VP*
G04 #@! TO.N,unconnected-(M8-EN_5VP-PadE5)*
X119299994Y6149999D03*
G04 #@! TO.P,M8,E6,PG_5VP*
G04 #@! TO.N,unconnected-(M8-PG_5VP-PadE6)*
X119299994Y5149998D03*
D32*
G04 #@! TO.P,M8,S1,GND*
G04 #@! TO.N,unconnected-(M8-GND-PadS1)*
X102699999Y17299996D03*
D33*
X102699999Y8799998D03*
D34*
X102699999Y1699996D03*
D35*
X111099997Y1649996D03*
D36*
X111899998Y22249996D03*
D31*
X118849995Y2299996D03*
D34*
X119499996Y22199996D03*
D37*
X119499996Y17999998D03*
D38*
X119499996Y10649996D03*
D39*
X119499996Y7149999D03*
D40*
X119499996Y3849998D03*
D31*
G04 #@! TO.P,M8,V1,V12_PERM*
G04 #@! TO.N,unconnected-(M8-V12_PERM-PadV1)*
X103349998Y21599998D03*
G04 #@! TO.P,M8,V2,IN_VIGN*
G04 #@! TO.N,unconnected-(M8-IN_VIGN-PadV2)*
X103349998Y19749999D03*
G04 #@! TO.P,M8,V3,V12_RAW*
G04 #@! TO.N,unconnected-(M8-V12_RAW-PadV3)*
X103349998Y14799996D03*
G04 #@! TO.P,M8,V4,5VP*
G04 #@! TO.N,unconnected-(M8-5VP-PadV4)*
X103349998Y2749998D03*
G04 #@! TD*
D41*
G04 #@! TO.P,M4,V1,V5*
G04 #@! TO.N,unconnected-(M4-V5-PadV1)*
X109094997Y64113325D03*
G04 #@! TO.P,M4,V2,CAN_VIO*
G04 #@! TO.N,unconnected-(M4-CAN_VIO-PadV2)*
X108219995Y64638325D03*
G04 #@! TO.P,M4,V5,CAN_TX*
G04 #@! TO.N,unconnected-(M4-CAN_TX-PadV5)*
X109394999Y65388323D03*
G04 #@! TO.P,M4,V6,CAN_RX*
G04 #@! TO.N,unconnected-(M4-CAN_RX-PadV6)*
X109319996Y68938324D03*
G04 #@! TD*
D10*
G04 #@! TO.P,M7,E1,V5A*
G04 #@! TO.N,unconnected-(M7-V5A-PadE1)*
X110395000Y60794997D03*
D42*
G04 #@! TO.P,M7,E2,GND*
G04 #@! TO.N,unconnected-(M7-GND-PadE2)*
X101495000Y58819997D03*
D43*
X106045000Y61394997D03*
X106045000Y58294997D03*
D10*
X110395000Y59844997D03*
G04 #@! TO.P,M7,E3,OUT_KNOCK*
G04 #@! TO.N,unconnected-(M7-OUT_KNOCK-PadE3)*
X110395000Y58894999D03*
G04 #@! TO.P,M7,W1,IN_KNOCK*
G04 #@! TO.N,unconnected-(M7-IN_KNOCK-PadW1)*
X101695000Y59894997D03*
G04 #@! TO.P,M7,W2,VREF*
G04 #@! TO.N,unconnected-(M7-VREF-PadW2)*
X101695000Y60794997D03*
G04 #@! TD*
G04 #@! TO.P,M13,E1,V5A*
G04 #@! TO.N,+5VA*
X110395000Y56244994D03*
D42*
G04 #@! TO.P,M13,E2,GND*
G04 #@! TO.N,GND*
X101495000Y54269994D03*
D43*
X106045000Y56844994D03*
X106045000Y53744994D03*
D10*
X110395000Y55294994D03*
G04 #@! TO.P,M13,E3,OUT_KNOCK*
G04 #@! TO.N,/IN_KNOCK*
X110395000Y54344996D03*
G04 #@! TO.P,M13,W1,IN_KNOCK*
G04 #@! TO.N,/IN_KNOCK_RAW*
X101695000Y55344994D03*
G04 #@! TO.P,M13,W2,VREF*
G04 #@! TO.N,/VREF*
X101695000Y56244994D03*
G04 #@! TD*
D30*
G04 #@! TO.P,F4,1,1*
G04 #@! TO.N,Net-(F4-Pad1)*
X94185000Y59405000D03*
G04 #@! TO.P,F4,2,2*
G04 #@! TO.N,/OUT_IGN1*
X99085000Y59405000D03*
G04 #@! TD*
D44*
G04 #@! TO.P,J1,1,1*
G04 #@! TO.N,GND*
X5750000Y108800000D03*
G04 #@! TO.P,J1,2,2*
X5750000Y105600000D03*
G04 #@! TO.P,J1,3,3*
X5750000Y102400000D03*
G04 #@! TO.P,J1,4,4*
G04 #@! TO.N,/OUT_ETB-*
X5750000Y99200000D03*
G04 #@! TO.P,J1,5,5*
G04 #@! TO.N,/OUT_ETB+*
X5750000Y96000000D03*
G04 #@! TO.P,J1,6,6*
G04 #@! TO.N,Net-(F5-Pad1)*
X5750000Y92800000D03*
G04 #@! TO.P,J1,7,7*
G04 #@! TO.N,/GND_INJECTORS*
X5750000Y89600000D03*
G04 #@! TO.P,J1,8,8*
G04 #@! TO.N,/IN_STARTER_SWITCH*
X10750000Y109100000D03*
G04 #@! TO.P,J1,9,9*
G04 #@! TO.N,/IN_NEUTRAL_SWITCH*
X9250000Y106900000D03*
G04 #@! TO.P,J1,10,10*
G04 #@! TO.N,/IN_PS_PRESSURE_SWIITCH*
X10750000Y104700000D03*
G04 #@! TO.P,J1,11,11*
G04 #@! TO.N,unconnected-(J1-Pad11)*
X9250000Y102500000D03*
G04 #@! TO.P,J1,12,12*
G04 #@! TO.N,unconnected-(J1-Pad12)*
X10750000Y100300000D03*
G04 #@! TO.P,J1,13,13*
G04 #@! TO.N,unconnected-(J1-Pad13)*
X9250000Y98100000D03*
G04 #@! TO.P,J1,14,14*
G04 #@! TO.N,unconnected-(J1-Pad14)*
X10750000Y95900000D03*
G04 #@! TO.P,J1,15,15*
G04 #@! TO.N,+12V_IGN*
X9250000Y93700000D03*
G04 #@! TO.P,J1,16,16*
G04 #@! TO.N,unconnected-(J1-Pad16)*
X10750000Y91500000D03*
G04 #@! TO.P,J1,17,17*
G04 #@! TO.N,/OUT_MAIN_RELAY*
X9250000Y89300000D03*
G04 #@! TO.P,J1,18,18*
G04 #@! TO.N,unconnected-(J1-Pad18)*
X13750000Y109100000D03*
G04 #@! TO.P,J1,19,19*
G04 #@! TO.N,unconnected-(J1-Pad19)*
X12250000Y106900000D03*
G04 #@! TO.P,J1,20,20*
G04 #@! TO.N,unconnected-(J1-Pad20)*
X13750000Y104700000D03*
G04 #@! TO.P,J1,21,21*
G04 #@! TO.N,unconnected-(J1-Pad21)*
X12250000Y102500000D03*
G04 #@! TO.P,J1,22,22*
G04 #@! TO.N,/IN_CRANK-*
X13750000Y100300000D03*
G04 #@! TO.P,J1,23,23*
G04 #@! TO.N,unconnected-(J1-Pad23)*
X12250000Y98100000D03*
G04 #@! TO.P,J1,24,24*
G04 #@! TO.N,unconnected-(J1-Pad24)*
X13750000Y91500000D03*
G04 #@! TO.P,J1,25,25*
G04 #@! TO.N,unconnected-(J1-Pad25)*
X12250000Y89300000D03*
G04 #@! TO.P,J1,26,26*
G04 #@! TO.N,unconnected-(J1-Pad26)*
X16750000Y109100000D03*
G04 #@! TO.P,J1,27,27*
G04 #@! TO.N,unconnected-(J1-Pad27)*
X15250000Y106900000D03*
G04 #@! TO.P,J1,28,28*
G04 #@! TO.N,/FUEL_PUMP_SIGNAL2*
X16750000Y100300000D03*
G04 #@! TO.P,J1,29,29*
G04 #@! TO.N,unconnected-(J1-Pad29)*
X15250000Y98100000D03*
G04 #@! TO.P,J1,30,30*
G04 #@! TO.N,unconnected-(J1-Pad30)*
X16750000Y91500000D03*
G04 #@! TO.P,J1,31,31*
G04 #@! TO.N,GND*
X15250000Y89300000D03*
G04 #@! TO.P,J1,32,32*
G04 #@! TO.N,unconnected-(J1-Pad32)*
X5750000Y80500000D03*
G04 #@! TO.P,J1,33,33*
G04 #@! TO.N,unconnected-(J1-Pad33)*
X5750000Y77300000D03*
G04 #@! TO.P,J1,34,34*
G04 #@! TO.N,/OUT_INJ4*
X5750000Y74100000D03*
G04 #@! TO.P,J1,35,35*
G04 #@! TO.N,/OUT_INJ3*
X5750000Y70900000D03*
G04 #@! TO.P,J1,36,36*
G04 #@! TO.N,/OUT_INJ2*
X5850000Y64500000D03*
G04 #@! TO.P,J1,37,37*
G04 #@! TO.N,/OUT_INJ1*
X5850000Y61300000D03*
G04 #@! TO.P,J1,38,38*
G04 #@! TO.N,unconnected-(J1-Pad38)*
X9250000Y80800000D03*
G04 #@! TO.P,J1,39,39*
G04 #@! TO.N,unconnected-(J1-Pad39)*
X10750000Y78600000D03*
G04 #@! TO.P,J1,40,40*
G04 #@! TO.N,unconnected-(J1-Pad40)*
X9250000Y76400000D03*
G04 #@! TO.P,J1,41,41*
G04 #@! TO.N,unconnected-(J1-Pad41)*
X10750000Y74200000D03*
G04 #@! TO.P,J1,42,42*
G04 #@! TO.N,unconnected-(J1-Pad42)*
X9250000Y72000000D03*
G04 #@! TO.P,J1,43,43*
G04 #@! TO.N,unconnected-(J1-Pad43)*
X10750000Y69800000D03*
G04 #@! TO.P,J1,44,44*
G04 #@! TO.N,/IN_IAT*
X9250000Y67600000D03*
G04 #@! TO.P,J1,45,45*
G04 #@! TO.N,/IN_ECT*
X10750000Y65400000D03*
G04 #@! TO.P,J1,46,46*
G04 #@! TO.N,/APS_PS_5V*
X9250000Y63200000D03*
G04 #@! TO.P,J1,47,47*
G04 #@! TO.N,/SENSOR_PS_5V*
X10750000Y61000000D03*
G04 #@! TO.P,J1,48,48*
G04 #@! TO.N,/IN_PPS_MAIN*
X13750000Y83000000D03*
G04 #@! TO.P,J1,49,49*
G04 #@! TO.N,/IN_TPS_MAIN*
X12350000Y80800000D03*
G04 #@! TO.P,J1,50,50*
G04 #@! TO.N,unconnected-(J1-Pad50)*
X13750000Y78600000D03*
G04 #@! TO.P,J1,51,51*
G04 #@! TO.N,/IN_FUEL_LEVEL*
X12250000Y76400000D03*
G04 #@! TO.P,J1,52,52*
G04 #@! TO.N,unconnected-(J1-Pad52)*
X13750000Y74200000D03*
G04 #@! TO.P,J1,53,53*
G04 #@! TO.N,unconnected-(J1-Pad53)*
X12250000Y72000000D03*
G04 #@! TO.P,J1,54,54*
G04 #@! TO.N,/IN_MAP*
X13750000Y69800000D03*
G04 #@! TO.P,J1,55,55*
G04 #@! TO.N,unconnected-(J1-Pad55)*
X12250000Y67600000D03*
G04 #@! TO.P,J1,56,56*
G04 #@! TO.N,/IN_KNOCK_RAW*
X13750000Y65400000D03*
G04 #@! TO.P,J1,57,57*
G04 #@! TO.N,/IN_TUMBLE_SENSOR_LH*
X12250000Y63200000D03*
G04 #@! TO.P,J1,58,58*
G04 #@! TO.N,/IN_TUMBLE_SENSOR_RH*
X13750000Y61000000D03*
G04 #@! TO.P,J1,59,59*
G04 #@! TO.N,/IN_PPS_SUB*
X16750000Y83000000D03*
G04 #@! TO.P,J1,60,60*
G04 #@! TO.N,/IN_TPS_SUB*
X15250000Y80800000D03*
G04 #@! TO.P,J1,61,61*
G04 #@! TO.N,unconnected-(J1-Pad61)*
X16750000Y78600000D03*
G04 #@! TO.P,J1,62,62*
G04 #@! TO.N,GND*
X16750000Y69800000D03*
G04 #@! TO.P,J1,63,63*
X15250000Y67600000D03*
G04 #@! TO.P,J1,64,64*
X16750000Y65400000D03*
G04 #@! TO.P,J1,65,65*
X15250000Y63200000D03*
G04 #@! TO.P,J1,66,66*
X16750000Y61000000D03*
G04 #@! TO.P,J1,67,67*
X5750000Y54400000D03*
G04 #@! TO.P,J1,68,68*
G04 #@! TO.N,unconnected-(J1-Pad68)*
X5750000Y51200000D03*
G04 #@! TO.P,J1,69,69*
G04 #@! TO.N,unconnected-(J1-Pad69)*
X5750000Y44800000D03*
G04 #@! TO.P,J1,70,70*
G04 #@! TO.N,GND*
X5750000Y41600000D03*
G04 #@! TO.P,J1,71,71*
G04 #@! TO.N,+12V_RAW*
X5750000Y38400000D03*
G04 #@! TO.P,J1,72,72*
X5750000Y35200000D03*
G04 #@! TO.P,J1,73,73*
G04 #@! TO.N,unconnected-(J1-Pad73)*
X5750000Y32000000D03*
G04 #@! TO.P,J1,74,74*
G04 #@! TO.N,/IN_CAM_HALL_CAM_LH*
X10650000Y54700000D03*
G04 #@! TO.P,J1,75,75*
G04 #@! TO.N,/IN_CAM_HALL_CAM_RH*
X9250000Y52500000D03*
G04 #@! TO.P,J1,76,76*
G04 #@! TO.N,/IN_CRANK+*
X10750000Y50300000D03*
G04 #@! TO.P,J1,77,77*
G04 #@! TO.N,unconnected-(J1-Pad77)*
X9250000Y48100000D03*
G04 #@! TO.P,J1,78,78*
G04 #@! TO.N,GND*
X10750000Y45900000D03*
G04 #@! TO.P,J1,79,79*
G04 #@! TO.N,unconnected-(J1-Pad79)*
X9250000Y43700000D03*
G04 #@! TO.P,J1,80,80*
G04 #@! TO.N,unconnected-(J1-Pad80)*
X10750000Y41500000D03*
G04 #@! TO.P,J1,81,81*
G04 #@! TO.N,Net-(F1-Pad1)*
X9250000Y39300000D03*
G04 #@! TO.P,J1,82,82*
G04 #@! TO.N,Net-(F2-Pad1)*
X10750000Y37100000D03*
G04 #@! TO.P,J1,83,83*
G04 #@! TO.N,Net-(F3-Pad1)*
X9250000Y34900000D03*
G04 #@! TO.P,J1,84,84*
G04 #@! TO.N,Net-(F4-Pad1)*
X10750000Y32700000D03*
G04 #@! TO.P,J1,85,85*
G04 #@! TO.N,+12V_BACK_UP*
X9250000Y30500000D03*
G04 #@! TO.P,J1,86,86*
G04 #@! TO.N,unconnected-(J1-Pad86)*
X13750000Y54700000D03*
G04 #@! TO.P,J1,87,87*
G04 #@! TO.N,unconnected-(J1-Pad87)*
X12250000Y52500000D03*
G04 #@! TO.P,J1,88,88*
G04 #@! TO.N,/IN_CRANK-*
X13750000Y50300000D03*
G04 #@! TO.P,J1,89,89*
G04 #@! TO.N,unconnected-(J1-Pad89)*
X12250000Y48100000D03*
G04 #@! TO.P,J1,90,90*
G04 #@! TO.N,/OUT_FAN_RELAY_2*
X13750000Y41500000D03*
G04 #@! TO.P,J1,91,91*
G04 #@! TO.N,/OUT_FAN_RELAY_1*
X12250000Y39300000D03*
G04 #@! TO.P,J1,92,92*
G04 #@! TO.N,/FUEL_PUMP_SIGNAL1*
X13750000Y32700000D03*
G04 #@! TO.P,J1,93,93*
G04 #@! TO.N,/IN_VSS*
X12250000Y30500000D03*
G04 #@! TO.P,J1,94,94*
G04 #@! TO.N,unconnected-(J1-Pad94)*
X16750000Y54700000D03*
G04 #@! TO.P,J1,95,95*
G04 #@! TO.N,unconnected-(J1-Pad95)*
X15250000Y52500000D03*
G04 #@! TO.P,J1,96,96*
G04 #@! TO.N,unconnected-(J1-Pad96)*
X16750000Y50300000D03*
G04 #@! TO.P,J1,97,97*
G04 #@! TO.N,GND*
X15250000Y48100000D03*
G04 #@! TO.P,J1,98,98*
G04 #@! TO.N,unconnected-(J1-Pad98)*
X16750000Y41500000D03*
G04 #@! TO.P,J1,99,99*
G04 #@! TO.N,unconnected-(J1-Pad99)*
X15250000Y39300000D03*
G04 #@! TO.P,J1,100,100*
G04 #@! TO.N,unconnected-(J1-Pad100)*
X16750000Y32700000D03*
G04 #@! TO.P,J1,101,101*
G04 #@! TO.N,/OUT_ELECTRONIC_THROTTE_RELAY*
X15250000Y30500000D03*
G04 #@! TO.P,J1,102,102*
G04 #@! TO.N,/IN_CLT*
X5750000Y23900000D03*
G04 #@! TO.P,J1,103,103*
G04 #@! TO.N,unconnected-(J1-Pad103)*
X5750000Y20700000D03*
G04 #@! TO.P,J1,104,104*
G04 #@! TO.N,unconnected-(J1-Pad104)*
X5750000Y17500000D03*
G04 #@! TO.P,J1,105,105*
G04 #@! TO.N,unconnected-(J1-Pad105)*
X5750000Y14300000D03*
G04 #@! TO.P,J1,106,106*
G04 #@! TO.N,unconnected-(J1-Pad106)*
X5750000Y11100000D03*
G04 #@! TO.P,J1,107,107*
G04 #@! TO.N,GND*
X5750000Y7900000D03*
G04 #@! TO.P,J1,108,108*
X5750000Y4700000D03*
G04 #@! TO.P,J1,109,109*
G04 #@! TO.N,unconnected-(J1-Pad109)*
X10750000Y24200000D03*
G04 #@! TO.P,J1,110,110*
G04 #@! TO.N,unconnected-(J1-Pad110)*
X9250000Y22000000D03*
G04 #@! TO.P,J1,111,111*
G04 #@! TO.N,unconnected-(J1-Pad111)*
X10750000Y19800000D03*
G04 #@! TO.P,J1,112,112*
G04 #@! TO.N,unconnected-(J1-Pad112)*
X9250000Y17600000D03*
G04 #@! TO.P,J1,113,113*
G04 #@! TO.N,unconnected-(J1-Pad113)*
X10750000Y15400000D03*
G04 #@! TO.P,J1,114,114*
G04 #@! TO.N,unconnected-(J1-Pad114)*
X9250000Y13200000D03*
G04 #@! TO.P,J1,115,115*
G04 #@! TO.N,/OUT_PURGE_CONTROL*
X10750000Y11000000D03*
G04 #@! TO.P,J1,116,116*
G04 #@! TO.N,unconnected-(J1-Pad116)*
X9250000Y8800000D03*
G04 #@! TO.P,J1,117,117*
G04 #@! TO.N,unconnected-(J1-Pad117)*
X10750000Y6600000D03*
G04 #@! TO.P,J1,118,118*
G04 #@! TO.N,unconnected-(J1-Pad118)*
X9250000Y4400000D03*
G04 #@! TO.P,J1,119,119*
G04 #@! TO.N,/OUT_VVT_RH+*
X13750000Y24200000D03*
G04 #@! TO.P,J1,120,120*
G04 #@! TO.N,/OUT_VVT_LH+*
X12250000Y22000000D03*
G04 #@! TO.P,J1,121,121*
G04 #@! TO.N,unconnected-(J1-Pad121)*
X13750000Y19800000D03*
G04 #@! TO.P,J1,122,122*
G04 #@! TO.N,unconnected-(J1-Pad122)*
X12250000Y17600000D03*
G04 #@! TO.P,J1,123,123*
G04 #@! TO.N,unconnected-(J1-Pad123)*
X13750000Y15400000D03*
G04 #@! TO.P,J1,124,124*
G04 #@! TO.N,/OUT_TACH*
X12250000Y13200000D03*
G04 #@! TO.P,J1,125,125*
G04 #@! TO.N,unconnected-(J1-Pad125)*
X13750000Y11000000D03*
G04 #@! TO.P,J1,126,126*
G04 #@! TO.N,unconnected-(J1-Pad126)*
X12250000Y8800000D03*
G04 #@! TO.P,J1,127,127*
G04 #@! TO.N,unconnected-(J1-Pad127)*
X13750000Y6600000D03*
G04 #@! TO.P,J1,128,128*
G04 #@! TO.N,unconnected-(J1-Pad128)*
X12250000Y4400000D03*
G04 #@! TO.P,J1,129,129*
G04 #@! TO.N,/OUT_VVT_RH-*
X16750000Y24200000D03*
G04 #@! TO.P,J1,130,130*
G04 #@! TO.N,/OUT_VVT_LH-*
X15250000Y22000000D03*
G04 #@! TO.P,J1,131,131*
G04 #@! TO.N,unconnected-(J1-Pad131)*
X16750000Y19800000D03*
G04 #@! TO.P,J1,132,132*
G04 #@! TO.N,unconnected-(J1-Pad132)*
X15250000Y17600000D03*
G04 #@! TO.P,J1,133,133*
G04 #@! TO.N,/OUT_WG*
X16750000Y15400000D03*
G04 #@! TO.P,J1,134,134*
G04 #@! TO.N,unconnected-(J1-Pad134)*
X16750000Y6600000D03*
G04 #@! TO.P,J1,135,135*
G04 #@! TO.N,unconnected-(J1-Pad135)*
X15250000Y4400000D03*
G04 #@! TD*
D10*
G04 #@! TO.P,M1,E1,SPI2_SCK/CAN2_TX*
G04 #@! TO.N,unconnected-(M1-SPI2_SCK{slash}CAN2_TX-PadE1)*
X79375000Y105274997D03*
G04 #@! TO.P,M1,E2,SPI2_MISO*
G04 #@! TO.N,unconnected-(M1-SPI2_MISO-PadE2)*
X79375000Y104474996D03*
G04 #@! TO.P,M1,E3,SPI2_MOSI*
G04 #@! TO.N,unconnected-(M1-SPI2_MOSI-PadE3)*
X79375000Y103674998D03*
G04 #@! TO.P,M1,E4,SPI2_CS/CAN2_RX*
G04 #@! TO.N,unconnected-(M1-SPI2_CS{slash}CAN2_RX-PadE4)*
X79375000Y102874997D03*
G04 #@! TO.P,M1,E6,OUT_IO3*
G04 #@! TO.N,unconnected-(M1-OUT_IO3-PadE6)*
X79375000Y102074996D03*
G04 #@! TO.P,M1,E7,OUT_IO5*
G04 #@! TO.N,unconnected-(M1-OUT_IO5-PadE7)*
X79374997Y101274998D03*
G04 #@! TO.P,M1,E8,OUT_IO1*
G04 #@! TO.N,unconnected-(M1-OUT_IO1-PadE8)*
X79374997Y100474997D03*
G04 #@! TO.P,M1,E9,OUT_IO6*
G04 #@! TO.N,unconnected-(M1-OUT_IO6-PadE9)*
X79375000Y99674993D03*
G04 #@! TO.P,M1,E10,OUT_IO10*
G04 #@! TO.N,unconnected-(M1-OUT_IO10-PadE10)*
X79375000Y98874997D03*
G04 #@! TO.P,M1,E11,OUT_IO9*
G04 #@! TO.N,unconnected-(M1-OUT_IO9-PadE11)*
X79375000Y98074997D03*
G04 #@! TO.P,M1,E12,OUT_IO2*
G04 #@! TO.N,unconnected-(M1-OUT_IO2-PadE12)*
X79375000Y97274996D03*
G04 #@! TO.P,M1,E13,OUT_IO12*
G04 #@! TO.N,unconnected-(M1-OUT_IO12-PadE13)*
X79374997Y96474997D03*
G04 #@! TO.P,M1,E14,OUT_PWM5*
G04 #@! TO.N,unconnected-(M1-OUT_PWM5-PadE14)*
X79374997Y95674996D03*
G04 #@! TO.P,M1,E15,OUT_PWM4*
G04 #@! TO.N,unconnected-(M1-OUT_PWM4-PadE15)*
X79374997Y94874995D03*
G04 #@! TO.P,M1,E16,OUT_PWM3*
G04 #@! TO.N,unconnected-(M1-OUT_PWM3-PadE16)*
X79375000Y94074997D03*
G04 #@! TO.P,M1,E17,OUT_PWM2*
G04 #@! TO.N,/ETB_PWM*
X79375000Y93274996D03*
G04 #@! TO.P,M1,E18,OUT_INJ2*
G04 #@! TO.N,/INJ2*
X79375000Y92474998D03*
G04 #@! TO.P,M1,E19,OUT_INJ1*
G04 #@! TO.N,/INJ1*
X79374997Y91674997D03*
G04 #@! TO.P,M1,E20,OUT_IO13*
G04 #@! TO.N,unconnected-(M1-OUT_IO13-PadE20)*
X79374997Y90874996D03*
G04 #@! TO.P,M1,E21,OUT_IO4*
G04 #@! TO.N,unconnected-(M1-OUT_IO4-PadE21)*
X79375000Y90074997D03*
G04 #@! TO.P,M1,E22,OUT_IO8*
G04 #@! TO.N,unconnected-(M1-OUT_IO8-PadE22)*
X79375000Y89274996D03*
G04 #@! TO.P,M1,E23,OUT_IO7*
G04 #@! TO.N,unconnected-(M1-OUT_IO7-PadE23)*
X79375000Y88474995D03*
G04 #@! TO.P,M1,E24,OUT_IO11*
G04 #@! TO.N,unconnected-(M1-OUT_IO11-PadE24)*
X79375000Y87674997D03*
G04 #@! TO.P,M1,E25,OUT_PWM7*
G04 #@! TO.N,unconnected-(M1-OUT_PWM7-PadE25)*
X79375000Y86874996D03*
G04 #@! TO.P,M1,E26,OUT_PWM6*
G04 #@! TO.N,/THRESHOLD_VR_CR*
X79375000Y86074998D03*
G04 #@! TO.P,M1,E27,OUT_PWM1*
G04 #@! TO.N,unconnected-(M1-OUT_PWM1-PadE27)*
X79375000Y85274997D03*
G04 #@! TO.P,M1,E28,OUT_PWM8*
G04 #@! TO.N,unconnected-(M1-OUT_PWM8-PadE28)*
X79375000Y84474996D03*
G04 #@! TO.P,M1,E29,OUT_INJ3*
G04 #@! TO.N,/INJ3*
X79375000Y83674997D03*
G04 #@! TO.P,M1,E30,OUT_INJ4*
G04 #@! TO.N,/INJ4*
X79375000Y82874996D03*
G04 #@! TO.P,M1,E31,OUT_INJ5*
G04 #@! TO.N,/MAIN_RELAY*
X79374997Y82074998D03*
G04 #@! TO.P,M1,E32,OUT_INJ6*
G04 #@! TO.N,/FAN_RELAY_1*
X79375000Y81274995D03*
G04 #@! TO.P,M1,E33,OUT_INJ7*
G04 #@! TO.N,/FAN_RELAY_2*
X79375000Y80474996D03*
G04 #@! TO.P,M1,E34,OUT_INJ8*
X79375000Y79674998D03*
G04 #@! TO.P,M1,E35,IO6*
G04 #@! TO.N,unconnected-(M1-IO6-PadE35)*
X79375000Y78874997D03*
G04 #@! TO.P,M1,E36,IO7*
G04 #@! TO.N,unconnected-(M1-IO7-PadE36)*
X79375000Y78074996D03*
G04 #@! TO.P,M1,E38,V5A_SWITCHABLE*
G04 #@! TO.N,+5VA*
X79374997Y71375002D03*
G04 #@! TO.P,M1,E39,GNDA*
G04 #@! TO.N,GNDA*
X79375000Y70575001D03*
D45*
G04 #@! TO.P,M1,G,GND*
G04 #@! TO.N,unconnected-(M1-GND-PadG)*
X37474995Y69225001D03*
D46*
X37474997Y75075004D03*
D47*
X37474998Y103075001D03*
D48*
X37474998Y81275001D03*
D49*
X39275004Y68174998D03*
D50*
X40674999Y108074999D03*
D25*
X49175002Y108074999D03*
D51*
X59025005Y108074999D03*
D52*
X79575000Y106575000D03*
D53*
X79575000Y74724997D03*
D54*
X79575000Y69075004D03*
D10*
G04 #@! TO.P,M1,N1,USBID*
G04 #@! TO.N,unconnected-(M1-USBID-PadN1)*
X79375000Y107875000D03*
G04 #@! TO.P,M1,N2,USBM*
G04 #@! TO.N,unconnected-(M1-USBM-PadN2)*
X78575002Y107875002D03*
G04 #@! TO.P,M1,N3,USBP*
G04 #@! TO.N,unconnected-(M1-USBP-PadN3)*
X77775001Y107875002D03*
G04 #@! TO.P,M1,N4,VBUS*
G04 #@! TO.N,unconnected-(M1-VBUS-PadN4)*
X76975002Y107875000D03*
G04 #@! TO.P,M1,N5,BOOT0*
G04 #@! TO.N,unconnected-(M1-BOOT0-PadN5)*
X76175001Y107875000D03*
G04 #@! TO.P,M1,N6,SWO*
G04 #@! TO.N,unconnected-(M1-SWO-PadN6)*
X75375000Y107875000D03*
G04 #@! TO.P,M1,N7,SWDIO*
G04 #@! TO.N,unconnected-(M1-SWDIO-PadN7)*
X74575002Y107875000D03*
G04 #@! TO.P,M1,N8,SWCLK*
G04 #@! TO.N,unconnected-(M1-SWCLK-PadN8)*
X73775001Y107875002D03*
G04 #@! TO.P,M1,N9,nReset*
G04 #@! TO.N,unconnected-(M1-nReset-PadN9)*
X72975003Y107875000D03*
G04 #@! TO.P,M1,N10,SPI3_CS*
G04 #@! TO.N,unconnected-(M1-SPI3_CS-PadN10)*
X72175002Y107875000D03*
G04 #@! TO.P,M1,N11,SPI3_SCK*
G04 #@! TO.N,unconnected-(M1-SPI3_SCK-PadN11)*
X71375001Y107875000D03*
G04 #@! TO.P,M1,N12,SPI3_MISO*
G04 #@! TO.N,unconnected-(M1-SPI3_MISO-PadN12)*
X70575000Y107875000D03*
G04 #@! TO.P,M1,N13,SPI3_MOSI*
G04 #@! TO.N,unconnected-(M1-SPI3_MOSI-PadN13)*
X69775001Y107875000D03*
G04 #@! TO.P,M1,N14,I2C_SCL*
G04 #@! TO.N,unconnected-(M1-I2C_SCL-PadN14)*
X68975000Y107875000D03*
G04 #@! TO.P,M1,N15,I2C_SDA*
G04 #@! TO.N,unconnected-(M1-I2C_SDA-PadN15)*
X68174999Y107875002D03*
G04 #@! TO.P,M1,N16,IO1*
G04 #@! TO.N,/ETB_DIR*
X67374999Y107875002D03*
G04 #@! TO.P,M1,N17,UART2_TX*
G04 #@! TO.N,unconnected-(M1-UART2_TX-PadN17)*
X66575000Y107875000D03*
G04 #@! TO.P,M1,N18,UART2_RX*
G04 #@! TO.N,unconnected-(M1-UART2_RX-PadN18)*
X65774999Y107875000D03*
G04 #@! TO.P,M1,N19,IO2*
G04 #@! TO.N,/ETB_DIS*
X64975001Y107875000D03*
G04 #@! TO.P,M1,N20,IO4*
G04 #@! TO.N,unconnected-(M1-IO4-PadN20)*
X64175000Y107875000D03*
G04 #@! TO.P,M1,N21,IO3*
G04 #@! TO.N,unconnected-(M1-IO3-PadN21)*
X63375001Y107875002D03*
G04 #@! TO.P,M1,N22,V33*
G04 #@! TO.N,+3.3V*
X62575000Y107875000D03*
G04 #@! TO.P,M1,N23,IO5*
G04 #@! TO.N,unconnected-(M1-IO5-PadN23)*
X61775000Y107875000D03*
G04 #@! TO.P,M1,N24,UART8_RX*
G04 #@! TO.N,unconnected-(M1-UART8_RX-PadN24)*
X56275000Y107875000D03*
G04 #@! TO.P,M1,N25,UART8_TX*
G04 #@! TO.N,unconnected-(M1-UART8_TX-PadN25)*
X55474999Y107875000D03*
G04 #@! TO.P,M1,N26,IN_VIGN*
G04 #@! TO.N,/IGN*
X54675001Y107875000D03*
G04 #@! TO.P,M1,N27,VBAT*
G04 #@! TO.N,/VBAT*
X53875003Y107875000D03*
G04 #@! TO.P,M1,N28,V33_SWITCHABLE*
G04 #@! TO.N,+3.3VA*
X53075004Y107875000D03*
G04 #@! TO.P,M1,N29,OUT_PWR_EN*
G04 #@! TO.N,/PWR_EN*
X45275000Y107875000D03*
G04 #@! TO.P,M1,N30,V5A_SWITCHABLE*
G04 #@! TO.N,+5VA*
X44475001Y107875000D03*
G04 #@! TO.P,M1,N31,VCC*
G04 #@! TO.N,unconnected-(M1-VCC-PadN31)*
X43675003Y107875000D03*
G04 #@! TO.P,M1,N32,V33*
G04 #@! TO.N,+3.3V*
X37674999Y107875000D03*
G04 #@! TO.P,M1,S1,IN_D4*
G04 #@! TO.N,unconnected-(M1-IN_D4-PadS1)*
X78774999Y68374995D03*
G04 #@! TO.P,M1,S2,IN_D3*
G04 #@! TO.N,unconnected-(M1-IN_D3-PadS2)*
X77574998Y68374997D03*
G04 #@! TO.P,M1,S3,IN_D2*
G04 #@! TO.N,/PG_5VP*
X76375001Y68374997D03*
G04 #@! TO.P,M1,S4,IN_D1*
G04 #@! TO.N,unconnected-(M1-IN_D1-PadS4)*
X75175001Y68374995D03*
G04 #@! TO.P,M1,S5,VREF2*
G04 #@! TO.N,unconnected-(M1-VREF2-PadS5)*
X73975001Y68374997D03*
G04 #@! TO.P,M1,S6,IN_SENS4*
G04 #@! TO.N,unconnected-(M1-IN_SENS4-PadS6)*
X72875013Y68374997D03*
G04 #@! TO.P,M1,S7,IN_SENS3*
G04 #@! TO.N,unconnected-(M1-IN_SENS3-PadS7)*
X71675013Y68374997D03*
G04 #@! TO.P,M1,S8,IN_SENS2*
G04 #@! TO.N,unconnected-(M1-IN_SENS2-PadS8)*
X70475015Y68374995D03*
G04 #@! TO.P,M1,S9,IN_SENS1*
G04 #@! TO.N,unconnected-(M1-IN_SENS1-PadS9)*
X69275015Y68374997D03*
G04 #@! TO.P,M1,S10,IN_AUX4*
G04 #@! TO.N,/IN_VMAIN*
X68075012Y68374997D03*
G04 #@! TO.P,M1,S11,IN_AUX3*
G04 #@! TO.N,unconnected-(M1-IN_AUX3-PadS11)*
X66875010Y68374995D03*
G04 #@! TO.P,M1,S12,IN_AUX2*
G04 #@! TO.N,unconnected-(M1-IN_AUX2-PadS12)*
X65675012Y68374997D03*
G04 #@! TO.P,M1,S13,IN_AUX1*
G04 #@! TO.N,unconnected-(M1-IN_AUX1-PadS13)*
X64475014Y68374997D03*
G04 #@! TO.P,M1,S14,IN_RES2*
G04 #@! TO.N,unconnected-(M1-IN_RES2-PadS14)*
X63275007Y68374997D03*
G04 #@! TO.P,M1,S15,IN_O2S2*
G04 #@! TO.N,unconnected-(M1-IN_O2S2-PadS15)*
X62075007Y68374997D03*
G04 #@! TO.P,M1,S16,IN_O2S*
G04 #@! TO.N,unconnected-(M1-IN_O2S-PadS16)*
X60875009Y68374997D03*
G04 #@! TO.P,M1,S17,IN_RES1*
G04 #@! TO.N,unconnected-(M1-IN_RES1-PadS17)*
X59675009Y68374997D03*
G04 #@! TO.P,M1,S18,IN_RES3*
G04 #@! TO.N,/VR_ANALOG_CR*
X58475004Y68374997D03*
G04 #@! TO.P,M1,S19,IN_MAP3*
G04 #@! TO.N,unconnected-(M1-IN_MAP3-PadS19)*
X57275003Y68374997D03*
G04 #@! TO.P,M1,S20,IN_MAP2*
G04 #@! TO.N,unconnected-(M1-IN_MAP2-PadS20)*
X56075006Y68374995D03*
G04 #@! TO.P,M1,S21,IN_MAP1*
G04 #@! TO.N,/IN_MAP*
X54875006Y68374997D03*
G04 #@! TO.P,M1,S22,IN_CRANK*
G04 #@! TO.N,/IN_CRANK*
X53675003Y68374995D03*
G04 #@! TO.P,M1,S23,IN_KNOCK*
G04 #@! TO.N,/IN_KNOCK*
X52475003Y68374997D03*
G04 #@! TO.P,M1,S24,IN_CAM*
G04 #@! TO.N,unconnected-(M1-IN_CAM-PadS24)*
X51275008Y68374997D03*
G04 #@! TO.P,M1,S25,IN_VSS*
G04 #@! TO.N,unconnected-(M1-IN_VSS-PadS25)*
X50075005Y68374995D03*
G04 #@! TO.P,M1,S26,IN_IAT*
G04 #@! TO.N,/IN_IAT*
X48875000Y68374997D03*
G04 #@! TO.P,M1,S27,IN_AT1*
G04 #@! TO.N,unconnected-(M1-IN_AT1-PadS27)*
X47675000Y68374995D03*
G04 #@! TO.P,M1,S28,IN_CLT*
G04 #@! TO.N,/IN_ECT*
X46475002Y68374997D03*
G04 #@! TO.P,M1,S29,IN_AT2*
G04 #@! TO.N,unconnected-(M1-IN_AT2-PadS29)*
X45275002Y68374997D03*
G04 #@! TO.P,M1,S30,IN_TPS*
G04 #@! TO.N,/IN_TPS_MAIN*
X44074997Y68374997D03*
G04 #@! TO.P,M1,S31,IN_PPS*
G04 #@! TO.N,/IN_PPS_MAIN*
X42874997Y68374997D03*
G04 #@! TO.P,M1,S32,IN_TPS2*
G04 #@! TO.N,/IN_TPS_SUB*
X41674999Y68374997D03*
G04 #@! TO.P,M1,S33,IN_PPS2*
G04 #@! TO.N,/IN_PPS_SUB*
X40474999Y68374997D03*
G04 #@! TO.P,M1,S35,VREF1*
G04 #@! TO.N,/VREF*
X38074999Y68374997D03*
G04 #@! TO.P,M1,W1,GNDA*
G04 #@! TO.N,GNDA*
X37674997Y70875000D03*
G04 #@! TO.P,M1,W2,V5A_SWITCHABLE*
G04 #@! TO.N,+5VA*
X37674997Y71875001D03*
G04 #@! TO.P,M1,W3,V33_REF*
G04 #@! TO.N,unconnected-(M1-V33_REF-PadW3)*
X37674999Y78275003D03*
G04 #@! TO.P,M1,W3a,BOOT1*
G04 #@! TO.N,unconnected-(M1-BOOT1-PadW3a)*
X37674998Y84275001D03*
G04 #@! TO.P,M1,W4,IGN8*
G04 #@! TO.N,unconnected-(M1-IGN8-PadW4)*
X37674999Y85274999D03*
G04 #@! TO.P,M1,W5,IGN7*
G04 #@! TO.N,unconnected-(M1-IGN7-PadW5)*
X37674999Y86275000D03*
G04 #@! TO.P,M1,W6,IGN6*
G04 #@! TO.N,unconnected-(M1-IGN6-PadW6)*
X37674999Y87274998D03*
G04 #@! TO.P,M1,W7,IGN5*
G04 #@! TO.N,unconnected-(M1-IGN5-PadW7)*
X37674999Y88274998D03*
G04 #@! TO.P,M1,W8,IGN4*
G04 #@! TO.N,/OUT_IGN1*
X37674999Y89274999D03*
G04 #@! TO.P,M1,W9,IGN3*
X37674999Y90274997D03*
G04 #@! TO.P,M1,W10,IGN2*
G04 #@! TO.N,/OUT_IGN2*
X37674999Y91274997D03*
G04 #@! TO.P,M1,W11,IGN1*
G04 #@! TO.N,/OUT_IGN1*
X37674999Y92274995D03*
G04 #@! TO.P,M1,W11a,LED_RED*
G04 #@! TO.N,unconnected-(M1-LED_RED-PadW11a)*
X37674998Y93275001D03*
G04 #@! TO.P,M1,W11b,LED_GREEN*
G04 #@! TO.N,unconnected-(M1-LED_GREEN-PadW11b)*
X37674998Y94275001D03*
G04 #@! TO.P,M1,W11c,LED_BLUE*
G04 #@! TO.N,unconnected-(M1-LED_BLUE-PadW11c)*
X37674998Y95275001D03*
G04 #@! TO.P,M1,W11d,LED_YELLOW*
G04 #@! TO.N,unconnected-(M1-LED_YELLOW-PadW11d)*
X37674998Y96275001D03*
G04 #@! TO.P,M1,W12,CANH*
G04 #@! TO.N,unconnected-(M1-CANH-PadW12)*
X37674998Y97275001D03*
G04 #@! TO.P,M1,W13,CANL*
G04 #@! TO.N,unconnected-(M1-CANL-PadW13)*
X37674998Y98275001D03*
G04 #@! TD*
D23*
G04 #@! TO.P,M2,G,GND*
G04 #@! TO.N,GND*
X122325000Y48175000D03*
D24*
X122825000Y46075000D03*
D25*
X127225000Y55875000D03*
X129425000Y46075000D03*
D26*
X134025000Y55875000D03*
D27*
X135125000Y46075000D03*
D28*
X135925000Y50975000D03*
D10*
G04 #@! TO.P,M2,N1,MOSI*
G04 #@! TO.N,unconnected-(M2-MOSI-PadN1)*
X123325000Y55675000D03*
D29*
G04 #@! TO.P,M2,N2,12V_IN*
G04 #@! TO.N,+12V_ETB*
X131325000Y55475000D03*
G04 #@! TO.P,M2,S1,12V_IN*
X124125000Y46475000D03*
G04 #@! TO.P,M2,S2,OUT-*
G04 #@! TO.N,/OUT_ETB-*
X125325000Y46475000D03*
G04 #@! TO.P,M2,S3,OUT+*
G04 #@! TO.N,/OUT_ETB+*
X133525000Y46475000D03*
D10*
G04 #@! TO.P,M2,W1,DIS*
G04 #@! TO.N,/ETB_PWM*
X122525000Y55675000D03*
G04 #@! TO.P,M2,W2,PWM*
G04 #@! TO.N,/ETB_DIR*
X122525000Y54875000D03*
G04 #@! TO.P,M2,W3,SCLK*
G04 #@! TO.N,unconnected-(M2-SCLK-PadW3)*
X122525000Y54075000D03*
G04 #@! TO.P,M2,W4,DIR*
G04 #@! TO.N,/ETB_DIS*
X122525000Y53275000D03*
G04 #@! TO.P,M2,W5,3V3_IN*
G04 #@! TO.N,+3.3V*
X122525000Y52475000D03*
G04 #@! TO.P,M2,W6,MISO*
G04 #@! TO.N,unconnected-(M2-MISO-PadW6)*
X122525000Y51675000D03*
G04 #@! TO.P,M2,W7,~CS*
G04 #@! TO.N,unconnected-(M2-~CS-PadW7)*
X122525000Y50875000D03*
G04 #@! TD*
D30*
G04 #@! TO.P,F5,1,1*
G04 #@! TO.N,Net-(F5-Pad1)*
X94185000Y56285000D03*
G04 #@! TO.P,F5,2,2*
G04 #@! TO.N,+12V_ETB*
X99085000Y56285000D03*
G04 #@! TD*
G04 #@! TO.P,F1,1,1*
G04 #@! TO.N,Net-(F1-Pad1)*
X94185000Y68765000D03*
G04 #@! TO.P,F1,2,2*
G04 #@! TO.N,/OUT_IGN4*
X99085000Y68765000D03*
G04 #@! TD*
D31*
G04 #@! TO.P,M14,E1,VBAT*
G04 #@! TO.N,/VBAT*
X137099997Y21149996D03*
G04 #@! TO.P,M14,E2,V12*
G04 #@! TO.N,+12V*
X137099997Y14749999D03*
G04 #@! TO.P,M14,E3,VIGN*
G04 #@! TO.N,/IGN*
X137099997Y12849996D03*
G04 #@! TO.P,M14,E4,V5*
G04 #@! TO.N,+5V*
X137099997Y8549996D03*
D10*
G04 #@! TO.P,M14,E5,EN_5VP*
G04 #@! TO.N,/PWR_EN*
X137549996Y6149999D03*
G04 #@! TO.P,M14,E6,PG_5VP*
G04 #@! TO.N,/PG_5VP*
X137549996Y5149998D03*
D32*
G04 #@! TO.P,M14,S1,GND*
G04 #@! TO.N,GND*
X120950001Y17299996D03*
D33*
X120950001Y8799998D03*
D34*
X120950001Y1699996D03*
D35*
X129349999Y1649996D03*
D36*
X130150000Y22249996D03*
D31*
X137099997Y2299996D03*
D34*
X137749998Y22199996D03*
D37*
X137749998Y17999998D03*
D38*
X137749998Y10649996D03*
D39*
X137749998Y7149999D03*
D40*
X137749998Y3849998D03*
D31*
G04 #@! TO.P,M14,V1,V12_PERM*
G04 #@! TO.N,+12V_BACK_UP*
X121600000Y21599998D03*
G04 #@! TO.P,M14,V2,IN_VIGN*
G04 #@! TO.N,+12V_IGN*
X121600000Y19749999D03*
G04 #@! TO.P,M14,V3,V12_RAW*
G04 #@! TO.N,+12V_RAW*
X121600000Y14799996D03*
G04 #@! TO.P,M14,V4,5VP*
G04 #@! TO.N,+5VAS*
X121600000Y2749998D03*
G04 #@! TD*
M02*
