M48
; DRILL file {KiCad 8.0.9-8.0.9-0~ubuntu24.04.1} date 2025-02-19T21:10:22+0000
; FORMAT={2:4/ absolute / inch / suppress leading zeros}
; #@! TF.CreationDate,2025-02-19T21:10:22+00:00
; #@! TF.GenerationSoftware,Kicad,Pcbnew,8.0.9-8.0.9-0~ubuntu24.04.1
; #@! TF.FileFunction,MixedPlating,1,2
FMAT,2
INCH,TZ
; #@! TA.AperFunction,Plated,PTH,ComponentDrill
T1C0.0118
; #@! TA.AperFunction,Plated,PTH,ComponentDrill
T2C0.0118
; #@! TA.AperFunction,Plated,PTH,ComponentDrill
T3C0.0276
; #@! TA.AperFunction,Plated,PTH,ComponentDrill
T4C0.0320
; #@! TA.AperFunction,Plated,PTH,ComponentDrill
T5C0.0394
; #@! TA.AperFunction,Plated,PTH,ComponentDrill
T6C0.0472
; #@! TA.AperFunction,NonPlated,NPTH,ComponentDrill
T7C0.1378
%
G90
G05
T1
X42606Y25448
X42951Y25241
X43039Y27141
X43069Y25743
T2
X14833Y28297
X14833Y27904
X14833Y38691
X14833Y38297
X14833Y37904
X14833Y37510
X14833Y37116
X14833Y36722
X14833Y33179
X14833Y42470
X14833Y36329
X14833Y35935
X14833Y35541
X14833Y35148
X14833Y34754
X14833Y34360
X14833Y33967
X14833Y33573
X14833Y30817
X14990Y26919
X15935Y26919
X16407Y26919
X16880Y26919
X17195Y42470
X17352Y26919
X17510Y42470
X17825Y42470
X17825Y26919
X18297Y26919
X18770Y26919
X19147Y17549
X19147Y17156
X19147Y16762
X19147Y15864
X19147Y15464
X19242Y26919
X19715Y26919
X20187Y26919
X20659Y26919
X20896Y42470
X21132Y26919
X21211Y42470
X21526Y42470
X21604Y26919
X21841Y42470
X22077Y26919
X22156Y42470
X22549Y26919
X23022Y26919
X23494Y26919
X23967Y26919
X24321Y42470
X24439Y26919
X24636Y42470
X24911Y26919
X24951Y42470
X25266Y42470
X25384Y26919
X25581Y42470
X25856Y26919
X25896Y42470
X26211Y42470
X26329Y26919
X26526Y42470
X26801Y26919
X26841Y42470
X27156Y42470
X27274Y26919
X27470Y42470
X27746Y26919
X27785Y42470
X28100Y42470
X28219Y26919
X28415Y42470
X28691Y26919
X28730Y42470
X29045Y42470
X29124Y26919
X29360Y42470
X29596Y26919
X29616Y14537
X29616Y14144
X29616Y13750
X29616Y13356
X29675Y42470
X29990Y42470
X30069Y26919
X30305Y42470
X30541Y26919
X30620Y42470
X30935Y42470
X31014Y26919
X31250Y39872
X31250Y39557
X31250Y37982
X31250Y37667
X31250Y37352
X31250Y36093
X31250Y35778
X31250Y32313
X31250Y28100
X31250Y42470
X31250Y41447
X31250Y41132
X31250Y40817
X31250Y40502
X31250Y40187
X31250Y39242
X31250Y38927
X31250Y38612
X31250Y38297
X31250Y37037
X31250Y36722
X31250Y36407
X31250Y35463
X31250Y35148
X31250Y34833
X31250Y34518
X31250Y34203
X31250Y33888
X31250Y33573
X31250Y33258
X31250Y32943
X31250Y32628
X31250Y31998
X31250Y31683
X31250Y31368
X31250Y31053
X31250Y30738
X31250Y27785
X34606Y14686
X34606Y14292
X34606Y10336
X34606Y9942
X40037Y23935
X40037Y23581
X40037Y22144
X40037Y21789
X40285Y17229
X40285Y16757
X40285Y16284
X40285Y15812
X40285Y12879
X40285Y12406
X40285Y11934
X40285Y11462
X43463Y23935
X43463Y23561
X43463Y23187
X43463Y22144
X43463Y21770
X43463Y21396
X46969Y2421
X46969Y2028
X48238Y21919
X48238Y21604
X48238Y21289
X48238Y20974
X48238Y20659
X48238Y20344
X48238Y20030
X48238Y17490
X48238Y17175
X48238Y16860
X48238Y16545
X48238Y16230
X48238Y15915
X48238Y15600
X48553Y21919
X48553Y17490
X54154Y2421
X54154Y2028
T3
X48868Y18297
X48868Y13868
X49341Y18297
X49341Y13868
X51703Y21841
X51703Y17411
X52569Y18297
X52569Y13868
T4
X37081Y27073
X37081Y25844
X37081Y24616
X37081Y23388
X37081Y22159
X39010Y27073
X39010Y25844
X39010Y24616
X39010Y23388
X39010Y22159
T5
X40689Y8504
X40689Y7776
X40689Y5827
X40689Y1083
X46791Y8327
X46791Y5807
X46791Y5059
X46791Y3366
X46791Y906
X47874Y8504
X47874Y7776
X47874Y5827
X47874Y1083
X53976Y8327
X53976Y5807
X53976Y5059
X53976Y3366
X53976Y906
T6
X2264Y42835
X2264Y41575
X2264Y40315
X2264Y39055
X2264Y37795
X2264Y36535
X2264Y35276
X2264Y31693
X2264Y30433
X2264Y29173
X2264Y27913
X2264Y21417
X2264Y20157
X2264Y17638
X2264Y16378
X2264Y15118
X2264Y13858
X2264Y12598
X2264Y9409
X2264Y8150
X2264Y6890
X2264Y5630
X2264Y4370
X2264Y3110
X2264Y1850
X2303Y25394
X2303Y24134
X3642Y42087
X3642Y40354
X3642Y38622
X3642Y36890
X3642Y35157
X3642Y31811
X3642Y30079
X3642Y28346
X3642Y26614
X3642Y24882
X3642Y20669
X3642Y18937
X3642Y17205
X3642Y15472
X3642Y13740
X3642Y12008
X3642Y8661
X3642Y6929
X3642Y5197
X3642Y3465
X3642Y1732
X4193Y21535
X4232Y42953
X4232Y41220
X4232Y39488
X4232Y37756
X4232Y36024
X4232Y30945
X4232Y29213
X4232Y27480
X4232Y25748
X4232Y24016
X4232Y19803
X4232Y18071
X4232Y16339
X4232Y14606
X4232Y12874
X4232Y9528
X4232Y7795
X4232Y6063
X4232Y4331
X4232Y2598
X4823Y42087
X4823Y40354
X4823Y38622
X4823Y35157
X4823Y30079
X4823Y28346
X4823Y26614
X4823Y24882
X4823Y20669
X4823Y18937
X4823Y15472
X4823Y12008
X4823Y8661
X4823Y6929
X4823Y5197
X4823Y3465
X4823Y1732
X4862Y31811
X5413Y42953
X5413Y41220
X5413Y39488
X5413Y36024
X5413Y32677
X5413Y30945
X5413Y29213
X5413Y27480
X5413Y25748
X5413Y24016
X5413Y21535
X5413Y19803
X5413Y16339
X5413Y12874
X5413Y9528
X5413Y7795
X5413Y6063
X5413Y4331
X5413Y2598
X6004Y42087
X6004Y38622
X6004Y35157
X6004Y31811
X6004Y26614
X6004Y24882
X6004Y20669
X6004Y18937
X6004Y15472
X6004Y12008
X6004Y8661
X6004Y6929
X6004Y1732
X6594Y42953
X6594Y39488
X6594Y36024
X6594Y32677
X6594Y30945
X6594Y27480
X6594Y25748
X6594Y24016
X6594Y21535
X6594Y19803
X6594Y16339
X6594Y12874
X6594Y9528
X6594Y7795
X6594Y6063
X6594Y2598
T7
X8740Y40787
X8740Y22776
X8740Y4331
M30
