G04 #@! TF.GenerationSoftware,KiCad,Pcbnew,8.0.9-8.0.9-0~ubuntu24.04.1*
G04 #@! TF.CreationDate,2025-02-19T21:10:22+00:00*
G04 #@! TF.ProjectId,rusefiSTI2004,72757365-6669-4535-9449-323030342e6b,rev?*
G04 #@! TF.SameCoordinates,Original*
G04 #@! TF.FileFunction,Soldermask,Bot*
G04 #@! TF.FilePolarity,Negative*
%FSLAX46Y46*%
G04 Gerber Fmt 4.6, Leading zero omitted, Abs format (unit mm)*
G04 Created by KiCad (PCBNEW 8.0.9-8.0.9-0~ubuntu24.04.1) date 2025-02-19 21:10:22*
%MOMM*%
%LPD*%
G01*
G04 APERTURE LIST*
%ADD10C,0.600000*%
%ADD11C,1.524000*%
%ADD12C,1.500000*%
%ADD13C,0.599999*%
%ADD14C,3.500000*%
%ADD15C,2.000000*%
G04 APERTURE END LIST*
D10*
G04 #@! TO.C,M6*
X102325000Y30312500D03*
X102325000Y29112500D03*
X102325000Y31512500D03*
X102325000Y32712500D03*
X87900000Y26252500D03*
X87900000Y25252500D03*
G04 #@! TD*
D11*
G04 #@! TO.C,F2*
X94185000Y65645000D03*
X99085000Y65645000D03*
G04 #@! TD*
G04 #@! TO.C,F3*
X94185000Y62525000D03*
X99085000Y62525000D03*
G04 #@! TD*
D10*
G04 #@! TO.C,M5*
X102325000Y41362500D03*
X102325000Y40162500D03*
X102325000Y42562500D03*
X102325000Y43762500D03*
X87900000Y37302500D03*
X87900000Y36302500D03*
G04 #@! TD*
D12*
G04 #@! TO.C,M8*
X118849995Y21149996D03*
X118849995Y14749999D03*
X118849995Y12849996D03*
X118849995Y8549996D03*
D10*
X119299994Y6149999D03*
X119299994Y5149998D03*
D12*
X118849995Y2299996D03*
X103349998Y21599998D03*
X103349998Y19749999D03*
X103349998Y14799996D03*
X103349998Y2749998D03*
G04 #@! TD*
D13*
G04 #@! TO.C,M4*
X109094997Y64113325D03*
X108219995Y64638325D03*
X109394999Y65388323D03*
X109319996Y68938324D03*
G04 #@! TD*
D10*
G04 #@! TO.C,M7*
X110395000Y60794997D03*
X110395000Y59844997D03*
X110395000Y58894999D03*
X101695000Y59894997D03*
X101695000Y60794997D03*
G04 #@! TD*
G04 #@! TO.C,M13*
X110395000Y56244994D03*
X110395000Y55294994D03*
X110395000Y54344996D03*
X101695000Y55344994D03*
X101695000Y56244994D03*
G04 #@! TD*
D11*
G04 #@! TO.C,F4*
X94185000Y59405000D03*
X99085000Y59405000D03*
G04 #@! TD*
D14*
G04 #@! TO.C,J1*
X22200000Y103600000D03*
X22200000Y57850000D03*
X22200000Y11000000D03*
D15*
X5750000Y108800000D03*
X5750000Y105600000D03*
X5750000Y102400000D03*
X5750000Y99200000D03*
X5750000Y96000000D03*
X5750000Y92800000D03*
X5750000Y89600000D03*
X10750000Y109100000D03*
X9250000Y106900000D03*
X10750000Y104700000D03*
X9250000Y102500000D03*
X10750000Y100300000D03*
X9250000Y98100000D03*
X10750000Y95900000D03*
X9250000Y93700000D03*
X10750000Y91500000D03*
X9250000Y89300000D03*
X13750000Y109100000D03*
X12250000Y106900000D03*
X13750000Y104700000D03*
X12250000Y102500000D03*
X13750000Y100300000D03*
X12250000Y98100000D03*
X13750000Y91500000D03*
X12250000Y89300000D03*
X16750000Y109100000D03*
X15250000Y106900000D03*
X16750000Y100300000D03*
X15250000Y98100000D03*
X16750000Y91500000D03*
X15250000Y89300000D03*
X5750000Y80500000D03*
X5750000Y77300000D03*
X5750000Y74100000D03*
X5750000Y70900000D03*
X5850000Y64500000D03*
X5850000Y61300000D03*
X9250000Y80800000D03*
X10750000Y78600000D03*
X9250000Y76400000D03*
X10750000Y74200000D03*
X9250000Y72000000D03*
X10750000Y69800000D03*
X9250000Y67600000D03*
X10750000Y65400000D03*
X9250000Y63200000D03*
X10750000Y61000000D03*
X13750000Y83000000D03*
X12350000Y80800000D03*
X13750000Y78600000D03*
X12250000Y76400000D03*
X13750000Y74200000D03*
X12250000Y72000000D03*
X13750000Y69800000D03*
X12250000Y67600000D03*
X13750000Y65400000D03*
X12250000Y63200000D03*
X13750000Y61000000D03*
X16750000Y83000000D03*
X15250000Y80800000D03*
X16750000Y78600000D03*
X16750000Y69800000D03*
X15250000Y67600000D03*
X16750000Y65400000D03*
X15250000Y63200000D03*
X16750000Y61000000D03*
X5750000Y54400000D03*
X5750000Y51200000D03*
X5750000Y44800000D03*
X5750000Y41600000D03*
X5750000Y38400000D03*
X5750000Y35200000D03*
X5750000Y32000000D03*
X10650000Y54700000D03*
X9250000Y52500000D03*
X10750000Y50300000D03*
X9250000Y48100000D03*
X10750000Y45900000D03*
X9250000Y43700000D03*
X10750000Y41500000D03*
X9250000Y39300000D03*
X10750000Y37100000D03*
X9250000Y34900000D03*
X10750000Y32700000D03*
X9250000Y30500000D03*
X13750000Y54700000D03*
X12250000Y52500000D03*
X13750000Y50300000D03*
X12250000Y48100000D03*
X13750000Y41500000D03*
X12250000Y39300000D03*
X13750000Y32700000D03*
X12250000Y30500000D03*
X16750000Y54700000D03*
X15250000Y52500000D03*
X16750000Y50300000D03*
X15250000Y48100000D03*
X16750000Y41500000D03*
X15250000Y39300000D03*
X16750000Y32700000D03*
X15250000Y30500000D03*
X5750000Y23900000D03*
X5750000Y20700000D03*
X5750000Y17500000D03*
X5750000Y14300000D03*
X5750000Y11100000D03*
X5750000Y7900000D03*
X5750000Y4700000D03*
X10750000Y24200000D03*
X9250000Y22000000D03*
X10750000Y19800000D03*
X9250000Y17600000D03*
X10750000Y15400000D03*
X9250000Y13200000D03*
X10750000Y11000000D03*
X9250000Y8800000D03*
X10750000Y6600000D03*
X9250000Y4400000D03*
X13750000Y24200000D03*
X12250000Y22000000D03*
X13750000Y19800000D03*
X12250000Y17600000D03*
X13750000Y15400000D03*
X12250000Y13200000D03*
X13750000Y11000000D03*
X12250000Y8800000D03*
X13750000Y6600000D03*
X12250000Y4400000D03*
X16750000Y24200000D03*
X15250000Y22000000D03*
X16750000Y19800000D03*
X15250000Y17600000D03*
X16750000Y15400000D03*
X16750000Y6600000D03*
X15250000Y4400000D03*
G04 #@! TD*
D11*
G04 #@! TO.C,F5*
X94185000Y56285000D03*
X99085000Y56285000D03*
G04 #@! TD*
G04 #@! TO.C,F1*
X94185000Y68765000D03*
X99085000Y68765000D03*
G04 #@! TD*
D12*
G04 #@! TO.C,M14*
X137099997Y21149996D03*
X137099997Y14749999D03*
X137099997Y12849996D03*
X137099997Y8549996D03*
D10*
X137549996Y6149999D03*
X137549996Y5149998D03*
D12*
X137099997Y2299996D03*
X121600000Y21599998D03*
X121600000Y19749999D03*
X121600000Y14799996D03*
X121600000Y2749998D03*
G04 #@! TD*
M02*
