G75*
G70*
%OFA0B0*%
%FSLAX25Y25*%
%IPPOS*%
%LPD*%
%AMOC8*
5,1,8,0,0,1.08239X$1,22.5*
%
%AMM1*
21,1,0.035430,0.030320,0.000000,0.000000,90.000000*
21,1,0.028350,0.037400,0.000000,0.000000,90.000000*
1,1,0.007090,0.015160,0.014170*
1,1,0.007090,0.015160,-0.014170*
1,1,0.007090,-0.015160,-0.014170*
1,1,0.007090,-0.015160,0.014170*
%
%AMM10*
21,1,0.025590,0.026380,0.000000,0.000000,90.000000*
21,1,0.020470,0.031500,0.000000,0.000000,90.000000*
1,1,0.005120,0.013190,0.010240*
1,1,0.005120,0.013190,-0.010240*
1,1,0.005120,-0.013190,-0.010240*
1,1,0.005120,-0.013190,0.010240*
%
%AMM11*
21,1,0.017720,0.027950,0.000000,0.000000,90.000000*
21,1,0.014170,0.031500,0.000000,0.000000,90.000000*
1,1,0.003540,0.013980,0.007090*
1,1,0.003540,0.013980,-0.007090*
1,1,0.003540,-0.013980,-0.007090*
1,1,0.003540,-0.013980,0.007090*
%
%AMM13*
21,1,0.012600,0.028980,0.000000,0.000000,90.000000*
21,1,0.010080,0.031500,0.000000,0.000000,90.000000*
1,1,0.002520,0.014490,0.005040*
1,1,0.002520,0.014490,-0.005040*
1,1,0.002520,-0.014490,-0.005040*
1,1,0.002520,-0.014490,0.005040*
%
%AMM16*
21,1,0.027560,0.018900,0.000000,0.000000,90.000000*
21,1,0.022840,0.023620,0.000000,0.000000,90.000000*
1,1,0.004720,0.009450,0.011420*
1,1,0.004720,0.009450,-0.011420*
1,1,0.004720,-0.009450,-0.011420*
1,1,0.004720,-0.009450,0.011420*
%
%AMM33*
21,1,0.033470,0.026770,0.000000,0.000000,180.000000*
21,1,0.026770,0.033470,0.000000,0.000000,180.000000*
1,1,0.006690,-0.013390,0.013390*
1,1,0.006690,0.013390,0.013390*
1,1,0.006690,0.013390,-0.013390*
1,1,0.006690,-0.013390,-0.013390*
%
%AMM34*
21,1,0.035430,0.030320,0.000000,0.000000,180.000000*
21,1,0.028350,0.037400,0.000000,0.000000,180.000000*
1,1,0.007090,-0.014170,0.015160*
1,1,0.007090,0.014170,0.015160*
1,1,0.007090,0.014170,-0.015160*
1,1,0.007090,-0.014170,-0.015160*
%
%AMM35*
21,1,0.035830,0.026770,0.000000,0.000000,0.000000*
21,1,0.029130,0.033470,0.000000,0.000000,0.000000*
1,1,0.006690,0.014570,-0.013390*
1,1,0.006690,-0.014570,-0.013390*
1,1,0.006690,-0.014570,0.013390*
1,1,0.006690,0.014570,0.013390*
%
%AMM36*
21,1,0.070870,0.036220,0.000000,0.000000,0.000000*
21,1,0.061810,0.045280,0.000000,0.000000,0.000000*
1,1,0.009060,0.030910,-0.018110*
1,1,0.009060,-0.030910,-0.018110*
1,1,0.009060,-0.030910,0.018110*
1,1,0.009060,0.030910,0.018110*
%
%AMM37*
21,1,0.059060,0.020470,0.000000,0.000000,90.000000*
21,1,0.053940,0.025590,0.000000,0.000000,90.000000*
1,1,0.005120,0.010240,0.026970*
1,1,0.005120,0.010240,-0.026970*
1,1,0.005120,-0.010240,-0.026970*
1,1,0.005120,-0.010240,0.026970*
%
%AMM38*
21,1,0.078740,0.045670,0.000000,0.000000,90.000000*
21,1,0.067320,0.057090,0.000000,0.000000,90.000000*
1,1,0.011420,0.022840,0.033660*
1,1,0.011420,0.022840,-0.033660*
1,1,0.011420,-0.022840,-0.033660*
1,1,0.011420,-0.022840,0.033660*
%
%AMM39*
21,1,0.025590,0.026380,0.000000,0.000000,0.000000*
21,1,0.020470,0.031500,0.000000,0.000000,0.000000*
1,1,0.005120,0.010240,-0.013190*
1,1,0.005120,-0.010240,-0.013190*
1,1,0.005120,-0.010240,0.013190*
1,1,0.005120,0.010240,0.013190*
%
%AMM40*
21,1,0.017720,0.027950,0.000000,0.000000,0.000000*
21,1,0.014170,0.031500,0.000000,0.000000,0.000000*
1,1,0.003540,0.007090,-0.013980*
1,1,0.003540,-0.007090,-0.013980*
1,1,0.003540,-0.007090,0.013980*
1,1,0.003540,0.007090,0.013980*
%
%AMM41*
21,1,0.027560,0.030710,0.000000,0.000000,90.000000*
21,1,0.022050,0.036220,0.000000,0.000000,90.000000*
1,1,0.005510,0.015350,0.011020*
1,1,0.005510,0.015350,-0.011020*
1,1,0.005510,-0.015350,-0.011020*
1,1,0.005510,-0.015350,0.011020*
%
%AMM42*
21,1,0.027560,0.049610,0.000000,0.000000,270.000000*
21,1,0.022050,0.055120,0.000000,0.000000,270.000000*
1,1,0.005510,-0.024800,-0.011020*
1,1,0.005510,-0.024800,0.011020*
1,1,0.005510,0.024800,0.011020*
1,1,0.005510,0.024800,-0.011020*
%
%AMM43*
21,1,0.027560,0.030710,0.000000,0.000000,0.000000*
21,1,0.022050,0.036220,0.000000,0.000000,0.000000*
1,1,0.005510,0.011020,-0.015350*
1,1,0.005510,-0.011020,-0.015350*
1,1,0.005510,-0.011020,0.015350*
1,1,0.005510,0.011020,0.015350*
%
%AMM44*
21,1,0.070870,0.036220,0.000000,0.000000,90.000000*
21,1,0.061810,0.045280,0.000000,0.000000,90.000000*
1,1,0.009060,0.018110,0.030910*
1,1,0.009060,0.018110,-0.030910*
1,1,0.009060,-0.018110,-0.030910*
1,1,0.009060,-0.018110,0.030910*
%
%AMM64*
21,1,0.023620,0.018900,0.000000,0.000000,180.000000*
21,1,0.018900,0.023620,0.000000,0.000000,180.000000*
1,1,0.004720,-0.009450,0.009450*
1,1,0.004720,0.009450,0.009450*
1,1,0.004720,0.009450,-0.009450*
1,1,0.004720,-0.009450,-0.009450*
%
%AMM65*
21,1,0.019680,0.019680,0.000000,0.000000,270.000000*
21,1,0.015750,0.023620,0.000000,0.000000,270.000000*
1,1,0.003940,-0.009840,-0.007870*
1,1,0.003940,-0.009840,0.007870*
1,1,0.003940,0.009840,0.007870*
1,1,0.003940,0.009840,-0.007870*
%
%AMM66*
21,1,0.033470,0.026770,0.000000,0.000000,270.000000*
21,1,0.026770,0.033470,0.000000,0.000000,270.000000*
1,1,0.006690,-0.013390,-0.013390*
1,1,0.006690,-0.013390,0.013390*
1,1,0.006690,0.013390,0.013390*
1,1,0.006690,0.013390,-0.013390*
%
%AMM67*
21,1,0.019680,0.019680,0.000000,0.000000,0.000000*
21,1,0.015750,0.023620,0.000000,0.000000,0.000000*
1,1,0.003940,0.007870,-0.009840*
1,1,0.003940,-0.007870,-0.009840*
1,1,0.003940,-0.007870,0.009840*
1,1,0.003940,0.007870,0.009840*
%
%AMM7*
21,1,0.027560,0.018900,0.000000,0.000000,180.000000*
21,1,0.022840,0.023620,0.000000,0.000000,180.000000*
1,1,0.004720,-0.011420,0.009450*
1,1,0.004720,0.011420,0.009450*
1,1,0.004720,0.011420,-0.009450*
1,1,0.004720,-0.011420,-0.009450*
%
%AMM77*
21,1,0.023620,0.018900,0.000000,0.000000,90.000000*
21,1,0.018900,0.023620,0.000000,0.000000,90.000000*
1,1,0.004720,0.009450,0.009450*
1,1,0.004720,0.009450,-0.009450*
1,1,0.004720,-0.009450,-0.009450*
1,1,0.004720,-0.009450,0.009450*
%
%AMM87*
21,1,0.023620,0.018900,0.000000,0.000000,0.000000*
21,1,0.018900,0.023620,0.000000,0.000000,0.000000*
1,1,0.004720,0.009450,-0.009450*
1,1,0.004720,-0.009450,-0.009450*
1,1,0.004720,-0.009450,0.009450*
1,1,0.004720,0.009450,0.009450*
%
%AMM88*
21,1,0.106300,0.050390,0.000000,0.000000,90.000000*
21,1,0.093700,0.062990,0.000000,0.000000,90.000000*
1,1,0.012600,0.025200,0.046850*
1,1,0.012600,0.025200,-0.046850*
1,1,0.012600,-0.025200,-0.046850*
1,1,0.012600,-0.025200,0.046850*
%
%AMM89*
21,1,0.122050,0.075590,0.000000,0.000000,180.000000*
21,1,0.103150,0.094490,0.000000,0.000000,180.000000*
1,1,0.018900,-0.051580,0.037800*
1,1,0.018900,0.051580,0.037800*
1,1,0.018900,0.051580,-0.037800*
1,1,0.018900,-0.051580,-0.037800*
%
%AMM90*
21,1,0.118110,0.083460,0.000000,0.000000,0.000000*
21,1,0.097240,0.104330,0.000000,0.000000,0.000000*
1,1,0.020870,0.048620,-0.041730*
1,1,0.020870,-0.048620,-0.041730*
1,1,0.020870,-0.048620,0.041730*
1,1,0.020870,0.048620,0.041730*
%
%ADD100M16*%
%ADD137M33*%
%ADD138M34*%
%ADD139M35*%
%ADD140R,0.03937X0.04331*%
%ADD141M36*%
%ADD142M37*%
%ADD143M38*%
%ADD145R,0.09449X0.06693*%
%ADD146M39*%
%ADD147M40*%
%ADD148M41*%
%ADD149M42*%
%ADD150M43*%
%ADD151M44*%
%ADD152O,0.04961X0.00984*%
%ADD153R,0.00984X0.01378*%
%ADD154R,0.01378X0.00984*%
%ADD185R,0.05709X0.01772*%
%ADD186R,0.04803X0.02559*%
%ADD204M64*%
%ADD205M65*%
%ADD206M66*%
%ADD207M67*%
%ADD217M77*%
%ADD229M87*%
%ADD230M88*%
%ADD231O,0.01968X0.08661*%
%ADD232M89*%
%ADD233M90*%
%ADD28R,0.26772X0.00787*%
%ADD53R,0.00787X0.09055*%
%ADD54R,0.00787X0.21260*%
%ADD55R,0.00787X0.33858*%
%ADD56R,0.00787X0.19685*%
%ADD57R,0.05512X0.00787*%
%ADD58R,0.19685X0.00787*%
%ADD59R,0.17717X0.00787*%
%ADD60R,0.00787X0.06299*%
%ADD61R,0.00787X0.22441*%
%ADD62R,0.00787X0.07874*%
%ADD79M1*%
%ADD85M7*%
%ADD89M10*%
%ADD90M11*%
%ADD94M13*%
X0000000Y0000000D02*
%LPD*%
G01*
X0147146Y0268012D02*
G01*
G75*
D54*
X0147540Y0295571D02*
D03*
D53*
X0147540Y0272540D02*
D03*
D56*
X0147540Y0319980D02*
D03*
D62*
X0313288Y0271949D02*
D03*
D58*
X0160138Y0425492D02*
D03*
D28*
X0193603Y0425492D02*
D03*
D59*
X0232382Y0425492D02*
D03*
D61*
X0313288Y0294193D02*
D03*
D60*
X0313288Y0419587D02*
D03*
D57*
X0154626Y0268406D02*
D03*
D55*
X0147540Y0405807D02*
D03*
D79*
X0158761Y0369254D02*
D03*
X0168013Y0372994D02*
D03*
D79*
X0158761Y0376735D02*
D03*
D85*
X0295128Y0364469D02*
D03*
X0295128Y0360532D02*
D03*
X0178839Y0319980D02*
D03*
X0178839Y0323917D02*
D03*
X0299508Y0362894D02*
D03*
X0299508Y0358957D02*
D03*
X0175788Y0422146D02*
D03*
X0175788Y0418209D02*
D03*
X0208971Y0344784D02*
D03*
X0208971Y0340847D02*
D03*
X0225876Y0344712D02*
D03*
X0225876Y0348649D02*
D03*
X0203839Y0341240D02*
D03*
X0203839Y0345177D02*
D03*
X0152645Y0324828D02*
D03*
X0152645Y0320891D02*
D03*
X0170374Y0393996D02*
D03*
X0170374Y0390059D02*
D03*
X0149902Y0413091D02*
D03*
X0149902Y0417028D02*
D03*
X0281792Y0337303D02*
D03*
X0281792Y0333366D02*
D03*
X0208170Y0401870D02*
D03*
X0208170Y0405807D02*
D03*
X0238387Y0335433D02*
D03*
X0238387Y0339370D02*
D03*
X0227362Y0416733D02*
D03*
X0227362Y0420669D02*
D03*
X0280217Y0349114D02*
D03*
X0280217Y0345177D02*
D03*
X0284154Y0349114D02*
D03*
X0284154Y0345177D02*
D03*
X0154036Y0413091D02*
D03*
X0154036Y0417028D02*
D03*
X0291044Y0364469D02*
D03*
X0291044Y0360532D02*
D03*
X0290847Y0386910D02*
D03*
X0290847Y0382973D02*
D03*
X0242717Y0335433D02*
D03*
X0242717Y0339370D02*
D03*
X0246359Y0421949D02*
D03*
X0246359Y0418012D02*
D03*
X0208170Y0372343D02*
D03*
X0208170Y0376280D02*
D03*
X0208170Y0368799D02*
D03*
X0208170Y0364862D02*
D03*
X0194784Y0292421D02*
D03*
X0194784Y0288484D02*
D03*
X0199508Y0292421D02*
D03*
X0199508Y0288484D02*
D03*
X0204233Y0292421D02*
D03*
X0204233Y0288484D02*
D03*
X0208957Y0292421D02*
D03*
X0208957Y0288484D02*
D03*
X0293603Y0273130D02*
D03*
X0293603Y0277067D02*
D03*
X0298327Y0277067D02*
D03*
X0298327Y0273130D02*
D03*
X0303051Y0273130D02*
D03*
X0303051Y0277067D02*
D03*
X0307776Y0273130D02*
D03*
X0307776Y0277067D02*
D03*
X0174902Y0319980D02*
D03*
X0174902Y0323917D02*
D03*
X0202855Y0319980D02*
D03*
X0202855Y0323917D02*
D03*
X0171162Y0292421D02*
D03*
X0171162Y0288484D02*
D03*
X0166438Y0292421D02*
D03*
X0166438Y0288484D02*
D03*
X0161713Y0292421D02*
D03*
X0161713Y0288484D02*
D03*
X0156989Y0292421D02*
D03*
X0156989Y0288484D02*
D03*
X0190060Y0292421D02*
D03*
X0190060Y0288484D02*
D03*
X0185335Y0292421D02*
D03*
X0185335Y0288484D02*
D03*
X0180611Y0292421D02*
D03*
X0180611Y0288484D02*
D03*
X0175886Y0292421D02*
D03*
X0175886Y0288484D02*
D03*
X0227855Y0292421D02*
D03*
X0227855Y0288484D02*
D03*
X0223131Y0292421D02*
D03*
X0223131Y0288484D02*
D03*
X0218406Y0292421D02*
D03*
X0218406Y0288484D02*
D03*
X0213682Y0292421D02*
D03*
X0213682Y0288484D02*
D03*
X0246753Y0288484D02*
D03*
X0246753Y0292421D02*
D03*
X0242028Y0292421D02*
D03*
X0242028Y0288484D02*
D03*
X0237304Y0292421D02*
D03*
X0237304Y0288484D02*
D03*
X0232579Y0292421D02*
D03*
X0232579Y0288484D02*
D03*
X0265650Y0292421D02*
D03*
X0265650Y0288484D02*
D03*
X0260926Y0292421D02*
D03*
X0260926Y0288484D02*
D03*
X0256201Y0292421D02*
D03*
X0256201Y0288484D02*
D03*
X0251477Y0292421D02*
D03*
X0251477Y0288484D02*
D03*
X0279823Y0292421D02*
D03*
X0279823Y0288484D02*
D03*
X0275099Y0292421D02*
D03*
X0275099Y0288484D02*
D03*
X0270374Y0292421D02*
D03*
X0270374Y0288484D02*
D03*
X0151870Y0283169D02*
D03*
X0151870Y0287106D02*
D03*
X0288879Y0277067D02*
D03*
X0288879Y0273130D02*
D03*
X0202855Y0309744D02*
D03*
X0202855Y0313681D02*
D03*
X0290453Y0288484D02*
D03*
X0290453Y0292421D02*
D03*
X0151870Y0275492D02*
D03*
X0151870Y0279429D02*
D03*
X0290453Y0284547D02*
D03*
X0290453Y0280610D02*
D03*
X0295571Y0414862D02*
D03*
X0295571Y0410925D02*
D03*
X0284548Y0292421D02*
D03*
X0284548Y0288484D02*
D03*
D89*
X0184548Y0384843D02*
D03*
X0191634Y0384843D02*
D03*
X0191634Y0374803D02*
D03*
X0184548Y0374803D02*
D03*
X0199115Y0336614D02*
D03*
X0192028Y0336614D02*
D03*
X0192028Y0346654D02*
D03*
X0199115Y0346654D02*
D03*
X0199115Y0352756D02*
D03*
X0192028Y0352756D02*
D03*
X0192028Y0362796D02*
D03*
X0199115Y0362796D02*
D03*
X0294587Y0316929D02*
D03*
X0287500Y0316929D02*
D03*
X0287500Y0306890D02*
D03*
X0294587Y0306890D02*
D03*
X0276083Y0306890D02*
D03*
X0283170Y0306890D02*
D03*
X0283170Y0316929D02*
D03*
X0276083Y0316929D02*
D03*
X0226083Y0316929D02*
D03*
X0218997Y0316929D02*
D03*
X0218997Y0306890D02*
D03*
X0226083Y0306890D02*
D03*
X0207579Y0306890D02*
D03*
X0214666Y0306890D02*
D03*
X0214666Y0316929D02*
D03*
X0207579Y0316929D02*
D03*
X0248918Y0316929D02*
D03*
X0241831Y0316929D02*
D03*
X0241831Y0306890D02*
D03*
X0248918Y0306890D02*
D03*
X0230414Y0306890D02*
D03*
X0237501Y0306890D02*
D03*
X0237501Y0316929D02*
D03*
X0230414Y0316929D02*
D03*
X0271753Y0316929D02*
D03*
X0264666Y0316929D02*
D03*
X0264666Y0306890D02*
D03*
X0271753Y0306890D02*
D03*
X0253249Y0306890D02*
D03*
X0260335Y0306890D02*
D03*
X0260335Y0316929D02*
D03*
X0253249Y0316929D02*
D03*
D90*
X0191634Y0378248D02*
D03*
X0191634Y0381398D02*
D03*
X0184548Y0381398D02*
D03*
X0184548Y0378248D02*
D03*
X0192028Y0343209D02*
D03*
X0192028Y0340059D02*
D03*
X0199115Y0340059D02*
D03*
X0199115Y0343209D02*
D03*
X0192028Y0359351D02*
D03*
X0192028Y0356201D02*
D03*
X0199115Y0356201D02*
D03*
X0199115Y0359351D02*
D03*
X0294587Y0313484D02*
D03*
X0294587Y0310335D02*
D03*
X0287500Y0310335D02*
D03*
X0287500Y0313484D02*
D03*
X0276083Y0310335D02*
D03*
X0276083Y0313484D02*
D03*
X0283170Y0313484D02*
D03*
X0283170Y0310335D02*
D03*
X0226083Y0313484D02*
D03*
X0226083Y0310335D02*
D03*
X0218997Y0310335D02*
D03*
X0218997Y0313484D02*
D03*
X0207579Y0310335D02*
D03*
X0207579Y0313484D02*
D03*
X0214666Y0313484D02*
D03*
X0214666Y0310335D02*
D03*
X0248918Y0313484D02*
D03*
X0248918Y0310335D02*
D03*
X0241831Y0310335D02*
D03*
X0241831Y0313484D02*
D03*
X0230414Y0310335D02*
D03*
X0230414Y0313484D02*
D03*
X0237501Y0313484D02*
D03*
X0237501Y0310335D02*
D03*
X0271753Y0313484D02*
D03*
X0271753Y0310335D02*
D03*
X0264666Y0310335D02*
D03*
X0264666Y0313484D02*
D03*
X0253249Y0310335D02*
D03*
X0253249Y0313484D02*
D03*
X0260335Y0313484D02*
D03*
X0260335Y0310335D02*
D03*
D94*
X0172540Y0378839D02*
D03*
X0172540Y0381398D02*
D03*
X0172540Y0383957D02*
D03*
X0180020Y0383957D02*
D03*
X0180020Y0378839D02*
D03*
D100*
X0190847Y0419390D02*
D03*
X0186910Y0419390D02*
D03*
X0306989Y0403642D02*
D03*
X0303051Y0403642D02*
D03*
X0165889Y0398821D02*
D03*
X0169826Y0398821D02*
D03*
X0191634Y0392815D02*
D03*
X0187697Y0392815D02*
D03*
X0179823Y0392815D02*
D03*
X0183760Y0392815D02*
D03*
X0288485Y0338091D02*
D03*
X0292422Y0338091D02*
D03*
X0219193Y0419981D02*
D03*
X0223130Y0419981D02*
D03*
X0287894Y0407776D02*
D03*
X0291831Y0407776D02*
D03*
X0260532Y0418799D02*
D03*
X0264469Y0418799D02*
D03*
X0216056Y0331990D02*
D03*
X0212119Y0331990D02*
D03*
X0206792Y0354626D02*
D03*
X0210729Y0354626D02*
D03*
X0216831Y0353051D02*
D03*
X0220768Y0353051D02*
D03*
X0216044Y0381398D02*
D03*
X0219981Y0381398D02*
D03*
X0311319Y0421555D02*
D03*
X0307382Y0421555D02*
D03*
X0198130Y0420571D02*
D03*
X0194193Y0420571D02*
D03*
X0180217Y0406201D02*
D03*
X0184154Y0406201D02*
D03*
X0291241Y0344390D02*
D03*
X0295178Y0344390D02*
D03*
X0291241Y0348327D02*
D03*
X0295178Y0348327D02*
D03*
X0291831Y0411713D02*
D03*
X0287894Y0411713D02*
D03*
X0264764Y0335827D02*
D03*
X0260827Y0335827D02*
D03*
X0208170Y0381004D02*
D03*
X0212107Y0381004D02*
D03*
X0208170Y0349311D02*
D03*
X0212107Y0349311D02*
D03*
X0216437Y0404626D02*
D03*
X0220374Y0404626D02*
D03*
X0215650Y0389272D02*
D03*
X0219587Y0389272D02*
D03*
X0230512Y0335433D02*
D03*
X0234449Y0335433D02*
D03*
X0284745Y0323130D02*
D03*
X0280808Y0323130D02*
D03*
X0216241Y0323130D02*
D03*
X0212304Y0323130D02*
D03*
X0239075Y0323130D02*
D03*
X0235138Y0323130D02*
D03*
X0261910Y0323130D02*
D03*
X0257973Y0323130D02*
D03*
X0222737Y0299114D02*
D03*
X0218800Y0299114D02*
D03*
X0167685Y0302658D02*
D03*
X0171622Y0302658D02*
D03*
X0158496Y0302658D02*
D03*
X0154559Y0302658D02*
D03*
X0192489Y0302658D02*
D03*
X0196426Y0302658D02*
D03*
X0183300Y0302658D02*
D03*
X0179363Y0302658D02*
D03*
X0156398Y0384547D02*
D03*
X0152461Y0384547D02*
D03*
X0160926Y0384547D02*
D03*
X0164863Y0384547D02*
D03*
X0197934Y0296358D02*
D03*
X0193997Y0296358D02*
D03*
X0151083Y0334154D02*
D03*
X0155020Y0334154D02*
D03*
X0151083Y0346555D02*
D03*
X0155020Y0346555D02*
D03*
X0151083Y0350689D02*
D03*
X0155020Y0350689D02*
D03*
X0151083Y0358957D02*
D03*
X0155020Y0358957D02*
D03*
X0151083Y0354823D02*
D03*
X0155020Y0354823D02*
D03*
X0151083Y0363091D02*
D03*
X0155020Y0363091D02*
D03*
X0151083Y0342422D02*
D03*
X0155020Y0342422D02*
D03*
X0151083Y0338288D02*
D03*
X0155020Y0338288D02*
D03*
D137*
X0201123Y0385532D02*
D03*
X0207343Y0385532D02*
D03*
D138*
X0303726Y0395883D02*
D03*
X0307466Y0386631D02*
D03*
X0221297Y0338132D02*
D03*
X0217557Y0347384D02*
D03*
X0157776Y0398996D02*
D03*
X0154036Y0408248D02*
D03*
X0163485Y0412421D02*
D03*
X0167225Y0403170D02*
D03*
X0300099Y0304036D02*
D03*
X0303839Y0294784D02*
D03*
X0303839Y0309679D02*
D03*
X0300099Y0318931D02*
D03*
X0300099Y0333826D02*
D03*
X0303839Y0324574D02*
D03*
X0299312Y0348721D02*
D03*
X0303052Y0339469D02*
D03*
D138*
X0299986Y0386631D02*
D03*
X0213817Y0338132D02*
D03*
X0150296Y0398996D02*
D03*
X0170965Y0412422D02*
D03*
X0307579Y0304036D02*
D03*
X0307579Y0318931D02*
D03*
X0307579Y0333826D02*
D03*
X0306792Y0348721D02*
D03*
D139*
X0151477Y0391634D02*
D03*
X0164469Y0391634D02*
D03*
X0188878Y0401870D02*
D03*
X0201871Y0401870D02*
D03*
D140*
X0183957Y0400295D02*
D03*
X0177264Y0400295D02*
D03*
D141*
X0306201Y0362500D02*
D03*
X0306201Y0373917D02*
D03*
D142*
X0244272Y0373536D02*
D03*
X0248603Y0373536D02*
D03*
X0252934Y0373536D02*
D03*
X0257264Y0373536D02*
D03*
X0261595Y0373536D02*
D03*
X0265926Y0373536D02*
D03*
X0270257Y0373536D02*
D03*
X0274587Y0373536D02*
D03*
D143*
X0283957Y0363300D02*
D03*
X0283957Y0395977D02*
D03*
X0229824Y0395977D02*
D03*
X0229824Y0363300D02*
D03*
D145*
X0219194Y0374508D02*
D03*
X0219194Y0359941D02*
D03*
D146*
X0265749Y0350689D02*
D03*
X0265749Y0343603D02*
D03*
X0275788Y0343603D02*
D03*
X0275788Y0350689D02*
D03*
X0196851Y0275689D02*
D03*
X0196851Y0282776D02*
D03*
X0206890Y0282776D02*
D03*
X0206890Y0275689D02*
D03*
X0168701Y0310138D02*
D03*
X0168701Y0317225D02*
D03*
X0158662Y0317225D02*
D03*
X0158662Y0310138D02*
D03*
X0158662Y0328642D02*
D03*
X0158662Y0321555D02*
D03*
X0168701Y0321555D02*
D03*
X0168701Y0328642D02*
D03*
X0196654Y0310138D02*
D03*
X0196654Y0317225D02*
D03*
X0186615Y0317225D02*
D03*
X0186615Y0310138D02*
D03*
X0186615Y0328642D02*
D03*
X0186615Y0321555D02*
D03*
X0196654Y0321555D02*
D03*
X0196654Y0328642D02*
D03*
X0159056Y0275689D02*
D03*
X0159056Y0282776D02*
D03*
X0169095Y0282776D02*
D03*
X0169095Y0275689D02*
D03*
X0177953Y0275689D02*
D03*
X0177953Y0282776D02*
D03*
X0187992Y0282776D02*
D03*
X0187992Y0275689D02*
D03*
X0215748Y0275689D02*
D03*
X0215748Y0282776D02*
D03*
X0225788Y0282776D02*
D03*
X0225788Y0275689D02*
D03*
X0234646Y0275689D02*
D03*
X0234646Y0282776D02*
D03*
X0244686Y0282776D02*
D03*
X0244686Y0275689D02*
D03*
X0253544Y0275689D02*
D03*
X0253544Y0282776D02*
D03*
X0263583Y0282776D02*
D03*
X0263583Y0275689D02*
D03*
X0272441Y0275689D02*
D03*
X0272441Y0282776D02*
D03*
X0282481Y0282776D02*
D03*
X0282481Y0275689D02*
D03*
X0305709Y0281398D02*
D03*
X0305709Y0288484D02*
D03*
X0295670Y0288484D02*
D03*
X0295670Y0281398D02*
D03*
D147*
X0269193Y0350689D02*
D03*
X0272343Y0350689D02*
D03*
X0272343Y0343603D02*
D03*
X0269193Y0343603D02*
D03*
X0203445Y0282776D02*
D03*
X0200296Y0282776D02*
D03*
X0200296Y0275689D02*
D03*
X0203445Y0275689D02*
D03*
X0165256Y0310138D02*
D03*
X0162107Y0310138D02*
D03*
X0162107Y0317225D02*
D03*
X0165256Y0317225D02*
D03*
X0162107Y0328642D02*
D03*
X0165256Y0328642D02*
D03*
X0165256Y0321555D02*
D03*
X0162107Y0321555D02*
D03*
X0193209Y0310138D02*
D03*
X0190059Y0310138D02*
D03*
X0190059Y0317225D02*
D03*
X0193209Y0317225D02*
D03*
X0190060Y0328642D02*
D03*
X0193209Y0328642D02*
D03*
X0193209Y0321555D02*
D03*
X0190060Y0321555D02*
D03*
X0165650Y0282776D02*
D03*
X0162501Y0282776D02*
D03*
X0162501Y0275689D02*
D03*
X0165650Y0275689D02*
D03*
X0184548Y0282776D02*
D03*
X0181398Y0282776D02*
D03*
X0181398Y0275689D02*
D03*
X0184548Y0275689D02*
D03*
X0222343Y0282776D02*
D03*
X0219193Y0282776D02*
D03*
X0219193Y0275689D02*
D03*
X0222343Y0275689D02*
D03*
X0241241Y0282776D02*
D03*
X0238091Y0282776D02*
D03*
X0238091Y0275689D02*
D03*
X0241241Y0275689D02*
D03*
X0260138Y0282776D02*
D03*
X0256989Y0282776D02*
D03*
X0256989Y0275689D02*
D03*
X0260138Y0275689D02*
D03*
X0279036Y0282776D02*
D03*
X0275886Y0282776D02*
D03*
X0275886Y0275689D02*
D03*
X0279036Y0275689D02*
D03*
X0302264Y0281398D02*
D03*
X0299115Y0281398D02*
D03*
X0299115Y0288484D02*
D03*
X0302264Y0288484D02*
D03*
D148*
X0290847Y0378248D02*
D03*
X0290847Y0371949D02*
D03*
X0237205Y0413977D02*
D03*
X0237205Y0420276D02*
D03*
X0151871Y0380217D02*
D03*
X0151871Y0373917D02*
D03*
X0296359Y0370768D02*
D03*
X0296359Y0377067D02*
D03*
D149*
X0216437Y0399705D02*
D03*
X0216437Y0393799D02*
D03*
D150*
X0207383Y0394784D02*
D03*
X0201083Y0394784D02*
D03*
X0207383Y0390158D02*
D03*
X0201083Y0390158D02*
D03*
D151*
X0158957Y0419390D02*
D03*
X0170374Y0419390D02*
D03*
D152*
X0160768Y0335138D02*
D03*
X0160768Y0337697D02*
D03*
X0160768Y0340256D02*
D03*
X0160768Y0342815D02*
D03*
X0160768Y0345374D02*
D03*
X0160768Y0347933D02*
D03*
X0160768Y0350492D02*
D03*
X0160768Y0353051D02*
D03*
X0160768Y0355610D02*
D03*
X0160768Y0358170D02*
D03*
X0160768Y0360728D02*
D03*
X0160768Y0363288D02*
D03*
X0183761Y0335138D02*
D03*
X0183761Y0337697D02*
D03*
X0183761Y0340256D02*
D03*
X0183761Y0342815D02*
D03*
X0183761Y0345374D02*
D03*
X0183761Y0347933D02*
D03*
X0183761Y0350492D02*
D03*
X0183761Y0353051D02*
D03*
X0183761Y0355610D02*
D03*
X0183761Y0358170D02*
D03*
X0183761Y0360728D02*
D03*
X0183761Y0363288D02*
D03*
D153*
X0304036Y0411319D02*
D03*
X0302068Y0411319D02*
D03*
X0302068Y0417618D02*
D03*
X0304036Y0417618D02*
D03*
D154*
X0299902Y0411516D02*
D03*
X0299902Y0413485D02*
D03*
X0299902Y0415453D02*
D03*
X0299902Y0417421D02*
D03*
X0306202Y0411516D02*
D03*
X0306202Y0417421D02*
D03*
X0306202Y0413485D02*
D03*
X0306202Y0415453D02*
D03*
X0481201Y0181004D02*
%LPD*%
G01*
G36*
G01*
X0491831Y0198169D02*
X0488760Y0198169D01*
G75*
G02*
X0488484Y0198445I0000000J0000276D01*
G01*
X0488484Y0200650D01*
G75*
G02*
X0488760Y0200925I0000276J0000000D01*
G01*
X0491831Y0200925D01*
G75*
G02*
X0492107Y0200650I0000000J-000276D01*
G01*
X0492107Y0198445D01*
G75*
G02*
X0491831Y0198169I-000276J0000000D01*
G01*
G37*
G36*
G01*
X0491831Y0204469D02*
X0488760Y0204469D01*
G75*
G02*
X0488484Y0204744I0000000J0000276D01*
G01*
X0488484Y0206949D01*
G75*
G02*
X0488760Y0207224I0000276J0000000D01*
G01*
X0491831Y0207224D01*
G75*
G02*
X0492107Y0206949I0000000J-000276D01*
G01*
X0492107Y0204744D01*
G75*
G02*
X0491831Y0204469I-000276J0000000D01*
G01*
G37*
G36*
G01*
X0488760Y0219035D02*
X0491831Y0219035D01*
G75*
G02*
X0492107Y0218760I0000000J-000276D01*
G01*
X0492107Y0216555D01*
G75*
G02*
X0491831Y0216280I-000276J0000000D01*
G01*
X0488760Y0216280D01*
G75*
G02*
X0488484Y0216555I0000000J0000276D01*
G01*
X0488484Y0218760D01*
G75*
G02*
X0488760Y0219035I0000276J0000000D01*
G01*
G37*
G36*
G01*
X0488760Y0212736D02*
X0491831Y0212736D01*
G75*
G02*
X0492107Y0212461I0000000J-000276D01*
G01*
X0492107Y0210256D01*
G75*
G02*
X0491831Y0209980I-000276J0000000D01*
G01*
X0488760Y0209980D01*
G75*
G02*
X0488484Y0210256I0000000J0000276D01*
G01*
X0488484Y0212461D01*
G75*
G02*
X0488760Y0212736I0000276J0000000D01*
G01*
G37*
G36*
G01*
X0508012Y0216181D02*
X0508012Y0212047D01*
G75*
G02*
X0507618Y0211654I-000394J0000000D01*
G01*
X0504469Y0211654D01*
G75*
G02*
X0504075Y0212047I0000000J0000394D01*
G01*
X0504075Y0216181D01*
G75*
G02*
X0504469Y0216575I0000394J0000000D01*
G01*
X0507618Y0216575D01*
G75*
G02*
X0508012Y0216181I0000000J-000394D01*
G01*
G37*
G36*
G01*
X0500138Y0216181D02*
X0500138Y0212047D01*
G75*
G02*
X0499744Y0211654I-000394J0000000D01*
G01*
X0496595Y0211654D01*
G75*
G02*
X0496201Y0212047I0000000J0000394D01*
G01*
X0496201Y0216181D01*
G75*
G02*
X0496595Y0216575I0000394J0000000D01*
G01*
X0499744Y0216575D01*
G75*
G02*
X0500138Y0216181I0000000J-000394D01*
G01*
G37*
G36*
G01*
X0511162Y0197874D02*
X0511162Y0202008D01*
G75*
G02*
X0511555Y0202402I0000394J0000000D01*
G01*
X0514705Y0202402D01*
G75*
G02*
X0515099Y0202008I0000000J-000394D01*
G01*
X0515099Y0197874D01*
G75*
G02*
X0514705Y0197480I-000394J0000000D01*
G01*
X0511555Y0197480D01*
G75*
G02*
X0511162Y0197874I0000000J0000394D01*
G01*
G37*
G36*
G01*
X0519036Y0197874D02*
X0519036Y0202008D01*
G75*
G02*
X0519429Y0202402I0000394J0000000D01*
G01*
X0522579Y0202402D01*
G75*
G02*
X0522973Y0202008I0000000J-000394D01*
G01*
X0522973Y0197874D01*
G75*
G02*
X0522579Y0197480I-000394J0000000D01*
G01*
X0519429Y0197480D01*
G75*
G02*
X0519036Y0197874I0000000J0000394D01*
G01*
G37*
G36*
G01*
X0483051Y0195669D02*
X0485729Y0195669D01*
G75*
G02*
X0486063Y0195335I0000000J-000335D01*
G01*
X0486063Y0192658D01*
G75*
G02*
X0485729Y0192323I-000335J0000000D01*
G01*
X0483051Y0192323D01*
G75*
G02*
X0482717Y0192658I0000000J0000335D01*
G01*
X0482717Y0195335D01*
G75*
G02*
X0483051Y0195669I0000335J0000000D01*
G01*
G37*
G36*
G01*
X0483051Y0189449D02*
X0485729Y0189449D01*
G75*
G02*
X0486063Y0189114I0000000J-000335D01*
G01*
X0486063Y0186437D01*
G75*
G02*
X0485729Y0186102I-000335J0000000D01*
G01*
X0483051Y0186102D01*
G75*
G02*
X0482717Y0186437I0000000J0000335D01*
G01*
X0482717Y0189114D01*
G75*
G02*
X0483051Y0189449I0000335J0000000D01*
G01*
G37*
G36*
G01*
X0527146Y0193602D02*
X0529823Y0193602D01*
G75*
G02*
X0530158Y0193268I0000000J-000335D01*
G01*
X0530158Y0190591D01*
G75*
G02*
X0529823Y0190256I-000335J0000000D01*
G01*
X0527146Y0190256D01*
G75*
G02*
X0526811Y0190591I0000000J0000335D01*
G01*
X0526811Y0193268D01*
G75*
G02*
X0527146Y0193602I0000335J0000000D01*
G01*
G37*
G36*
G01*
X0527146Y0187382D02*
X0529823Y0187382D01*
G75*
G02*
X0530158Y0187047I0000000J-000335D01*
G01*
X0530158Y0184370D01*
G75*
G02*
X0529823Y0184035I-000335J0000000D01*
G01*
X0527146Y0184035D01*
G75*
G02*
X0526811Y0184370I0000000J0000335D01*
G01*
X0526811Y0187047D01*
G75*
G02*
X0527146Y0187382I0000335J0000000D01*
G01*
G37*
G36*
G01*
X0508012Y0209095D02*
X0508012Y0204961D01*
G75*
G02*
X0507618Y0204567I-000394J0000000D01*
G01*
X0504469Y0204567D01*
G75*
G02*
X0504075Y0204961I0000000J0000394D01*
G01*
X0504075Y0209095D01*
G75*
G02*
X0504469Y0209488I0000394J0000000D01*
G01*
X0507618Y0209488D01*
G75*
G02*
X0508012Y0209095I0000000J-000394D01*
G01*
G37*
G36*
G01*
X0500138Y0209095D02*
X0500138Y0204961D01*
G75*
G02*
X0499744Y0204567I-000394J0000000D01*
G01*
X0496595Y0204567D01*
G75*
G02*
X0496201Y0204961I0000000J0000394D01*
G01*
X0496201Y0209095D01*
G75*
G02*
X0496595Y0209488I0000394J0000000D01*
G01*
X0499744Y0209488D01*
G75*
G02*
X0500138Y0209095I0000000J-000394D01*
G01*
G37*
G36*
G01*
X0511162Y0204961D02*
X0511162Y0209095D01*
G75*
G02*
X0511555Y0209488I0000394J0000000D01*
G01*
X0514705Y0209488D01*
G75*
G02*
X0515099Y0209095I0000000J-000394D01*
G01*
X0515099Y0204961D01*
G75*
G02*
X0514705Y0204567I-000394J0000000D01*
G01*
X0511555Y0204567D01*
G75*
G02*
X0511162Y0204961I0000000J0000394D01*
G01*
G37*
G36*
G01*
X0519036Y0204961D02*
X0519036Y0209095D01*
G75*
G02*
X0519429Y0209488I0000394J0000000D01*
G01*
X0522579Y0209488D01*
G75*
G02*
X0522973Y0209095I0000000J-000394D01*
G01*
X0522973Y0204961D01*
G75*
G02*
X0522579Y0204567I-000394J0000000D01*
G01*
X0519429Y0204567D01*
G75*
G02*
X0519036Y0204961I0000000J0000394D01*
G01*
G37*
G36*
G01*
X0508012Y0194921D02*
X0508012Y0190787D01*
G75*
G02*
X0507618Y0190394I-000394J0000000D01*
G01*
X0504469Y0190394D01*
G75*
G02*
X0504075Y0190787I0000000J0000394D01*
G01*
X0504075Y0194921D01*
G75*
G02*
X0504469Y0195315I0000394J0000000D01*
G01*
X0507618Y0195315D01*
G75*
G02*
X0508012Y0194921I0000000J-000394D01*
G01*
G37*
G36*
G01*
X0500138Y0194921D02*
X0500138Y0190787D01*
G75*
G02*
X0499744Y0190394I-000394J0000000D01*
G01*
X0496595Y0190394D01*
G75*
G02*
X0496201Y0190787I0000000J0000394D01*
G01*
X0496201Y0194921D01*
G75*
G02*
X0496595Y0195315I0000394J0000000D01*
G01*
X0499744Y0195315D01*
G75*
G02*
X0500138Y0194921I0000000J-000394D01*
G01*
G37*
G36*
G01*
X0511162Y0183701D02*
X0511162Y0187835D01*
G75*
G02*
X0511555Y0188228I0000394J0000000D01*
G01*
X0514705Y0188228D01*
G75*
G02*
X0515099Y0187835I0000000J-000394D01*
G01*
X0515099Y0183701D01*
G75*
G02*
X0514705Y0183307I-000394J0000000D01*
G01*
X0511555Y0183307D01*
G75*
G02*
X0511162Y0183701I0000000J0000394D01*
G01*
G37*
G36*
G01*
X0519036Y0183701D02*
X0519036Y0187835D01*
G75*
G02*
X0519429Y0188228I0000394J0000000D01*
G01*
X0522579Y0188228D01*
G75*
G02*
X0522973Y0187835I0000000J-000394D01*
G01*
X0522973Y0183701D01*
G75*
G02*
X0522579Y0183307I-000394J0000000D01*
G01*
X0519429Y0183307D01*
G75*
G02*
X0519036Y0183701I0000000J0000394D01*
G01*
G37*
G36*
G01*
X0488957Y0195669D02*
X0491634Y0195669D01*
G75*
G02*
X0491969Y0195335I0000000J-000335D01*
G01*
X0491969Y0192658D01*
G75*
G02*
X0491634Y0192323I-000335J0000000D01*
G01*
X0488957Y0192323D01*
G75*
G02*
X0488622Y0192658I0000000J0000335D01*
G01*
X0488622Y0195335D01*
G75*
G02*
X0488957Y0195669I0000335J0000000D01*
G01*
G37*
G36*
G01*
X0488957Y0189449D02*
X0491634Y0189449D01*
G75*
G02*
X0491969Y0189114I0000000J-000335D01*
G01*
X0491969Y0186437D01*
G75*
G02*
X0491634Y0186102I-000335J0000000D01*
G01*
X0488957Y0186102D01*
G75*
G02*
X0488622Y0186437I0000000J0000335D01*
G01*
X0488622Y0189114D01*
G75*
G02*
X0488957Y0189449I0000335J0000000D01*
G01*
G37*
G36*
G01*
X0508012Y0187835D02*
X0508012Y0183701D01*
G75*
G02*
X0507618Y0183307I-000394J0000000D01*
G01*
X0504469Y0183307D01*
G75*
G02*
X0504075Y0183701I0000000J0000394D01*
G01*
X0504075Y0187835D01*
G75*
G02*
X0504469Y0188228I0000394J0000000D01*
G01*
X0507618Y0188228D01*
G75*
G02*
X0508012Y0187835I0000000J-000394D01*
G01*
G37*
G36*
G01*
X0500138Y0187835D02*
X0500138Y0183701D01*
G75*
G02*
X0499744Y0183307I-000394J0000000D01*
G01*
X0496595Y0183307D01*
G75*
G02*
X0496201Y0183701I0000000J0000394D01*
G01*
X0496201Y0187835D01*
G75*
G02*
X0496595Y0188228I0000394J0000000D01*
G01*
X0499744Y0188228D01*
G75*
G02*
X0500138Y0187835I0000000J-000394D01*
G01*
G37*
G36*
G01*
X0511162Y0190787D02*
X0511162Y0194921D01*
G75*
G02*
X0511555Y0195315I0000394J0000000D01*
G01*
X0514705Y0195315D01*
G75*
G02*
X0515099Y0194921I0000000J-000394D01*
G01*
X0515099Y0190787D01*
G75*
G02*
X0514705Y0190394I-000394J0000000D01*
G01*
X0511555Y0190394D01*
G75*
G02*
X0511162Y0190787I0000000J0000394D01*
G01*
G37*
G36*
G01*
X0519036Y0190787D02*
X0519036Y0194921D01*
G75*
G02*
X0519429Y0195315I0000394J0000000D01*
G01*
X0522579Y0195315D01*
G75*
G02*
X0522973Y0194921I0000000J-000394D01*
G01*
X0522973Y0190787D01*
G75*
G02*
X0522579Y0190394I-000394J0000000D01*
G01*
X0519429Y0190394D01*
G75*
G02*
X0519036Y0190787I0000000J0000394D01*
G01*
G37*
G36*
G01*
X0511162Y0212047D02*
X0511162Y0216181D01*
G75*
G02*
X0511555Y0216575I0000394J0000000D01*
G01*
X0514705Y0216575D01*
G75*
G02*
X0515099Y0216181I0000000J-000394D01*
G01*
X0515099Y0212047D01*
G75*
G02*
X0514705Y0211654I-000394J0000000D01*
G01*
X0511555Y0211654D01*
G75*
G02*
X0511162Y0212047I0000000J0000394D01*
G01*
G37*
G36*
G01*
X0519036Y0212047D02*
X0519036Y0216181D01*
G75*
G02*
X0519429Y0216575I0000394J0000000D01*
G01*
X0522579Y0216575D01*
G75*
G02*
X0522973Y0216181I0000000J-000394D01*
G01*
X0522973Y0212047D01*
G75*
G02*
X0522579Y0211654I-000394J0000000D01*
G01*
X0519429Y0211654D01*
G75*
G02*
X0519036Y0212047I0000000J0000394D01*
G01*
G37*
G36*
G01*
X0508012Y0202008D02*
X0508012Y0197874D01*
G75*
G02*
X0507618Y0197480I-000394J0000000D01*
G01*
X0504469Y0197480D01*
G75*
G02*
X0504075Y0197874I0000000J0000394D01*
G01*
X0504075Y0202008D01*
G75*
G02*
X0504469Y0202402I0000394J0000000D01*
G01*
X0507618Y0202402D01*
G75*
G02*
X0508012Y0202008I0000000J-000394D01*
G01*
G37*
G36*
G01*
X0500138Y0202008D02*
X0500138Y0197874D01*
G75*
G02*
X0499744Y0197480I-000394J0000000D01*
G01*
X0496595Y0197480D01*
G75*
G02*
X0496201Y0197874I0000000J0000394D01*
G01*
X0496201Y0202008D01*
G75*
G02*
X0496595Y0202402I0000394J0000000D01*
G01*
X0499744Y0202402D01*
G75*
G02*
X0500138Y0202008I0000000J-000394D01*
G01*
G37*
X0189272Y0127067D02*
%LPD*%
G01*
G36*
G01*
X0268977Y0134426D02*
X0268977Y0135784D01*
G75*
G02*
X0269557Y0136365I0000581J0000000D01*
G01*
X0270719Y0136365D01*
G75*
G02*
X0271300Y0135784I0000000J-000581D01*
G01*
X0271300Y0134426D01*
G75*
G02*
X0270719Y0133845I-000581J0000000D01*
G01*
X0269557Y0133845D01*
G75*
G02*
X0268977Y0134426I0000000J0000581D01*
G01*
G37*
G36*
G01*
X0272796Y0134426D02*
X0272796Y0135784D01*
G75*
G02*
X0273376Y0136365I0000581J0000000D01*
G01*
X0274538Y0136365D01*
G75*
G02*
X0275118Y0135784I0000000J-000581D01*
G01*
X0275118Y0134426D01*
G75*
G02*
X0274538Y0133845I-000581J0000000D01*
G01*
X0273376Y0133845D01*
G75*
G02*
X0272796Y0134426I0000000J0000581D01*
G01*
G37*
G36*
G01*
X0283445Y0149715D02*
X0283445Y0151073D01*
G75*
G02*
X0284026Y0151654I0000581J0000000D01*
G01*
X0285187Y0151654D01*
G75*
G02*
X0285768Y0151073I0000000J-000581D01*
G01*
X0285768Y0149715D01*
G75*
G02*
X0285187Y0149134I-000581J0000000D01*
G01*
X0284026Y0149134D01*
G75*
G02*
X0283445Y0149715I0000000J0000581D01*
G01*
G37*
G36*
G01*
X0287264Y0149715D02*
X0287264Y0151073D01*
G75*
G02*
X0287845Y0151654I0000581J0000000D01*
G01*
X0289006Y0151654D01*
G75*
G02*
X0289587Y0151073I0000000J-000581D01*
G01*
X0289587Y0149715D01*
G75*
G02*
X0289006Y0149134I-000581J0000000D01*
G01*
X0287845Y0149134D01*
G75*
G02*
X0287264Y0149715I0000000J0000581D01*
G01*
G37*
G36*
G01*
X0233563Y0175911D02*
X0233563Y0173893D01*
G75*
G02*
X0232702Y0173032I-000861J0000000D01*
G01*
X0230980Y0173032D01*
G75*
G02*
X0230118Y0173893I0000000J0000861D01*
G01*
X0230118Y0175911D01*
G75*
G02*
X0230980Y0176772I0000861J0000000D01*
G01*
X0232702Y0176772D01*
G75*
G02*
X0233563Y0175911I0000000J-000861D01*
G01*
G37*
G36*
G01*
X0227363Y0175911D02*
X0227363Y0173893D01*
G75*
G02*
X0226501Y0173032I-000861J0000000D01*
G01*
X0224779Y0173032D01*
G75*
G02*
X0223918Y0173893I0000000J0000861D01*
G01*
X0223918Y0175911D01*
G75*
G02*
X0224779Y0176772I0000861J0000000D01*
G01*
X0226501Y0176772D01*
G75*
G02*
X0227363Y0175911I0000000J-000861D01*
G01*
G37*
G36*
G01*
X0275118Y0131585D02*
X0275118Y0130226D01*
G75*
G02*
X0274538Y0129646I-000581J0000000D01*
G01*
X0273376Y0129646D01*
G75*
G02*
X0272796Y0130226I0000000J0000581D01*
G01*
X0272796Y0131585D01*
G75*
G02*
X0273376Y0132165I0000581J0000000D01*
G01*
X0274538Y0132165D01*
G75*
G02*
X0275118Y0131585I0000000J-000581D01*
G01*
G37*
G36*
G01*
X0271300Y0131585D02*
X0271300Y0130226D01*
G75*
G02*
X0270719Y0129646I-000581J0000000D01*
G01*
X0269557Y0129646D01*
G75*
G02*
X0268977Y0130226I0000000J0000581D01*
G01*
X0268977Y0131585D01*
G75*
G02*
X0269557Y0132165I0000581J0000000D01*
G01*
X0270719Y0132165D01*
G75*
G02*
X0271300Y0131585I0000000J-000581D01*
G01*
G37*
G36*
G01*
X0215417Y0170581D02*
X0215417Y0171939D01*
G75*
G02*
X0215997Y0172520I0000581J0000000D01*
G01*
X0217159Y0172520D01*
G75*
G02*
X0217739Y0171939I0000000J-000581D01*
G01*
X0217739Y0170581D01*
G75*
G02*
X0217159Y0170000I-000581J0000000D01*
G01*
X0215997Y0170000D01*
G75*
G02*
X0215417Y0170581I0000000J0000581D01*
G01*
G37*
G36*
G01*
X0219235Y0170581D02*
X0219235Y0171939D01*
G75*
G02*
X0219816Y0172520I0000581J0000000D01*
G01*
X0220978Y0172520D01*
G75*
G02*
X0221558Y0171939I0000000J-000581D01*
G01*
X0221558Y0170581D01*
G75*
G02*
X0220978Y0170000I-000581J0000000D01*
G01*
X0219816Y0170000D01*
G75*
G02*
X0219235Y0170581I0000000J0000581D01*
G01*
G37*
G36*
G01*
X0223504Y0168711D02*
X0223504Y0170069D01*
G75*
G02*
X0224085Y0170650I0000581J0000000D01*
G01*
X0225246Y0170650D01*
G75*
G02*
X0225827Y0170069I0000000J-000581D01*
G01*
X0225827Y0168711D01*
G75*
G02*
X0225246Y0168130I-000581J0000000D01*
G01*
X0224085Y0168130D01*
G75*
G02*
X0223504Y0168711I0000000J0000581D01*
G01*
G37*
G36*
G01*
X0227323Y0168711D02*
X0227323Y0170069D01*
G75*
G02*
X0227904Y0170650I0000581J0000000D01*
G01*
X0229065Y0170650D01*
G75*
G02*
X0229646Y0170069I0000000J-000581D01*
G01*
X0229646Y0168711D01*
G75*
G02*
X0229065Y0168130I-000581J0000000D01*
G01*
X0227904Y0168130D01*
G75*
G02*
X0227323Y0168711I0000000J0000581D01*
G01*
G37*
G36*
G01*
X0194892Y0176043D02*
X0196250Y0176043D01*
G75*
G02*
X0196831Y0175463I0000000J-000581D01*
G01*
X0196831Y0174301D01*
G75*
G02*
X0196250Y0173721I-000581J0000000D01*
G01*
X0194892Y0173721D01*
G75*
G02*
X0194311Y0174301I0000000J0000581D01*
G01*
X0194311Y0175463D01*
G75*
G02*
X0194892Y0176043I0000581J0000000D01*
G01*
G37*
G36*
G01*
X0194892Y0172224D02*
X0196250Y0172224D01*
G75*
G02*
X0196831Y0171644I0000000J-000581D01*
G01*
X0196831Y0170482D01*
G75*
G02*
X0196250Y0169902I-000581J0000000D01*
G01*
X0194892Y0169902D01*
G75*
G02*
X0194311Y0170482I0000000J0000581D01*
G01*
X0194311Y0171644D01*
G75*
G02*
X0194892Y0172224I0000581J0000000D01*
G01*
G37*
G36*
G01*
X0244410Y0158455D02*
X0244410Y0157097D01*
G75*
G02*
X0243829Y0156516I-000581J0000000D01*
G01*
X0242668Y0156516D01*
G75*
G02*
X0242087Y0157097I0000000J0000581D01*
G01*
X0242087Y0158455D01*
G75*
G02*
X0242668Y0159036I0000581J0000000D01*
G01*
X0243829Y0159036D01*
G75*
G02*
X0244410Y0158455I0000000J-000581D01*
G01*
G37*
G36*
G01*
X0240591Y0158455D02*
X0240591Y0157097D01*
G75*
G02*
X0240010Y0156516I-000581J0000000D01*
G01*
X0238849Y0156516D01*
G75*
G02*
X0238268Y0157097I0000000J0000581D01*
G01*
X0238268Y0158455D01*
G75*
G02*
X0238849Y0159036I0000581J0000000D01*
G01*
X0240010Y0159036D01*
G75*
G02*
X0240591Y0158455I0000000J-000581D01*
G01*
G37*
G36*
G01*
X0238268Y0153160D02*
X0238268Y0154518D01*
G75*
G02*
X0238849Y0155098I0000581J0000000D01*
G01*
X0240010Y0155098D01*
G75*
G02*
X0240591Y0154518I0000000J-000581D01*
G01*
X0240591Y0153160D01*
G75*
G02*
X0240010Y0152579I-000581J0000000D01*
G01*
X0238849Y0152579D01*
G75*
G02*
X0238268Y0153160I0000000J0000581D01*
G01*
G37*
G36*
G01*
X0242087Y0153160D02*
X0242087Y0154518D01*
G75*
G02*
X0242668Y0155098I0000581J0000000D01*
G01*
X0243829Y0155098D01*
G75*
G02*
X0244410Y0154518I0000000J-000581D01*
G01*
X0244410Y0153160D01*
G75*
G02*
X0243829Y0152579I-000581J0000000D01*
G01*
X0242668Y0152579D01*
G75*
G02*
X0242087Y0153160I0000000J0000581D01*
G01*
G37*
G36*
G01*
X0285748Y0155600D02*
X0285748Y0154242D01*
G75*
G02*
X0285168Y0153661I-000581J0000000D01*
G01*
X0284006Y0153661D01*
G75*
G02*
X0283426Y0154242I0000000J0000581D01*
G01*
X0283426Y0155600D01*
G75*
G02*
X0284006Y0156181I0000581J0000000D01*
G01*
X0285168Y0156181D01*
G75*
G02*
X0285748Y0155600I0000000J-000581D01*
G01*
G37*
G36*
G01*
X0281929Y0155600D02*
X0281929Y0154242D01*
G75*
G02*
X0281349Y0153661I-000581J0000000D01*
G01*
X0280187Y0153661D01*
G75*
G02*
X0279607Y0154242I0000000J0000581D01*
G01*
X0279607Y0155600D01*
G75*
G02*
X0280187Y0156181I0000581J0000000D01*
G01*
X0281349Y0156181D01*
G75*
G02*
X0281929Y0155600I0000000J-000581D01*
G01*
G37*
D185*
X0231398Y0132185D03*
X0231398Y0134744D03*
X0231398Y0137303D03*
X0231398Y0139862D03*
X0231398Y0142421D03*
X0231398Y0144980D03*
X0231398Y0147539D03*
X0254626Y0147539D03*
X0254626Y0144980D03*
X0254626Y0142421D03*
X0254626Y0139862D03*
X0254626Y0137303D03*
X0254626Y0134744D03*
X0254626Y0132185D03*
G36*
G01*
X0221575Y0175679D02*
X0221575Y0174321D01*
G75*
G02*
X0220994Y0173740I-000581J0000000D01*
G01*
X0219833Y0173740D01*
G75*
G02*
X0219252Y0174321I0000000J0000581D01*
G01*
X0219252Y0175679D01*
G75*
G02*
X0219833Y0176260I0000581J0000000D01*
G01*
X0220994Y0176260D01*
G75*
G02*
X0221575Y0175679I0000000J-000581D01*
G01*
G37*
G36*
G01*
X0217756Y0175679D02*
X0217756Y0174321D01*
G75*
G02*
X0217176Y0173740I-000581J0000000D01*
G01*
X0216014Y0173740D01*
G75*
G02*
X0215433Y0174321I0000000J0000581D01*
G01*
X0215433Y0175679D01*
G75*
G02*
X0216014Y0176260I0000581J0000000D01*
G01*
X0217176Y0176260D01*
G75*
G02*
X0217756Y0175679I0000000J-000581D01*
G01*
G37*
G36*
G01*
X0215433Y0178061D02*
X0215433Y0179419D01*
G75*
G02*
X0216014Y0180000I0000581J0000000D01*
G01*
X0217176Y0180000D01*
G75*
G02*
X0217756Y0179419I0000000J-000581D01*
G01*
X0217756Y0178061D01*
G75*
G02*
X0217176Y0177480I-000581J0000000D01*
G01*
X0216014Y0177480D01*
G75*
G02*
X0215433Y0178061I0000000J0000581D01*
G01*
G37*
G36*
G01*
X0219252Y0178061D02*
X0219252Y0179419D01*
G75*
G02*
X0219833Y0180000I0000581J0000000D01*
G01*
X0220994Y0180000D01*
G75*
G02*
X0221575Y0179419I0000000J-000581D01*
G01*
X0221575Y0178061D01*
G75*
G02*
X0220994Y0177480I-000581J0000000D01*
G01*
X0219833Y0177480D01*
G75*
G02*
X0219252Y0178061I0000000J0000581D01*
G01*
G37*
G36*
G01*
X0275670Y0168612D02*
X0275670Y0169971D01*
G75*
G02*
X0276250Y0170551I0000581J0000000D01*
G01*
X0277412Y0170551D01*
G75*
G02*
X0277992Y0169971I0000000J-000581D01*
G01*
X0277992Y0168612D01*
G75*
G02*
X0277412Y0168032I-000581J0000000D01*
G01*
X0276250Y0168032D01*
G75*
G02*
X0275670Y0168612I0000000J0000581D01*
G01*
G37*
G36*
G01*
X0279489Y0168612D02*
X0279489Y0169971D01*
G75*
G02*
X0280069Y0170551I0000581J0000000D01*
G01*
X0281231Y0170551D01*
G75*
G02*
X0281811Y0169971I0000000J-000581D01*
G01*
X0281811Y0168612D01*
G75*
G02*
X0281231Y0168032I-000581J0000000D01*
G01*
X0280069Y0168032D01*
G75*
G02*
X0279489Y0168612I0000000J0000581D01*
G01*
G37*
G36*
G01*
X0268977Y0139314D02*
X0268977Y0140673D01*
G75*
G02*
X0269557Y0141253I0000581J0000000D01*
G01*
X0270719Y0141253D01*
G75*
G02*
X0271300Y0140673I0000000J-000581D01*
G01*
X0271300Y0139314D01*
G75*
G02*
X0270719Y0138734I-000581J0000000D01*
G01*
X0269557Y0138734D01*
G75*
G02*
X0268977Y0139314I0000000J0000581D01*
G01*
G37*
G36*
G01*
X0272796Y0139314D02*
X0272796Y0140673D01*
G75*
G02*
X0273376Y0141253I0000581J0000000D01*
G01*
X0274538Y0141253D01*
G75*
G02*
X0275118Y0140673I0000000J-000581D01*
G01*
X0275118Y0139314D01*
G75*
G02*
X0274538Y0138734I-000581J0000000D01*
G01*
X0273376Y0138734D01*
G75*
G02*
X0272796Y0139314I0000000J0000581D01*
G01*
G37*
G36*
G01*
X0241162Y0162392D02*
X0241162Y0161034D01*
G75*
G02*
X0240581Y0160453I-000581J0000000D01*
G01*
X0239420Y0160453D01*
G75*
G02*
X0238839Y0161034I0000000J0000581D01*
G01*
X0238839Y0162392D01*
G75*
G02*
X0239420Y0162973I0000581J0000000D01*
G01*
X0240581Y0162973D01*
G75*
G02*
X0241162Y0162392I0000000J-000581D01*
G01*
G37*
G36*
G01*
X0237343Y0162392D02*
X0237343Y0161034D01*
G75*
G02*
X0236762Y0160453I-000581J0000000D01*
G01*
X0235601Y0160453D01*
G75*
G02*
X0235020Y0161034I0000000J0000581D01*
G01*
X0235020Y0162392D01*
G75*
G02*
X0235601Y0162973I0000581J0000000D01*
G01*
X0236762Y0162973D01*
G75*
G02*
X0237343Y0162392I0000000J-000581D01*
G01*
G37*
G36*
G01*
X0289489Y0169971D02*
X0289489Y0168612D01*
G75*
G02*
X0288908Y0168032I-000581J0000000D01*
G01*
X0287746Y0168032D01*
G75*
G02*
X0287166Y0168612I0000000J0000581D01*
G01*
X0287166Y0169971D01*
G75*
G02*
X0287746Y0170551I0000581J0000000D01*
G01*
X0288908Y0170551D01*
G75*
G02*
X0289489Y0169971I0000000J-000581D01*
G01*
G37*
G36*
G01*
X0285670Y0169971D02*
X0285670Y0168612D01*
G75*
G02*
X0285089Y0168032I-000581J0000000D01*
G01*
X0283928Y0168032D01*
G75*
G02*
X0283347Y0168612I0000000J0000581D01*
G01*
X0283347Y0169971D01*
G75*
G02*
X0283928Y0170551I0000581J0000000D01*
G01*
X0285089Y0170551D01*
G75*
G02*
X0285670Y0169971I0000000J-000581D01*
G01*
G37*
G36*
G01*
X0237028Y0154518D02*
X0237028Y0153160D01*
G75*
G02*
X0236447Y0152579I-000581J0000000D01*
G01*
X0235286Y0152579D01*
G75*
G02*
X0234705Y0153160I0000000J0000581D01*
G01*
X0234705Y0154518D01*
G75*
G02*
X0235286Y0155098I0000581J0000000D01*
G01*
X0236447Y0155098D01*
G75*
G02*
X0237028Y0154518I0000000J-000581D01*
G01*
G37*
G36*
G01*
X0233209Y0154518D02*
X0233209Y0153160D01*
G75*
G02*
X0232628Y0152579I-000581J0000000D01*
G01*
X0231467Y0152579D01*
G75*
G02*
X0230886Y0153160I0000000J0000581D01*
G01*
X0230886Y0154518D01*
G75*
G02*
X0231467Y0155098I0000581J0000000D01*
G01*
X0232628Y0155098D01*
G75*
G02*
X0233209Y0154518I0000000J-000581D01*
G01*
G37*
G36*
G01*
X0225778Y0129902D02*
X0224420Y0129902D01*
G75*
G02*
X0223839Y0130482I0000000J0000581D01*
G01*
X0223839Y0131644D01*
G75*
G02*
X0224420Y0132224I0000581J0000000D01*
G01*
X0225778Y0132224D01*
G75*
G02*
X0226359Y0131644I0000000J-000581D01*
G01*
X0226359Y0130482D01*
G75*
G02*
X0225778Y0129902I-000581J0000000D01*
G01*
G37*
G36*
G01*
X0225778Y0133721D02*
X0224420Y0133721D01*
G75*
G02*
X0223839Y0134301I0000000J0000581D01*
G01*
X0223839Y0135463D01*
G75*
G02*
X0224420Y0136043I0000581J0000000D01*
G01*
X0225778Y0136043D01*
G75*
G02*
X0226359Y0135463I0000000J-000581D01*
G01*
X0226359Y0134301D01*
G75*
G02*
X0225778Y0133721I-000581J0000000D01*
G01*
G37*
G36*
G01*
X0251890Y0158455D02*
X0251890Y0157097D01*
G75*
G02*
X0251309Y0156516I-000581J0000000D01*
G01*
X0250148Y0156516D01*
G75*
G02*
X0249567Y0157097I0000000J0000581D01*
G01*
X0249567Y0158455D01*
G75*
G02*
X0250148Y0159036I0000581J0000000D01*
G01*
X0251309Y0159036D01*
G75*
G02*
X0251890Y0158455I0000000J-000581D01*
G01*
G37*
G36*
G01*
X0248071Y0158455D02*
X0248071Y0157097D01*
G75*
G02*
X0247491Y0156516I-000581J0000000D01*
G01*
X0246329Y0156516D01*
G75*
G02*
X0245748Y0157097I0000000J0000581D01*
G01*
X0245748Y0158455D01*
G75*
G02*
X0246329Y0159036I0000581J0000000D01*
G01*
X0247491Y0159036D01*
G75*
G02*
X0248071Y0158455I0000000J-000581D01*
G01*
G37*
G36*
G01*
X0253229Y0157097D02*
X0253229Y0158455D01*
G75*
G02*
X0253809Y0159036I0000581J0000000D01*
G01*
X0254971Y0159036D01*
G75*
G02*
X0255552Y0158455I0000000J-000581D01*
G01*
X0255552Y0157097D01*
G75*
G02*
X0254971Y0156516I-000581J0000000D01*
G01*
X0253809Y0156516D01*
G75*
G02*
X0253229Y0157097I0000000J0000581D01*
G01*
G37*
G36*
G01*
X0257048Y0157097D02*
X0257048Y0158455D01*
G75*
G02*
X0257628Y0159036I0000581J0000000D01*
G01*
X0258790Y0159036D01*
G75*
G02*
X0259370Y0158455I0000000J-000581D01*
G01*
X0259370Y0157097D01*
G75*
G02*
X0258790Y0156516I-000581J0000000D01*
G01*
X0257628Y0156516D01*
G75*
G02*
X0257048Y0157097I0000000J0000581D01*
G01*
G37*
G36*
G01*
X0222038Y0129902D02*
X0220679Y0129902D01*
G75*
G02*
X0220099Y0130482I0000000J0000581D01*
G01*
X0220099Y0131644D01*
G75*
G02*
X0220679Y0132224I0000581J0000000D01*
G01*
X0222038Y0132224D01*
G75*
G02*
X0222618Y0131644I0000000J-000581D01*
G01*
X0222618Y0130482D01*
G75*
G02*
X0222038Y0129902I-000581J0000000D01*
G01*
G37*
G36*
G01*
X0222038Y0133721D02*
X0220679Y0133721D01*
G75*
G02*
X0220099Y0134301I0000000J0000581D01*
G01*
X0220099Y0135463D01*
G75*
G02*
X0220679Y0136043I0000581J0000000D01*
G01*
X0222038Y0136043D01*
G75*
G02*
X0222618Y0135463I0000000J-000581D01*
G01*
X0222618Y0134301D01*
G75*
G02*
X0222038Y0133721I-000581J0000000D01*
G01*
G37*
D186*
X0211359Y0178740D03*
X0211359Y0175000D03*
X0211359Y0171260D03*
X0201044Y0171260D03*
X0201044Y0178740D03*
G36*
G01*
X0245847Y0161034D02*
X0245847Y0162392D01*
G75*
G02*
X0246428Y0162973I0000581J0000000D01*
G01*
X0247589Y0162973D01*
G75*
G02*
X0248170Y0162392I0000000J-000581D01*
G01*
X0248170Y0161034D01*
G75*
G02*
X0247589Y0160453I-000581J0000000D01*
G01*
X0246428Y0160453D01*
G75*
G02*
X0245847Y0161034I0000000J0000581D01*
G01*
G37*
G36*
G01*
X0249666Y0161034D02*
X0249666Y0162392D01*
G75*
G02*
X0250246Y0162973I0000581J0000000D01*
G01*
X0251408Y0162973D01*
G75*
G02*
X0251989Y0162392I0000000J-000581D01*
G01*
X0251989Y0161034D01*
G75*
G02*
X0251408Y0160453I-000581J0000000D01*
G01*
X0250246Y0160453D01*
G75*
G02*
X0249666Y0161034I0000000J0000581D01*
G01*
G37*
G36*
G01*
X0233258Y0165138D02*
X0231900Y0165138D01*
G75*
G02*
X0231319Y0165719I0000000J0000581D01*
G01*
X0231319Y0166880D01*
G75*
G02*
X0231900Y0167461I0000581J0000000D01*
G01*
X0233258Y0167461D01*
G75*
G02*
X0233839Y0166880I0000000J-000581D01*
G01*
X0233839Y0165719D01*
G75*
G02*
X0233258Y0165138I-000581J0000000D01*
G01*
G37*
G36*
G01*
X0233258Y0168957D02*
X0231900Y0168957D01*
G75*
G02*
X0231319Y0169537I0000000J0000581D01*
G01*
X0231319Y0170699D01*
G75*
G02*
X0231900Y0171280I0000581J0000000D01*
G01*
X0233258Y0171280D01*
G75*
G02*
X0233839Y0170699I0000000J-000581D01*
G01*
X0233839Y0169537D01*
G75*
G02*
X0233258Y0168957I-000581J0000000D01*
G01*
G37*
G36*
G01*
X0224420Y0144705D02*
X0225778Y0144705D01*
G75*
G02*
X0226359Y0144124I0000000J-000581D01*
G01*
X0226359Y0142963D01*
G75*
G02*
X0225778Y0142382I-000581J0000000D01*
G01*
X0224420Y0142382D01*
G75*
G02*
X0223839Y0142963I0000000J0000581D01*
G01*
X0223839Y0144124D01*
G75*
G02*
X0224420Y0144705I0000581J0000000D01*
G01*
G37*
G36*
G01*
X0224420Y0140886D02*
X0225778Y0140886D01*
G75*
G02*
X0226359Y0140305I0000000J-000581D01*
G01*
X0226359Y0139144D01*
G75*
G02*
X0225778Y0138563I-000581J0000000D01*
G01*
X0224420Y0138563D01*
G75*
G02*
X0223839Y0139144I0000000J0000581D01*
G01*
X0223839Y0140305D01*
G75*
G02*
X0224420Y0140886I0000581J0000000D01*
G01*
G37*
G36*
G01*
X0267540Y0145660D02*
X0267540Y0144301D01*
G75*
G02*
X0266959Y0143721I-000581J0000000D01*
G01*
X0265798Y0143721D01*
G75*
G02*
X0265217Y0144301I0000000J0000581D01*
G01*
X0265217Y0145660D01*
G75*
G02*
X0265798Y0146240I0000581J0000000D01*
G01*
X0266959Y0146240D01*
G75*
G02*
X0267540Y0145660I0000000J-000581D01*
G01*
G37*
G36*
G01*
X0263721Y0145660D02*
X0263721Y0144301D01*
G75*
G02*
X0263140Y0143721I-000581J0000000D01*
G01*
X0261979Y0143721D01*
G75*
G02*
X0261398Y0144301I0000000J0000581D01*
G01*
X0261398Y0145660D01*
G75*
G02*
X0261979Y0146240I0000581J0000000D01*
G01*
X0263140Y0146240D01*
G75*
G02*
X0263721Y0145660I0000000J-000581D01*
G01*
G37*
G36*
G01*
X0275118Y0145660D02*
X0275118Y0144301D01*
G75*
G02*
X0274538Y0143721I-000581J0000000D01*
G01*
X0273376Y0143721D01*
G75*
G02*
X0272796Y0144301I0000000J0000581D01*
G01*
X0272796Y0145660D01*
G75*
G02*
X0273376Y0146240I0000581J0000000D01*
G01*
X0274538Y0146240D01*
G75*
G02*
X0275118Y0145660I0000000J-000581D01*
G01*
G37*
G36*
G01*
X0271300Y0145660D02*
X0271300Y0144301D01*
G75*
G02*
X0270719Y0143721I-000581J0000000D01*
G01*
X0269557Y0143721D01*
G75*
G02*
X0268977Y0144301I0000000J0000581D01*
G01*
X0268977Y0145660D01*
G75*
G02*
X0269557Y0146240I0000581J0000000D01*
G01*
X0270719Y0146240D01*
G75*
G02*
X0271300Y0145660I0000000J-000581D01*
G01*
G37*
G36*
G01*
X0220679Y0144705D02*
X0222038Y0144705D01*
G75*
G02*
X0222618Y0144124I0000000J-000581D01*
G01*
X0222618Y0142963D01*
G75*
G02*
X0222038Y0142382I-000581J0000000D01*
G01*
X0220679Y0142382D01*
G75*
G02*
X0220099Y0142963I0000000J0000581D01*
G01*
X0220099Y0144124D01*
G75*
G02*
X0220679Y0144705I0000581J0000000D01*
G01*
G37*
G36*
G01*
X0220679Y0140886D02*
X0222038Y0140886D01*
G75*
G02*
X0222618Y0140305I0000000J-000581D01*
G01*
X0222618Y0139144D01*
G75*
G02*
X0222038Y0138563I-000581J0000000D01*
G01*
X0220679Y0138563D01*
G75*
G02*
X0220099Y0139144I0000000J0000581D01*
G01*
X0220099Y0140305D01*
G75*
G02*
X0220679Y0140886I0000581J0000000D01*
G01*
G37*
G36*
G01*
X0255040Y0154518D02*
X0255040Y0153160D01*
G75*
G02*
X0254459Y0152579I-000581J0000000D01*
G01*
X0253298Y0152579D01*
G75*
G02*
X0252717Y0153160I0000000J0000581D01*
G01*
X0252717Y0154518D01*
G75*
G02*
X0253298Y0155098I0000581J0000000D01*
G01*
X0254459Y0155098D01*
G75*
G02*
X0255040Y0154518I0000000J-000581D01*
G01*
G37*
G36*
G01*
X0251221Y0154518D02*
X0251221Y0153160D01*
G75*
G02*
X0250640Y0152579I-000581J0000000D01*
G01*
X0249479Y0152579D01*
G75*
G02*
X0248898Y0153160I0000000J0000581D01*
G01*
X0248898Y0154518D01*
G75*
G02*
X0249479Y0155098I0000581J0000000D01*
G01*
X0250640Y0155098D01*
G75*
G02*
X0251221Y0154518I0000000J-000581D01*
G01*
G37*
G36*
G01*
X0216939Y0144705D02*
X0218298Y0144705D01*
G75*
G02*
X0218878Y0144124I0000000J-000581D01*
G01*
X0218878Y0142963D01*
G75*
G02*
X0218298Y0142382I-000581J0000000D01*
G01*
X0216939Y0142382D01*
G75*
G02*
X0216359Y0142963I0000000J0000581D01*
G01*
X0216359Y0144124D01*
G75*
G02*
X0216939Y0144705I0000581J0000000D01*
G01*
G37*
G36*
G01*
X0216939Y0140886D02*
X0218298Y0140886D01*
G75*
G02*
X0218878Y0140305I0000000J-000581D01*
G01*
X0218878Y0139144D01*
G75*
G02*
X0218298Y0138563I-000581J0000000D01*
G01*
X0216939Y0138563D01*
G75*
G02*
X0216359Y0139144I0000000J0000581D01*
G01*
X0216359Y0140305D01*
G75*
G02*
X0216939Y0140886I0000581J0000000D01*
G01*
G37*
G36*
G01*
X0216939Y0136043D02*
X0218298Y0136043D01*
G75*
G02*
X0218878Y0135463I0000000J-000581D01*
G01*
X0218878Y0134301D01*
G75*
G02*
X0218298Y0133721I-000581J0000000D01*
G01*
X0216939Y0133721D01*
G75*
G02*
X0216359Y0134301I0000000J0000581D01*
G01*
X0216359Y0135463D01*
G75*
G02*
X0216939Y0136043I0000581J0000000D01*
G01*
G37*
G36*
G01*
X0216939Y0132224D02*
X0218298Y0132224D01*
G75*
G02*
X0218878Y0131644I0000000J-000581D01*
G01*
X0218878Y0130482D01*
G75*
G02*
X0218298Y0129902I-000581J0000000D01*
G01*
X0216939Y0129902D01*
G75*
G02*
X0216359Y0130482I0000000J0000581D01*
G01*
X0216359Y0131644D01*
G75*
G02*
X0216939Y0132224I0000581J0000000D01*
G01*
G37*
G36*
G01*
X0202126Y0141850D02*
X0202126Y0143189D01*
G75*
G02*
X0202677Y0143740I0000551J0000000D01*
G01*
X0203780Y0143740D01*
G75*
G02*
X0204331Y0143189I0000000J-000551D01*
G01*
X0204331Y0141850D01*
G75*
G02*
X0203780Y0141299I-000551J0000000D01*
G01*
X0202677Y0141299D01*
G75*
G02*
X0202126Y0141850I0000000J0000551D01*
G01*
G37*
G36*
G01*
X0205906Y0141850D02*
X0205906Y0143189D01*
G75*
G02*
X0206457Y0143740I0000551J0000000D01*
G01*
X0207559Y0143740D01*
G75*
G02*
X0208110Y0143189I0000000J-000551D01*
G01*
X0208110Y0141850D01*
G75*
G02*
X0207559Y0141299I-000551J0000000D01*
G01*
X0206457Y0141299D01*
G75*
G02*
X0205906Y0141850I0000000J0000551D01*
G01*
G37*
G36*
G01*
X0257067Y0168110D02*
X0257067Y0166654D01*
G75*
G02*
X0256536Y0166122I-000531J0000000D01*
G01*
X0255473Y0166122D01*
G75*
G02*
X0254941Y0166654I0000000J0000531D01*
G01*
X0254941Y0168110D01*
G75*
G02*
X0255473Y0168642I0000531J0000000D01*
G01*
X0256536Y0168642D01*
G75*
G02*
X0257067Y0168110I0000000J-000531D01*
G01*
G37*
G36*
G01*
X0253052Y0168110D02*
X0253052Y0166654D01*
G75*
G02*
X0252520Y0166122I-000531J0000000D01*
G01*
X0251457Y0166122D01*
G75*
G02*
X0250926Y0166654I0000000J0000531D01*
G01*
X0250926Y0168110D01*
G75*
G02*
X0251457Y0168642I0000531J0000000D01*
G01*
X0252520Y0168642D01*
G75*
G02*
X0253052Y0168110I0000000J-000531D01*
G01*
G37*
G36*
G01*
X0196339Y0153577D02*
X0194882Y0153577D01*
G75*
G02*
X0194351Y0154109I0000000J0000531D01*
G01*
X0194351Y0155172D01*
G75*
G02*
X0194882Y0155703I0000531J0000000D01*
G01*
X0196339Y0155703D01*
G75*
G02*
X0196870Y0155172I0000000J-000531D01*
G01*
X0196870Y0154109D01*
G75*
G02*
X0196339Y0153577I-000531J0000000D01*
G01*
G37*
G36*
G01*
X0196339Y0157593D02*
X0194882Y0157593D01*
G75*
G02*
X0194351Y0158125I0000000J0000531D01*
G01*
X0194351Y0159188D01*
G75*
G02*
X0194882Y0159719I0000531J0000000D01*
G01*
X0196339Y0159719D01*
G75*
G02*
X0196870Y0159188I0000000J-000531D01*
G01*
X0196870Y0158125D01*
G75*
G02*
X0196339Y0157593I-000531J0000000D01*
G01*
G37*
G36*
G01*
X0196949Y0129626D02*
X0196949Y0130807D01*
G75*
G02*
X0197540Y0131398I0000591J0000000D01*
G01*
X0202166Y0131398D01*
G75*
G02*
X0202756Y0130807I0000000J-000591D01*
G01*
X0202756Y0129626D01*
G75*
G02*
X0202166Y0129036I-000591J0000000D01*
G01*
X0197540Y0129036D01*
G75*
G02*
X0196949Y0129626I0000000J0000591D01*
G01*
G37*
G36*
G01*
X0196949Y0137106D02*
X0196949Y0138287D01*
G75*
G02*
X0197540Y0138878I0000591J0000000D01*
G01*
X0202166Y0138878D01*
G75*
G02*
X0202756Y0138287I0000000J-000591D01*
G01*
X0202756Y0137106D01*
G75*
G02*
X0202166Y0136516I-000591J0000000D01*
G01*
X0197540Y0136516D01*
G75*
G02*
X0196949Y0137106I0000000J0000591D01*
G01*
G37*
G36*
G01*
X0204331Y0133366D02*
X0204331Y0134547D01*
G75*
G02*
X0204922Y0135138I0000591J0000000D01*
G01*
X0209548Y0135138D01*
G75*
G02*
X0210138Y0134547I0000000J-000591D01*
G01*
X0210138Y0133366D01*
G75*
G02*
X0209548Y0132776I-000591J0000000D01*
G01*
X0204922Y0132776D01*
G75*
G02*
X0204331Y0133366I0000000J0000591D01*
G01*
G37*
G36*
G01*
X0194902Y0167558D02*
X0196241Y0167558D01*
G75*
G02*
X0196792Y0167006I0000000J-000551D01*
G01*
X0196792Y0165904D01*
G75*
G02*
X0196241Y0165353I-000551J0000000D01*
G01*
X0194902Y0165353D01*
G75*
G02*
X0194351Y0165904I0000000J0000551D01*
G01*
X0194351Y0167006D01*
G75*
G02*
X0194902Y0167558I0000551J0000000D01*
G01*
G37*
G36*
G01*
X0194902Y0163778D02*
X0196241Y0163778D01*
G75*
G02*
X0196792Y0163227I0000000J-000551D01*
G01*
X0196792Y0162125D01*
G75*
G02*
X0196241Y0161573I-000551J0000000D01*
G01*
X0194902Y0161573D01*
G75*
G02*
X0194351Y0162125I0000000J0000551D01*
G01*
X0194351Y0163227D01*
G75*
G02*
X0194902Y0163778I0000551J0000000D01*
G01*
G37*
G36*
G01*
X0225689Y0164487D02*
X0225689Y0163306D01*
G75*
G02*
X0225099Y0162715I-000591J0000000D01*
G01*
X0219390Y0162715D01*
G75*
G02*
X0218800Y0163306I0000000J0000591D01*
G01*
X0218800Y0164487D01*
G75*
G02*
X0219390Y0165077I0000591J0000000D01*
G01*
X0225099Y0165077D01*
G75*
G02*
X0225689Y0164487I0000000J-000591D01*
G01*
G37*
G36*
G01*
X0225689Y0159487D02*
X0225689Y0158306D01*
G75*
G02*
X0225099Y0157715I-000591J0000000D01*
G01*
X0219390Y0157715D01*
G75*
G02*
X0218800Y0158306I0000000J0000591D01*
G01*
X0218800Y0159487D01*
G75*
G02*
X0219390Y0160077I0000591J0000000D01*
G01*
X0225099Y0160077D01*
G75*
G02*
X0225689Y0159487I0000000J-000591D01*
G01*
G37*
G36*
G01*
X0225689Y0154487D02*
X0225689Y0153306D01*
G75*
G02*
X0225099Y0152715I-000591J0000000D01*
G01*
X0219390Y0152715D01*
G75*
G02*
X0218800Y0153306I0000000J0000591D01*
G01*
X0218800Y0154487D01*
G75*
G02*
X0219390Y0155077I0000591J0000000D01*
G01*
X0225099Y0155077D01*
G75*
G02*
X0225689Y0154487I0000000J-000591D01*
G01*
G37*
G36*
G01*
X0225689Y0149487D02*
X0225689Y0148306D01*
G75*
G02*
X0225099Y0147715I-000591J0000000D01*
G01*
X0219390Y0147715D01*
G75*
G02*
X0218800Y0148306I0000000J0000591D01*
G01*
X0218800Y0149487D01*
G75*
G02*
X0219390Y0150077I0000591J0000000D01*
G01*
X0225099Y0150077D01*
G75*
G02*
X0225689Y0149487I0000000J-000591D01*
G01*
G37*
G36*
G01*
X0205414Y0149487D02*
X0205414Y0148306D01*
G75*
G02*
X0204823Y0147715I-000591J0000000D01*
G01*
X0199115Y0147715D01*
G75*
G02*
X0198524Y0148306I0000000J0000591D01*
G01*
X0198524Y0149487D01*
G75*
G02*
X0199115Y0150077I0000591J0000000D01*
G01*
X0204823Y0150077D01*
G75*
G02*
X0205414Y0149487I0000000J-000591D01*
G01*
G37*
G36*
G01*
X0205414Y0154487D02*
X0205414Y0153306D01*
G75*
G02*
X0204823Y0152715I-000591J0000000D01*
G01*
X0199115Y0152715D01*
G75*
G02*
X0198524Y0153306I0000000J0000591D01*
G01*
X0198524Y0154487D01*
G75*
G02*
X0199115Y0155077I0000591J0000000D01*
G01*
X0204823Y0155077D01*
G75*
G02*
X0205414Y0154487I0000000J-000591D01*
G01*
G37*
G36*
G01*
X0205414Y0159487D02*
X0205414Y0158306D01*
G75*
G02*
X0204823Y0157715I-000591J0000000D01*
G01*
X0199115Y0157715D01*
G75*
G02*
X0198524Y0158306I0000000J0000591D01*
G01*
X0198524Y0159487D01*
G75*
G02*
X0199115Y0160077I0000591J0000000D01*
G01*
X0204823Y0160077D01*
G75*
G02*
X0205414Y0159487I0000000J-000591D01*
G01*
G37*
G36*
G01*
X0205414Y0164487D02*
X0205414Y0163306D01*
G75*
G02*
X0204823Y0162715I-000591J0000000D01*
G01*
X0199115Y0162715D01*
G75*
G02*
X0198524Y0163306I0000000J0000591D01*
G01*
X0198524Y0164487D01*
G75*
G02*
X0199115Y0165077I0000591J0000000D01*
G01*
X0204823Y0165077D01*
G75*
G02*
X0205414Y0164487I0000000J-000591D01*
G01*
G37*
X0344587Y0135679D02*
%LPD*%
G01*
G36*
G01*
X0361516Y0166273D02*
X0361516Y0165092D01*
G75*
G02*
X0360926Y0164501I-000591J0000000D01*
G01*
X0356890Y0164501D01*
G75*
G02*
X0356300Y0165092I0000000J0000591D01*
G01*
X0356300Y0166273D01*
G75*
G02*
X0356890Y0166863I0000591J0000000D01*
G01*
X0360926Y0166863D01*
G75*
G02*
X0361516Y0166273I0000000J-000591D01*
G01*
G37*
G36*
G01*
X0361516Y0162532D02*
X0361516Y0161351D01*
G75*
G02*
X0360926Y0160761I-000591J0000000D01*
G01*
X0356890Y0160761D01*
G75*
G02*
X0356300Y0161351I0000000J0000591D01*
G01*
X0356300Y0162532D01*
G75*
G02*
X0356890Y0163123I0000591J0000000D01*
G01*
X0360926Y0163123D01*
G75*
G02*
X0361516Y0162532I0000000J-000591D01*
G01*
G37*
G36*
G01*
X0361516Y0158792D02*
X0361516Y0157611D01*
G75*
G02*
X0360926Y0157021I-000591J0000000D01*
G01*
X0356890Y0157021D01*
G75*
G02*
X0356300Y0157611I0000000J0000591D01*
G01*
X0356300Y0158792D01*
G75*
G02*
X0356890Y0159383I0000591J0000000D01*
G01*
X0360926Y0159383D01*
G75*
G02*
X0361516Y0158792I0000000J-000591D01*
G01*
G37*
G36*
G01*
X0352559Y0158792D02*
X0352559Y0157611D01*
G75*
G02*
X0351969Y0157021I-000591J0000000D01*
G01*
X0347933Y0157021D01*
G75*
G02*
X0347343Y0157611I0000000J0000591D01*
G01*
X0347343Y0158792D01*
G75*
G02*
X0347933Y0159383I0000591J0000000D01*
G01*
X0351969Y0159383D01*
G75*
G02*
X0352559Y0158792I0000000J-000591D01*
G01*
G37*
G36*
G01*
X0352559Y0166273D02*
X0352559Y0165092D01*
G75*
G02*
X0351969Y0164501I-000591J0000000D01*
G01*
X0347933Y0164501D01*
G75*
G02*
X0347343Y0165092I0000000J0000591D01*
G01*
X0347343Y0166273D01*
G75*
G02*
X0347933Y0166863I0000591J0000000D01*
G01*
X0351969Y0166863D01*
G75*
G02*
X0352559Y0166273I0000000J-000591D01*
G01*
G37*
G36*
G01*
X0361241Y0143986D02*
X0362579Y0143986D01*
G75*
G02*
X0363130Y0143435I0000000J-000551D01*
G01*
X0363130Y0142333D01*
G75*
G02*
X0362579Y0141781I-000551J0000000D01*
G01*
X0361241Y0141781D01*
G75*
G02*
X0360689Y0142333I0000000J0000551D01*
G01*
X0360689Y0143435D01*
G75*
G02*
X0361241Y0143986I0000551J0000000D01*
G01*
G37*
G36*
G01*
X0361241Y0140207D02*
X0362579Y0140207D01*
G75*
G02*
X0363130Y0139655I0000000J-000551D01*
G01*
X0363130Y0138553D01*
G75*
G02*
X0362579Y0138002I-000551J0000000D01*
G01*
X0361241Y0138002D01*
G75*
G02*
X0360689Y0138553I0000000J0000551D01*
G01*
X0360689Y0139655D01*
G75*
G02*
X0361241Y0140207I0000551J0000000D01*
G01*
G37*
G36*
G01*
X0387756Y0166703D02*
X0387756Y0168041D01*
G75*
G02*
X0388307Y0168592I0000551J0000000D01*
G01*
X0389410Y0168592D01*
G75*
G02*
X0389961Y0168041I0000000J-000551D01*
G01*
X0389961Y0166703D01*
G75*
G02*
X0389410Y0166151I-000551J0000000D01*
G01*
X0388307Y0166151D01*
G75*
G02*
X0387756Y0166703I0000000J0000551D01*
G01*
G37*
G36*
G01*
X0391536Y0166703D02*
X0391536Y0168041D01*
G75*
G02*
X0392087Y0168592I0000551J0000000D01*
G01*
X0393189Y0168592D01*
G75*
G02*
X0393741Y0168041I0000000J-000551D01*
G01*
X0393741Y0166703D01*
G75*
G02*
X0393189Y0166151I-000551J0000000D01*
G01*
X0392087Y0166151D01*
G75*
G02*
X0391536Y0166703I0000000J0000551D01*
G01*
G37*
G36*
G01*
X0401103Y0171703D02*
X0401103Y0170364D01*
G75*
G02*
X0400552Y0169813I-000551J0000000D01*
G01*
X0399449Y0169813D01*
G75*
G02*
X0398898Y0170364I0000000J0000551D01*
G01*
X0398898Y0171703D01*
G75*
G02*
X0399449Y0172254I0000551J0000000D01*
G01*
X0400552Y0172254D01*
G75*
G02*
X0401103Y0171703I0000000J-000551D01*
G01*
G37*
G36*
G01*
X0397323Y0171703D02*
X0397323Y0170364D01*
G75*
G02*
X0396772Y0169813I-000551J0000000D01*
G01*
X0395670Y0169813D01*
G75*
G02*
X0395118Y0170364I0000000J0000551D01*
G01*
X0395118Y0171703D01*
G75*
G02*
X0395670Y0172254I0000551J0000000D01*
G01*
X0396772Y0172254D01*
G75*
G02*
X0397323Y0171703I0000000J-000551D01*
G01*
G37*
G36*
G01*
X0379351Y0162962D02*
X0379351Y0164301D01*
G75*
G02*
X0379902Y0164852I0000551J0000000D01*
G01*
X0381004Y0164852D01*
G75*
G02*
X0381556Y0164301I0000000J-000551D01*
G01*
X0381556Y0162962D01*
G75*
G02*
X0381004Y0162411I-000551J0000000D01*
G01*
X0379902Y0162411D01*
G75*
G02*
X0379351Y0162962I0000000J0000551D01*
G01*
G37*
G36*
G01*
X0383130Y0162962D02*
X0383130Y0164301D01*
G75*
G02*
X0383681Y0164852I0000551J0000000D01*
G01*
X0384784Y0164852D01*
G75*
G02*
X0385335Y0164301I0000000J-000551D01*
G01*
X0385335Y0162962D01*
G75*
G02*
X0384784Y0162411I-000551J0000000D01*
G01*
X0383681Y0162411D01*
G75*
G02*
X0383130Y0162962I0000000J0000551D01*
G01*
G37*
G36*
G01*
X0400906Y0168041D02*
X0400906Y0166703D01*
G75*
G02*
X0400355Y0166151I-000551J0000000D01*
G01*
X0399252Y0166151D01*
G75*
G02*
X0398701Y0166703I0000000J0000551D01*
G01*
X0398701Y0168041D01*
G75*
G02*
X0399252Y0168592I0000551J0000000D01*
G01*
X0400355Y0168592D01*
G75*
G02*
X0400906Y0168041I0000000J-000551D01*
G01*
G37*
G36*
G01*
X0397126Y0168041D02*
X0397126Y0166703D01*
G75*
G02*
X0396575Y0166151I-000551J0000000D01*
G01*
X0395473Y0166151D01*
G75*
G02*
X0394922Y0166703I0000000J0000551D01*
G01*
X0394922Y0168041D01*
G75*
G02*
X0395473Y0168592I0000551J0000000D01*
G01*
X0396575Y0168592D01*
G75*
G02*
X0397126Y0168041I0000000J-000551D01*
G01*
G37*
G36*
G01*
X0395630Y0146525D02*
X0395630Y0147864D01*
G75*
G02*
X0396181Y0148415I0000551J0000000D01*
G01*
X0397284Y0148415D01*
G75*
G02*
X0397835Y0147864I0000000J-000551D01*
G01*
X0397835Y0146525D01*
G75*
G02*
X0397284Y0145974I-000551J0000000D01*
G01*
X0396181Y0145974D01*
G75*
G02*
X0395630Y0146525I0000000J0000551D01*
G01*
G37*
G36*
G01*
X0399410Y0146525D02*
X0399410Y0147864D01*
G75*
G02*
X0399961Y0148415I0000551J0000000D01*
G01*
X0401063Y0148415D01*
G75*
G02*
X0401615Y0147864I0000000J-000551D01*
G01*
X0401615Y0146525D01*
G75*
G02*
X0401063Y0145974I-000551J0000000D01*
G01*
X0399961Y0145974D01*
G75*
G02*
X0399410Y0146525I0000000J0000551D01*
G01*
G37*
G36*
G01*
X0365121Y0139025D02*
X0365121Y0139813D01*
G75*
G02*
X0365515Y0140207I0000394J0000000D01*
G01*
X0370535Y0140207D01*
G75*
G02*
X0370928Y0139813I0000000J-000394D01*
G01*
X0370928Y0139025D01*
G75*
G02*
X0370535Y0138632I-000394J0000000D01*
G01*
X0365515Y0138632D01*
G75*
G02*
X0365121Y0139025I0000000J0000394D01*
G01*
G37*
G36*
G01*
X0365121Y0141585D02*
X0365121Y0142372D01*
G75*
G02*
X0365515Y0142766I0000394J0000000D01*
G01*
X0370535Y0142766D01*
G75*
G02*
X0370928Y0142372I0000000J-000394D01*
G01*
X0370928Y0141585D01*
G75*
G02*
X0370535Y0141191I-000394J0000000D01*
G01*
X0365515Y0141191D01*
G75*
G02*
X0365121Y0141585I0000000J0000394D01*
G01*
G37*
G36*
G01*
X0365121Y0144144D02*
X0365121Y0144931D01*
G75*
G02*
X0365515Y0145325I0000394J0000000D01*
G01*
X0370535Y0145325D01*
G75*
G02*
X0370928Y0144931I0000000J-000394D01*
G01*
X0370928Y0144144D01*
G75*
G02*
X0370535Y0143750I-000394J0000000D01*
G01*
X0365515Y0143750D01*
G75*
G02*
X0365121Y0144144I0000000J0000394D01*
G01*
G37*
G36*
G01*
X0365121Y0146703D02*
X0365121Y0147490D01*
G75*
G02*
X0365515Y0147884I0000394J0000000D01*
G01*
X0370535Y0147884D01*
G75*
G02*
X0370928Y0147490I0000000J-000394D01*
G01*
X0370928Y0146703D01*
G75*
G02*
X0370535Y0146309I-000394J0000000D01*
G01*
X0365515Y0146309D01*
G75*
G02*
X0365121Y0146703I0000000J0000394D01*
G01*
G37*
G36*
G01*
X0365121Y0149262D02*
X0365121Y0150049D01*
G75*
G02*
X0365515Y0150443I0000394J0000000D01*
G01*
X0370535Y0150443D01*
G75*
G02*
X0370928Y0150049I0000000J-000394D01*
G01*
X0370928Y0149262D01*
G75*
G02*
X0370535Y0148868I-000394J0000000D01*
G01*
X0365515Y0148868D01*
G75*
G02*
X0365121Y0149262I0000000J0000394D01*
G01*
G37*
G36*
G01*
X0365121Y0151821D02*
X0365121Y0152608D01*
G75*
G02*
X0365515Y0153002I0000394J0000000D01*
G01*
X0370535Y0153002D01*
G75*
G02*
X0370928Y0152608I0000000J-000394D01*
G01*
X0370928Y0151821D01*
G75*
G02*
X0370535Y0151427I-000394J0000000D01*
G01*
X0365515Y0151427D01*
G75*
G02*
X0365121Y0151821I0000000J0000394D01*
G01*
G37*
G36*
G01*
X0365121Y0154380D02*
X0365121Y0155167D01*
G75*
G02*
X0365515Y0155561I0000394J0000000D01*
G01*
X0370535Y0155561D01*
G75*
G02*
X0370928Y0155167I0000000J-000394D01*
G01*
X0370928Y0154380D01*
G75*
G02*
X0370535Y0153986I-000394J0000000D01*
G01*
X0365515Y0153986D01*
G75*
G02*
X0365121Y0154380I0000000J0000394D01*
G01*
G37*
G36*
G01*
X0387661Y0154380D02*
X0387661Y0155167D01*
G75*
G02*
X0388054Y0155561I0000394J0000000D01*
G01*
X0393074Y0155561D01*
G75*
G02*
X0393468Y0155167I0000000J-000394D01*
G01*
X0393468Y0154380D01*
G75*
G02*
X0393074Y0153986I-000394J0000000D01*
G01*
X0388054Y0153986D01*
G75*
G02*
X0387661Y0154380I0000000J0000394D01*
G01*
G37*
G36*
G01*
X0387661Y0151821D02*
X0387661Y0152608D01*
G75*
G02*
X0388054Y0153002I0000394J0000000D01*
G01*
X0393074Y0153002D01*
G75*
G02*
X0393468Y0152608I0000000J-000394D01*
G01*
X0393468Y0151821D01*
G75*
G02*
X0393074Y0151427I-000394J0000000D01*
G01*
X0388054Y0151427D01*
G75*
G02*
X0387661Y0151821I0000000J0000394D01*
G01*
G37*
G36*
G01*
X0387661Y0149262D02*
X0387661Y0150049D01*
G75*
G02*
X0388054Y0150443I0000394J0000000D01*
G01*
X0393074Y0150443D01*
G75*
G02*
X0393468Y0150049I0000000J-000394D01*
G01*
X0393468Y0149262D01*
G75*
G02*
X0393074Y0148868I-000394J0000000D01*
G01*
X0388054Y0148868D01*
G75*
G02*
X0387661Y0149262I0000000J0000394D01*
G01*
G37*
G36*
G01*
X0387661Y0146703D02*
X0387661Y0147490D01*
G75*
G02*
X0388054Y0147884I0000394J0000000D01*
G01*
X0393074Y0147884D01*
G75*
G02*
X0393468Y0147490I0000000J-000394D01*
G01*
X0393468Y0146703D01*
G75*
G02*
X0393074Y0146309I-000394J0000000D01*
G01*
X0388054Y0146309D01*
G75*
G02*
X0387661Y0146703I0000000J0000394D01*
G01*
G37*
G36*
G01*
X0387661Y0144144D02*
X0387661Y0144931D01*
G75*
G02*
X0388054Y0145325I0000394J0000000D01*
G01*
X0393074Y0145325D01*
G75*
G02*
X0393468Y0144931I0000000J-000394D01*
G01*
X0393468Y0144144D01*
G75*
G02*
X0393074Y0143750I-000394J0000000D01*
G01*
X0388054Y0143750D01*
G75*
G02*
X0387661Y0144144I0000000J0000394D01*
G01*
G37*
G36*
G01*
X0387661Y0141585D02*
X0387661Y0142372D01*
G75*
G02*
X0388054Y0142766I0000394J0000000D01*
G01*
X0393074Y0142766D01*
G75*
G02*
X0393468Y0142372I0000000J-000394D01*
G01*
X0393468Y0141585D01*
G75*
G02*
X0393074Y0141191I-000394J0000000D01*
G01*
X0388054Y0141191D01*
G75*
G02*
X0387661Y0141585I0000000J0000394D01*
G01*
G37*
G36*
G01*
X0387661Y0139025D02*
X0387661Y0139813D01*
G75*
G02*
X0388054Y0140207I0000394J0000000D01*
G01*
X0393074Y0140207D01*
G75*
G02*
X0393468Y0139813I0000000J-000394D01*
G01*
X0393468Y0139025D01*
G75*
G02*
X0393074Y0138632I-000394J0000000D01*
G01*
X0388054Y0138632D01*
G75*
G02*
X0387661Y0139025I0000000J0000394D01*
G01*
G37*
G36*
G01*
X0347478Y0146896D02*
X0347478Y0150439D01*
G75*
G02*
X0348462Y0151423I0000984J0000000D01*
G01*
X0350529Y0151423D01*
G75*
G02*
X0351513Y0150439I0000000J-000984D01*
G01*
X0351513Y0146896D01*
G75*
G02*
X0350529Y0145911I-000984J0000000D01*
G01*
X0348462Y0145911D01*
G75*
G02*
X0347478Y0146896I0000000J0000984D01*
G01*
G37*
G36*
G01*
X0354663Y0146896D02*
X0354663Y0150439D01*
G75*
G02*
X0355647Y0151423I0000984J0000000D01*
G01*
X0357714Y0151423D01*
G75*
G02*
X0358698Y0150439I0000000J-000984D01*
G01*
X0358698Y0146896D01*
G75*
G02*
X0357714Y0145911I-000984J0000000D01*
G01*
X0355647Y0145911D01*
G75*
G02*
X0354663Y0146896I0000000J0000984D01*
G01*
G37*
G36*
G01*
X0393721Y0160620D02*
X0393721Y0159163D01*
G75*
G02*
X0393189Y0158632I-000531J0000000D01*
G01*
X0392126Y0158632D01*
G75*
G02*
X0391595Y0159163I0000000J0000531D01*
G01*
X0391595Y0160620D01*
G75*
G02*
X0392126Y0161151I0000531J0000000D01*
G01*
X0393189Y0161151D01*
G75*
G02*
X0393721Y0160620I0000000J-000531D01*
G01*
G37*
G36*
G01*
X0389705Y0160620D02*
X0389705Y0159163D01*
G75*
G02*
X0389174Y0158632I-000531J0000000D01*
G01*
X0388111Y0158632D01*
G75*
G02*
X0387579Y0159163I0000000J0000531D01*
G01*
X0387579Y0160620D01*
G75*
G02*
X0388111Y0161151I0000531J0000000D01*
G01*
X0389174Y0161151D01*
G75*
G02*
X0389705Y0160620I0000000J-000531D01*
G01*
G37*
G36*
G01*
X0353288Y0171545D02*
X0353288Y0170207D01*
G75*
G02*
X0352737Y0169655I-000551J0000000D01*
G01*
X0351634Y0169655D01*
G75*
G02*
X0351083Y0170207I0000000J0000551D01*
G01*
X0351083Y0171545D01*
G75*
G02*
X0351634Y0172096I0000551J0000000D01*
G01*
X0352737Y0172096D01*
G75*
G02*
X0353288Y0171545I0000000J-000551D01*
G01*
G37*
G36*
G01*
X0349508Y0171545D02*
X0349508Y0170207D01*
G75*
G02*
X0348957Y0169655I-000551J0000000D01*
G01*
X0347855Y0169655D01*
G75*
G02*
X0347304Y0170207I0000000J0000551D01*
G01*
X0347304Y0171545D01*
G75*
G02*
X0347855Y0172096I0000551J0000000D01*
G01*
X0348957Y0172096D01*
G75*
G02*
X0349508Y0171545I0000000J-000551D01*
G01*
G37*
G36*
G01*
X0401398Y0164360D02*
X0401398Y0162903D01*
G75*
G02*
X0400867Y0162372I-000531J0000000D01*
G01*
X0399804Y0162372D01*
G75*
G02*
X0399272Y0162903I0000000J0000531D01*
G01*
X0399272Y0164360D01*
G75*
G02*
X0399804Y0164892I0000531J0000000D01*
G01*
X0400867Y0164892D01*
G75*
G02*
X0401398Y0164360I0000000J-000531D01*
G01*
G37*
G36*
G01*
X0397382Y0164360D02*
X0397382Y0162903D01*
G75*
G02*
X0396851Y0162372I-000531J0000000D01*
G01*
X0395788Y0162372D01*
G75*
G02*
X0395256Y0162903I0000000J0000531D01*
G01*
X0395256Y0164360D01*
G75*
G02*
X0395788Y0164892I0000531J0000000D01*
G01*
X0396851Y0164892D01*
G75*
G02*
X0397382Y0164360I0000000J-000531D01*
G01*
G37*
G36*
G01*
X0385465Y0160620D02*
X0385465Y0159164D01*
G75*
G02*
X0384933Y0158632I-000531J0000000D01*
G01*
X0383870Y0158632D01*
G75*
G02*
X0383339Y0159164I0000000J0000531D01*
G01*
X0383339Y0160620D01*
G75*
G02*
X0383870Y0161152I0000531J0000000D01*
G01*
X0384933Y0161152D01*
G75*
G02*
X0385465Y0160620I0000000J-000531D01*
G01*
G37*
G36*
G01*
X0381449Y0160620D02*
X0381449Y0159164D01*
G75*
G02*
X0380917Y0158632I-000531J0000000D01*
G01*
X0379854Y0158632D01*
G75*
G02*
X0379323Y0159164I0000000J0000531D01*
G01*
X0379323Y0160620D01*
G75*
G02*
X0379854Y0161152I0000531J0000000D01*
G01*
X0380917Y0161152D01*
G75*
G02*
X0381449Y0160620I0000000J-000531D01*
G01*
G37*
G36*
G01*
X0358698Y0142864D02*
X0358698Y0139321D01*
G75*
G02*
X0357714Y0138336I-000984J0000000D01*
G01*
X0355647Y0138336D01*
G75*
G02*
X0354663Y0139321I0000000J0000984D01*
G01*
X0354663Y0142864D01*
G75*
G02*
X0355647Y0143848I0000984J0000000D01*
G01*
X0357714Y0143848D01*
G75*
G02*
X0358698Y0142864I0000000J-000984D01*
G01*
G37*
G36*
G01*
X0351513Y0142864D02*
X0351513Y0139321D01*
G75*
G02*
X0350529Y0138336I-000984J0000000D01*
G01*
X0348462Y0138336D01*
G75*
G02*
X0347478Y0139321I0000000J0000984D01*
G01*
X0347478Y0142864D01*
G75*
G02*
X0348462Y0143848I0000984J0000000D01*
G01*
X0350529Y0143848D01*
G75*
G02*
X0351513Y0142864I0000000J-000984D01*
G01*
G37*
G36*
G01*
X0385414Y0171762D02*
X0385414Y0170305D01*
G75*
G02*
X0384882Y0169773I-000531J0000000D01*
G01*
X0383819Y0169773D01*
G75*
G02*
X0383288Y0170305I0000000J0000531D01*
G01*
X0383288Y0171762D01*
G75*
G02*
X0383819Y0172293I0000531J0000000D01*
G01*
X0384882Y0172293D01*
G75*
G02*
X0385414Y0171762I0000000J-000531D01*
G01*
G37*
G36*
G01*
X0381398Y0171762D02*
X0381398Y0170305D01*
G75*
G02*
X0380867Y0169773I-000531J0000000D01*
G01*
X0379804Y0169773D01*
G75*
G02*
X0379272Y0170305I0000000J0000531D01*
G01*
X0379272Y0171762D01*
G75*
G02*
X0379804Y0172293I0000531J0000000D01*
G01*
X0380867Y0172293D01*
G75*
G02*
X0381398Y0171762I0000000J-000531D01*
G01*
G37*
G36*
G01*
X0395099Y0138258D02*
X0395099Y0139714D01*
G75*
G02*
X0395630Y0140246I0000531J0000000D01*
G01*
X0396693Y0140246D01*
G75*
G02*
X0397225Y0139714I0000000J-000531D01*
G01*
X0397225Y0138258D01*
G75*
G02*
X0396693Y0137726I-000531J0000000D01*
G01*
X0395630Y0137726D01*
G75*
G02*
X0395099Y0138258I0000000J0000531D01*
G01*
G37*
G36*
G01*
X0399115Y0138258D02*
X0399115Y0139714D01*
G75*
G02*
X0399646Y0140246I0000531J0000000D01*
G01*
X0400709Y0140246D01*
G75*
G02*
X0401241Y0139714I0000000J-000531D01*
G01*
X0401241Y0138258D01*
G75*
G02*
X0400709Y0137726I-000531J0000000D01*
G01*
X0399646Y0137726D01*
G75*
G02*
X0399115Y0138258I0000000J0000531D01*
G01*
G37*
G36*
G01*
X0395552Y0150207D02*
X0395552Y0151663D01*
G75*
G02*
X0396083Y0152195I0000531J0000000D01*
G01*
X0397146Y0152195D01*
G75*
G02*
X0397678Y0151663I0000000J-000531D01*
G01*
X0397678Y0150207D01*
G75*
G02*
X0397146Y0149675I-000531J0000000D01*
G01*
X0396083Y0149675D01*
G75*
G02*
X0395552Y0150207I0000000J0000531D01*
G01*
G37*
G36*
G01*
X0399567Y0150207D02*
X0399567Y0151663D01*
G75*
G02*
X0400099Y0152195I0000531J0000000D01*
G01*
X0401162Y0152195D01*
G75*
G02*
X0401693Y0151663I0000000J-000531D01*
G01*
X0401693Y0150207D01*
G75*
G02*
X0401162Y0149675I-000531J0000000D01*
G01*
X0400099Y0149675D01*
G75*
G02*
X0399567Y0150207I0000000J0000531D01*
G01*
G37*
G36*
G01*
X0394016Y0164360D02*
X0394016Y0162903D01*
G75*
G02*
X0393485Y0162372I-000531J0000000D01*
G01*
X0392422Y0162372D01*
G75*
G02*
X0391890Y0162903I0000000J0000531D01*
G01*
X0391890Y0164360D01*
G75*
G02*
X0392422Y0164892I0000531J0000000D01*
G01*
X0393485Y0164892D01*
G75*
G02*
X0394016Y0164360I0000000J-000531D01*
G01*
G37*
G36*
G01*
X0390000Y0164360D02*
X0390000Y0162903D01*
G75*
G02*
X0389469Y0162372I-000531J0000000D01*
G01*
X0388406Y0162372D01*
G75*
G02*
X0387874Y0162903I0000000J0000531D01*
G01*
X0387874Y0164360D01*
G75*
G02*
X0388406Y0164892I0000531J0000000D01*
G01*
X0389469Y0164892D01*
G75*
G02*
X0390000Y0164360I0000000J-000531D01*
G01*
G37*
G36*
G01*
X0401713Y0155443D02*
X0401713Y0154104D01*
G75*
G02*
X0401162Y0153553I-000551J0000000D01*
G01*
X0400059Y0153553D01*
G75*
G02*
X0399508Y0154104I0000000J0000551D01*
G01*
X0399508Y0155443D01*
G75*
G02*
X0400059Y0155994I0000551J0000000D01*
G01*
X0401162Y0155994D01*
G75*
G02*
X0401713Y0155443I0000000J-000551D01*
G01*
G37*
G36*
G01*
X0397933Y0155443D02*
X0397933Y0154104D01*
G75*
G02*
X0397382Y0153553I-000551J0000000D01*
G01*
X0396280Y0153553D01*
G75*
G02*
X0395729Y0154104I0000000J0000551D01*
G01*
X0395729Y0155443D01*
G75*
G02*
X0396280Y0155994I0000551J0000000D01*
G01*
X0397382Y0155994D01*
G75*
G02*
X0397933Y0155443I0000000J-000551D01*
G01*
G37*
G36*
G01*
X0362565Y0145228D02*
X0361227Y0145228D01*
G75*
G02*
X0360675Y0145779I0000000J0000551D01*
G01*
X0360675Y0146881D01*
G75*
G02*
X0361227Y0147433I0000551J0000000D01*
G01*
X0362565Y0147433D01*
G75*
G02*
X0363116Y0146881I0000000J-000551D01*
G01*
X0363116Y0145779D01*
G75*
G02*
X0362565Y0145228I-000551J0000000D01*
G01*
G37*
G36*
G01*
X0362565Y0149007D02*
X0361227Y0149007D01*
G75*
G02*
X0360675Y0149558I0000000J0000551D01*
G01*
X0360675Y0150661D01*
G75*
G02*
X0361227Y0151212I0000551J0000000D01*
G01*
X0362565Y0151212D01*
G75*
G02*
X0363116Y0150661I0000000J-000551D01*
G01*
X0363116Y0149558D01*
G75*
G02*
X0362565Y0149007I-000551J0000000D01*
G01*
G37*
G36*
G01*
X0395059Y0159163D02*
X0395059Y0160620D01*
G75*
G02*
X0395591Y0161151I0000531J0000000D01*
G01*
X0396654Y0161151D01*
G75*
G02*
X0397185Y0160620I0000000J-000531D01*
G01*
X0397185Y0159163D01*
G75*
G02*
X0396654Y0158632I-000531J0000000D01*
G01*
X0395591Y0158632D01*
G75*
G02*
X0395059Y0159163I0000000J0000531D01*
G01*
G37*
G36*
G01*
X0399075Y0159163D02*
X0399075Y0160620D01*
G75*
G02*
X0399607Y0161151I0000531J0000000D01*
G01*
X0400670Y0161151D01*
G75*
G02*
X0401201Y0160620I0000000J-000531D01*
G01*
X0401201Y0159163D01*
G75*
G02*
X0400670Y0158632I-000531J0000000D01*
G01*
X0399607Y0158632D01*
G75*
G02*
X0399075Y0159163I0000000J0000531D01*
G01*
G37*
G36*
G01*
X0377658Y0170522D02*
X0377658Y0169340D01*
G75*
G02*
X0377067Y0168750I-000591J0000000D01*
G01*
X0373032Y0168750D01*
G75*
G02*
X0372441Y0169340I0000000J0000591D01*
G01*
X0372441Y0170522D01*
G75*
G02*
X0373032Y0171112I0000591J0000000D01*
G01*
X0377067Y0171112D01*
G75*
G02*
X0377658Y0170522I0000000J-000591D01*
G01*
G37*
G36*
G01*
X0377658Y0166781D02*
X0377658Y0165600D01*
G75*
G02*
X0377067Y0165010I-000591J0000000D01*
G01*
X0373032Y0165010D01*
G75*
G02*
X0372441Y0165600I0000000J0000591D01*
G01*
X0372441Y0166781D01*
G75*
G02*
X0373032Y0167372I0000591J0000000D01*
G01*
X0377067Y0167372D01*
G75*
G02*
X0377658Y0166781I0000000J-000591D01*
G01*
G37*
G36*
G01*
X0377658Y0163041D02*
X0377658Y0161860D01*
G75*
G02*
X0377067Y0161270I-000591J0000000D01*
G01*
X0373032Y0161270D01*
G75*
G02*
X0372441Y0161860I0000000J0000591D01*
G01*
X0372441Y0163041D01*
G75*
G02*
X0373032Y0163632I0000591J0000000D01*
G01*
X0377067Y0163632D01*
G75*
G02*
X0377658Y0163041I0000000J-000591D01*
G01*
G37*
G36*
G01*
X0368701Y0163041D02*
X0368701Y0161860D01*
G75*
G02*
X0368111Y0161270I-000591J0000000D01*
G01*
X0364075Y0161270D01*
G75*
G02*
X0363485Y0161860I0000000J0000591D01*
G01*
X0363485Y0163041D01*
G75*
G02*
X0364075Y0163632I0000591J0000000D01*
G01*
X0368111Y0163632D01*
G75*
G02*
X0368701Y0163041I0000000J-000591D01*
G01*
G37*
G36*
G01*
X0368701Y0170522D02*
X0368701Y0169340D01*
G75*
G02*
X0368111Y0168750I-000591J0000000D01*
G01*
X0364075Y0168750D01*
G75*
G02*
X0363485Y0169340I0000000J0000591D01*
G01*
X0363485Y0170522D01*
G75*
G02*
X0364075Y0171112I0000591J0000000D01*
G01*
X0368111Y0171112D01*
G75*
G02*
X0368701Y0170522I0000000J-000591D01*
G01*
G37*
G36*
G01*
X0379351Y0166703D02*
X0379351Y0168041D01*
G75*
G02*
X0379902Y0168592I0000551J0000000D01*
G01*
X0381004Y0168592D01*
G75*
G02*
X0381556Y0168041I0000000J-000551D01*
G01*
X0381556Y0166703D01*
G75*
G02*
X0381004Y0166151I-000551J0000000D01*
G01*
X0379902Y0166151D01*
G75*
G02*
X0379351Y0166703I0000000J0000551D01*
G01*
G37*
G36*
G01*
X0383130Y0166703D02*
X0383130Y0168041D01*
G75*
G02*
X0383681Y0168592I0000551J0000000D01*
G01*
X0384784Y0168592D01*
G75*
G02*
X0385335Y0168041I0000000J-000551D01*
G01*
X0385335Y0166703D01*
G75*
G02*
X0384784Y0166151I-000551J0000000D01*
G01*
X0383681Y0166151D01*
G75*
G02*
X0383130Y0166703I0000000J0000551D01*
G01*
G37*
X0344587Y0092175D02*
%LPD*%
G01*
G36*
G01*
X0361516Y0122769D02*
X0361516Y0121588D01*
G75*
G02*
X0360926Y0120997I-000591J0000000D01*
G01*
X0356890Y0120997D01*
G75*
G02*
X0356300Y0121588I0000000J0000591D01*
G01*
X0356300Y0122769D01*
G75*
G02*
X0356890Y0123359I0000591J0000000D01*
G01*
X0360926Y0123359D01*
G75*
G02*
X0361516Y0122769I0000000J-000591D01*
G01*
G37*
G36*
G01*
X0361516Y0119028D02*
X0361516Y0117847D01*
G75*
G02*
X0360926Y0117257I-000591J0000000D01*
G01*
X0356890Y0117257D01*
G75*
G02*
X0356300Y0117847I0000000J0000591D01*
G01*
X0356300Y0119028D01*
G75*
G02*
X0356890Y0119619I0000591J0000000D01*
G01*
X0360926Y0119619D01*
G75*
G02*
X0361516Y0119028I0000000J-000591D01*
G01*
G37*
G36*
G01*
X0361516Y0115288D02*
X0361516Y0114107D01*
G75*
G02*
X0360926Y0113517I-000591J0000000D01*
G01*
X0356890Y0113517D01*
G75*
G02*
X0356300Y0114107I0000000J0000591D01*
G01*
X0356300Y0115288D01*
G75*
G02*
X0356890Y0115879I0000591J0000000D01*
G01*
X0360926Y0115879D01*
G75*
G02*
X0361516Y0115288I0000000J-000591D01*
G01*
G37*
G36*
G01*
X0352559Y0115288D02*
X0352559Y0114107D01*
G75*
G02*
X0351969Y0113517I-000591J0000000D01*
G01*
X0347933Y0113517D01*
G75*
G02*
X0347343Y0114107I0000000J0000591D01*
G01*
X0347343Y0115288D01*
G75*
G02*
X0347933Y0115879I0000591J0000000D01*
G01*
X0351969Y0115879D01*
G75*
G02*
X0352559Y0115288I0000000J-000591D01*
G01*
G37*
G36*
G01*
X0352559Y0122769D02*
X0352559Y0121588D01*
G75*
G02*
X0351969Y0120997I-000591J0000000D01*
G01*
X0347933Y0120997D01*
G75*
G02*
X0347343Y0121588I0000000J0000591D01*
G01*
X0347343Y0122769D01*
G75*
G02*
X0347933Y0123359I0000591J0000000D01*
G01*
X0351969Y0123359D01*
G75*
G02*
X0352559Y0122769I0000000J-000591D01*
G01*
G37*
G36*
G01*
X0361241Y0100482D02*
X0362579Y0100482D01*
G75*
G02*
X0363130Y0099931I0000000J-000551D01*
G01*
X0363130Y0098829D01*
G75*
G02*
X0362579Y0098277I-000551J0000000D01*
G01*
X0361241Y0098277D01*
G75*
G02*
X0360689Y0098829I0000000J0000551D01*
G01*
X0360689Y0099931D01*
G75*
G02*
X0361241Y0100482I0000551J0000000D01*
G01*
G37*
G36*
G01*
X0361241Y0096703D02*
X0362579Y0096703D01*
G75*
G02*
X0363130Y0096151I0000000J-000551D01*
G01*
X0363130Y0095049D01*
G75*
G02*
X0362579Y0094498I-000551J0000000D01*
G01*
X0361241Y0094498D01*
G75*
G02*
X0360689Y0095049I0000000J0000551D01*
G01*
X0360689Y0096151D01*
G75*
G02*
X0361241Y0096703I0000551J0000000D01*
G01*
G37*
G36*
G01*
X0387756Y0123199D02*
X0387756Y0124537D01*
G75*
G02*
X0388307Y0125088I0000551J0000000D01*
G01*
X0389410Y0125088D01*
G75*
G02*
X0389961Y0124537I0000000J-000551D01*
G01*
X0389961Y0123199D01*
G75*
G02*
X0389410Y0122647I-000551J0000000D01*
G01*
X0388307Y0122647D01*
G75*
G02*
X0387756Y0123199I0000000J0000551D01*
G01*
G37*
G36*
G01*
X0391536Y0123199D02*
X0391536Y0124537D01*
G75*
G02*
X0392087Y0125088I0000551J0000000D01*
G01*
X0393189Y0125088D01*
G75*
G02*
X0393741Y0124537I0000000J-000551D01*
G01*
X0393741Y0123199D01*
G75*
G02*
X0393189Y0122647I-000551J0000000D01*
G01*
X0392087Y0122647D01*
G75*
G02*
X0391536Y0123199I0000000J0000551D01*
G01*
G37*
G36*
G01*
X0401103Y0128199D02*
X0401103Y0126860D01*
G75*
G02*
X0400552Y0126309I-000551J0000000D01*
G01*
X0399449Y0126309D01*
G75*
G02*
X0398898Y0126860I0000000J0000551D01*
G01*
X0398898Y0128199D01*
G75*
G02*
X0399449Y0128750I0000551J0000000D01*
G01*
X0400552Y0128750D01*
G75*
G02*
X0401103Y0128199I0000000J-000551D01*
G01*
G37*
G36*
G01*
X0397323Y0128199D02*
X0397323Y0126860D01*
G75*
G02*
X0396772Y0126309I-000551J0000000D01*
G01*
X0395670Y0126309D01*
G75*
G02*
X0395118Y0126860I0000000J0000551D01*
G01*
X0395118Y0128199D01*
G75*
G02*
X0395670Y0128750I0000551J0000000D01*
G01*
X0396772Y0128750D01*
G75*
G02*
X0397323Y0128199I0000000J-000551D01*
G01*
G37*
G36*
G01*
X0379351Y0119458D02*
X0379351Y0120797D01*
G75*
G02*
X0379902Y0121348I0000551J0000000D01*
G01*
X0381004Y0121348D01*
G75*
G02*
X0381556Y0120797I0000000J-000551D01*
G01*
X0381556Y0119458D01*
G75*
G02*
X0381004Y0118907I-000551J0000000D01*
G01*
X0379902Y0118907D01*
G75*
G02*
X0379351Y0119458I0000000J0000551D01*
G01*
G37*
G36*
G01*
X0383130Y0119458D02*
X0383130Y0120797D01*
G75*
G02*
X0383681Y0121348I0000551J0000000D01*
G01*
X0384784Y0121348D01*
G75*
G02*
X0385335Y0120797I0000000J-000551D01*
G01*
X0385335Y0119458D01*
G75*
G02*
X0384784Y0118907I-000551J0000000D01*
G01*
X0383681Y0118907D01*
G75*
G02*
X0383130Y0119458I0000000J0000551D01*
G01*
G37*
G36*
G01*
X0400906Y0124537D02*
X0400906Y0123199D01*
G75*
G02*
X0400355Y0122647I-000551J0000000D01*
G01*
X0399252Y0122647D01*
G75*
G02*
X0398701Y0123199I0000000J0000551D01*
G01*
X0398701Y0124537D01*
G75*
G02*
X0399252Y0125088I0000551J0000000D01*
G01*
X0400355Y0125088D01*
G75*
G02*
X0400906Y0124537I0000000J-000551D01*
G01*
G37*
G36*
G01*
X0397126Y0124537D02*
X0397126Y0123199D01*
G75*
G02*
X0396575Y0122647I-000551J0000000D01*
G01*
X0395473Y0122647D01*
G75*
G02*
X0394922Y0123199I0000000J0000551D01*
G01*
X0394922Y0124537D01*
G75*
G02*
X0395473Y0125088I0000551J0000000D01*
G01*
X0396575Y0125088D01*
G75*
G02*
X0397126Y0124537I0000000J-000551D01*
G01*
G37*
G36*
G01*
X0395630Y0103021D02*
X0395630Y0104360D01*
G75*
G02*
X0396181Y0104911I0000551J0000000D01*
G01*
X0397284Y0104911D01*
G75*
G02*
X0397835Y0104360I0000000J-000551D01*
G01*
X0397835Y0103021D01*
G75*
G02*
X0397284Y0102470I-000551J0000000D01*
G01*
X0396181Y0102470D01*
G75*
G02*
X0395630Y0103021I0000000J0000551D01*
G01*
G37*
G36*
G01*
X0399410Y0103021D02*
X0399410Y0104360D01*
G75*
G02*
X0399961Y0104911I0000551J0000000D01*
G01*
X0401063Y0104911D01*
G75*
G02*
X0401615Y0104360I0000000J-000551D01*
G01*
X0401615Y0103021D01*
G75*
G02*
X0401063Y0102470I-000551J0000000D01*
G01*
X0399961Y0102470D01*
G75*
G02*
X0399410Y0103021I0000000J0000551D01*
G01*
G37*
G36*
G01*
X0365121Y0095521D02*
X0365121Y0096309D01*
G75*
G02*
X0365515Y0096703I0000394J0000000D01*
G01*
X0370535Y0096703D01*
G75*
G02*
X0370928Y0096309I0000000J-000394D01*
G01*
X0370928Y0095521D01*
G75*
G02*
X0370535Y0095128I-000394J0000000D01*
G01*
X0365515Y0095128D01*
G75*
G02*
X0365121Y0095521I0000000J0000394D01*
G01*
G37*
G36*
G01*
X0365121Y0098081D02*
X0365121Y0098868D01*
G75*
G02*
X0365515Y0099262I0000394J0000000D01*
G01*
X0370535Y0099262D01*
G75*
G02*
X0370928Y0098868I0000000J-000394D01*
G01*
X0370928Y0098081D01*
G75*
G02*
X0370535Y0097687I-000394J0000000D01*
G01*
X0365515Y0097687D01*
G75*
G02*
X0365121Y0098081I0000000J0000394D01*
G01*
G37*
G36*
G01*
X0365121Y0100640D02*
X0365121Y0101427D01*
G75*
G02*
X0365515Y0101821I0000394J0000000D01*
G01*
X0370535Y0101821D01*
G75*
G02*
X0370928Y0101427I0000000J-000394D01*
G01*
X0370928Y0100640D01*
G75*
G02*
X0370535Y0100246I-000394J0000000D01*
G01*
X0365515Y0100246D01*
G75*
G02*
X0365121Y0100640I0000000J0000394D01*
G01*
G37*
G36*
G01*
X0365121Y0103199D02*
X0365121Y0103986D01*
G75*
G02*
X0365515Y0104380I0000394J0000000D01*
G01*
X0370535Y0104380D01*
G75*
G02*
X0370928Y0103986I0000000J-000394D01*
G01*
X0370928Y0103199D01*
G75*
G02*
X0370535Y0102805I-000394J0000000D01*
G01*
X0365515Y0102805D01*
G75*
G02*
X0365121Y0103199I0000000J0000394D01*
G01*
G37*
G36*
G01*
X0365121Y0105758D02*
X0365121Y0106545D01*
G75*
G02*
X0365515Y0106939I0000394J0000000D01*
G01*
X0370535Y0106939D01*
G75*
G02*
X0370928Y0106545I0000000J-000394D01*
G01*
X0370928Y0105758D01*
G75*
G02*
X0370535Y0105364I-000394J0000000D01*
G01*
X0365515Y0105364D01*
G75*
G02*
X0365121Y0105758I0000000J0000394D01*
G01*
G37*
G36*
G01*
X0365121Y0108317D02*
X0365121Y0109104D01*
G75*
G02*
X0365515Y0109498I0000394J0000000D01*
G01*
X0370535Y0109498D01*
G75*
G02*
X0370928Y0109104I0000000J-000394D01*
G01*
X0370928Y0108317D01*
G75*
G02*
X0370535Y0107923I-000394J0000000D01*
G01*
X0365515Y0107923D01*
G75*
G02*
X0365121Y0108317I0000000J0000394D01*
G01*
G37*
G36*
G01*
X0365121Y0110876D02*
X0365121Y0111663D01*
G75*
G02*
X0365515Y0112057I0000394J0000000D01*
G01*
X0370535Y0112057D01*
G75*
G02*
X0370928Y0111663I0000000J-000394D01*
G01*
X0370928Y0110876D01*
G75*
G02*
X0370535Y0110482I-000394J0000000D01*
G01*
X0365515Y0110482D01*
G75*
G02*
X0365121Y0110876I0000000J0000394D01*
G01*
G37*
G36*
G01*
X0387661Y0110876D02*
X0387661Y0111663D01*
G75*
G02*
X0388054Y0112057I0000394J0000000D01*
G01*
X0393074Y0112057D01*
G75*
G02*
X0393468Y0111663I0000000J-000394D01*
G01*
X0393468Y0110876D01*
G75*
G02*
X0393074Y0110482I-000394J0000000D01*
G01*
X0388054Y0110482D01*
G75*
G02*
X0387661Y0110876I0000000J0000394D01*
G01*
G37*
G36*
G01*
X0387661Y0108317D02*
X0387661Y0109104D01*
G75*
G02*
X0388054Y0109498I0000394J0000000D01*
G01*
X0393074Y0109498D01*
G75*
G02*
X0393468Y0109104I0000000J-000394D01*
G01*
X0393468Y0108317D01*
G75*
G02*
X0393074Y0107923I-000394J0000000D01*
G01*
X0388054Y0107923D01*
G75*
G02*
X0387661Y0108317I0000000J0000394D01*
G01*
G37*
G36*
G01*
X0387661Y0105758D02*
X0387661Y0106545D01*
G75*
G02*
X0388054Y0106939I0000394J0000000D01*
G01*
X0393074Y0106939D01*
G75*
G02*
X0393468Y0106545I0000000J-000394D01*
G01*
X0393468Y0105758D01*
G75*
G02*
X0393074Y0105364I-000394J0000000D01*
G01*
X0388054Y0105364D01*
G75*
G02*
X0387661Y0105758I0000000J0000394D01*
G01*
G37*
G36*
G01*
X0387661Y0103199D02*
X0387661Y0103986D01*
G75*
G02*
X0388054Y0104380I0000394J0000000D01*
G01*
X0393074Y0104380D01*
G75*
G02*
X0393468Y0103986I0000000J-000394D01*
G01*
X0393468Y0103199D01*
G75*
G02*
X0393074Y0102805I-000394J0000000D01*
G01*
X0388054Y0102805D01*
G75*
G02*
X0387661Y0103199I0000000J0000394D01*
G01*
G37*
G36*
G01*
X0387661Y0100640D02*
X0387661Y0101427D01*
G75*
G02*
X0388054Y0101821I0000394J0000000D01*
G01*
X0393074Y0101821D01*
G75*
G02*
X0393468Y0101427I0000000J-000394D01*
G01*
X0393468Y0100640D01*
G75*
G02*
X0393074Y0100246I-000394J0000000D01*
G01*
X0388054Y0100246D01*
G75*
G02*
X0387661Y0100640I0000000J0000394D01*
G01*
G37*
G36*
G01*
X0387661Y0098081D02*
X0387661Y0098868D01*
G75*
G02*
X0388054Y0099262I0000394J0000000D01*
G01*
X0393074Y0099262D01*
G75*
G02*
X0393468Y0098868I0000000J-000394D01*
G01*
X0393468Y0098081D01*
G75*
G02*
X0393074Y0097687I-000394J0000000D01*
G01*
X0388054Y0097687D01*
G75*
G02*
X0387661Y0098081I0000000J0000394D01*
G01*
G37*
G36*
G01*
X0387661Y0095521D02*
X0387661Y0096309D01*
G75*
G02*
X0388054Y0096703I0000394J0000000D01*
G01*
X0393074Y0096703D01*
G75*
G02*
X0393468Y0096309I0000000J-000394D01*
G01*
X0393468Y0095521D01*
G75*
G02*
X0393074Y0095128I-000394J0000000D01*
G01*
X0388054Y0095128D01*
G75*
G02*
X0387661Y0095521I0000000J0000394D01*
G01*
G37*
G36*
G01*
X0347478Y0103392D02*
X0347478Y0106935D01*
G75*
G02*
X0348462Y0107919I0000984J0000000D01*
G01*
X0350529Y0107919D01*
G75*
G02*
X0351513Y0106935I0000000J-000984D01*
G01*
X0351513Y0103392D01*
G75*
G02*
X0350529Y0102407I-000984J0000000D01*
G01*
X0348462Y0102407D01*
G75*
G02*
X0347478Y0103392I0000000J0000984D01*
G01*
G37*
G36*
G01*
X0354663Y0103392D02*
X0354663Y0106935D01*
G75*
G02*
X0355647Y0107919I0000984J0000000D01*
G01*
X0357714Y0107919D01*
G75*
G02*
X0358698Y0106935I0000000J-000984D01*
G01*
X0358698Y0103392D01*
G75*
G02*
X0357714Y0102407I-000984J0000000D01*
G01*
X0355647Y0102407D01*
G75*
G02*
X0354663Y0103392I0000000J0000984D01*
G01*
G37*
G36*
G01*
X0393721Y0117116D02*
X0393721Y0115659D01*
G75*
G02*
X0393189Y0115128I-000531J0000000D01*
G01*
X0392126Y0115128D01*
G75*
G02*
X0391595Y0115659I0000000J0000531D01*
G01*
X0391595Y0117116D01*
G75*
G02*
X0392126Y0117647I0000531J0000000D01*
G01*
X0393189Y0117647D01*
G75*
G02*
X0393721Y0117116I0000000J-000531D01*
G01*
G37*
G36*
G01*
X0389705Y0117116D02*
X0389705Y0115659D01*
G75*
G02*
X0389174Y0115128I-000531J0000000D01*
G01*
X0388111Y0115128D01*
G75*
G02*
X0387579Y0115659I0000000J0000531D01*
G01*
X0387579Y0117116D01*
G75*
G02*
X0388111Y0117647I0000531J0000000D01*
G01*
X0389174Y0117647D01*
G75*
G02*
X0389705Y0117116I0000000J-000531D01*
G01*
G37*
G36*
G01*
X0353288Y0128041D02*
X0353288Y0126703D01*
G75*
G02*
X0352737Y0126151I-000551J0000000D01*
G01*
X0351634Y0126151D01*
G75*
G02*
X0351083Y0126703I0000000J0000551D01*
G01*
X0351083Y0128041D01*
G75*
G02*
X0351634Y0128592I0000551J0000000D01*
G01*
X0352737Y0128592D01*
G75*
G02*
X0353288Y0128041I0000000J-000551D01*
G01*
G37*
G36*
G01*
X0349508Y0128041D02*
X0349508Y0126703D01*
G75*
G02*
X0348957Y0126151I-000551J0000000D01*
G01*
X0347855Y0126151D01*
G75*
G02*
X0347304Y0126703I0000000J0000551D01*
G01*
X0347304Y0128041D01*
G75*
G02*
X0347855Y0128592I0000551J0000000D01*
G01*
X0348957Y0128592D01*
G75*
G02*
X0349508Y0128041I0000000J-000551D01*
G01*
G37*
G36*
G01*
X0401398Y0120856D02*
X0401398Y0119399D01*
G75*
G02*
X0400867Y0118868I-000531J0000000D01*
G01*
X0399804Y0118868D01*
G75*
G02*
X0399272Y0119399I0000000J0000531D01*
G01*
X0399272Y0120856D01*
G75*
G02*
X0399804Y0121388I0000531J0000000D01*
G01*
X0400867Y0121388D01*
G75*
G02*
X0401398Y0120856I0000000J-000531D01*
G01*
G37*
G36*
G01*
X0397382Y0120856D02*
X0397382Y0119399D01*
G75*
G02*
X0396851Y0118868I-000531J0000000D01*
G01*
X0395788Y0118868D01*
G75*
G02*
X0395256Y0119399I0000000J0000531D01*
G01*
X0395256Y0120856D01*
G75*
G02*
X0395788Y0121388I0000531J0000000D01*
G01*
X0396851Y0121388D01*
G75*
G02*
X0397382Y0120856I0000000J-000531D01*
G01*
G37*
G36*
G01*
X0385465Y0117116D02*
X0385465Y0115660D01*
G75*
G02*
X0384933Y0115128I-000531J0000000D01*
G01*
X0383870Y0115128D01*
G75*
G02*
X0383339Y0115660I0000000J0000531D01*
G01*
X0383339Y0117116D01*
G75*
G02*
X0383870Y0117648I0000531J0000000D01*
G01*
X0384933Y0117648D01*
G75*
G02*
X0385465Y0117116I0000000J-000531D01*
G01*
G37*
G36*
G01*
X0381449Y0117116D02*
X0381449Y0115660D01*
G75*
G02*
X0380917Y0115128I-000531J0000000D01*
G01*
X0379854Y0115128D01*
G75*
G02*
X0379323Y0115660I0000000J0000531D01*
G01*
X0379323Y0117116D01*
G75*
G02*
X0379854Y0117648I0000531J0000000D01*
G01*
X0380917Y0117648D01*
G75*
G02*
X0381449Y0117116I0000000J-000531D01*
G01*
G37*
G36*
G01*
X0358698Y0099360D02*
X0358698Y0095817D01*
G75*
G02*
X0357714Y0094832I-000984J0000000D01*
G01*
X0355647Y0094832D01*
G75*
G02*
X0354663Y0095817I0000000J0000984D01*
G01*
X0354663Y0099360D01*
G75*
G02*
X0355647Y0100344I0000984J0000000D01*
G01*
X0357714Y0100344D01*
G75*
G02*
X0358698Y0099360I0000000J-000984D01*
G01*
G37*
G36*
G01*
X0351513Y0099360D02*
X0351513Y0095817D01*
G75*
G02*
X0350529Y0094832I-000984J0000000D01*
G01*
X0348462Y0094832D01*
G75*
G02*
X0347478Y0095817I0000000J0000984D01*
G01*
X0347478Y0099360D01*
G75*
G02*
X0348462Y0100344I0000984J0000000D01*
G01*
X0350529Y0100344D01*
G75*
G02*
X0351513Y0099360I0000000J-000984D01*
G01*
G37*
G36*
G01*
X0385414Y0128258D02*
X0385414Y0126801D01*
G75*
G02*
X0384882Y0126269I-000531J0000000D01*
G01*
X0383819Y0126269D01*
G75*
G02*
X0383288Y0126801I0000000J0000531D01*
G01*
X0383288Y0128258D01*
G75*
G02*
X0383819Y0128789I0000531J0000000D01*
G01*
X0384882Y0128789D01*
G75*
G02*
X0385414Y0128258I0000000J-000531D01*
G01*
G37*
G36*
G01*
X0381398Y0128258D02*
X0381398Y0126801D01*
G75*
G02*
X0380867Y0126269I-000531J0000000D01*
G01*
X0379804Y0126269D01*
G75*
G02*
X0379272Y0126801I0000000J0000531D01*
G01*
X0379272Y0128258D01*
G75*
G02*
X0379804Y0128789I0000531J0000000D01*
G01*
X0380867Y0128789D01*
G75*
G02*
X0381398Y0128258I0000000J-000531D01*
G01*
G37*
G36*
G01*
X0395099Y0094754D02*
X0395099Y0096210D01*
G75*
G02*
X0395630Y0096742I0000531J0000000D01*
G01*
X0396693Y0096742D01*
G75*
G02*
X0397225Y0096210I0000000J-000531D01*
G01*
X0397225Y0094754D01*
G75*
G02*
X0396693Y0094222I-000531J0000000D01*
G01*
X0395630Y0094222D01*
G75*
G02*
X0395099Y0094754I0000000J0000531D01*
G01*
G37*
G36*
G01*
X0399115Y0094754D02*
X0399115Y0096210D01*
G75*
G02*
X0399646Y0096742I0000531J0000000D01*
G01*
X0400709Y0096742D01*
G75*
G02*
X0401241Y0096210I0000000J-000531D01*
G01*
X0401241Y0094754D01*
G75*
G02*
X0400709Y0094222I-000531J0000000D01*
G01*
X0399646Y0094222D01*
G75*
G02*
X0399115Y0094754I0000000J0000531D01*
G01*
G37*
G36*
G01*
X0395552Y0106703D02*
X0395552Y0108159D01*
G75*
G02*
X0396083Y0108691I0000531J0000000D01*
G01*
X0397146Y0108691D01*
G75*
G02*
X0397678Y0108159I0000000J-000531D01*
G01*
X0397678Y0106703D01*
G75*
G02*
X0397146Y0106171I-000531J0000000D01*
G01*
X0396083Y0106171D01*
G75*
G02*
X0395552Y0106703I0000000J0000531D01*
G01*
G37*
G36*
G01*
X0399567Y0106703D02*
X0399567Y0108159D01*
G75*
G02*
X0400099Y0108691I0000531J0000000D01*
G01*
X0401162Y0108691D01*
G75*
G02*
X0401693Y0108159I0000000J-000531D01*
G01*
X0401693Y0106703D01*
G75*
G02*
X0401162Y0106171I-000531J0000000D01*
G01*
X0400099Y0106171D01*
G75*
G02*
X0399567Y0106703I0000000J0000531D01*
G01*
G37*
G36*
G01*
X0394016Y0120856D02*
X0394016Y0119399D01*
G75*
G02*
X0393485Y0118868I-000531J0000000D01*
G01*
X0392422Y0118868D01*
G75*
G02*
X0391890Y0119399I0000000J0000531D01*
G01*
X0391890Y0120856D01*
G75*
G02*
X0392422Y0121388I0000531J0000000D01*
G01*
X0393485Y0121388D01*
G75*
G02*
X0394016Y0120856I0000000J-000531D01*
G01*
G37*
G36*
G01*
X0390000Y0120856D02*
X0390000Y0119399D01*
G75*
G02*
X0389469Y0118868I-000531J0000000D01*
G01*
X0388406Y0118868D01*
G75*
G02*
X0387874Y0119399I0000000J0000531D01*
G01*
X0387874Y0120856D01*
G75*
G02*
X0388406Y0121388I0000531J0000000D01*
G01*
X0389469Y0121388D01*
G75*
G02*
X0390000Y0120856I0000000J-000531D01*
G01*
G37*
G36*
G01*
X0401713Y0111939D02*
X0401713Y0110600D01*
G75*
G02*
X0401162Y0110049I-000551J0000000D01*
G01*
X0400059Y0110049D01*
G75*
G02*
X0399508Y0110600I0000000J0000551D01*
G01*
X0399508Y0111939D01*
G75*
G02*
X0400059Y0112490I0000551J0000000D01*
G01*
X0401162Y0112490D01*
G75*
G02*
X0401713Y0111939I0000000J-000551D01*
G01*
G37*
G36*
G01*
X0397933Y0111939D02*
X0397933Y0110600D01*
G75*
G02*
X0397382Y0110049I-000551J0000000D01*
G01*
X0396280Y0110049D01*
G75*
G02*
X0395729Y0110600I0000000J0000551D01*
G01*
X0395729Y0111939D01*
G75*
G02*
X0396280Y0112490I0000551J0000000D01*
G01*
X0397382Y0112490D01*
G75*
G02*
X0397933Y0111939I0000000J-000551D01*
G01*
G37*
G36*
G01*
X0362565Y0101724D02*
X0361227Y0101724D01*
G75*
G02*
X0360675Y0102275I0000000J0000551D01*
G01*
X0360675Y0103377D01*
G75*
G02*
X0361227Y0103929I0000551J0000000D01*
G01*
X0362565Y0103929D01*
G75*
G02*
X0363116Y0103377I0000000J-000551D01*
G01*
X0363116Y0102275D01*
G75*
G02*
X0362565Y0101724I-000551J0000000D01*
G01*
G37*
G36*
G01*
X0362565Y0105503D02*
X0361227Y0105503D01*
G75*
G02*
X0360675Y0106054I0000000J0000551D01*
G01*
X0360675Y0107157D01*
G75*
G02*
X0361227Y0107708I0000551J0000000D01*
G01*
X0362565Y0107708D01*
G75*
G02*
X0363116Y0107157I0000000J-000551D01*
G01*
X0363116Y0106054D01*
G75*
G02*
X0362565Y0105503I-000551J0000000D01*
G01*
G37*
G36*
G01*
X0395059Y0115659D02*
X0395059Y0117116D01*
G75*
G02*
X0395591Y0117647I0000531J0000000D01*
G01*
X0396654Y0117647D01*
G75*
G02*
X0397185Y0117116I0000000J-000531D01*
G01*
X0397185Y0115659D01*
G75*
G02*
X0396654Y0115128I-000531J0000000D01*
G01*
X0395591Y0115128D01*
G75*
G02*
X0395059Y0115659I0000000J0000531D01*
G01*
G37*
G36*
G01*
X0399075Y0115659D02*
X0399075Y0117116D01*
G75*
G02*
X0399607Y0117647I0000531J0000000D01*
G01*
X0400670Y0117647D01*
G75*
G02*
X0401201Y0117116I0000000J-000531D01*
G01*
X0401201Y0115659D01*
G75*
G02*
X0400670Y0115128I-000531J0000000D01*
G01*
X0399607Y0115128D01*
G75*
G02*
X0399075Y0115659I0000000J0000531D01*
G01*
G37*
G36*
G01*
X0377658Y0127018D02*
X0377658Y0125836D01*
G75*
G02*
X0377067Y0125246I-000591J0000000D01*
G01*
X0373032Y0125246D01*
G75*
G02*
X0372441Y0125836I0000000J0000591D01*
G01*
X0372441Y0127018D01*
G75*
G02*
X0373032Y0127608I0000591J0000000D01*
G01*
X0377067Y0127608D01*
G75*
G02*
X0377658Y0127018I0000000J-000591D01*
G01*
G37*
G36*
G01*
X0377658Y0123277D02*
X0377658Y0122096D01*
G75*
G02*
X0377067Y0121506I-000591J0000000D01*
G01*
X0373032Y0121506D01*
G75*
G02*
X0372441Y0122096I0000000J0000591D01*
G01*
X0372441Y0123277D01*
G75*
G02*
X0373032Y0123868I0000591J0000000D01*
G01*
X0377067Y0123868D01*
G75*
G02*
X0377658Y0123277I0000000J-000591D01*
G01*
G37*
G36*
G01*
X0377658Y0119537D02*
X0377658Y0118356D01*
G75*
G02*
X0377067Y0117766I-000591J0000000D01*
G01*
X0373032Y0117766D01*
G75*
G02*
X0372441Y0118356I0000000J0000591D01*
G01*
X0372441Y0119537D01*
G75*
G02*
X0373032Y0120128I0000591J0000000D01*
G01*
X0377067Y0120128D01*
G75*
G02*
X0377658Y0119537I0000000J-000591D01*
G01*
G37*
G36*
G01*
X0368701Y0119537D02*
X0368701Y0118356D01*
G75*
G02*
X0368111Y0117766I-000591J0000000D01*
G01*
X0364075Y0117766D01*
G75*
G02*
X0363485Y0118356I0000000J0000591D01*
G01*
X0363485Y0119537D01*
G75*
G02*
X0364075Y0120128I0000591J0000000D01*
G01*
X0368111Y0120128D01*
G75*
G02*
X0368701Y0119537I0000000J-000591D01*
G01*
G37*
G36*
G01*
X0368701Y0127018D02*
X0368701Y0125836D01*
G75*
G02*
X0368111Y0125246I-000591J0000000D01*
G01*
X0364075Y0125246D01*
G75*
G02*
X0363485Y0125836I0000000J0000591D01*
G01*
X0363485Y0127018D01*
G75*
G02*
X0364075Y0127608I0000591J0000000D01*
G01*
X0368111Y0127608D01*
G75*
G02*
X0368701Y0127018I0000000J-000591D01*
G01*
G37*
G36*
G01*
X0379351Y0123199D02*
X0379351Y0124537D01*
G75*
G02*
X0379902Y0125088I0000551J0000000D01*
G01*
X0381004Y0125088D01*
G75*
G02*
X0381556Y0124537I0000000J-000551D01*
G01*
X0381556Y0123199D01*
G75*
G02*
X0381004Y0122647I-000551J0000000D01*
G01*
X0379902Y0122647D01*
G75*
G02*
X0379351Y0123199I0000000J0000551D01*
G01*
G37*
G36*
G01*
X0383130Y0123199D02*
X0383130Y0124537D01*
G75*
G02*
X0383681Y0125088I0000551J0000000D01*
G01*
X0384784Y0125088D01*
G75*
G02*
X0385335Y0124537I0000000J-000551D01*
G01*
X0385335Y0123199D01*
G75*
G02*
X0384784Y0122647I-000551J0000000D01*
G01*
X0383681Y0122647D01*
G75*
G02*
X0383130Y0123199I0000000J0000551D01*
G01*
G37*
X0399193Y0229114D02*
G01*
G75*
D204*
X0427146Y0239350D02*
D03*
X0431083Y0239350D02*
D03*
X0416023Y0239350D02*
D03*
X0412086Y0239350D02*
D03*
X0407657Y0239350D02*
D03*
X0403720Y0239350D02*
D03*
X0427146Y0232067D02*
D03*
X0431083Y0232067D02*
D03*
D205*
X0423761Y0231870D02*
D03*
X0423761Y0235413D02*
D03*
D206*
X0419876Y0238583D02*
D03*
X0419876Y0232362D02*
D03*
D207*
X0407264Y0235413D02*
D03*
X0403721Y0235413D02*
D03*
X0415630Y0231870D02*
D03*
X0412087Y0231870D02*
D03*
X0430492Y0235471D02*
D03*
X0426949Y0235471D02*
D03*
X0403721Y0231870D02*
D03*
X0407264Y0231870D02*
D03*
X0403937Y0006102D02*
G01*
G75*
D139*
X0433852Y0082480D02*
D03*
X0420860Y0082480D02*
D03*
D151*
X0453712Y0082874D02*
D03*
X0442295Y0082874D02*
D03*
X0453712Y0074842D02*
D03*
X0442295Y0074842D02*
D03*
D217*
X0416339Y0060826D02*
D03*
X0416339Y0064763D02*
D03*
X0412992Y0075393D02*
D03*
X0421654Y0075393D02*
D03*
X0412205Y0070145D02*
D03*
X0420866Y0070145D02*
D03*
D207*
X0424092Y0017519D02*
D03*
X0420548Y0017519D02*
D03*
X0433483Y0054252D02*
D03*
X0437027Y0054252D02*
D03*
X0425486Y0069357D02*
D03*
X0429029Y0069357D02*
D03*
X0432710Y0017519D02*
D03*
X0429167Y0017519D02*
D03*
X0412205Y0021456D02*
D03*
X0415748Y0021456D02*
D03*
D205*
X0437690Y0070932D02*
D03*
X0437690Y0074476D02*
D03*
X0416923Y0083334D02*
D03*
X0416923Y0079790D02*
D03*
X0465687Y0025017D02*
D03*
X0465687Y0028561D02*
D03*
D229*
X0461811Y0084055D02*
D03*
X0461811Y0075393D02*
D03*
X0423895Y0021456D02*
D03*
X0419958Y0021456D02*
D03*
X0428576Y0021456D02*
D03*
X0432513Y0021456D02*
D03*
X0425289Y0075393D02*
D03*
X0429226Y0075393D02*
D03*
X0448222Y0053779D02*
D03*
X0452159Y0053779D02*
D03*
X0455998Y0016338D02*
D03*
X0452060Y0016338D02*
D03*
D230*
X0453150Y0062401D02*
D03*
X0442126Y0062401D02*
D03*
D206*
X0420472Y0058078D02*
D03*
X0420472Y0064298D02*
D03*
X0434566Y0058078D02*
D03*
X0434566Y0064298D02*
D03*
X0429875Y0058078D02*
D03*
X0429875Y0064298D02*
D03*
X0425183Y0058078D02*
D03*
X0425183Y0064298D02*
D03*
X0433385Y0070322D02*
D03*
X0433385Y0076543D02*
D03*
D231*
X0429009Y0028216D02*
D03*
X0424009Y0028216D02*
D03*
X0419009Y0028216D02*
D03*
X0414009Y0028216D02*
D03*
X0429009Y0050853D02*
D03*
X0424009Y0050853D02*
D03*
X0419009Y0050853D02*
D03*
X0414009Y0050853D02*
D03*
X0452076Y0022933D02*
D03*
X0447076Y0022933D02*
D03*
X0442076Y0022933D02*
D03*
X0437076Y0022933D02*
D03*
X0452076Y0046358D02*
D03*
X0447076Y0046358D02*
D03*
X0442076Y0046358D02*
D03*
X0437076Y0046358D02*
D03*
D232*
X0421509Y0039534D02*
D03*
D233*
X0444576Y0034645D02*
D03*
X0481201Y0136713D02*
%LPD*%
G01*
G36*
G01*
X0491831Y0153878D02*
X0488760Y0153878D01*
G75*
G02*
X0488484Y0154154I0000000J0000276D01*
G01*
X0488484Y0156359D01*
G75*
G02*
X0488760Y0156634I0000276J0000000D01*
G01*
X0491831Y0156634D01*
G75*
G02*
X0492107Y0156359I0000000J-000276D01*
G01*
X0492107Y0154154D01*
G75*
G02*
X0491831Y0153878I-000276J0000000D01*
G01*
G37*
G36*
G01*
X0491831Y0160178D02*
X0488760Y0160178D01*
G75*
G02*
X0488484Y0160453I0000000J0000276D01*
G01*
X0488484Y0162658D01*
G75*
G02*
X0488760Y0162933I0000276J0000000D01*
G01*
X0491831Y0162933D01*
G75*
G02*
X0492107Y0162658I0000000J-000276D01*
G01*
X0492107Y0160453D01*
G75*
G02*
X0491831Y0160178I-000276J0000000D01*
G01*
G37*
G36*
G01*
X0488760Y0174744D02*
X0491831Y0174744D01*
G75*
G02*
X0492107Y0174469I0000000J-000276D01*
G01*
X0492107Y0172264D01*
G75*
G02*
X0491831Y0171989I-000276J0000000D01*
G01*
X0488760Y0171989D01*
G75*
G02*
X0488484Y0172264I0000000J0000276D01*
G01*
X0488484Y0174469D01*
G75*
G02*
X0488760Y0174744I0000276J0000000D01*
G01*
G37*
G36*
G01*
X0488760Y0168445D02*
X0491831Y0168445D01*
G75*
G02*
X0492107Y0168170I0000000J-000276D01*
G01*
X0492107Y0165965D01*
G75*
G02*
X0491831Y0165689I-000276J0000000D01*
G01*
X0488760Y0165689D01*
G75*
G02*
X0488484Y0165965I0000000J0000276D01*
G01*
X0488484Y0168170D01*
G75*
G02*
X0488760Y0168445I0000276J0000000D01*
G01*
G37*
G36*
G01*
X0508012Y0171890D02*
X0508012Y0167756D01*
G75*
G02*
X0507618Y0167363I-000394J0000000D01*
G01*
X0504469Y0167363D01*
G75*
G02*
X0504075Y0167756I0000000J0000394D01*
G01*
X0504075Y0171890D01*
G75*
G02*
X0504469Y0172284I0000394J0000000D01*
G01*
X0507618Y0172284D01*
G75*
G02*
X0508012Y0171890I0000000J-000394D01*
G01*
G37*
G36*
G01*
X0500138Y0171890D02*
X0500138Y0167756D01*
G75*
G02*
X0499744Y0167363I-000394J0000000D01*
G01*
X0496595Y0167363D01*
G75*
G02*
X0496201Y0167756I0000000J0000394D01*
G01*
X0496201Y0171890D01*
G75*
G02*
X0496595Y0172284I0000394J0000000D01*
G01*
X0499744Y0172284D01*
G75*
G02*
X0500138Y0171890I0000000J-000394D01*
G01*
G37*
G36*
G01*
X0511162Y0153583D02*
X0511162Y0157717D01*
G75*
G02*
X0511555Y0158111I0000394J0000000D01*
G01*
X0514705Y0158111D01*
G75*
G02*
X0515099Y0157717I0000000J-000394D01*
G01*
X0515099Y0153583D01*
G75*
G02*
X0514705Y0153189I-000394J0000000D01*
G01*
X0511555Y0153189D01*
G75*
G02*
X0511162Y0153583I0000000J0000394D01*
G01*
G37*
G36*
G01*
X0519036Y0153583D02*
X0519036Y0157717D01*
G75*
G02*
X0519429Y0158111I0000394J0000000D01*
G01*
X0522579Y0158111D01*
G75*
G02*
X0522973Y0157717I0000000J-000394D01*
G01*
X0522973Y0153583D01*
G75*
G02*
X0522579Y0153189I-000394J0000000D01*
G01*
X0519429Y0153189D01*
G75*
G02*
X0519036Y0153583I0000000J0000394D01*
G01*
G37*
G36*
G01*
X0483051Y0151378D02*
X0485729Y0151378D01*
G75*
G02*
X0486063Y0151044I0000000J-000335D01*
G01*
X0486063Y0148367D01*
G75*
G02*
X0485729Y0148032I-000335J0000000D01*
G01*
X0483051Y0148032D01*
G75*
G02*
X0482717Y0148367I0000000J0000335D01*
G01*
X0482717Y0151044D01*
G75*
G02*
X0483051Y0151378I0000335J0000000D01*
G01*
G37*
G36*
G01*
X0483051Y0145158D02*
X0485729Y0145158D01*
G75*
G02*
X0486063Y0144823I0000000J-000335D01*
G01*
X0486063Y0142146D01*
G75*
G02*
X0485729Y0141811I-000335J0000000D01*
G01*
X0483051Y0141811D01*
G75*
G02*
X0482717Y0142146I0000000J0000335D01*
G01*
X0482717Y0144823D01*
G75*
G02*
X0483051Y0145158I0000335J0000000D01*
G01*
G37*
G36*
G01*
X0527146Y0149311D02*
X0529823Y0149311D01*
G75*
G02*
X0530158Y0148977I0000000J-000335D01*
G01*
X0530158Y0146300D01*
G75*
G02*
X0529823Y0145965I-000335J0000000D01*
G01*
X0527146Y0145965D01*
G75*
G02*
X0526811Y0146300I0000000J0000335D01*
G01*
X0526811Y0148977D01*
G75*
G02*
X0527146Y0149311I0000335J0000000D01*
G01*
G37*
G36*
G01*
X0527146Y0143091D02*
X0529823Y0143091D01*
G75*
G02*
X0530158Y0142756I0000000J-000335D01*
G01*
X0530158Y0140079D01*
G75*
G02*
X0529823Y0139744I-000335J0000000D01*
G01*
X0527146Y0139744D01*
G75*
G02*
X0526811Y0140079I0000000J0000335D01*
G01*
X0526811Y0142756D01*
G75*
G02*
X0527146Y0143091I0000335J0000000D01*
G01*
G37*
G36*
G01*
X0508012Y0164804D02*
X0508012Y0160670D01*
G75*
G02*
X0507618Y0160276I-000394J0000000D01*
G01*
X0504469Y0160276D01*
G75*
G02*
X0504075Y0160670I0000000J0000394D01*
G01*
X0504075Y0164804D01*
G75*
G02*
X0504469Y0165197I0000394J0000000D01*
G01*
X0507618Y0165197D01*
G75*
G02*
X0508012Y0164804I0000000J-000394D01*
G01*
G37*
G36*
G01*
X0500138Y0164804D02*
X0500138Y0160670D01*
G75*
G02*
X0499744Y0160276I-000394J0000000D01*
G01*
X0496595Y0160276D01*
G75*
G02*
X0496201Y0160670I0000000J0000394D01*
G01*
X0496201Y0164804D01*
G75*
G02*
X0496595Y0165197I0000394J0000000D01*
G01*
X0499744Y0165197D01*
G75*
G02*
X0500138Y0164804I0000000J-000394D01*
G01*
G37*
G36*
G01*
X0511162Y0160670D02*
X0511162Y0164804D01*
G75*
G02*
X0511555Y0165197I0000394J0000000D01*
G01*
X0514705Y0165197D01*
G75*
G02*
X0515099Y0164804I0000000J-000394D01*
G01*
X0515099Y0160670D01*
G75*
G02*
X0514705Y0160276I-000394J0000000D01*
G01*
X0511555Y0160276D01*
G75*
G02*
X0511162Y0160670I0000000J0000394D01*
G01*
G37*
G36*
G01*
X0519036Y0160670D02*
X0519036Y0164804D01*
G75*
G02*
X0519429Y0165197I0000394J0000000D01*
G01*
X0522579Y0165197D01*
G75*
G02*
X0522973Y0164804I0000000J-000394D01*
G01*
X0522973Y0160670D01*
G75*
G02*
X0522579Y0160276I-000394J0000000D01*
G01*
X0519429Y0160276D01*
G75*
G02*
X0519036Y0160670I0000000J0000394D01*
G01*
G37*
G36*
G01*
X0508012Y0150630D02*
X0508012Y0146496D01*
G75*
G02*
X0507618Y0146103I-000394J0000000D01*
G01*
X0504469Y0146103D01*
G75*
G02*
X0504075Y0146496I0000000J0000394D01*
G01*
X0504075Y0150630D01*
G75*
G02*
X0504469Y0151024I0000394J0000000D01*
G01*
X0507618Y0151024D01*
G75*
G02*
X0508012Y0150630I0000000J-000394D01*
G01*
G37*
G36*
G01*
X0500138Y0150630D02*
X0500138Y0146496D01*
G75*
G02*
X0499744Y0146103I-000394J0000000D01*
G01*
X0496595Y0146103D01*
G75*
G02*
X0496201Y0146496I0000000J0000394D01*
G01*
X0496201Y0150630D01*
G75*
G02*
X0496595Y0151024I0000394J0000000D01*
G01*
X0499744Y0151024D01*
G75*
G02*
X0500138Y0150630I0000000J-000394D01*
G01*
G37*
G36*
G01*
X0511162Y0139410D02*
X0511162Y0143544D01*
G75*
G02*
X0511555Y0143937I0000394J0000000D01*
G01*
X0514705Y0143937D01*
G75*
G02*
X0515099Y0143544I0000000J-000394D01*
G01*
X0515099Y0139410D01*
G75*
G02*
X0514705Y0139016I-000394J0000000D01*
G01*
X0511555Y0139016D01*
G75*
G02*
X0511162Y0139410I0000000J0000394D01*
G01*
G37*
G36*
G01*
X0519036Y0139410D02*
X0519036Y0143544D01*
G75*
G02*
X0519429Y0143937I0000394J0000000D01*
G01*
X0522579Y0143937D01*
G75*
G02*
X0522973Y0143544I0000000J-000394D01*
G01*
X0522973Y0139410D01*
G75*
G02*
X0522579Y0139016I-000394J0000000D01*
G01*
X0519429Y0139016D01*
G75*
G02*
X0519036Y0139410I0000000J0000394D01*
G01*
G37*
G36*
G01*
X0488957Y0151378D02*
X0491634Y0151378D01*
G75*
G02*
X0491969Y0151044I0000000J-000335D01*
G01*
X0491969Y0148367D01*
G75*
G02*
X0491634Y0148032I-000335J0000000D01*
G01*
X0488957Y0148032D01*
G75*
G02*
X0488622Y0148367I0000000J0000335D01*
G01*
X0488622Y0151044D01*
G75*
G02*
X0488957Y0151378I0000335J0000000D01*
G01*
G37*
G36*
G01*
X0488957Y0145158D02*
X0491634Y0145158D01*
G75*
G02*
X0491969Y0144823I0000000J-000335D01*
G01*
X0491969Y0142146D01*
G75*
G02*
X0491634Y0141811I-000335J0000000D01*
G01*
X0488957Y0141811D01*
G75*
G02*
X0488622Y0142146I0000000J0000335D01*
G01*
X0488622Y0144823D01*
G75*
G02*
X0488957Y0145158I0000335J0000000D01*
G01*
G37*
G36*
G01*
X0508012Y0143544D02*
X0508012Y0139410D01*
G75*
G02*
X0507618Y0139016I-000394J0000000D01*
G01*
X0504469Y0139016D01*
G75*
G02*
X0504075Y0139410I0000000J0000394D01*
G01*
X0504075Y0143544D01*
G75*
G02*
X0504469Y0143937I0000394J0000000D01*
G01*
X0507618Y0143937D01*
G75*
G02*
X0508012Y0143544I0000000J-000394D01*
G01*
G37*
G36*
G01*
X0500138Y0143544D02*
X0500138Y0139410D01*
G75*
G02*
X0499744Y0139016I-000394J0000000D01*
G01*
X0496595Y0139016D01*
G75*
G02*
X0496201Y0139410I0000000J0000394D01*
G01*
X0496201Y0143544D01*
G75*
G02*
X0496595Y0143937I0000394J0000000D01*
G01*
X0499744Y0143937D01*
G75*
G02*
X0500138Y0143544I0000000J-000394D01*
G01*
G37*
G36*
G01*
X0511162Y0146496D02*
X0511162Y0150630D01*
G75*
G02*
X0511555Y0151024I0000394J0000000D01*
G01*
X0514705Y0151024D01*
G75*
G02*
X0515099Y0150630I0000000J-000394D01*
G01*
X0515099Y0146496D01*
G75*
G02*
X0514705Y0146103I-000394J0000000D01*
G01*
X0511555Y0146103D01*
G75*
G02*
X0511162Y0146496I0000000J0000394D01*
G01*
G37*
G36*
G01*
X0519036Y0146496D02*
X0519036Y0150630D01*
G75*
G02*
X0519429Y0151024I0000394J0000000D01*
G01*
X0522579Y0151024D01*
G75*
G02*
X0522973Y0150630I0000000J-000394D01*
G01*
X0522973Y0146496D01*
G75*
G02*
X0522579Y0146103I-000394J0000000D01*
G01*
X0519429Y0146103D01*
G75*
G02*
X0519036Y0146496I0000000J0000394D01*
G01*
G37*
G36*
G01*
X0511162Y0167756D02*
X0511162Y0171890D01*
G75*
G02*
X0511555Y0172284I0000394J0000000D01*
G01*
X0514705Y0172284D01*
G75*
G02*
X0515099Y0171890I0000000J-000394D01*
G01*
X0515099Y0167756D01*
G75*
G02*
X0514705Y0167363I-000394J0000000D01*
G01*
X0511555Y0167363D01*
G75*
G02*
X0511162Y0167756I0000000J0000394D01*
G01*
G37*
G36*
G01*
X0519036Y0167756D02*
X0519036Y0171890D01*
G75*
G02*
X0519429Y0172284I0000394J0000000D01*
G01*
X0522579Y0172284D01*
G75*
G02*
X0522973Y0171890I0000000J-000394D01*
G01*
X0522973Y0167756D01*
G75*
G02*
X0522579Y0167363I-000394J0000000D01*
G01*
X0519429Y0167363D01*
G75*
G02*
X0519036Y0167756I0000000J0000394D01*
G01*
G37*
G36*
G01*
X0508012Y0157717D02*
X0508012Y0153583D01*
G75*
G02*
X0507618Y0153189I-000394J0000000D01*
G01*
X0504469Y0153189D01*
G75*
G02*
X0504075Y0153583I0000000J0000394D01*
G01*
X0504075Y0157717D01*
G75*
G02*
X0504469Y0158111I0000394J0000000D01*
G01*
X0507618Y0158111D01*
G75*
G02*
X0508012Y0157717I0000000J-000394D01*
G01*
G37*
G36*
G01*
X0500138Y0157717D02*
X0500138Y0153583D01*
G75*
G02*
X0499744Y0153189I-000394J0000000D01*
G01*
X0496595Y0153189D01*
G75*
G02*
X0496201Y0153583I0000000J0000394D01*
G01*
X0496201Y0157717D01*
G75*
G02*
X0496595Y0158111I0000394J0000000D01*
G01*
X0499744Y0158111D01*
G75*
G02*
X0500138Y0157717I0000000J-000394D01*
G01*
G37*
X0399193Y0211201D02*
G01*
G75*
D204*
X0427146Y0221437D02*
D03*
X0431083Y0221437D02*
D03*
X0416023Y0221437D02*
D03*
X0412086Y0221437D02*
D03*
X0407657Y0221437D02*
D03*
X0403720Y0221437D02*
D03*
X0427146Y0214154D02*
D03*
X0431083Y0214154D02*
D03*
D205*
X0423761Y0213957D02*
D03*
X0423761Y0217500D02*
D03*
D206*
X0419876Y0220670D02*
D03*
X0419876Y0214449D02*
D03*
D207*
X0407264Y0217500D02*
D03*
X0403721Y0217500D02*
D03*
X0415630Y0213957D02*
D03*
X0412087Y0213957D02*
D03*
X0430492Y0217558D02*
D03*
X0426949Y0217558D02*
D03*
X0403721Y0213957D02*
D03*
X0407264Y0213957D02*
D03*
X0475787Y0006102D02*
G01*
G75*
D139*
X0505702Y0082480D02*
D03*
X0492710Y0082480D02*
D03*
D151*
X0525562Y0082874D02*
D03*
X0514145Y0082874D02*
D03*
X0525562Y0074842D02*
D03*
X0514145Y0074842D02*
D03*
D217*
X0488189Y0060826D02*
D03*
X0488189Y0064763D02*
D03*
X0484842Y0075393D02*
D03*
X0493504Y0075393D02*
D03*
X0484055Y0070145D02*
D03*
X0492716Y0070145D02*
D03*
D207*
X0495942Y0017519D02*
D03*
X0492398Y0017519D02*
D03*
X0505333Y0054252D02*
D03*
X0508877Y0054252D02*
D03*
X0497336Y0069357D02*
D03*
X0500879Y0069357D02*
D03*
X0504560Y0017519D02*
D03*
X0501017Y0017519D02*
D03*
X0484055Y0021456D02*
D03*
X0487598Y0021456D02*
D03*
D205*
X0509540Y0070932D02*
D03*
X0509540Y0074476D02*
D03*
X0488773Y0083334D02*
D03*
X0488773Y0079790D02*
D03*
X0537537Y0025017D02*
D03*
X0537537Y0028561D02*
D03*
D229*
X0533661Y0084055D02*
D03*
X0533661Y0075393D02*
D03*
X0495745Y0021456D02*
D03*
X0491808Y0021456D02*
D03*
X0500426Y0021456D02*
D03*
X0504363Y0021456D02*
D03*
X0497139Y0075393D02*
D03*
X0501076Y0075393D02*
D03*
X0520072Y0053779D02*
D03*
X0524009Y0053779D02*
D03*
X0527848Y0016338D02*
D03*
X0523910Y0016338D02*
D03*
D230*
X0525000Y0062401D02*
D03*
X0513976Y0062401D02*
D03*
D206*
X0492322Y0058078D02*
D03*
X0492322Y0064298D02*
D03*
X0506416Y0058078D02*
D03*
X0506416Y0064298D02*
D03*
X0501725Y0058078D02*
D03*
X0501725Y0064298D02*
D03*
X0497033Y0058078D02*
D03*
X0497033Y0064298D02*
D03*
X0505235Y0070322D02*
D03*
X0505235Y0076543D02*
D03*
D231*
X0500859Y0028216D02*
D03*
X0495859Y0028216D02*
D03*
X0490859Y0028216D02*
D03*
X0485859Y0028216D02*
D03*
X0500859Y0050853D02*
D03*
X0495859Y0050853D02*
D03*
X0490859Y0050853D02*
D03*
X0485859Y0050853D02*
D03*
X0523926Y0022933D02*
D03*
X0518926Y0022933D02*
D03*
X0513926Y0022933D02*
D03*
X0508926Y0022933D02*
D03*
X0523926Y0046358D02*
D03*
X0518926Y0046358D02*
D03*
X0513926Y0046358D02*
D03*
X0508926Y0046358D02*
D03*
D232*
X0493359Y0039534D02*
D03*
D233*
X0516426Y0034645D02*
D03*
M02*
