M48
INCH,TZ
T01C0.011800
T02C0.029550
T03C0.032000
T04C0.039200
T05C0.045250
T06C0.137800
%
T01
X42606Y25448
X42951Y25241
X43039Y27141
X43069Y25743
X14833Y28297
X14833Y27904
X14833Y38691
X14833Y38297
X14833Y37904
X14833Y37510
X14833Y37116
X14833Y36722
X14833Y33179
X14833Y42470
X14833Y36329
X14833Y35935
X14833Y35541
X14833Y35148
X14833Y34754
X14833Y34360
X14833Y33967
X14833Y33573
X14833Y30817
X14990Y26919
X15935Y26919
X16407Y26919
X16880Y26919
X17195Y42470
X17352Y26919
X17510Y42470
X17825Y42470
X17825Y26919
X18297Y26919
X18770Y26919
X19147Y17549
X19147Y17156
X19147Y16762
X19147Y15864
X19147Y15464
X19242Y26919
X19715Y26919
X20187Y26919
X20659Y26919
X20896Y42470
X21132Y26919
X21211Y42470
X21526Y42470
X21604Y26919
X21841Y42470
X22077Y26919
X22156Y42470
X22549Y26919
X23022Y26919
X23494Y26919
X23967Y26919
X24321Y42470
X24439Y26919
X24636Y42470
X24911Y26919
X24951Y42470
X25266Y42470
X25384Y26919
X25581Y42470
X25856Y26919
X25896Y42470
X26211Y42470
X26329Y26919
X26526Y42470
X26801Y26919
X26841Y42470
X27156Y42470
X27274Y26919
X27470Y42470
X27746Y26919
X27785Y42470
X28100Y42470
X28219Y26919
X28415Y42470
X28691Y26919
X28730Y42470
X29045Y42470
X29124Y26919
X29360Y42470
X29596Y26919
X29616Y14537
X29616Y14144
X29616Y13750
X29616Y13356
X29675Y42470
X29990Y42470
X30069Y26919
X30305Y42470
X30541Y26919
X30620Y42470
X30935Y42470
X31014Y26919
X31250Y39872
X31250Y39557
X31250Y37982
X31250Y37667
X31250Y37352
X31250Y36093
X31250Y35778
X31250Y32313
X31250Y28100
X31250Y42470
X31250Y41447
X31250Y41132
X31250Y40817
X31250Y40502
X31250Y40187
X31250Y39242
X31250Y38927
X31250Y38612
X31250Y38297
X31250Y37037
X31250Y36722
X31250Y36407
X31250Y35463
X31250Y35148
X31250Y34833
X31250Y34518
X31250Y34203
X31250Y33888
X31250Y33573
X31250Y33258
X31250Y32943
X31250Y32628
X31250Y31998
X31250Y31683
X31250Y31368
X31250Y31053
X31250Y30738
X31250Y27785
X34606Y14686
X34606Y14292
X34606Y10336
X34606Y9942
X40037Y23935
X40037Y23581
X40037Y22144
X40037Y21789
X40285Y17229
X40285Y16757
X40285Y16284
X40285Y15812
X40285Y12879
X40285Y12406
X40285Y11934
X40285Y11462
X43463Y23935
X43463Y23561
X43463Y23187
X43463Y22144
X43463Y21770
X43463Y21396
X46969Y2421
X46969Y2028
X48238Y21919
X48238Y21604
X48238Y21289
X48238Y20974
X48238Y20659
X48238Y20344
X48238Y20030
X48238Y17490
X48238Y17175
X48238Y16860
X48238Y16545
X48238Y16230
X48238Y15915
X48238Y15600
X48553Y21919
X48553Y17490
X54154Y2421
X54154Y2028
X14991Y26919
X14914Y27318
X14833Y27903
X14833Y28297
X15591Y28557
X16305Y28573
X16589Y28596
X17195Y28415
X17510Y28415
X18076Y28603
X18502Y28603
X19085Y28415
X19400Y28415
X19969Y28585
X20254Y28594
X20942Y28393
X21326Y28393
X21837Y28619
X22279Y28603
X22865Y28415
X23180Y28415
X23760Y28512
X24144Y28573
X24754Y28415
X25069Y28415
X25699Y28573
X26014Y28573
X26644Y28415
X26959Y28415
X27589Y28573
X27904Y28573
X28534Y28415
X28770Y28651
X29046Y29518
X29361Y29399
X29558Y29124
X29912Y29124
X30000Y30049
X29498Y30069
X29561Y30347
X29459Y31191
X29833Y31329
X29937Y31604
X30040Y31092
X29761Y32418
X29753Y32915
X29439Y32943
X29479Y33336
X29361Y34124
X28766Y34200
X28376Y34242
X28042Y34253
X28298Y33966
X28550Y33806
X28713Y34670
X28729Y35057
X28484Y35217
X28870Y35462
X28780Y36170
X28849Y36447
X28731Y37313
X28534Y37667
X28761Y38228
X28782Y38612
X29583Y38316
X29906Y38095
X30289Y38071
X29868Y39531
X29819Y40181
X30038Y40364
X29476Y40779
X28752Y40972
X28376Y40659
X28132Y40807
X27983Y41486
X27707Y41368
X28929Y41575
X29207Y41449
X29351Y41968
X29666Y42069
X30289Y41513
X26380Y41503
X26082Y41553
X26136Y40914
X26475Y40704
X27072Y40029
X26880Y39793
X26644Y39557
X25817Y39321
X25198Y39217
X25227Y39557
X24917Y39129
X24715Y38927
X24872Y37982
X25306Y37958
X26132Y38218
X26447Y38218
X26591Y37802
X27235Y37903
X27274Y38612
X27502Y38783
X27825Y38140
X27825Y37195
X26880Y36880
X26565Y36880
X26644Y36313
X26565Y35344
X26959Y35344
X27237Y35821
X27951Y35930
X27815Y35173
X27829Y34796
X26762Y34714
X26841Y33995
X27156Y34006
X26268Y33921
X26487Y33140
X26802Y33061
X27432Y33179
X27678Y33034
X27972Y32786
X27609Y32313
X27215Y32313
X26565Y31998
X26250Y32001
X25935Y31998
X25306Y32134
X25039Y32323
X25148Y32864
X25361Y33100
X25511Y32695
X24518Y32864
X24597Y33140
X23731Y33179
X23652Y32825
X23652Y31998
X23967Y32001
X24282Y32037
X24558Y31604
X24558Y31289
X24567Y31004
X24794Y30462
X25384Y30462
X25758Y30699
X25758Y31329
X25325Y31191
X26782Y31053
X26777Y31343
X27609Y31191
X28042Y31329
X28042Y30699
X27668Y30462
X27077Y30462
X26506Y29714
X25999Y29616
X25714Y29616
X24110Y29616
X23824Y29616
X23551Y29700
X23475Y30699
X23101Y30462
X22550Y30462
X22215Y31053
X22210Y31343
X22019Y32013
X21684Y32001
X21369Y31998
X21191Y31329
X20758Y31191
X20857Y30462
X21191Y30699
X21429Y29732
X21934Y29577
X22220Y29616
X20687Y29972
X20330Y29616
X20045Y29616
X20030Y30266
X19980Y30967
X19961Y31644
X19974Y31939
X19961Y32298
X19951Y32785
X19991Y33218
X19611Y33346
X19326Y33366
X19164Y32864
X19302Y32431
X18804Y32542
X18384Y32642
X18359Y32927
X17865Y32943
X17528Y32826
X17129Y33109
X17451Y33455
X17943Y33541
X18010Y34024
X17976Y34360
X18022Y34744
X18022Y35029
X18022Y35581
X17983Y36329
X18180Y36840
X18101Y37116
X18125Y37578
X18089Y38158
X18061Y38927
X17668Y39025
X17658Y39365
X16802Y39596
X16821Y39006
X16875Y38258
X16487Y38179
X16093Y38175
X15443Y38171
X14833Y38297
X14833Y37903
X14833Y37510
X14833Y37116
X14833Y36722
X14833Y36329
X14833Y35935
X14833Y35541
X14833Y35147
X14833Y34754
X14833Y34360
X14833Y33966
X14833Y33573
X14833Y33179
X15069Y32943
X15609Y33110
X15601Y32628
X15876Y32490
X16238Y32530
X16506Y32429
X17166Y32224
X17179Y31939
X17166Y31644
X17195Y31289
X16714Y31432
X16212Y31439
X16369Y31014
X16252Y30688
X16640Y30660
X16309Y30266
X16270Y29714
X16551Y29616
X17313Y29685
X17786Y29685
X18155Y29616
X18440Y29616
X18849Y29675
X19203Y29636
X18790Y30266
X18849Y30699
X19164Y31014
X19026Y31407
X19656Y31407
X19530Y30574
X17786Y30699
X17550Y30266
X18326Y31296
X18367Y31579
X18298Y32155
X18829Y33612
X18900Y34857
X18859Y35462
X18837Y35876
X18869Y36388
X18859Y36958
X18859Y37667
X18859Y38297
X18800Y38961
X19703Y39070
X19727Y39684
X19931Y39885
X20374Y39813
X20424Y39399
X20424Y39114
X20424Y38293
X20410Y37904
X19887Y37903
X19887Y37618
X20173Y37599
X20384Y37352
X20306Y36998
X20419Y36545
X21325Y36552
X21608Y36661
X21487Y36919
X21238Y37236
X21250Y36132
X21398Y35350
X21487Y34951
X21300Y34606
X21014Y33691
X20485Y33675
X20342Y33931
X20306Y32933
X20660Y32640
X20740Y32330
X21408Y32864
X21893Y32878
X21880Y33163
X22041Y34144
X22449Y34187
X22510Y33908
X22786Y34203
X23435Y34227
X23426Y33942
X23869Y34301
X24100Y34085
X24587Y34618
X23694Y34911
X23211Y34915
X23475Y35275
X23809Y35777
X24282Y36250
X23376Y36289
X22904Y37470
X22589Y37431
X22310Y36933
X21841Y36496
X22313Y35305
X20463Y35502
X20227Y34911
X19912Y34970
X19502Y35034
X19626Y34419
X19715Y37018
X21240Y38485
X21250Y38927
X21172Y39557
X21180Y39842
X21312Y40316
X21240Y40593
X21369Y41092
X20916Y41677
X21684Y42232
X22480Y42345
X22805Y42300
X23093Y42342
X23412Y42339
X23726Y42333
X23337Y41447
X22717Y41476
X22431Y41476
X22146Y41486
X22291Y40481
X22353Y40187
X22008Y39675
X22156Y38927
X21998Y38415
X22904Y38336
X23259Y38248
X23534Y37982
X23337Y39124
X22884Y38848
X24046Y39557
X23573Y40029
X23573Y40967
X23967Y41171
X24307Y41570
X25256Y41488
X24439Y40226
X24754Y36773
X25266Y36891
X25488Y36710
X25708Y36891
X25886Y36668
X25739Y35502
X25227Y35305
X25109Y36014
X23024Y33091
X22786Y32746
X22648Y32313
X22943Y32313
X23042Y31191
X23475Y31329
X23258Y27116
X23495Y26919
X23731Y27116
X23967Y26919
X24203Y27116
X24439Y26919
X24676Y27116
X24912Y26919
X25148Y27116
X25384Y26919
X25621Y27116
X25857Y26919
X26093Y27116
X26329Y26919
X26565Y27116
X26802Y26919
X27038Y27116
X27274Y26919
X27510Y27116
X27747Y26919
X27983Y27116
X28219Y26919
X28455Y27116
X28691Y26919
X29124Y26919
X29361Y27116
X29597Y26919
X29833Y27116
X30069Y26919
X30306Y27116
X30002Y27823
X29529Y27823
X28495Y29675
X27889Y29616
X27604Y29616
X28219Y31998
X28534Y32001
X28849Y31998
X29135Y31943
X30237Y34960
X27943Y39321
X27984Y39603
X20503Y40190
X20179Y40521
X20254Y40797
X19930Y40662
X19538Y41112
X19270Y40996
X18980Y40835
X18680Y40822
X18731Y40541
X18967Y39911
X19342Y39646
X19471Y41496
X18800Y41340
X18048Y41033
X17679Y41188
X17660Y40893
X17810Y40489
X17481Y40502
X16987Y40701
X16124Y40499
X15715Y40408
X15778Y40974
X14932Y41053
X14912Y40659
X15502Y41939
X15542Y42392
X16624Y42392
X17264Y41595
X18004Y41692
X19024Y42234
X20030Y42116
X15985Y39556
X15817Y39321
X15642Y38743
X15246Y38730
X14833Y38691
X15959Y37298
X16231Y36958
X16399Y36197
X17205Y36171
X17205Y35462
X17205Y34754
X17205Y34045
X16770Y33661
X16455Y33892
X15955Y33356
X14961Y32264
X15571Y31644
X15246Y30974
X14833Y30817
X15069Y30266
X14872Y29675
X15424Y29478
X15187Y28996
X15823Y29811
X15699Y30600
X15424Y27510
X15467Y26950
X15699Y27116
X15935Y26919
X16172Y27116
X16408Y26919
X16644Y27116
X16880Y26919
X17117Y27116
X17353Y26919
X17589Y27116
X17825Y26919
X18061Y27116
X18298Y26919
X18534Y27116
X18770Y26919
X19006Y27116
X19243Y26919
X19479Y27116
X19715Y26919
X19951Y27116
X20187Y26919
X20424Y27116
X20660Y26919
X20896Y27116
X21132Y26919
X21369Y27116
X21605Y26919
X21841Y27116
X22077Y26919
X22313Y27116
X22550Y26919
X22786Y27116
X23022Y26919
X16684Y37490
X30384Y37647
X30571Y37863
X31250Y37982
X31250Y38297
X31250Y38612
X31250Y38927
X31250Y39242
X31250Y39557
X31250Y39872
X31250Y40187
X31250Y40502
X31250Y40817
X31250Y41132
X31250Y41447
X31172Y41762
X30849Y41447
X30977Y40617
X31012Y39399
X31012Y38455
X30395Y38797
X30422Y36882
X31250Y37037
X31250Y37352
X31250Y37667
X31250Y36722
X31250Y36407
X31250Y36092
X31250Y35777
X31250Y35462
X31250Y35147
X31250Y34832
X31250Y34518
X31250Y34203
X31250Y33888
X31250Y33573
X31250Y33258
X31250Y32943
X31250Y32628
X31250Y32313
X31250Y31998
X31250Y31683
X31250Y31368
X31250Y31053
X31250Y30738
X30422Y30613
X30424Y29911
X30739Y29754
X30884Y30000
X30857Y29439
X30975Y29124
X31054Y28848
X31054Y28455
X31250Y28100
X31250Y27785
X30906Y27815
X30444Y27816
X30542Y26919
X30778Y27116
X31014Y26919
X31211Y27234
X30739Y31289
X30399Y31344
X30967Y34238
X30640Y35827
X30345Y35827
X30621Y42470
X30935Y42470
X31250Y42470
X30306Y42470
X29991Y42470
X29676Y42470
X29361Y42470
X29046Y42470
X28731Y42470
X28416Y42470
X28101Y42470
X27786Y42470
X27471Y42470
X27156Y42470
X26841Y42470
X26526Y42470
X26211Y42470
X25896Y42470
X25581Y42470
X25266Y42470
X24951Y42470
X24636Y42470
X24321Y42470
X22156Y42470
X21841Y42470
X21526Y42470
X21211Y42470
X20896Y42470
X18760Y42444
X17825Y42470
X17510Y42470
X17195Y42470
X14833Y42470
X48360Y18340
X48518Y19797
X49423Y21824
X49440Y18790
X49817Y20348
X49855Y19684
X50211Y21805
X50211Y18301
X50250Y21057
X50250Y18931
X50959Y21824
X50959Y21057
X50959Y20348
X50959Y19639
X50959Y18931
X51667Y20348
X51707Y18301
X52100Y19639
X52100Y18931
X52531Y21417
X52533Y21726
X52848Y21254
X53163Y21805
X53203Y18694
X53301Y20191
X53321Y18340
X53360Y21293
X48242Y21923
X48242Y21608
X48242Y21293
X48242Y20978
X48242Y20663
X48242Y20348
X48242Y20033
X48557Y21923
X19084Y15089
X19159Y18019
X19203Y16349
X19203Y12983
X19436Y13173
X19492Y14453
X19492Y14764
X19646Y17787
X19874Y16196
X19966Y16894
X20029Y14266
X20166Y13333
X20458Y13061
X20561Y18101
X20607Y17464
X20649Y17087
X20724Y15780
X20728Y14543
X21004Y13022
X21085Y15108
X21210Y13819
X21270Y15768
X21279Y16815
X21388Y15058
X21486Y12983
X22283Y18106
X22451Y13790
X22741Y15595
X22971Y16534
X22972Y15034
X22973Y15827
X23179Y16070
X23199Y12884
X23257Y15729
X23564Y17106
X23772Y14971
X23861Y17055
X23986Y12914
X24002Y16408
X24171Y17061
X24189Y13628
X24262Y15010
X24321Y16010
X24474Y16685
X24478Y13711
X24779Y14444
X24797Y17410
X24805Y17711
X25177Y12904
X25384Y17542
X25409Y18127
X25418Y17243
X25675Y17908
X25813Y16266
X25859Y15419
X25929Y14906
X25929Y14006
X25929Y13705
X25929Y13404
X25929Y13103
X25933Y14498
X26309Y16034
X26565Y15817
X28640Y12862
X28857Y14611
X28897Y17864
X29045Y17451
X29144Y14518
X29183Y16870
X29183Y16595
X29183Y16319
X29360Y17431
X29380Y12855
X29488Y16870
X29488Y16595
X29685Y17845
X19147Y17550
X19147Y17156
X19147Y16762
X19147Y15864
X19147Y15464
X29616Y14538
X29616Y14144
X29616Y13750
X29616Y13357
X42606Y25448
X42950Y25241
X43069Y25743
X43039Y27141
X34597Y15438
X34624Y17084
X34646Y16255
X35368Y13731
X35377Y14488
X35403Y15267
X35451Y17096
X35453Y16164
X35625Y15462
X35799Y17068
X35886Y13859
X35916Y15174
X36191Y13725
X36247Y17259
X36324Y15712
X36335Y14466
X36489Y16787
X36612Y15776
X36906Y15753
X37148Y16154
X37280Y15348
X37333Y15674
X37343Y14956
X37363Y13873
X37413Y14245
X37453Y14595
X37674Y15253
X37983Y13725
X38052Y15300
X38366Y15724
X38485Y15438
X38583Y14934
X38605Y16397
X38648Y13885
X38671Y15694
X38740Y17068
X39036Y17009
X39219Y15739
X39231Y17238
X39558Y14365
X40034Y14357
X40276Y14188
X40286Y14601
X40302Y13706
X34607Y14686
X34607Y14292
X40286Y17229
X40286Y16757
X40286Y16285
X40286Y15812
X34597Y11088
X34624Y12734
X34646Y11905
X35368Y9381
X35377Y10138
X35403Y10917
X35451Y12746
X35453Y11814
X35625Y11112
X35799Y12718
X35886Y9509
X35916Y10824
X36191Y9375
X36247Y12909
X36324Y11362
X36335Y10116
X36489Y12437
X36612Y11426
X36906Y11403
X37148Y11804
X37280Y10998
X37333Y11324
X37343Y10606
X37363Y9523
X37413Y9895
X37453Y10245
X37674Y10903
X37983Y9375
X38052Y10950
X38366Y11374
X38485Y11088
X38583Y10584
X38605Y12047
X38648Y9535
X38671Y11344
X38740Y12718
X39036Y12659
X39219Y11389
X39231Y12888
X39558Y10015
X40034Y10007
X40276Y9838
X40286Y10251
X40302Y9356
X34607Y10336
X34607Y9942
X40286Y12879
X40286Y12407
X40286Y11935
X40286Y11462
X40043Y23040
X40195Y23293
X40037Y23580
X40037Y23935
X41039Y23601
X41313Y23496
X41556Y23709
X41006Y23196
X42485Y23936
X43462Y23935
X43462Y23561
X43462Y23187
X41487Y793
X41215Y1429
X41429Y1814
X40788Y2243
X40748Y2579
X40945Y3169
X41221Y3425
X41339Y3956
X40945Y4252
X40748Y3760
X40748Y4941
X40748Y6516
X41221Y6496
X42332Y6788
X43379Y6763
X43701Y6475
X44754Y6400
X45866Y6516
X46654Y6516
X46181Y5512
X45536Y5506
X45596Y4260
X46063Y4350
X46231Y3870
X46654Y4153
X46232Y2985
X46928Y2813
X46969Y2421
X46969Y2027
X46287Y2121
X45977Y1632
X46364Y1315
X45967Y885
X45578Y1264
X45503Y1988
X45551Y2421
X44235Y1436
X44235Y807
X43316Y793
X42461Y793
X42684Y1435
X43268Y2460
X43661Y3907
X42914Y3956
X43347Y4466
X43936Y5464
X44882Y7421
X45814Y7488
X46260Y7106
X46654Y7697
X45827Y8484
X43828Y8652
X43786Y8246
X42999Y8236
X42734Y7833
X41297Y7910
X41706Y7275
X40866Y7042
X48360Y13911
X48518Y15368
X49423Y17395
X49440Y14361
X49817Y15919
X49855Y15255
X50211Y17376
X50211Y13872
X50250Y16628
X50250Y14502
X50959Y17395
X50959Y16628
X50959Y15919
X50959Y15210
X50959Y14502
X51667Y15919
X51707Y13872
X52100Y15210
X52100Y14502
X52531Y16988
X52533Y17297
X52848Y16825
X53163Y17376
X53203Y14265
X53301Y15762
X53321Y13911
X53360Y16864
X48242Y17494
X48242Y17179
X48242Y16864
X48242Y16549
X48242Y16234
X48242Y15919
X48242Y15604
X48557Y17494
X40043Y21249
X40195Y21502
X40037Y21789
X40037Y22144
X41039Y21810
X41313Y21705
X41556Y21918
X41006Y21405
X42485Y22145
X43462Y22144
X43462Y21770
X43462Y21396
X48672Y793
X48400Y1429
X48614Y1814
X47973Y2243
X47933Y2579
X48130Y3169
X48406Y3425
X48524Y3956
X48130Y4252
X47933Y3760
X47933Y4941
X47933Y6516
X48406Y6496
X49517Y6788
X50564Y6763
X50886Y6475
X51939Y6400
X53051Y6516
X53839Y6516
X53366Y5512
X52721Y5506
X52781Y4260
X53248Y4350
X53416Y3870
X53839Y4153
X53417Y2985
X54113Y2813
X54154Y2421
X54154Y2027
X53472Y2121
X53162Y1632
X53549Y1315
X53152Y885
X52763Y1264
X52688Y1988
X52736Y2421
X51420Y1436
X51420Y807
X50501Y793
X49646Y793
X49869Y1435
X50453Y2460
X50846Y3907
X50099Y3956
X50532Y4466
X51121Y5464
X52067Y7421
X52999Y7488
X53445Y7106
X53839Y7697
X53012Y8484
X51013Y8652
X50971Y8246
X50184Y8236
X49919Y7833
X48482Y7910
X48891Y7275
X48051Y7042
T02
X48868Y18297
X48868Y13868
X49341Y18297
X49341Y13868
X51703Y21841
X51703Y17411
X52569Y18297
X52569Y13868
X48872Y18301
X49344Y18301
X51707Y21844
X52573Y18301
X48872Y13872
X49344Y13872
X51707Y17415
X52573Y13872
T03
X37081Y27073
X37081Y25844
X37081Y24616
X37081Y23388
X37081Y22159
X39010Y27073
X39010Y25844
X39010Y24616
X39010Y23388
X39010Y22159
X20699Y33021
X22392Y32903
X24124Y32943
X26014Y32903
X27156Y32903
X28337Y32903
X28849Y33376
T04
X40689Y8504
X40689Y7776
X40689Y5827
X40689Y1083
X46791Y8327
X46791Y5807
X46791Y5059
X46791Y3366
X46791Y906
X47874Y8504
X47874Y7776
X47874Y5827
X47874Y1083
X53976Y8327
X53976Y5807
X53976Y5059
X53976Y3366
X53976Y906
X15148Y42155
X18290Y41395
X18290Y42195
X20290Y41795
X26470Y13868
X27258Y15050
X28045Y13868
X19344Y13790
X21344Y14190
X21344Y13390
X40689Y1082
X40689Y5827
X46792Y5807
X46792Y5059
X46792Y3366
X46792Y905
X46792Y8327
X40689Y8504
X40689Y7775
X47874Y1082
X47874Y5827
X53977Y5807
X53977Y5059
X53977Y3366
X53977Y905
X53977Y8327
X47874Y8504
X47874Y7775
T05
X2264Y42835
X2264Y41575
X2264Y40315
X2264Y39055
X2264Y37795
X2264Y36535
X2264Y35276
X2264Y31693
X2264Y30433
X2264Y29173
X2264Y27913
X2264Y21417
X2264Y20157
X2264Y17638
X2264Y16378
X2264Y15118
X2264Y13858
X2264Y12598
X2264Y9409
X2264Y8150
X2264Y6890
X2264Y5630
X2264Y4370
X2264Y3110
X2264Y1850
X2303Y25394
X2303Y24134
X3642Y42087
X3642Y40354
X3642Y38622
X3642Y36890
X3642Y35157
X3642Y31811
X3642Y30079
X3642Y28346
X3642Y26614
X3642Y24882
X3642Y20669
X3642Y18937
X3642Y17205
X3642Y15472
X3642Y13740
X3642Y12008
X3642Y8661
X3642Y6929
X3642Y5197
X3642Y3465
X3642Y1732
X4193Y21535
X4232Y42953
X4232Y41220
X4232Y39488
X4232Y37756
X4232Y36024
X4232Y30945
X4232Y29213
X4232Y27480
X4232Y25748
X4232Y24016
X4232Y19803
X4232Y18071
X4232Y16339
X4232Y14606
X4232Y12874
X4232Y9528
X4232Y7795
X4232Y6063
X4232Y4331
X4232Y2598
X4823Y42087
X4823Y40354
X4823Y38622
X4823Y35157
X4823Y30079
X4823Y28346
X4823Y26614
X4823Y24882
X4823Y20669
X4823Y18937
X4823Y15472
X4823Y12008
X4823Y8661
X4823Y6929
X4823Y5197
X4823Y3465
X4823Y1732
X4862Y31811
X5413Y42953
X5413Y41220
X5413Y39488
X5413Y36024
X5413Y32677
X5413Y30945
X5413Y29213
X5413Y27480
X5413Y25748
X5413Y24016
X5413Y21535
X5413Y19803
X5413Y16339
X5413Y12874
X5413Y9528
X5413Y7795
X5413Y6063
X5413Y4331
X5413Y2598
X6004Y42087
X6004Y38622
X6004Y35157
X6004Y31811
X6004Y26614
X6004Y24882
X6004Y20669
X6004Y18937
X6004Y15472
X6004Y12008
X6004Y8661
X6004Y6929
X6004Y1732
X6594Y42953
X6594Y39488
X6594Y36024
X6594Y32677
X6594Y30945
X6594Y27480
X6594Y25748
X6594Y24016
X6594Y21535
X6594Y19803
X6594Y16339
X6594Y12874
X6594Y9528
X6594Y7795
X6594Y6063
X6594Y2598
X26293Y17677
X27293Y17677
X28293Y17677
T06
X8740Y40787
X8740Y22776
X8740Y4331
M30
