G75*
G70*
%OFA0B0*%
%FSLAX25Y25*%
%IPPOS*%
%LPD*%
%AMOC8*
5,1,8,0,0,1.08239X$1,22.5*
%
%AMM17*
21,1,0.039370,0.030320,0.000000,0.000000,90.000000*
21,1,0.028350,0.041340,0.000000,0.000000,90.000000*
1,1,0.011020,0.015160,0.014170*
1,1,0.011020,0.015160,-0.014170*
1,1,0.011020,-0.015160,-0.014170*
1,1,0.011020,-0.015160,0.014170*
%
%AMM18*
21,1,0.047240,0.075980,0.000000,0.000000,0.000000*
21,1,0.034650,0.088580,0.000000,0.000000,0.000000*
1,1,0.012600,0.017320,-0.037990*
1,1,0.012600,-0.017320,-0.037990*
1,1,0.012600,-0.017320,0.037990*
1,1,0.012600,0.017320,0.037990*
%
%AMM19*
21,1,0.047240,0.075990,0.000000,0.000000,0.000000*
21,1,0.034650,0.088580,0.000000,0.000000,0.000000*
1,1,0.012600,0.017320,-0.037990*
1,1,0.012600,-0.017320,-0.037990*
1,1,0.012600,-0.017320,0.037990*
1,1,0.012600,0.017320,0.037990*
%
%AMM20*
21,1,0.141730,0.067720,0.000000,0.000000,0.000000*
21,1,0.120870,0.088580,0.000000,0.000000,0.000000*
1,1,0.020870,0.060430,-0.033860*
1,1,0.020870,-0.060430,-0.033860*
1,1,0.020870,-0.060430,0.033860*
1,1,0.020870,0.060430,0.033860*
%
%AMM21*
21,1,0.043310,0.035430,0.000000,0.000000,0.000000*
21,1,0.031500,0.047240,0.000000,0.000000,0.000000*
1,1,0.011810,0.015750,-0.017720*
1,1,0.011810,-0.015750,-0.017720*
1,1,0.011810,-0.015750,0.017720*
1,1,0.011810,0.015750,0.017720*
%
%AMM22*
21,1,0.027560,0.030710,0.000000,0.000000,180.000000*
21,1,0.018900,0.039370,0.000000,0.000000,180.000000*
1,1,0.008660,-0.009450,0.015350*
1,1,0.008660,0.009450,0.015350*
1,1,0.008660,0.009450,-0.015350*
1,1,0.008660,-0.009450,-0.015350*
%
%AMM23*
21,1,0.031500,0.018900,0.000000,0.000000,180.000000*
21,1,0.022840,0.027560,0.000000,0.000000,180.000000*
1,1,0.008660,-0.011420,0.009450*
1,1,0.008660,0.011420,0.009450*
1,1,0.008660,0.011420,-0.009450*
1,1,0.008660,-0.011420,-0.009450*
%
%AMM24*
21,1,0.027560,0.030710,0.000000,0.000000,270.000000*
21,1,0.018900,0.039370,0.000000,0.000000,270.000000*
1,1,0.008660,-0.015350,-0.009450*
1,1,0.008660,-0.015350,0.009450*
1,1,0.008660,0.015350,0.009450*
1,1,0.008660,0.015350,-0.009450*
%
%AMM25*
21,1,0.090550,0.073230,0.000000,0.000000,90.000000*
21,1,0.069290,0.094490,0.000000,0.000000,90.000000*
1,1,0.021260,0.036610,0.034650*
1,1,0.021260,0.036610,-0.034650*
1,1,0.021260,-0.036610,-0.034650*
1,1,0.021260,-0.036610,0.034650*
%
%AMM26*
21,1,0.029530,0.026380,0.000000,0.000000,90.000000*
21,1,0.020470,0.035430,0.000000,0.000000,90.000000*
1,1,0.009060,0.013190,0.010240*
1,1,0.009060,0.013190,-0.010240*
1,1,0.009060,-0.013190,-0.010240*
1,1,0.009060,-0.013190,0.010240*
%
%AMM27*
21,1,0.021650,0.027950,0.000000,0.000000,90.000000*
21,1,0.014170,0.035430,0.000000,0.000000,90.000000*
1,1,0.007480,0.013980,0.007090*
1,1,0.007480,0.013980,-0.007090*
1,1,0.007480,-0.013980,-0.007090*
1,1,0.007480,-0.013980,0.007090*
%
%AMM28*
21,1,0.035430,0.072440,0.000000,0.000000,90.000000*
21,1,0.025200,0.082680,0.000000,0.000000,90.000000*
1,1,0.010240,0.036220,0.012600*
1,1,0.010240,0.036220,-0.012600*
1,1,0.010240,-0.036220,-0.012600*
1,1,0.010240,-0.036220,0.012600*
%
%AMM29*
21,1,0.016540,0.028980,0.000000,0.000000,90.000000*
21,1,0.010080,0.035430,0.000000,0.000000,90.000000*
1,1,0.006460,0.014490,0.005040*
1,1,0.006460,0.014490,-0.005040*
1,1,0.006460,-0.014490,-0.005040*
1,1,0.006460,-0.014490,0.005040*
%
%AMM30*
21,1,0.016540,0.028980,0.000000,0.000000,180.000000*
21,1,0.010080,0.035430,0.000000,0.000000,180.000000*
1,1,0.006460,-0.005040,0.014490*
1,1,0.006460,0.005040,0.014490*
1,1,0.006460,0.005040,-0.014490*
1,1,0.006460,-0.005040,-0.014490*
%
%AMM31*
21,1,0.043310,0.035430,0.000000,0.000000,270.000000*
21,1,0.031500,0.047240,0.000000,0.000000,270.000000*
1,1,0.011810,-0.017720,-0.015750*
1,1,0.011810,-0.017720,0.015750*
1,1,0.011810,0.017720,0.015750*
1,1,0.011810,0.017720,-0.015750*
%
%AMM32*
21,1,0.031500,0.018900,0.000000,0.000000,90.000000*
21,1,0.022840,0.027560,0.000000,0.000000,90.000000*
1,1,0.008660,0.009450,0.011420*
1,1,0.008660,0.009450,-0.011420*
1,1,0.008660,-0.009450,-0.011420*
1,1,0.008660,-0.009450,0.011420*
%
%AMM59*
21,1,0.040950,0.030320,0.000000,0.000000,180.000000*
21,1,0.028350,0.042910,0.000000,0.000000,180.000000*
1,1,0.012600,-0.014170,0.015160*
1,1,0.012600,0.014170,0.015160*
1,1,0.012600,0.014170,-0.015160*
1,1,0.012600,-0.014170,-0.015160*
%
%AMM60*
21,1,0.038980,0.026770,0.000000,0.000000,0.000000*
21,1,0.026770,0.038980,0.000000,0.000000,0.000000*
1,1,0.012210,0.013390,-0.013390*
1,1,0.012210,-0.013390,-0.013390*
1,1,0.012210,-0.013390,0.013390*
1,1,0.012210,0.013390,0.013390*
%
%AMM61*
21,1,0.033070,0.030710,0.000000,0.000000,180.000000*
21,1,0.022050,0.041730,0.000000,0.000000,180.000000*
1,1,0.011020,-0.011020,0.015350*
1,1,0.011020,0.011020,0.015350*
1,1,0.011020,0.011020,-0.015350*
1,1,0.011020,-0.011020,-0.015350*
%
%AMM63*
21,1,0.027170,0.052760,0.000000,0.000000,270.000000*
21,1,0.017320,0.062600,0.000000,0.000000,270.000000*
1,1,0.009840,-0.026380,-0.008660*
1,1,0.009840,-0.026380,0.008660*
1,1,0.009840,0.026380,0.008660*
1,1,0.009840,0.026380,-0.008660*
%
%AMM69*
21,1,0.025200,0.019680,0.000000,0.000000,270.000000*
21,1,0.015750,0.029130,0.000000,0.000000,270.000000*
1,1,0.009450,-0.009840,-0.007870*
1,1,0.009450,-0.009840,0.007870*
1,1,0.009450,0.009840,0.007870*
1,1,0.009450,0.009840,-0.007870*
%
%AMM71*
21,1,0.025200,0.019680,0.000000,0.000000,0.000000*
21,1,0.015750,0.029130,0.000000,0.000000,0.000000*
1,1,0.009450,0.007870,-0.009840*
1,1,0.009450,-0.007870,-0.009840*
1,1,0.009450,-0.007870,0.009840*
1,1,0.009450,0.007870,0.009840*
%
%AMM78*
21,1,0.092130,0.073230,0.000000,0.000000,270.000000*
21,1,0.069290,0.096060,0.000000,0.000000,270.000000*
1,1,0.022840,-0.036610,-0.034650*
1,1,0.022840,-0.036610,0.034650*
1,1,0.022840,0.036610,0.034650*
1,1,0.022840,0.036610,-0.034650*
%
%AMM79*
21,1,0.100000,0.111020,0.000000,0.000000,0.000000*
21,1,0.075590,0.135430,0.000000,0.000000,0.000000*
1,1,0.024410,0.037800,-0.055510*
1,1,0.024410,-0.037800,-0.055510*
1,1,0.024410,-0.037800,0.055510*
1,1,0.024410,0.037800,0.055510*
%
%AMM80*
21,1,0.080320,0.083460,0.000000,0.000000,0.000000*
21,1,0.059840,0.103940,0.000000,0.000000,0.000000*
1,1,0.020470,0.029920,-0.041730*
1,1,0.020470,-0.029920,-0.041730*
1,1,0.020470,-0.029920,0.041730*
1,1,0.020470,0.029920,0.041730*
%
%AMM81*
21,1,0.084250,0.053540,0.000000,0.000000,180.000000*
21,1,0.065350,0.072440,0.000000,0.000000,180.000000*
1,1,0.018900,-0.032680,0.026770*
1,1,0.018900,0.032680,0.026770*
1,1,0.018900,0.032680,-0.026770*
1,1,0.018900,-0.032680,-0.026770*
%
%AMM82*
21,1,0.040950,0.030320,0.000000,0.000000,90.000000*
21,1,0.028350,0.042910,0.000000,0.000000,90.000000*
1,1,0.012600,0.015160,0.014170*
1,1,0.012600,0.015160,-0.014170*
1,1,0.012600,-0.015160,-0.014170*
1,1,0.012600,-0.015160,0.014170*
%
%AMM83*
21,1,0.041340,0.026770,0.000000,0.000000,0.000000*
21,1,0.029130,0.038980,0.000000,0.000000,0.000000*
1,1,0.012210,0.014570,-0.013390*
1,1,0.012210,-0.014570,-0.013390*
1,1,0.012210,-0.014570,0.013390*
1,1,0.012210,0.014570,0.013390*
%
%AMM84*
21,1,0.076380,0.036220,0.000000,0.000000,90.000000*
21,1,0.061810,0.050790,0.000000,0.000000,90.000000*
1,1,0.014570,0.018110,0.030910*
1,1,0.014570,0.018110,-0.030910*
1,1,0.014570,-0.018110,-0.030910*
1,1,0.014570,-0.018110,0.030910*
%
%AMM85*
21,1,0.021260,0.016540,0.000000,0.000000,270.000000*
21,1,0.012600,0.025200,0.000000,0.000000,270.000000*
1,1,0.008660,-0.008270,-0.006300*
1,1,0.008660,-0.008270,0.006300*
1,1,0.008660,0.008270,0.006300*
1,1,0.008660,0.008270,-0.006300*
%
%AMM86*
21,1,0.029130,0.018900,0.000000,0.000000,90.000000*
21,1,0.018900,0.029130,0.000000,0.000000,90.000000*
1,1,0.010240,0.009450,0.009450*
1,1,0.010240,0.009450,-0.009450*
1,1,0.010240,-0.009450,-0.009450*
1,1,0.010240,-0.009450,0.009450*
%
%ADD10C,0.02362*%
%ADD101C,0.03100*%
%ADD104C,0.03900*%
%ADD107O,0.01260X0.05512*%
%ADD108O,0.05512X0.01260*%
%ADD109M17*%
%ADD110M18*%
%ADD111M19*%
%ADD112M20*%
%ADD113M21*%
%ADD114M22*%
%ADD115C,0.03494*%
%ADD116M23*%
%ADD117M24*%
%ADD118M25*%
%ADD119C,0.03543*%
%ADD120M26*%
%ADD121M27*%
%ADD122M28*%
%ADD123O,0.01575X0.04724*%
%ADD124O,0.04724X0.01575*%
%ADD125M29*%
%ADD126O,0.09055X0.02756*%
%ADD127M30*%
%ADD128R,0.01870X0.01772*%
%ADD129R,0.01772X0.01870*%
%ADD130M31*%
%ADD131M32*%
%ADD132C,0.04294*%
%ADD133C,0.04724*%
%ADD16R,0.25197X0.22835*%
%ADD173R,0.07874X0.02559*%
%ADD174R,0.17717X0.31890*%
%ADD176R,0.03543X0.03150*%
%ADD177R,0.04724X0.08661*%
%ADD178C,0.05118*%
%ADD179R,0.22835X0.25197*%
%ADD180R,0.03150X0.03543*%
%ADD181R,0.07500X0.07874*%
%ADD182O,0.07500X0.07874*%
%ADD192O,0.02520X0.01535*%
%ADD193O,0.01535X0.02520*%
%ADD194M59*%
%ADD195O,0.09213X0.02913*%
%ADD196M60*%
%ADD197M61*%
%ADD198C,0.02913*%
%ADD199R,0.02559X0.01575*%
%ADD200R,0.01575X0.02559*%
%ADD203M63*%
%ADD209M69*%
%ADD211M71*%
%ADD219M78*%
%ADD220M79*%
%ADD221M80*%
%ADD222M81*%
%ADD223M82*%
%ADD224M83*%
%ADD225M84*%
%ADD226M85*%
%ADD227M86*%
%ADD228C,0.06457*%
%ADD33C,0.06000*%
%ADD34C,0.05906*%
%ADD47O,0.01969X0.00984*%
%ADD49O,0.00984X0.01969*%
%ADD52C,0.07874*%
%ADD63C,0.13780*%
X0000000Y0000000D02*
%LPD*%
G01*
D10*
X0402854Y0119341D03*
X0402854Y0114616D03*
X0402854Y0124065D03*
X0402854Y0128789D03*
X0346063Y0103356D03*
X0346063Y0099419D03*
G36*
G01*
X0414469Y0383115D02*
X0414469Y0386186D01*
G75*
G02*
X0414744Y0386462I0000276J0000000D01*
G01*
X0416949Y0386462D01*
G75*
G02*
X0417224Y0386186I0000000J-000276D01*
G01*
X0417224Y0383115D01*
G75*
G02*
X0416949Y0382840I-000276J0000000D01*
G01*
X0414744Y0382840D01*
G75*
G02*
X0414469Y0383115I0000000J0000276D01*
G01*
G37*
G36*
G01*
X0420768Y0383115D02*
X0420768Y0386186D01*
G75*
G02*
X0421043Y0386462I0000276J0000000D01*
G01*
X0423248Y0386462D01*
G75*
G02*
X0423524Y0386186I0000000J-000276D01*
G01*
X0423524Y0383115D01*
G75*
G02*
X0423248Y0382840I-000276J0000000D01*
G01*
X0421043Y0382840D01*
G75*
G02*
X0420768Y0383115I0000000J0000276D01*
G01*
G37*
G36*
G01*
X0367717Y0371063D02*
X0367717Y0374843D01*
G75*
G02*
X0368189Y0375315I0000472J0000000D01*
G01*
X0375906Y0375315D01*
G75*
G02*
X0376378Y0374843I0000000J-000472D01*
G01*
X0376378Y0371063D01*
G75*
G02*
X0375906Y0370591I-000472J0000000D01*
G01*
X0368189Y0370591D01*
G75*
G02*
X0367717Y0371063I0000000J0000472D01*
G01*
G37*
D16*
X0396850Y0363976D03*
G36*
G01*
X0367717Y0353110D02*
X0367717Y0356890D01*
G75*
G02*
X0368189Y0357362I0000472J0000000D01*
G01*
X0375906Y0357362D01*
G75*
G02*
X0376378Y0356890I0000000J-000472D01*
G01*
X0376378Y0353110D01*
G75*
G02*
X0375906Y0352638I-000472J0000000D01*
G01*
X0368189Y0352638D01*
G75*
G02*
X0367717Y0353110I0000000J0000472D01*
G01*
G37*
D33*
X0370807Y0258445D03*
G36*
G01*
X0376102Y0254902D02*
X0373386Y0254902D01*
G75*
G02*
X0372480Y0255807I0000000J0000906D01*
G01*
X0372480Y0261083D01*
G75*
G02*
X0373386Y0261988I0000906J0000000D01*
G01*
X0376102Y0261988D01*
G75*
G02*
X0377008Y0261083I0000000J-000906D01*
G01*
X0377008Y0255807D01*
G75*
G02*
X0376102Y0254902I-000906J0000000D01*
G01*
G37*
G36*
G01*
X0387520Y0254902D02*
X0384803Y0254902D01*
G75*
G02*
X0383898Y0255807I0000000J0000906D01*
G01*
X0383898Y0261083D01*
G75*
G02*
X0384803Y0261988I0000906J0000000D01*
G01*
X0387520Y0261988D01*
G75*
G02*
X0388425Y0261083I0000000J-000906D01*
G01*
X0388425Y0255807D01*
G75*
G02*
X0387520Y0254902I-000906J0000000D01*
G01*
G37*
X0390098Y0258445D03*
G36*
G01*
X0483169Y0398462D02*
X0483169Y0401533D01*
G75*
G02*
X0483445Y0401808I0000276J0000000D01*
G01*
X0485650Y0401808D01*
G75*
G02*
X0485925Y0401533I0000000J-000276D01*
G01*
X0485925Y0398462D01*
G75*
G02*
X0485650Y0398186I-000276J0000000D01*
G01*
X0483445Y0398186D01*
G75*
G02*
X0483169Y0398462I0000000J0000276D01*
G01*
G37*
G36*
G01*
X0489469Y0398462D02*
X0489469Y0401533D01*
G75*
G02*
X0489744Y0401808I0000276J0000000D01*
G01*
X0491949Y0401808D01*
G75*
G02*
X0492224Y0401533I0000000J-000276D01*
G01*
X0492224Y0398462D01*
G75*
G02*
X0491949Y0398186I-000276J0000000D01*
G01*
X0489744Y0398186D01*
G75*
G02*
X0489469Y0398462I0000000J0000276D01*
G01*
G37*
G36*
G01*
X0366634Y0202399D02*
X0366634Y0205470D01*
G75*
G02*
X0366909Y0205746I0000276J0000000D01*
G01*
X0369114Y0205746D01*
G75*
G02*
X0369390Y0205470I0000000J-000276D01*
G01*
X0369390Y0202399D01*
G75*
G02*
X0369114Y0202123I-000276J0000000D01*
G01*
X0366909Y0202123D01*
G75*
G02*
X0366634Y0202399I0000000J0000276D01*
G01*
G37*
G36*
G01*
X0372933Y0202399D02*
X0372933Y0205470D01*
G75*
G02*
X0373209Y0205746I0000276J0000000D01*
G01*
X0375413Y0205746D01*
G75*
G02*
X0375689Y0205470I0000000J-000276D01*
G01*
X0375689Y0202399D01*
G75*
G02*
X0375413Y0202123I-000276J0000000D01*
G01*
X0373209Y0202123D01*
G75*
G02*
X0372933Y0202399I0000000J0000276D01*
G01*
G37*
X0370807Y0246161D03*
G36*
G01*
X0376102Y0242618D02*
X0373386Y0242618D01*
G75*
G02*
X0372480Y0243524I0000000J0000906D01*
G01*
X0372480Y0248799D01*
G75*
G02*
X0373386Y0249705I0000906J0000000D01*
G01*
X0376102Y0249705D01*
G75*
G02*
X0377008Y0248799I0000000J-000906D01*
G01*
X0377008Y0243524D01*
G75*
G02*
X0376102Y0242618I-000906J0000000D01*
G01*
G37*
G36*
G01*
X0387520Y0242618D02*
X0384803Y0242618D01*
G75*
G02*
X0383898Y0243524I0000000J0000906D01*
G01*
X0383898Y0248799D01*
G75*
G02*
X0384803Y0249705I0000906J0000000D01*
G01*
X0387520Y0249705D01*
G75*
G02*
X0388425Y0248799I0000000J-000906D01*
G01*
X0388425Y0243524D01*
G75*
G02*
X0387520Y0242618I-000906J0000000D01*
G01*
G37*
X0390098Y0246161D03*
G36*
G01*
X0414469Y0390789D02*
X0414469Y0393860D01*
G75*
G02*
X0414744Y0394135I0000276J0000000D01*
G01*
X0416949Y0394135D01*
G75*
G02*
X0417224Y0393860I0000000J-000276D01*
G01*
X0417224Y0390789D01*
G75*
G02*
X0416949Y0390513I-000276J0000000D01*
G01*
X0414744Y0390513D01*
G75*
G02*
X0414469Y0390789I0000000J0000276D01*
G01*
G37*
G36*
G01*
X0420768Y0390789D02*
X0420768Y0393860D01*
G75*
G02*
X0421043Y0394135I0000276J0000000D01*
G01*
X0423248Y0394135D01*
G75*
G02*
X0423524Y0393860I0000000J-000276D01*
G01*
X0423524Y0390789D01*
G75*
G02*
X0423248Y0390513I-000276J0000000D01*
G01*
X0421043Y0390513D01*
G75*
G02*
X0420768Y0390789I0000000J0000276D01*
G01*
G37*
G36*
G01*
X0367717Y0307677D02*
X0367717Y0311457D01*
G75*
G02*
X0368189Y0311929I0000472J0000000D01*
G01*
X0375906Y0311929D01*
G75*
G02*
X0376378Y0311457I0000000J-000472D01*
G01*
X0376378Y0307677D01*
G75*
G02*
X0375906Y0307205I-000472J0000000D01*
G01*
X0368189Y0307205D01*
G75*
G02*
X0367717Y0307677I0000000J0000472D01*
G01*
G37*
D16*
X0396850Y0300591D03*
G36*
G01*
X0367717Y0289724D02*
X0367717Y0293504D01*
G75*
G02*
X0368189Y0293976I0000472J0000000D01*
G01*
X0375906Y0293976D01*
G75*
G02*
X0376378Y0293504I0000000J-000472D01*
G01*
X0376378Y0289724D01*
G75*
G02*
X0375906Y0289252I-000472J0000000D01*
G01*
X0368189Y0289252D01*
G75*
G02*
X0367717Y0289724I0000000J0000472D01*
G01*
G37*
D10*
X0402854Y0162844D03*
X0402854Y0158120D03*
X0402854Y0167569D03*
X0402854Y0172293D03*
X0346063Y0146860D03*
X0346063Y0142923D03*
D34*
X0467913Y0083268D03*
X0467913Y0058071D03*
X0467913Y0050591D03*
X0467913Y0033661D03*
D10*
X0469685Y0024213D03*
X0469685Y0020276D03*
D34*
X0467913Y0009055D03*
X0406890Y0085039D03*
X0406890Y0077756D03*
X0406890Y0058268D03*
X0406890Y0010827D03*
D47*
X0442500Y0248084D03*
D49*
X0401752Y0248281D03*
X0403720Y0248281D03*
D10*
X0429508Y0252415D03*
X0426063Y0254482D03*
X0430689Y0257434D03*
X0430394Y0271411D03*
G36*
G01*
X0436417Y0339370D02*
X0436417Y0343150D01*
G75*
G02*
X0436890Y0343622I0000472J0000000D01*
G01*
X0444606Y0343622D01*
G75*
G02*
X0445079Y0343150I0000000J-000472D01*
G01*
X0445079Y0339370D01*
G75*
G02*
X0444606Y0338898I-000472J0000000D01*
G01*
X0436890Y0338898D01*
G75*
G02*
X0436417Y0339370I0000000J0000472D01*
G01*
G37*
D16*
X0465551Y0332283D03*
G36*
G01*
X0436417Y0321417D02*
X0436417Y0325197D01*
G75*
G02*
X0436890Y0325669I0000472J0000000D01*
G01*
X0444606Y0325669D01*
G75*
G02*
X0445079Y0325197I0000000J-000472D01*
G01*
X0445079Y0321417D01*
G75*
G02*
X0444606Y0320945I-000472J0000000D01*
G01*
X0436890Y0320945D01*
G75*
G02*
X0436417Y0321417I0000000J0000472D01*
G01*
G37*
D10*
X0434626Y0239350D03*
X0434626Y0235610D03*
X0434626Y0231870D03*
X0400374Y0235807D03*
X0400374Y0239350D03*
G36*
G01*
X0367717Y0402756D02*
X0367717Y0406535D01*
G75*
G02*
X0368189Y0407008I0000472J0000000D01*
G01*
X0375906Y0407008D01*
G75*
G02*
X0376378Y0406535I0000000J-000472D01*
G01*
X0376378Y0402756D01*
G75*
G02*
X0375906Y0402283I-000472J0000000D01*
G01*
X0368189Y0402283D01*
G75*
G02*
X0367717Y0402756I0000000J0000472D01*
G01*
G37*
D16*
X0396850Y0395669D03*
G36*
G01*
X0367717Y0384803D02*
X0367717Y0388583D01*
G75*
G02*
X0368189Y0389055I0000472J0000000D01*
G01*
X0375906Y0389055D01*
G75*
G02*
X0376378Y0388583I0000000J-000472D01*
G01*
X0376378Y0384803D01*
G75*
G02*
X0375906Y0384331I-000472J0000000D01*
G01*
X0368189Y0384331D01*
G75*
G02*
X0367717Y0384803I0000000J0000472D01*
G01*
G37*
G36*
G01*
X0367717Y0339370D02*
X0367717Y0343150D01*
G75*
G02*
X0368189Y0343622I0000472J0000000D01*
G01*
X0375906Y0343622D01*
G75*
G02*
X0376378Y0343150I0000000J-000472D01*
G01*
X0376378Y0339370D01*
G75*
G02*
X0375906Y0338898I-000472J0000000D01*
G01*
X0368189Y0338898D01*
G75*
G02*
X0367717Y0339370I0000000J0000472D01*
G01*
G37*
X0396850Y0332283D03*
G36*
G01*
X0367717Y0321417D02*
X0367717Y0325197D01*
G75*
G02*
X0368189Y0325669I0000472J0000000D01*
G01*
X0375906Y0325669D01*
G75*
G02*
X0376378Y0325197I0000000J-000472D01*
G01*
X0376378Y0321417D01*
G75*
G02*
X0375906Y0320945I-000472J0000000D01*
G01*
X0368189Y0320945D01*
G75*
G02*
X0367717Y0321417I0000000J0000472D01*
G01*
G37*
G36*
G01*
X0483169Y0390789D02*
X0483169Y0393860D01*
G75*
G02*
X0483445Y0394135I0000276J0000000D01*
G01*
X0485650Y0394135D01*
G75*
G02*
X0485925Y0393860I0000000J-000276D01*
G01*
X0485925Y0390789D01*
G75*
G02*
X0485650Y0390513I-000276J0000000D01*
G01*
X0483445Y0390513D01*
G75*
G02*
X0483169Y0390789I0000000J0000276D01*
G01*
G37*
G36*
G01*
X0489469Y0390789D02*
X0489469Y0393860D01*
G75*
G02*
X0489744Y0394135I0000276J0000000D01*
G01*
X0491949Y0394135D01*
G75*
G02*
X0492224Y0393860I0000000J-000276D01*
G01*
X0492224Y0390789D01*
G75*
G02*
X0491949Y0390513I-000276J0000000D01*
G01*
X0489744Y0390513D01*
G75*
G02*
X0489469Y0390789I0000000J0000276D01*
G01*
G37*
D10*
X0434626Y0221437D03*
X0434626Y0217697D03*
X0434626Y0213957D03*
X0400374Y0217894D03*
X0400374Y0221437D03*
G36*
G01*
X0436417Y0402756D02*
X0436417Y0406535D01*
G75*
G02*
X0436890Y0407008I0000472J0000000D01*
G01*
X0444606Y0407008D01*
G75*
G02*
X0445079Y0406535I0000000J-000472D01*
G01*
X0445079Y0402756D01*
G75*
G02*
X0444606Y0402283I-000472J0000000D01*
G01*
X0436890Y0402283D01*
G75*
G02*
X0436417Y0402756I0000000J0000472D01*
G01*
G37*
D16*
X0465551Y0395669D03*
G36*
G01*
X0436417Y0384803D02*
X0436417Y0388583D01*
G75*
G02*
X0436890Y0389055I0000472J0000000D01*
G01*
X0444606Y0389055D01*
G75*
G02*
X0445079Y0388583I0000000J-000472D01*
G01*
X0445079Y0384803D01*
G75*
G02*
X0444606Y0384331I-000472J0000000D01*
G01*
X0436890Y0384331D01*
G75*
G02*
X0436417Y0384803I0000000J0000472D01*
G01*
G37*
G36*
G01*
X0436417Y0307677D02*
X0436417Y0311457D01*
G75*
G02*
X0436890Y0311929I0000472J0000000D01*
G01*
X0444606Y0311929D01*
G75*
G02*
X0445079Y0311457I0000000J-000472D01*
G01*
X0445079Y0307677D01*
G75*
G02*
X0444606Y0307205I-000472J0000000D01*
G01*
X0436890Y0307205D01*
G75*
G02*
X0436417Y0307677I0000000J0000472D01*
G01*
G37*
X0465551Y0300591D03*
G36*
G01*
X0436417Y0289724D02*
X0436417Y0293504D01*
G75*
G02*
X0436890Y0293976I0000472J0000000D01*
G01*
X0444606Y0293976D01*
G75*
G02*
X0445079Y0293504I0000000J-000472D01*
G01*
X0445079Y0289724D01*
G75*
G02*
X0444606Y0289252I-000472J0000000D01*
G01*
X0436890Y0289252D01*
G75*
G02*
X0436417Y0289724I0000000J0000472D01*
G01*
G37*
G36*
G01*
X0483169Y0383115D02*
X0483169Y0386186D01*
G75*
G02*
X0483445Y0386462I0000276J0000000D01*
G01*
X0485650Y0386462D01*
G75*
G02*
X0485925Y0386186I0000000J-000276D01*
G01*
X0485925Y0383115D01*
G75*
G02*
X0485650Y0382840I-000276J0000000D01*
G01*
X0483445Y0382840D01*
G75*
G02*
X0483169Y0383115I0000000J0000276D01*
G01*
G37*
G36*
G01*
X0489469Y0383115D02*
X0489469Y0386186D01*
G75*
G02*
X0489744Y0386462I0000276J0000000D01*
G01*
X0491949Y0386462D01*
G75*
G02*
X0492224Y0386186I0000000J-000276D01*
G01*
X0492224Y0383115D01*
G75*
G02*
X0491949Y0382840I-000276J0000000D01*
G01*
X0489744Y0382840D01*
G75*
G02*
X0489469Y0383115I0000000J0000276D01*
G01*
G37*
G36*
G01*
X0414469Y0398462D02*
X0414469Y0401533D01*
G75*
G02*
X0414744Y0401808I0000276J0000000D01*
G01*
X0416949Y0401808D01*
G75*
G02*
X0417224Y0401533I0000000J-000276D01*
G01*
X0417224Y0398462D01*
G75*
G02*
X0416949Y0398186I-000276J0000000D01*
G01*
X0414744Y0398186D01*
G75*
G02*
X0414469Y0398462I0000000J0000276D01*
G01*
G37*
G36*
G01*
X0420768Y0398462D02*
X0420768Y0401533D01*
G75*
G02*
X0421043Y0401808I0000276J0000000D01*
G01*
X0423248Y0401808D01*
G75*
G02*
X0423524Y0401533I0000000J-000276D01*
G01*
X0423524Y0398462D01*
G75*
G02*
X0423248Y0398186I-000276J0000000D01*
G01*
X0421043Y0398186D01*
G75*
G02*
X0420768Y0398462I0000000J0000276D01*
G01*
G37*
G36*
G01*
X0366634Y0210072D02*
X0366634Y0213143D01*
G75*
G02*
X0366909Y0213419I0000276J0000000D01*
G01*
X0369114Y0213419D01*
G75*
G02*
X0369390Y0213143I0000000J-000276D01*
G01*
X0369390Y0210072D01*
G75*
G02*
X0369114Y0209797I-000276J0000000D01*
G01*
X0366909Y0209797D01*
G75*
G02*
X0366634Y0210072I0000000J0000276D01*
G01*
G37*
G36*
G01*
X0372933Y0210072D02*
X0372933Y0213143D01*
G75*
G02*
X0373209Y0213419I0000276J0000000D01*
G01*
X0375413Y0213419D01*
G75*
G02*
X0375689Y0213143I0000000J-000276D01*
G01*
X0375689Y0210072D01*
G75*
G02*
X0375413Y0209797I-000276J0000000D01*
G01*
X0373209Y0209797D01*
G75*
G02*
X0372933Y0210072I0000000J0000276D01*
G01*
G37*
G36*
G01*
X0414469Y0406135D02*
X0414469Y0409206D01*
G75*
G02*
X0414744Y0409482I0000276J0000000D01*
G01*
X0416949Y0409482D01*
G75*
G02*
X0417224Y0409206I0000000J-000276D01*
G01*
X0417224Y0406135D01*
G75*
G02*
X0416949Y0405860I-000276J0000000D01*
G01*
X0414744Y0405860D01*
G75*
G02*
X0414469Y0406135I0000000J0000276D01*
G01*
G37*
G36*
G01*
X0420768Y0406135D02*
X0420768Y0409206D01*
G75*
G02*
X0421043Y0409482I0000276J0000000D01*
G01*
X0423248Y0409482D01*
G75*
G02*
X0423524Y0409206I0000000J-000276D01*
G01*
X0423524Y0406135D01*
G75*
G02*
X0423248Y0405860I-000276J0000000D01*
G01*
X0421043Y0405860D01*
G75*
G02*
X0420768Y0406135I0000000J0000276D01*
G01*
G37*
D33*
X0370807Y0233878D03*
G36*
G01*
X0376102Y0230335D02*
X0373386Y0230335D01*
G75*
G02*
X0372480Y0231240I0000000J0000906D01*
G01*
X0372480Y0236516D01*
G75*
G02*
X0373386Y0237421I0000906J0000000D01*
G01*
X0376102Y0237421D01*
G75*
G02*
X0377008Y0236516I0000000J-000906D01*
G01*
X0377008Y0231240D01*
G75*
G02*
X0376102Y0230335I-000906J0000000D01*
G01*
G37*
G36*
G01*
X0387520Y0230335D02*
X0384803Y0230335D01*
G75*
G02*
X0383898Y0231240I0000000J0000906D01*
G01*
X0383898Y0236516D01*
G75*
G02*
X0384803Y0237421I0000906J0000000D01*
G01*
X0387520Y0237421D01*
G75*
G02*
X0388425Y0236516I0000000J-000906D01*
G01*
X0388425Y0231240D01*
G75*
G02*
X0387520Y0230335I-000906J0000000D01*
G01*
G37*
X0390098Y0233878D03*
D63*
X0087402Y0407874D03*
X0087402Y0227756D03*
X0087402Y0043307D03*
D52*
X0022638Y0428346D03*
X0022638Y0415748D03*
X0022638Y0403150D03*
X0022638Y0390551D03*
X0022638Y0377953D03*
X0022638Y0365354D03*
X0022638Y0352756D03*
X0042323Y0429528D03*
X0036417Y0420866D03*
X0042323Y0412205D03*
X0036417Y0403543D03*
X0042323Y0394882D03*
X0036417Y0386220D03*
X0042323Y0377559D03*
X0036417Y0368898D03*
X0042323Y0360236D03*
X0036417Y0351575D03*
X0054134Y0429528D03*
X0048228Y0420866D03*
X0054134Y0412205D03*
X0048228Y0403543D03*
X0054134Y0394882D03*
X0048228Y0386220D03*
X0054134Y0360236D03*
X0048228Y0351575D03*
X0065945Y0429528D03*
X0060039Y0420866D03*
X0065945Y0394882D03*
X0060039Y0386220D03*
X0065945Y0360236D03*
X0060039Y0351575D03*
X0022638Y0316929D03*
X0022638Y0304331D03*
X0022638Y0291732D03*
X0022638Y0279134D03*
X0023031Y0253937D03*
X0023031Y0241339D03*
X0036417Y0318110D03*
X0042323Y0309449D03*
X0036417Y0300787D03*
X0042323Y0292126D03*
X0036417Y0283465D03*
X0042323Y0274803D03*
X0036417Y0266142D03*
X0042323Y0257480D03*
X0036417Y0248819D03*
X0042323Y0240157D03*
X0054134Y0326772D03*
X0048622Y0318110D03*
X0054134Y0309449D03*
X0048228Y0300787D03*
X0054134Y0292126D03*
X0048228Y0283465D03*
X0054134Y0274803D03*
X0048228Y0266142D03*
X0054134Y0257480D03*
X0048228Y0248819D03*
X0054134Y0240157D03*
X0065945Y0326772D03*
X0060039Y0318110D03*
X0065945Y0309449D03*
X0065945Y0274803D03*
X0060039Y0266142D03*
X0065945Y0257480D03*
X0060039Y0248819D03*
X0065945Y0240157D03*
X0022638Y0214173D03*
X0022638Y0201575D03*
X0022638Y0176378D03*
X0022638Y0163780D03*
X0022638Y0151181D03*
X0022638Y0138583D03*
X0022638Y0125984D03*
X0041929Y0215354D03*
X0036417Y0206693D03*
X0042323Y0198031D03*
X0036417Y0189370D03*
X0042323Y0180709D03*
X0036417Y0172047D03*
X0042323Y0163386D03*
X0036417Y0154724D03*
X0042323Y0146063D03*
X0036417Y0137402D03*
X0042323Y0128740D03*
X0036417Y0120079D03*
X0054134Y0215354D03*
X0048228Y0206693D03*
X0054134Y0198031D03*
X0048228Y0189370D03*
X0054134Y0163386D03*
X0048228Y0154724D03*
X0054134Y0128740D03*
X0048228Y0120079D03*
X0065945Y0215354D03*
X0060039Y0206693D03*
X0065945Y0198031D03*
X0060039Y0189370D03*
X0065945Y0163386D03*
X0060039Y0154724D03*
X0065945Y0128740D03*
X0060039Y0120079D03*
X0022638Y0094094D03*
X0022638Y0081496D03*
X0022638Y0068898D03*
X0022638Y0056299D03*
X0022638Y0043701D03*
X0022638Y0031102D03*
X0022638Y0018504D03*
X0042323Y0095276D03*
X0036417Y0086614D03*
X0042323Y0077953D03*
X0036417Y0069291D03*
X0042323Y0060630D03*
X0036417Y0051969D03*
X0042323Y0043307D03*
X0036417Y0034646D03*
X0042323Y0025984D03*
X0036417Y0017323D03*
X0054134Y0095276D03*
X0048228Y0086614D03*
X0054134Y0077953D03*
X0048228Y0069291D03*
X0054134Y0060630D03*
X0048228Y0051969D03*
X0054134Y0043307D03*
X0048228Y0034646D03*
X0054134Y0025984D03*
X0048228Y0017323D03*
X0065945Y0095276D03*
X0060039Y0086614D03*
X0065945Y0077953D03*
X0060039Y0069291D03*
X0065945Y0060630D03*
X0065945Y0025984D03*
X0060039Y0017323D03*
G36*
G01*
X0436417Y0371063D02*
X0436417Y0374843D01*
G75*
G02*
X0436890Y0375315I0000472J0000000D01*
G01*
X0444606Y0375315D01*
G75*
G02*
X0445079Y0374843I0000000J-000472D01*
G01*
X0445079Y0371063D01*
G75*
G02*
X0444606Y0370591I-000472J0000000D01*
G01*
X0436890Y0370591D01*
G75*
G02*
X0436417Y0371063I0000000J0000472D01*
G01*
G37*
D16*
X0465551Y0363976D03*
G36*
G01*
X0436417Y0353110D02*
X0436417Y0356890D01*
G75*
G02*
X0436890Y0357362I0000472J0000000D01*
G01*
X0444606Y0357362D01*
G75*
G02*
X0445079Y0356890I0000000J-000472D01*
G01*
X0445079Y0353110D01*
G75*
G02*
X0444606Y0352638I-000472J0000000D01*
G01*
X0436890Y0352638D01*
G75*
G02*
X0436417Y0353110I0000000J0000472D01*
G01*
G37*
D33*
X0370807Y0221594D03*
G36*
G01*
X0376102Y0218051D02*
X0373386Y0218051D01*
G75*
G02*
X0372480Y0218957I0000000J0000906D01*
G01*
X0372480Y0224232D01*
G75*
G02*
X0373386Y0225138I0000906J0000000D01*
G01*
X0376102Y0225138D01*
G75*
G02*
X0377008Y0224232I0000000J-000906D01*
G01*
X0377008Y0218957D01*
G75*
G02*
X0376102Y0218051I-000906J0000000D01*
G01*
G37*
G36*
G01*
X0387520Y0218051D02*
X0384803Y0218051D01*
G75*
G02*
X0383898Y0218957I0000000J0000906D01*
G01*
X0383898Y0224232D01*
G75*
G02*
X0384803Y0225138I0000906J0000000D01*
G01*
X0387520Y0225138D01*
G75*
G02*
X0388425Y0224232I0000000J-000906D01*
G01*
X0388425Y0218957D01*
G75*
G02*
X0387520Y0218051I-000906J0000000D01*
G01*
G37*
X0390098Y0221594D03*
G36*
G01*
X0483169Y0406135D02*
X0483169Y0409206D01*
G75*
G02*
X0483445Y0409482I0000276J0000000D01*
G01*
X0485650Y0409482D01*
G75*
G02*
X0485925Y0409206I0000000J-000276D01*
G01*
X0485925Y0406135D01*
G75*
G02*
X0485650Y0405860I-000276J0000000D01*
G01*
X0483445Y0405860D01*
G75*
G02*
X0483169Y0406135I0000000J0000276D01*
G01*
G37*
G36*
G01*
X0489469Y0406135D02*
X0489469Y0409206D01*
G75*
G02*
X0489744Y0409482I0000276J0000000D01*
G01*
X0491949Y0409482D01*
G75*
G02*
X0492224Y0409206I0000000J-000276D01*
G01*
X0492224Y0406135D01*
G75*
G02*
X0491949Y0405860I-000276J0000000D01*
G01*
X0489744Y0405860D01*
G75*
G02*
X0489469Y0406135I0000000J0000276D01*
G01*
G37*
X0370807Y0270728D03*
G36*
G01*
X0376102Y0267185D02*
X0373386Y0267185D01*
G75*
G02*
X0372480Y0268091I0000000J0000906D01*
G01*
X0372480Y0273366D01*
G75*
G02*
X0373386Y0274272I0000906J0000000D01*
G01*
X0376102Y0274272D01*
G75*
G02*
X0377008Y0273366I0000000J-000906D01*
G01*
X0377008Y0268091D01*
G75*
G02*
X0376102Y0267185I-000906J0000000D01*
G01*
G37*
G36*
G01*
X0387520Y0267185D02*
X0384803Y0267185D01*
G75*
G02*
X0383898Y0268091I0000000J0000906D01*
G01*
X0383898Y0273366D01*
G75*
G02*
X0384803Y0274272I0000906J0000000D01*
G01*
X0387520Y0274272D01*
G75*
G02*
X0388425Y0273366I0000000J-000906D01*
G01*
X0388425Y0268091D01*
G75*
G02*
X0387520Y0267185I-000906J0000000D01*
G01*
G37*
X0390098Y0270728D03*
D34*
X0539764Y0083268D03*
X0539764Y0058071D03*
X0539764Y0050591D03*
X0539764Y0033661D03*
D10*
X0541535Y0024213D03*
X0541535Y0020276D03*
D34*
X0539764Y0009055D03*
X0478740Y0085039D03*
X0478740Y0077756D03*
X0478740Y0058268D03*
X0478740Y0010827D03*
X0147146Y0268012D02*
G01*
G75*
D107*
X0215551Y0419095D02*
D03*
X0217520Y0419095D02*
D03*
X0219488Y0419095D02*
D03*
X0221457Y0419095D02*
D03*
X0223425Y0419095D02*
D03*
X0225394Y0419095D02*
D03*
X0227362Y0419095D02*
D03*
X0229331Y0419095D02*
D03*
X0231299Y0419095D02*
D03*
X0233268Y0419095D02*
D03*
X0235236Y0419095D02*
D03*
X0237205Y0419095D02*
D03*
X0239174Y0419095D02*
D03*
X0241142Y0419095D02*
D03*
X0243111Y0419095D02*
D03*
X0245079Y0419095D02*
D03*
X0247048Y0419095D02*
D03*
X0249016Y0419095D02*
D03*
X0250985Y0419095D02*
D03*
X0252953Y0419095D02*
D03*
X0254922Y0419095D02*
D03*
X0256890Y0419095D02*
D03*
X0258859Y0419095D02*
D03*
X0260827Y0419095D02*
D03*
X0262796Y0419095D02*
D03*
X0264764Y0419095D02*
D03*
X0266733Y0419095D02*
D03*
X0268701Y0419095D02*
D03*
X0270670Y0419095D02*
D03*
X0272638Y0419095D02*
D03*
X0274607Y0419095D02*
D03*
X0276575Y0419095D02*
D03*
X0278544Y0419095D02*
D03*
X0280512Y0419095D02*
D03*
X0282481Y0419095D02*
D03*
X0284449Y0419095D02*
D03*
X0284449Y0335433D02*
D03*
X0282481Y0335433D02*
D03*
X0280512Y0335433D02*
D03*
X0278544Y0335433D02*
D03*
X0276575Y0335433D02*
D03*
X0274607Y0335433D02*
D03*
X0272638Y0335433D02*
D03*
X0270670Y0335433D02*
D03*
X0268701Y0335433D02*
D03*
X0266733Y0335433D02*
D03*
X0264764Y0335433D02*
D03*
X0262796Y0335433D02*
D03*
X0260827Y0335433D02*
D03*
X0258859Y0335433D02*
D03*
X0256890Y0335433D02*
D03*
X0254922Y0335433D02*
D03*
X0252953Y0335433D02*
D03*
X0250985Y0335433D02*
D03*
X0249016Y0335433D02*
D03*
X0247048Y0335433D02*
D03*
X0245079Y0335433D02*
D03*
X0243111Y0335433D02*
D03*
X0241142Y0335433D02*
D03*
X0239174Y0335433D02*
D03*
X0237205Y0335433D02*
D03*
X0235236Y0335433D02*
D03*
X0233268Y0335433D02*
D03*
X0231299Y0335433D02*
D03*
X0229331Y0335433D02*
D03*
X0227362Y0335433D02*
D03*
X0225394Y0335433D02*
D03*
X0223425Y0335433D02*
D03*
X0221457Y0335433D02*
D03*
X0219488Y0335433D02*
D03*
X0217520Y0335433D02*
D03*
X0215551Y0335433D02*
D03*
D108*
X0291831Y0411713D02*
D03*
X0291831Y0409744D02*
D03*
X0291831Y0407776D02*
D03*
X0291831Y0405807D02*
D03*
X0291831Y0403839D02*
D03*
X0291831Y0401870D02*
D03*
X0291831Y0399902D02*
D03*
X0291831Y0397933D02*
D03*
X0291831Y0395965D02*
D03*
X0291831Y0393996D02*
D03*
X0291831Y0392028D02*
D03*
X0291831Y0390059D02*
D03*
X0291831Y0388091D02*
D03*
X0291831Y0386122D02*
D03*
X0291831Y0384154D02*
D03*
X0291831Y0382185D02*
D03*
X0291831Y0380217D02*
D03*
X0291831Y0378248D02*
D03*
X0291831Y0376280D02*
D03*
X0291831Y0374311D02*
D03*
X0291831Y0372343D02*
D03*
X0291831Y0370374D02*
D03*
X0291831Y0368406D02*
D03*
X0291831Y0366437D02*
D03*
X0291831Y0364469D02*
D03*
X0291831Y0362500D02*
D03*
X0291831Y0360532D02*
D03*
X0291831Y0358563D02*
D03*
X0291831Y0356595D02*
D03*
X0291831Y0354626D02*
D03*
X0291831Y0352658D02*
D03*
X0291831Y0350689D02*
D03*
X0291831Y0348721D02*
D03*
X0291831Y0346752D02*
D03*
X0291831Y0344784D02*
D03*
X0291831Y0342815D02*
D03*
X0208170Y0342815D02*
D03*
X0208170Y0344784D02*
D03*
X0208170Y0346752D02*
D03*
X0208170Y0348721D02*
D03*
X0208170Y0350689D02*
D03*
X0208170Y0352658D02*
D03*
X0208170Y0354626D02*
D03*
X0208170Y0356595D02*
D03*
X0208170Y0358563D02*
D03*
X0208170Y0360532D02*
D03*
X0208170Y0362500D02*
D03*
X0208170Y0364469D02*
D03*
X0208170Y0366437D02*
D03*
X0208170Y0368406D02*
D03*
X0208170Y0370374D02*
D03*
X0208170Y0372343D02*
D03*
X0208170Y0374311D02*
D03*
X0208170Y0376280D02*
D03*
X0208170Y0378248D02*
D03*
X0208170Y0380217D02*
D03*
X0208170Y0382185D02*
D03*
X0208170Y0384154D02*
D03*
X0208170Y0386122D02*
D03*
X0208170Y0388091D02*
D03*
X0208170Y0390059D02*
D03*
X0208170Y0392028D02*
D03*
X0208170Y0393996D02*
D03*
X0208170Y0395965D02*
D03*
X0208170Y0397933D02*
D03*
X0208170Y0399902D02*
D03*
X0208170Y0401870D02*
D03*
X0208170Y0403839D02*
D03*
X0208170Y0405807D02*
D03*
X0208170Y0407776D02*
D03*
X0208170Y0409744D02*
D03*
X0208170Y0411713D02*
D03*
D109*
X0308176Y0395524D02*
D03*
X0298924Y0399264D02*
D03*
D109*
X0308176Y0403004D02*
D03*
D110*
X0154626Y0393209D02*
D03*
X0172737Y0393209D02*
D03*
D111*
X0163681Y0393209D02*
D03*
D112*
X0163681Y0417618D02*
D03*
D113*
X0184941Y0369193D02*
D03*
X0191634Y0369193D02*
D03*
X0191634Y0376280D02*
D03*
X0184941Y0376280D02*
D03*
X0184941Y0383366D02*
D03*
X0191634Y0383366D02*
D03*
X0191634Y0390453D02*
D03*
X0184941Y0390453D02*
D03*
X0175099Y0361713D02*
D03*
X0168406Y0361713D02*
D03*
X0191634Y0361713D02*
D03*
X0184941Y0361713D02*
D03*
X0175099Y0354626D02*
D03*
X0168406Y0354626D02*
D03*
X0191634Y0354626D02*
D03*
X0184941Y0354626D02*
D03*
X0175099Y0347540D02*
D03*
X0168406Y0347540D02*
D03*
X0191634Y0347540D02*
D03*
X0184941Y0347540D02*
D03*
X0168406Y0340453D02*
D03*
X0175099Y0340453D02*
D03*
X0191634Y0340453D02*
D03*
X0184941Y0340453D02*
D03*
D114*
X0307577Y0420151D02*
D03*
X0303837Y0420151D02*
D03*
X0300096Y0420151D02*
D03*
X0300096Y0410702D02*
D03*
X0303837Y0410702D02*
D03*
X0307577Y0410702D02*
D03*
D115*
X0197894Y0420453D02*
D03*
X0197894Y0415453D02*
D03*
X0192894Y0420453D02*
D03*
X0192894Y0415453D02*
D03*
X0187894Y0420453D02*
D03*
X0187894Y0415453D02*
D03*
D116*
X0151870Y0275492D02*
D03*
X0151870Y0279429D02*
D03*
X0298327Y0288484D02*
D03*
X0298327Y0284547D02*
D03*
X0194784Y0277067D02*
D03*
X0194784Y0273130D02*
D03*
X0208957Y0277067D02*
D03*
X0208957Y0273130D02*
D03*
X0227855Y0281004D02*
D03*
X0227855Y0277067D02*
D03*
X0227855Y0273130D02*
D03*
X0227855Y0277067D02*
D03*
X0237304Y0277067D02*
D03*
X0237304Y0281004D02*
D03*
X0237304Y0277067D02*
D03*
X0237304Y0273130D02*
D03*
X0260926Y0281004D02*
D03*
X0260926Y0277067D02*
D03*
X0284548Y0277067D02*
D03*
X0284548Y0281004D02*
D03*
X0284548Y0277067D02*
D03*
X0284548Y0273130D02*
D03*
X0201182Y0390847D02*
D03*
X0201182Y0394784D02*
D03*
X0289272Y0280610D02*
D03*
X0289272Y0284547D02*
D03*
X0151870Y0296162D02*
D03*
X0151870Y0292225D02*
D03*
X0163288Y0332185D02*
D03*
X0163288Y0336122D02*
D03*
X0307776Y0284547D02*
D03*
X0307776Y0288484D02*
D03*
X0303051Y0284547D02*
D03*
X0303051Y0288484D02*
D03*
X0293603Y0284547D02*
D03*
X0293603Y0288484D02*
D03*
X0156989Y0277067D02*
D03*
X0156989Y0281004D02*
D03*
X0161713Y0277067D02*
D03*
X0161713Y0281004D02*
D03*
X0166437Y0277067D02*
D03*
X0166437Y0281004D02*
D03*
X0171162Y0277067D02*
D03*
X0171162Y0281004D02*
D03*
X0156989Y0277067D02*
D03*
X0156989Y0273130D02*
D03*
X0161713Y0277067D02*
D03*
X0161713Y0273130D02*
D03*
X0166437Y0277067D02*
D03*
X0166437Y0273130D02*
D03*
X0171162Y0277067D02*
D03*
X0171162Y0273130D02*
D03*
X0175886Y0277067D02*
D03*
X0175886Y0281004D02*
D03*
X0180611Y0277067D02*
D03*
X0180611Y0281004D02*
D03*
X0185335Y0277067D02*
D03*
X0185335Y0281004D02*
D03*
X0190177Y0277067D02*
D03*
X0190177Y0281004D02*
D03*
X0175886Y0277067D02*
D03*
X0175886Y0273130D02*
D03*
X0180611Y0277067D02*
D03*
X0180611Y0273130D02*
D03*
X0185335Y0277067D02*
D03*
X0185335Y0273130D02*
D03*
X0190059Y0277067D02*
D03*
X0190059Y0273130D02*
D03*
X0194784Y0277067D02*
D03*
X0194784Y0281004D02*
D03*
X0199508Y0277067D02*
D03*
X0199508Y0281004D02*
D03*
X0204233Y0277067D02*
D03*
X0204233Y0281004D02*
D03*
X0208957Y0277067D02*
D03*
X0208957Y0281004D02*
D03*
X0199508Y0277067D02*
D03*
X0199508Y0273130D02*
D03*
X0204233Y0277067D02*
D03*
X0204233Y0273130D02*
D03*
X0213682Y0281004D02*
D03*
X0213682Y0277067D02*
D03*
X0218406Y0281004D02*
D03*
X0218406Y0277067D02*
D03*
X0223130Y0281004D02*
D03*
X0223130Y0277067D02*
D03*
X0213682Y0273130D02*
D03*
X0213682Y0277067D02*
D03*
X0218406Y0273130D02*
D03*
X0218406Y0277067D02*
D03*
X0223130Y0273130D02*
D03*
X0223130Y0277067D02*
D03*
X0232579Y0277067D02*
D03*
X0232579Y0281004D02*
D03*
X0242028Y0277067D02*
D03*
X0242028Y0281004D02*
D03*
X0246752Y0277067D02*
D03*
X0246752Y0281004D02*
D03*
X0232579Y0277067D02*
D03*
X0232579Y0273130D02*
D03*
X0242028Y0277067D02*
D03*
X0242028Y0273130D02*
D03*
X0246752Y0277067D02*
D03*
X0246752Y0273130D02*
D03*
X0251477Y0281004D02*
D03*
X0251477Y0277067D02*
D03*
X0256201Y0281004D02*
D03*
X0256201Y0277067D02*
D03*
X0265650Y0281004D02*
D03*
X0265650Y0277067D02*
D03*
X0251477Y0273130D02*
D03*
X0251477Y0277067D02*
D03*
X0256201Y0273130D02*
D03*
X0256201Y0277067D02*
D03*
X0260926Y0273130D02*
D03*
X0260926Y0277067D02*
D03*
X0265650Y0273130D02*
D03*
X0265650Y0277067D02*
D03*
X0270374Y0277067D02*
D03*
X0270374Y0281004D02*
D03*
X0275099Y0277067D02*
D03*
X0275099Y0281004D02*
D03*
X0279823Y0277067D02*
D03*
X0279823Y0281004D02*
D03*
X0270374Y0277067D02*
D03*
X0270374Y0273130D02*
D03*
X0275099Y0277067D02*
D03*
X0275099Y0273130D02*
D03*
X0279823Y0277067D02*
D03*
X0279823Y0273130D02*
D03*
X0293603Y0281004D02*
D03*
X0293603Y0277067D02*
D03*
X0298327Y0281004D02*
D03*
X0298327Y0277067D02*
D03*
X0303051Y0281004D02*
D03*
X0303051Y0277067D02*
D03*
X0307776Y0281004D02*
D03*
X0307776Y0277067D02*
D03*
X0293603Y0273130D02*
D03*
X0293603Y0277067D02*
D03*
X0298327Y0273130D02*
D03*
X0298327Y0277067D02*
D03*
X0303051Y0273130D02*
D03*
X0303051Y0277067D02*
D03*
X0307776Y0273130D02*
D03*
X0307776Y0277067D02*
D03*
X0151870Y0287106D02*
D03*
X0151870Y0283169D02*
D03*
X0187303Y0399902D02*
D03*
X0187303Y0403839D02*
D03*
D117*
X0206595Y0293799D02*
D03*
X0206595Y0290059D02*
D03*
X0206595Y0286319D02*
D03*
X0197146Y0286319D02*
D03*
X0197146Y0290059D02*
D03*
X0197146Y0293799D02*
D03*
X0168800Y0293799D02*
D03*
X0168800Y0290059D02*
D03*
X0168800Y0286319D02*
D03*
X0159351Y0286319D02*
D03*
X0159351Y0290059D02*
D03*
X0159351Y0293799D02*
D03*
X0187697Y0293799D02*
D03*
X0187697Y0290059D02*
D03*
X0187697Y0286319D02*
D03*
X0178248Y0286319D02*
D03*
X0178248Y0290059D02*
D03*
X0178248Y0293799D02*
D03*
X0225493Y0293799D02*
D03*
X0225493Y0290059D02*
D03*
X0225493Y0286319D02*
D03*
X0216044Y0286319D02*
D03*
X0216044Y0290059D02*
D03*
X0216044Y0293799D02*
D03*
X0244390Y0293799D02*
D03*
X0244390Y0290059D02*
D03*
X0244390Y0286319D02*
D03*
X0234941Y0286319D02*
D03*
X0234941Y0290059D02*
D03*
X0234941Y0293799D02*
D03*
X0263288Y0293799D02*
D03*
X0263288Y0290059D02*
D03*
X0263288Y0286319D02*
D03*
X0253839Y0286319D02*
D03*
X0253839Y0290059D02*
D03*
X0253839Y0293799D02*
D03*
X0282185Y0293799D02*
D03*
X0282185Y0290059D02*
D03*
X0282185Y0286319D02*
D03*
X0272737Y0286319D02*
D03*
X0272737Y0290059D02*
D03*
X0272737Y0293799D02*
D03*
D118*
X0303839Y0323917D02*
D03*
X0303839Y0341634D02*
D03*
D119*
X0289548Y0273130D02*
D03*
X0151870Y0271162D02*
D03*
D120*
X0158170Y0346654D02*
D03*
X0151083Y0346654D02*
D03*
X0151083Y0336614D02*
D03*
X0158170Y0336614D02*
D03*
X0158170Y0352756D02*
D03*
X0151083Y0352756D02*
D03*
X0151083Y0362796D02*
D03*
X0158170Y0362796D02*
D03*
D121*
X0151083Y0340059D02*
D03*
X0151083Y0343209D02*
D03*
X0158170Y0343209D02*
D03*
X0158170Y0340059D02*
D03*
X0158170Y0356201D02*
D03*
X0158170Y0359351D02*
D03*
X0151083Y0359351D02*
D03*
X0151083Y0356201D02*
D03*
D122*
X0305807Y0389665D02*
D03*
X0305807Y0373130D02*
D03*
X0305807Y0350296D02*
D03*
X0305807Y0366831D02*
D03*
D123*
X0293012Y0323130D02*
D03*
X0290453Y0323130D02*
D03*
X0287894Y0323130D02*
D03*
X0285335Y0323130D02*
D03*
X0282776Y0323130D02*
D03*
X0280217Y0323130D02*
D03*
X0277658Y0323130D02*
D03*
X0293012Y0300689D02*
D03*
X0290453Y0300689D02*
D03*
X0287894Y0300689D02*
D03*
X0285335Y0300689D02*
D03*
X0282776Y0300689D02*
D03*
X0280217Y0300689D02*
D03*
X0277658Y0300689D02*
D03*
X0224508Y0323130D02*
D03*
X0221949Y0323130D02*
D03*
X0219390Y0323130D02*
D03*
X0216831Y0323130D02*
D03*
X0214272Y0323130D02*
D03*
X0211713Y0323130D02*
D03*
X0209154Y0323130D02*
D03*
X0224508Y0300689D02*
D03*
X0221949Y0300689D02*
D03*
X0219390Y0300689D02*
D03*
X0216831Y0300689D02*
D03*
X0214272Y0300689D02*
D03*
X0211713Y0300689D02*
D03*
X0209154Y0300689D02*
D03*
X0247343Y0323130D02*
D03*
X0244784Y0323130D02*
D03*
X0242225Y0323130D02*
D03*
X0239666Y0323130D02*
D03*
X0237107Y0323130D02*
D03*
X0234548Y0323130D02*
D03*
X0231989Y0323130D02*
D03*
X0247343Y0300689D02*
D03*
X0244784Y0300689D02*
D03*
X0242225Y0300689D02*
D03*
X0239666Y0300689D02*
D03*
X0237107Y0300689D02*
D03*
X0234548Y0300689D02*
D03*
X0231989Y0300689D02*
D03*
X0270177Y0323130D02*
D03*
X0267618Y0323130D02*
D03*
X0265059Y0323130D02*
D03*
X0262500Y0323130D02*
D03*
X0259941Y0323130D02*
D03*
X0257382Y0323130D02*
D03*
X0254823Y0323130D02*
D03*
X0270177Y0300689D02*
D03*
X0267618Y0300689D02*
D03*
X0265059Y0300689D02*
D03*
X0262500Y0300689D02*
D03*
X0259941Y0300689D02*
D03*
X0257382Y0300689D02*
D03*
X0254823Y0300689D02*
D03*
D124*
X0202855Y0311713D02*
D03*
X0202855Y0314272D02*
D03*
X0202855Y0316831D02*
D03*
X0202855Y0319390D02*
D03*
X0202855Y0321949D02*
D03*
X0202855Y0324508D02*
D03*
X0202855Y0327067D02*
D03*
X0180414Y0311713D02*
D03*
X0180414Y0314272D02*
D03*
X0180414Y0316831D02*
D03*
X0180414Y0319390D02*
D03*
X0180414Y0321949D02*
D03*
X0180414Y0324508D02*
D03*
X0180414Y0327067D02*
D03*
X0174902Y0311713D02*
D03*
X0174902Y0314272D02*
D03*
X0174902Y0316831D02*
D03*
X0174902Y0319390D02*
D03*
X0174902Y0321949D02*
D03*
X0174902Y0324508D02*
D03*
X0174902Y0327067D02*
D03*
X0152461Y0311713D02*
D03*
X0152461Y0314272D02*
D03*
X0152461Y0316831D02*
D03*
X0152461Y0319390D02*
D03*
X0152461Y0321949D02*
D03*
X0152461Y0324508D02*
D03*
X0152461Y0327067D02*
D03*
D125*
X0185532Y0300099D02*
D03*
X0185532Y0302658D02*
D03*
X0185532Y0305217D02*
D03*
X0178052Y0300099D02*
D03*
X0178052Y0302658D02*
D03*
X0178052Y0305217D02*
D03*
X0165453Y0305217D02*
D03*
X0165453Y0302658D02*
D03*
X0165453Y0300099D02*
D03*
X0172933Y0305217D02*
D03*
X0172933Y0302658D02*
D03*
X0172933Y0300099D02*
D03*
X0160729Y0300099D02*
D03*
X0160729Y0302658D02*
D03*
X0160729Y0305217D02*
D03*
X0153248Y0300099D02*
D03*
X0153248Y0302658D02*
D03*
X0153248Y0305217D02*
D03*
X0190256Y0305217D02*
D03*
X0190256Y0302658D02*
D03*
X0190256Y0300099D02*
D03*
X0197737Y0305217D02*
D03*
X0197737Y0302658D02*
D03*
X0197737Y0300099D02*
D03*
D126*
X0154430Y0384569D02*
D03*
X0154430Y0379569D02*
D03*
X0154430Y0374569D02*
D03*
X0154430Y0369569D02*
D03*
X0173328Y0384569D02*
D03*
X0173328Y0379569D02*
D03*
X0173328Y0374569D02*
D03*
X0173328Y0369569D02*
D03*
D127*
X0306792Y0317028D02*
D03*
X0304233Y0317028D02*
D03*
X0301674Y0317028D02*
D03*
X0306792Y0309547D02*
D03*
X0304233Y0309547D02*
D03*
X0301674Y0309547D02*
D03*
X0306792Y0301673D02*
D03*
X0304233Y0301673D02*
D03*
X0301674Y0301673D02*
D03*
X0306792Y0294193D02*
D03*
X0304233Y0294193D02*
D03*
X0301674Y0294193D02*
D03*
D128*
X0192963Y0400689D02*
D03*
X0192963Y0402658D02*
D03*
X0192963Y0404626D02*
D03*
X0198967Y0404626D02*
D03*
X0198967Y0402658D02*
D03*
X0198967Y0400689D02*
D03*
D129*
X0194981Y0405660D02*
D03*
X0196949Y0405660D02*
D03*
X0196949Y0399656D02*
D03*
X0194981Y0399656D02*
D03*
D130*
X0182087Y0398721D02*
D03*
X0182087Y0405414D02*
D03*
D131*
X0190847Y0333760D02*
D03*
X0186910Y0333760D02*
D03*
D132*
X0202894Y0417953D02*
D03*
X0182894Y0413953D02*
D03*
X0182894Y0421953D02*
D03*
D133*
X0241241Y0329429D02*
D03*
X0288485Y0333760D02*
D03*
X0283367Y0329036D02*
D03*
X0271555Y0329036D02*
D03*
X0260138Y0329036D02*
D03*
X0223918Y0329036D02*
D03*
X0206988Y0330217D02*
D03*
D34*
X0151477Y0421555D02*
D03*
X0481201Y0181004D02*
%LPD*%
G01*
D173*
X0490689Y0209784D03*
X0490689Y0205847D03*
X0490689Y0201910D03*
X0490689Y0197973D03*
X0490689Y0194035D03*
X0490689Y0190098D03*
X0528484Y0190098D03*
X0528484Y0194035D03*
X0528484Y0197973D03*
X0528484Y0201910D03*
X0528484Y0205847D03*
X0528484Y0209784D03*
D174*
X0509587Y0199941D03*
X0189272Y0127067D02*
%LPD*%
G01*
G36*
G01*
X0256880Y0162776D02*
X0255522Y0162776D01*
G75*
G02*
X0254941Y0163356I0000000J0000581D01*
G01*
X0254941Y0164518D01*
G75*
G02*
X0255522Y0165098I0000581J0000000D01*
G01*
X0256880Y0165098D01*
G75*
G02*
X0257461Y0164518I0000000J-000581D01*
G01*
X0257461Y0163356D01*
G75*
G02*
X0256880Y0162776I-000581J0000000D01*
G01*
G37*
G36*
G01*
X0256880Y0166595D02*
X0255522Y0166595D01*
G75*
G02*
X0254941Y0167175I0000000J0000581D01*
G01*
X0254941Y0168337D01*
G75*
G02*
X0255522Y0168917I0000581J0000000D01*
G01*
X0256880Y0168917D01*
G75*
G02*
X0257461Y0168337I0000000J-000581D01*
G01*
X0257461Y0167175D01*
G75*
G02*
X0256880Y0166595I-000581J0000000D01*
G01*
G37*
G36*
G01*
X0198307Y0147352D02*
X0198307Y0148711D01*
G75*
G02*
X0198888Y0149291I0000581J0000000D01*
G01*
X0200050Y0149291D01*
G75*
G02*
X0200630Y0148711I0000000J-000581D01*
G01*
X0200630Y0147352D01*
G75*
G02*
X0200050Y0146772I-000581J0000000D01*
G01*
X0198888Y0146772D01*
G75*
G02*
X0198307Y0147352I0000000J0000581D01*
G01*
G37*
G36*
G01*
X0202126Y0147352D02*
X0202126Y0148711D01*
G75*
G02*
X0202707Y0149291I0000581J0000000D01*
G01*
X0203868Y0149291D01*
G75*
G02*
X0204449Y0148711I0000000J-000581D01*
G01*
X0204449Y0147352D01*
G75*
G02*
X0203868Y0146772I-000581J0000000D01*
G01*
X0202707Y0146772D01*
G75*
G02*
X0202126Y0147352I0000000J0000581D01*
G01*
G37*
G36*
G01*
X0208834Y0162549D02*
X0210852Y0162549D01*
G75*
G02*
X0211713Y0161688I0000000J-000861D01*
G01*
X0211713Y0159966D01*
G75*
G02*
X0210852Y0159104I-000861J0000000D01*
G01*
X0208834Y0159104D01*
G75*
G02*
X0207973Y0159966I0000000J0000861D01*
G01*
X0207973Y0161688D01*
G75*
G02*
X0208834Y0162549I0000861J0000000D01*
G01*
G37*
G36*
G01*
X0208834Y0156348D02*
X0210852Y0156348D01*
G75*
G02*
X0211713Y0155487I0000000J-000861D01*
G01*
X0211713Y0153765D01*
G75*
G02*
X0210852Y0152904I-000861J0000000D01*
G01*
X0208834Y0152904D01*
G75*
G02*
X0207973Y0153765I0000000J0000861D01*
G01*
X0207973Y0155487D01*
G75*
G02*
X0208834Y0156348I0000861J0000000D01*
G01*
G37*
G36*
G01*
X0255325Y0137520D02*
X0256683Y0137520D01*
G75*
G02*
X0257264Y0136939I0000000J-000581D01*
G01*
X0257264Y0135778D01*
G75*
G02*
X0256683Y0135197I-000581J0000000D01*
G01*
X0255325Y0135197D01*
G75*
G02*
X0254744Y0135778I0000000J0000581D01*
G01*
X0254744Y0136939D01*
G75*
G02*
X0255325Y0137520I0000581J0000000D01*
G01*
G37*
G36*
G01*
X0255325Y0133701D02*
X0256683Y0133701D01*
G75*
G02*
X0257264Y0133120I0000000J-000581D01*
G01*
X0257264Y0131959D01*
G75*
G02*
X0256683Y0131378I-000581J0000000D01*
G01*
X0255325Y0131378D01*
G75*
G02*
X0254744Y0131959I0000000J0000581D01*
G01*
X0254744Y0133120D01*
G75*
G02*
X0255325Y0133701I0000581J0000000D01*
G01*
G37*
D176*
X0204134Y0153347D03*
X0204134Y0160827D03*
X0196260Y0157087D03*
G36*
G01*
X0251142Y0137520D02*
X0252500Y0137520D01*
G75*
G02*
X0253081Y0136939I0000000J-000581D01*
G01*
X0253081Y0135778D01*
G75*
G02*
X0252500Y0135197I-000581J0000000D01*
G01*
X0251142Y0135197D01*
G75*
G02*
X0250561Y0135778I0000000J0000581D01*
G01*
X0250561Y0136939D01*
G75*
G02*
X0251142Y0137520I0000581J0000000D01*
G01*
G37*
G36*
G01*
X0251142Y0133701D02*
X0252500Y0133701D01*
G75*
G02*
X0253081Y0133120I0000000J-000581D01*
G01*
X0253081Y0131959D01*
G75*
G02*
X0252500Y0131378I-000581J0000000D01*
G01*
X0251142Y0131378D01*
G75*
G02*
X0250561Y0131959I0000000J0000581D01*
G01*
X0250561Y0133120D01*
G75*
G02*
X0251142Y0133701I0000581J0000000D01*
G01*
G37*
G36*
G01*
X0255522Y0161437D02*
X0256880Y0161437D01*
G75*
G02*
X0257461Y0160856I0000000J-000581D01*
G01*
X0257461Y0159695D01*
G75*
G02*
X0256880Y0159114I-000581J0000000D01*
G01*
X0255522Y0159114D01*
G75*
G02*
X0254941Y0159695I0000000J0000581D01*
G01*
X0254941Y0160856D01*
G75*
G02*
X0255522Y0161437I0000581J0000000D01*
G01*
G37*
G36*
G01*
X0255522Y0157618D02*
X0256880Y0157618D01*
G75*
G02*
X0257461Y0157037I0000000J-000581D01*
G01*
X0257461Y0155876D01*
G75*
G02*
X0256880Y0155295I-000581J0000000D01*
G01*
X0255522Y0155295D01*
G75*
G02*
X0254941Y0155876I0000000J0000581D01*
G01*
X0254941Y0157037D01*
G75*
G02*
X0255522Y0157618I0000581J0000000D01*
G01*
G37*
G36*
G01*
X0251762Y0173701D02*
X0250404Y0173701D01*
G75*
G02*
X0249823Y0174282I0000000J0000581D01*
G01*
X0249823Y0175443D01*
G75*
G02*
X0250404Y0176024I0000581J0000000D01*
G01*
X0251762Y0176024D01*
G75*
G02*
X0252343Y0175443I0000000J-000581D01*
G01*
X0252343Y0174282D01*
G75*
G02*
X0251762Y0173701I-000581J0000000D01*
G01*
G37*
G36*
G01*
X0251762Y0177520D02*
X0250404Y0177520D01*
G75*
G02*
X0249823Y0178100I0000000J0000581D01*
G01*
X0249823Y0179262D01*
G75*
G02*
X0250404Y0179843I0000581J0000000D01*
G01*
X0251762Y0179843D01*
G75*
G02*
X0252343Y0179262I0000000J-000581D01*
G01*
X0252343Y0178100D01*
G75*
G02*
X0251762Y0177520I-000581J0000000D01*
G01*
G37*
G36*
G01*
X0256880Y0146929D02*
X0255522Y0146929D01*
G75*
G02*
X0254941Y0147510I0000000J0000581D01*
G01*
X0254941Y0148671D01*
G75*
G02*
X0255522Y0149252I0000581J0000000D01*
G01*
X0256880Y0149252D01*
G75*
G02*
X0257461Y0148671I0000000J-000581D01*
G01*
X0257461Y0147510D01*
G75*
G02*
X0256880Y0146929I-000581J0000000D01*
G01*
G37*
G36*
G01*
X0256880Y0150748D02*
X0255522Y0150748D01*
G75*
G02*
X0254941Y0151329I0000000J0000581D01*
G01*
X0254941Y0152490D01*
G75*
G02*
X0255522Y0153071I0000581J0000000D01*
G01*
X0256880Y0153071D01*
G75*
G02*
X0257461Y0152490I0000000J-000581D01*
G01*
X0257461Y0151329D01*
G75*
G02*
X0256880Y0150748I-000581J0000000D01*
G01*
G37*
G36*
G01*
X0217116Y0173701D02*
X0215758Y0173701D01*
G75*
G02*
X0215178Y0174282I0000000J0000581D01*
G01*
X0215178Y0175443D01*
G75*
G02*
X0215758Y0176024I0000581J0000000D01*
G01*
X0217116Y0176024D01*
G75*
G02*
X0217697Y0175443I0000000J-000581D01*
G01*
X0217697Y0174282D01*
G75*
G02*
X0217116Y0173701I-000581J0000000D01*
G01*
G37*
G36*
G01*
X0217116Y0177520D02*
X0215758Y0177520D01*
G75*
G02*
X0215178Y0178100I0000000J0000581D01*
G01*
X0215178Y0179262D01*
G75*
G02*
X0215758Y0179843I0000581J0000000D01*
G01*
X0217116Y0179843D01*
G75*
G02*
X0217697Y0179262I0000000J-000581D01*
G01*
X0217697Y0178100D01*
G75*
G02*
X0217116Y0177520I-000581J0000000D01*
G01*
G37*
D177*
X0281555Y0167028D03*
D178*
X0280453Y0138681D03*
X0272579Y0150492D03*
X0264705Y0138681D03*
D179*
X0272579Y0142224D03*
D177*
X0263603Y0167028D03*
G36*
G01*
X0206083Y0147254D02*
X0206083Y0148612D01*
G75*
G02*
X0206664Y0149193I0000581J0000000D01*
G01*
X0207825Y0149193D01*
G75*
G02*
X0208406Y0148612I0000000J-000581D01*
G01*
X0208406Y0147254D01*
G75*
G02*
X0207825Y0146673I-000581J0000000D01*
G01*
X0206664Y0146673D01*
G75*
G02*
X0206083Y0147254I0000000J0000581D01*
G01*
G37*
G36*
G01*
X0209902Y0147254D02*
X0209902Y0148612D01*
G75*
G02*
X0210483Y0149193I0000581J0000000D01*
G01*
X0211644Y0149193D01*
G75*
G02*
X0212225Y0148612I0000000J-000581D01*
G01*
X0212225Y0147254D01*
G75*
G02*
X0211644Y0146673I-000581J0000000D01*
G01*
X0210483Y0146673D01*
G75*
G02*
X0209902Y0147254I0000000J0000581D01*
G01*
G37*
G36*
G01*
X0244587Y0133588D02*
X0244587Y0131570D01*
G75*
G02*
X0243726Y0130709I-000861J0000000D01*
G01*
X0242003Y0130709D01*
G75*
G02*
X0241142Y0131570I0000000J0000861D01*
G01*
X0241142Y0133588D01*
G75*
G02*
X0242003Y0134449I0000861J0000000D01*
G01*
X0243726Y0134449D01*
G75*
G02*
X0244587Y0133588I0000000J-000861D01*
G01*
G37*
G36*
G01*
X0238386Y0133588D02*
X0238386Y0131570D01*
G75*
G02*
X0237525Y0130709I-000861J0000000D01*
G01*
X0235803Y0130709D01*
G75*
G02*
X0234941Y0131570I0000000J0000861D01*
G01*
X0234941Y0133588D01*
G75*
G02*
X0235803Y0134449I0000861J0000000D01*
G01*
X0237525Y0134449D01*
G75*
G02*
X0238386Y0133588I0000000J-000861D01*
G01*
G37*
G36*
G01*
X0246959Y0137520D02*
X0248317Y0137520D01*
G75*
G02*
X0248898Y0136939I0000000J-000581D01*
G01*
X0248898Y0135778D01*
G75*
G02*
X0248317Y0135197I-000581J0000000D01*
G01*
X0246959Y0135197D01*
G75*
G02*
X0246378Y0135778I0000000J0000581D01*
G01*
X0246378Y0136939D01*
G75*
G02*
X0246959Y0137520I0000581J0000000D01*
G01*
G37*
G36*
G01*
X0246959Y0133701D02*
X0248317Y0133701D01*
G75*
G02*
X0248898Y0133120I0000000J-000581D01*
G01*
X0248898Y0131959D01*
G75*
G02*
X0248317Y0131378I-000581J0000000D01*
G01*
X0246959Y0131378D01*
G75*
G02*
X0246378Y0131959I0000000J0000581D01*
G01*
X0246378Y0133120D01*
G75*
G02*
X0246959Y0133701I0000581J0000000D01*
G01*
G37*
G36*
G01*
X0291068Y0132973D02*
X0289051Y0132973D01*
G75*
G02*
X0288189Y0133834I0000000J0000861D01*
G01*
X0288189Y0135556D01*
G75*
G02*
X0289051Y0136417I0000861J0000000D01*
G01*
X0291068Y0136417D01*
G75*
G02*
X0291929Y0135556I0000000J-000861D01*
G01*
X0291929Y0133834D01*
G75*
G02*
X0291068Y0132973I-000861J0000000D01*
G01*
G37*
G36*
G01*
X0291068Y0139173D02*
X0289051Y0139173D01*
G75*
G02*
X0288189Y0140035I0000000J0000861D01*
G01*
X0288189Y0141757D01*
G75*
G02*
X0289051Y0142618I0000861J0000000D01*
G01*
X0291068Y0142618D01*
G75*
G02*
X0291929Y0141757I0000000J-000861D01*
G01*
X0291929Y0140035D01*
G75*
G02*
X0291068Y0139173I-000861J0000000D01*
G01*
G37*
G36*
G01*
X0223229Y0131570D02*
X0223229Y0133588D01*
G75*
G02*
X0224090Y0134449I0000861J0000000D01*
G01*
X0225812Y0134449D01*
G75*
G02*
X0226674Y0133588I0000000J-000861D01*
G01*
X0226674Y0131570D01*
G75*
G02*
X0225812Y0130709I-000861J0000000D01*
G01*
X0224090Y0130709D01*
G75*
G02*
X0223229Y0131570I0000000J0000861D01*
G01*
G37*
G36*
G01*
X0229429Y0131570D02*
X0229429Y0133588D01*
G75*
G02*
X0230291Y0134449I0000861J0000000D01*
G01*
X0232013Y0134449D01*
G75*
G02*
X0232874Y0133588I0000000J-000861D01*
G01*
X0232874Y0131570D01*
G75*
G02*
X0232013Y0130709I-000861J0000000D01*
G01*
X0230291Y0130709D01*
G75*
G02*
X0229429Y0131570I0000000J0000861D01*
G01*
G37*
G36*
G01*
X0218908Y0135748D02*
X0220266Y0135748D01*
G75*
G02*
X0220847Y0135167I0000000J-000581D01*
G01*
X0220847Y0134006D01*
G75*
G02*
X0220266Y0133425I-000581J0000000D01*
G01*
X0218908Y0133425D01*
G75*
G02*
X0218327Y0134006I0000000J0000581D01*
G01*
X0218327Y0135167D01*
G75*
G02*
X0218908Y0135748I0000581J0000000D01*
G01*
G37*
G36*
G01*
X0218908Y0131929D02*
X0220266Y0131929D01*
G75*
G02*
X0220847Y0131348I0000000J-000581D01*
G01*
X0220847Y0130187D01*
G75*
G02*
X0220266Y0129606I-000581J0000000D01*
G01*
X0218908Y0129606D01*
G75*
G02*
X0218327Y0130187I0000000J0000581D01*
G01*
X0218327Y0131348D01*
G75*
G02*
X0218908Y0131929I0000581J0000000D01*
G01*
G37*
G36*
G01*
X0253347Y0148425D02*
X0253347Y0147441D01*
G75*
G02*
X0252855Y0146949I-000492J0000000D01*
G01*
X0247933Y0146949D01*
G75*
G02*
X0247441Y0147441I0000000J0000492D01*
G01*
X0247441Y0148425D01*
G75*
G02*
X0247933Y0148917I0000492J0000000D01*
G01*
X0252855Y0148917D01*
G75*
G02*
X0253347Y0148425I0000000J-000492D01*
G01*
G37*
G36*
G01*
X0253347Y0151575D02*
X0253347Y0150591D01*
G75*
G02*
X0252855Y0150098I-000492J0000000D01*
G01*
X0247933Y0150098D01*
G75*
G02*
X0247441Y0150591I0000000J0000492D01*
G01*
X0247441Y0151575D01*
G75*
G02*
X0247933Y0152067I0000492J0000000D01*
G01*
X0252855Y0152067D01*
G75*
G02*
X0253347Y0151575I0000000J-000492D01*
G01*
G37*
G36*
G01*
X0253347Y0154724D02*
X0253347Y0153740D01*
G75*
G02*
X0252855Y0153248I-000492J0000000D01*
G01*
X0247933Y0153248D01*
G75*
G02*
X0247441Y0153740I0000000J0000492D01*
G01*
X0247441Y0154724D01*
G75*
G02*
X0247933Y0155217I0000492J0000000D01*
G01*
X0252855Y0155217D01*
G75*
G02*
X0253347Y0154724I0000000J-000492D01*
G01*
G37*
G36*
G01*
X0253347Y0157874D02*
X0253347Y0156890D01*
G75*
G02*
X0252855Y0156398I-000492J0000000D01*
G01*
X0247933Y0156398D01*
G75*
G02*
X0247441Y0156890I0000000J0000492D01*
G01*
X0247441Y0157874D01*
G75*
G02*
X0247933Y0158366I0000492J0000000D01*
G01*
X0252855Y0158366D01*
G75*
G02*
X0253347Y0157874I0000000J-000492D01*
G01*
G37*
G36*
G01*
X0253347Y0161024D02*
X0253347Y0160039D01*
G75*
G02*
X0252855Y0159547I-000492J0000000D01*
G01*
X0247933Y0159547D01*
G75*
G02*
X0247441Y0160039I0000000J0000492D01*
G01*
X0247441Y0161024D01*
G75*
G02*
X0247933Y0161516I0000492J0000000D01*
G01*
X0252855Y0161516D01*
G75*
G02*
X0253347Y0161024I0000000J-000492D01*
G01*
G37*
G36*
G01*
X0253347Y0164173D02*
X0253347Y0163189D01*
G75*
G02*
X0252855Y0162697I-000492J0000000D01*
G01*
X0247933Y0162697D01*
G75*
G02*
X0247441Y0163189I0000000J0000492D01*
G01*
X0247441Y0164173D01*
G75*
G02*
X0247933Y0164665I0000492J0000000D01*
G01*
X0252855Y0164665D01*
G75*
G02*
X0253347Y0164173I0000000J-000492D01*
G01*
G37*
G36*
G01*
X0253347Y0167323D02*
X0253347Y0166339D01*
G75*
G02*
X0252855Y0165847I-000492J0000000D01*
G01*
X0247933Y0165847D01*
G75*
G02*
X0247441Y0166339I0000000J0000492D01*
G01*
X0247441Y0167323D01*
G75*
G02*
X0247933Y0167815I0000492J0000000D01*
G01*
X0252855Y0167815D01*
G75*
G02*
X0253347Y0167323I0000000J-000492D01*
G01*
G37*
G36*
G01*
X0253347Y0170473D02*
X0253347Y0169488D01*
G75*
G02*
X0252855Y0168996I-000492J0000000D01*
G01*
X0247933Y0168996D01*
G75*
G02*
X0247441Y0169488I0000000J0000492D01*
G01*
X0247441Y0170473D01*
G75*
G02*
X0247933Y0170965I0000492J0000000D01*
G01*
X0252855Y0170965D01*
G75*
G02*
X0253347Y0170473I0000000J-000492D01*
G01*
G37*
G36*
G01*
X0245965Y0177854D02*
X0245965Y0172933D01*
G75*
G02*
X0245473Y0172441I-000492J0000000D01*
G01*
X0244489Y0172441D01*
G75*
G02*
X0243996Y0172933I0000000J0000492D01*
G01*
X0243996Y0177854D01*
G75*
G02*
X0244489Y0178347I0000492J0000000D01*
G01*
X0245473Y0178347D01*
G75*
G02*
X0245965Y0177854I0000000J-000492D01*
G01*
G37*
G36*
G01*
X0242815Y0177854D02*
X0242815Y0172933D01*
G75*
G02*
X0242323Y0172441I-000492J0000000D01*
G01*
X0241339Y0172441D01*
G75*
G02*
X0240847Y0172933I0000000J0000492D01*
G01*
X0240847Y0177854D01*
G75*
G02*
X0241339Y0178347I0000492J0000000D01*
G01*
X0242323Y0178347D01*
G75*
G02*
X0242815Y0177854I0000000J-000492D01*
G01*
G37*
G36*
G01*
X0239666Y0177854D02*
X0239666Y0172933D01*
G75*
G02*
X0239174Y0172441I-000492J0000000D01*
G01*
X0238189Y0172441D01*
G75*
G02*
X0237697Y0172933I0000000J0000492D01*
G01*
X0237697Y0177854D01*
G75*
G02*
X0238189Y0178347I0000492J0000000D01*
G01*
X0239174Y0178347D01*
G75*
G02*
X0239666Y0177854I0000000J-000492D01*
G01*
G37*
G36*
G01*
X0236516Y0177854D02*
X0236516Y0172933D01*
G75*
G02*
X0236024Y0172441I-000492J0000000D01*
G01*
X0235040Y0172441D01*
G75*
G02*
X0234548Y0172933I0000000J0000492D01*
G01*
X0234548Y0177854D01*
G75*
G02*
X0235040Y0178347I0000492J0000000D01*
G01*
X0236024Y0178347D01*
G75*
G02*
X0236516Y0177854I0000000J-000492D01*
G01*
G37*
G36*
G01*
X0233366Y0177854D02*
X0233366Y0172933D01*
G75*
G02*
X0232874Y0172441I-000492J0000000D01*
G01*
X0231890Y0172441D01*
G75*
G02*
X0231398Y0172933I0000000J0000492D01*
G01*
X0231398Y0177854D01*
G75*
G02*
X0231890Y0178347I0000492J0000000D01*
G01*
X0232874Y0178347D01*
G75*
G02*
X0233366Y0177854I0000000J-000492D01*
G01*
G37*
G36*
G01*
X0230217Y0177854D02*
X0230217Y0172933D01*
G75*
G02*
X0229725Y0172441I-000492J0000000D01*
G01*
X0228741Y0172441D01*
G75*
G02*
X0228248Y0172933I0000000J0000492D01*
G01*
X0228248Y0177854D01*
G75*
G02*
X0228741Y0178347I0000492J0000000D01*
G01*
X0229725Y0178347D01*
G75*
G02*
X0230217Y0177854I0000000J-000492D01*
G01*
G37*
G36*
G01*
X0227067Y0177854D02*
X0227067Y0172933D01*
G75*
G02*
X0226575Y0172441I-000492J0000000D01*
G01*
X0225591Y0172441D01*
G75*
G02*
X0225099Y0172933I0000000J0000492D01*
G01*
X0225099Y0177854D01*
G75*
G02*
X0225591Y0178347I0000492J0000000D01*
G01*
X0226575Y0178347D01*
G75*
G02*
X0227067Y0177854I0000000J-000492D01*
G01*
G37*
G36*
G01*
X0223918Y0177854D02*
X0223918Y0172933D01*
G75*
G02*
X0223426Y0172441I-000492J0000000D01*
G01*
X0222441Y0172441D01*
G75*
G02*
X0221949Y0172933I0000000J0000492D01*
G01*
X0221949Y0177854D01*
G75*
G02*
X0222441Y0178347I0000492J0000000D01*
G01*
X0223426Y0178347D01*
G75*
G02*
X0223918Y0177854I0000000J-000492D01*
G01*
G37*
G36*
G01*
X0220473Y0170473D02*
X0220473Y0169488D01*
G75*
G02*
X0219981Y0168996I-000492J0000000D01*
G01*
X0215059Y0168996D01*
G75*
G02*
X0214567Y0169488I0000000J0000492D01*
G01*
X0214567Y0170473D01*
G75*
G02*
X0215059Y0170965I0000492J0000000D01*
G01*
X0219981Y0170965D01*
G75*
G02*
X0220473Y0170473I0000000J-000492D01*
G01*
G37*
G36*
G01*
X0220473Y0167323D02*
X0220473Y0166339D01*
G75*
G02*
X0219981Y0165847I-000492J0000000D01*
G01*
X0215059Y0165847D01*
G75*
G02*
X0214567Y0166339I0000000J0000492D01*
G01*
X0214567Y0167323D01*
G75*
G02*
X0215059Y0167815I0000492J0000000D01*
G01*
X0219981Y0167815D01*
G75*
G02*
X0220473Y0167323I0000000J-000492D01*
G01*
G37*
G36*
G01*
X0220473Y0164173D02*
X0220473Y0163189D01*
G75*
G02*
X0219981Y0162697I-000492J0000000D01*
G01*
X0215059Y0162697D01*
G75*
G02*
X0214567Y0163189I0000000J0000492D01*
G01*
X0214567Y0164173D01*
G75*
G02*
X0215059Y0164665I0000492J0000000D01*
G01*
X0219981Y0164665D01*
G75*
G02*
X0220473Y0164173I0000000J-000492D01*
G01*
G37*
G36*
G01*
X0220473Y0161024D02*
X0220473Y0160039D01*
G75*
G02*
X0219981Y0159547I-000492J0000000D01*
G01*
X0215059Y0159547D01*
G75*
G02*
X0214567Y0160039I0000000J0000492D01*
G01*
X0214567Y0161024D01*
G75*
G02*
X0215059Y0161516I0000492J0000000D01*
G01*
X0219981Y0161516D01*
G75*
G02*
X0220473Y0161024I0000000J-000492D01*
G01*
G37*
G36*
G01*
X0220473Y0157874D02*
X0220473Y0156890D01*
G75*
G02*
X0219981Y0156398I-000492J0000000D01*
G01*
X0215059Y0156398D01*
G75*
G02*
X0214567Y0156890I0000000J0000492D01*
G01*
X0214567Y0157874D01*
G75*
G02*
X0215059Y0158366I0000492J0000000D01*
G01*
X0219981Y0158366D01*
G75*
G02*
X0220473Y0157874I0000000J-000492D01*
G01*
G37*
G36*
G01*
X0220473Y0154724D02*
X0220473Y0153740D01*
G75*
G02*
X0219981Y0153248I-000492J0000000D01*
G01*
X0215059Y0153248D01*
G75*
G02*
X0214567Y0153740I0000000J0000492D01*
G01*
X0214567Y0154724D01*
G75*
G02*
X0215059Y0155217I0000492J0000000D01*
G01*
X0219981Y0155217D01*
G75*
G02*
X0220473Y0154724I0000000J-000492D01*
G01*
G37*
G36*
G01*
X0220473Y0151575D02*
X0220473Y0150591D01*
G75*
G02*
X0219981Y0150098I-000492J0000000D01*
G01*
X0215059Y0150098D01*
G75*
G02*
X0214567Y0150591I0000000J0000492D01*
G01*
X0214567Y0151575D01*
G75*
G02*
X0215059Y0152067I0000492J0000000D01*
G01*
X0219981Y0152067D01*
G75*
G02*
X0220473Y0151575I0000000J-000492D01*
G01*
G37*
G36*
G01*
X0220473Y0148425D02*
X0220473Y0147441D01*
G75*
G02*
X0219981Y0146949I-000492J0000000D01*
G01*
X0215059Y0146949D01*
G75*
G02*
X0214567Y0147441I0000000J0000492D01*
G01*
X0214567Y0148425D01*
G75*
G02*
X0215059Y0148917I0000492J0000000D01*
G01*
X0219981Y0148917D01*
G75*
G02*
X0220473Y0148425I0000000J-000492D01*
G01*
G37*
G36*
G01*
X0223918Y0144980D02*
X0223918Y0140059D01*
G75*
G02*
X0223426Y0139567I-000492J0000000D01*
G01*
X0222441Y0139567D01*
G75*
G02*
X0221949Y0140059I0000000J0000492D01*
G01*
X0221949Y0144980D01*
G75*
G02*
X0222441Y0145473I0000492J0000000D01*
G01*
X0223426Y0145473D01*
G75*
G02*
X0223918Y0144980I0000000J-000492D01*
G01*
G37*
G36*
G01*
X0227067Y0144980D02*
X0227067Y0140059D01*
G75*
G02*
X0226575Y0139567I-000492J0000000D01*
G01*
X0225591Y0139567D01*
G75*
G02*
X0225099Y0140059I0000000J0000492D01*
G01*
X0225099Y0144980D01*
G75*
G02*
X0225591Y0145473I0000492J0000000D01*
G01*
X0226575Y0145473D01*
G75*
G02*
X0227067Y0144980I0000000J-000492D01*
G01*
G37*
G36*
G01*
X0230217Y0144980D02*
X0230217Y0140059D01*
G75*
G02*
X0229725Y0139567I-000492J0000000D01*
G01*
X0228741Y0139567D01*
G75*
G02*
X0228248Y0140059I0000000J0000492D01*
G01*
X0228248Y0144980D01*
G75*
G02*
X0228741Y0145473I0000492J0000000D01*
G01*
X0229725Y0145473D01*
G75*
G02*
X0230217Y0144980I0000000J-000492D01*
G01*
G37*
G36*
G01*
X0233366Y0144980D02*
X0233366Y0140059D01*
G75*
G02*
X0232874Y0139567I-000492J0000000D01*
G01*
X0231890Y0139567D01*
G75*
G02*
X0231398Y0140059I0000000J0000492D01*
G01*
X0231398Y0144980D01*
G75*
G02*
X0231890Y0145473I0000492J0000000D01*
G01*
X0232874Y0145473D01*
G75*
G02*
X0233366Y0144980I0000000J-000492D01*
G01*
G37*
G36*
G01*
X0236516Y0144980D02*
X0236516Y0140059D01*
G75*
G02*
X0236024Y0139567I-000492J0000000D01*
G01*
X0235040Y0139567D01*
G75*
G02*
X0234548Y0140059I0000000J0000492D01*
G01*
X0234548Y0144980D01*
G75*
G02*
X0235040Y0145473I0000492J0000000D01*
G01*
X0236024Y0145473D01*
G75*
G02*
X0236516Y0144980I0000000J-000492D01*
G01*
G37*
G36*
G01*
X0239666Y0144980D02*
X0239666Y0140059D01*
G75*
G02*
X0239174Y0139567I-000492J0000000D01*
G01*
X0238189Y0139567D01*
G75*
G02*
X0237697Y0140059I0000000J0000492D01*
G01*
X0237697Y0144980D01*
G75*
G02*
X0238189Y0145473I0000492J0000000D01*
G01*
X0239174Y0145473D01*
G75*
G02*
X0239666Y0144980I0000000J-000492D01*
G01*
G37*
G36*
G01*
X0242815Y0144980D02*
X0242815Y0140059D01*
G75*
G02*
X0242323Y0139567I-000492J0000000D01*
G01*
X0241339Y0139567D01*
G75*
G02*
X0240847Y0140059I0000000J0000492D01*
G01*
X0240847Y0144980D01*
G75*
G02*
X0241339Y0145473I0000492J0000000D01*
G01*
X0242323Y0145473D01*
G75*
G02*
X0242815Y0144980I0000000J-000492D01*
G01*
G37*
G36*
G01*
X0245965Y0144980D02*
X0245965Y0140059D01*
G75*
G02*
X0245473Y0139567I-000492J0000000D01*
G01*
X0244489Y0139567D01*
G75*
G02*
X0243996Y0140059I0000000J0000492D01*
G01*
X0243996Y0144980D01*
G75*
G02*
X0244489Y0145473I0000492J0000000D01*
G01*
X0245473Y0145473D01*
G75*
G02*
X0245965Y0144980I0000000J-000492D01*
G01*
G37*
G36*
G01*
X0211339Y0166526D02*
X0211339Y0165167D01*
G75*
G02*
X0210758Y0164587I-000581J0000000D01*
G01*
X0209597Y0164587D01*
G75*
G02*
X0209016Y0165167I0000000J0000581D01*
G01*
X0209016Y0166526D01*
G75*
G02*
X0209597Y0167106I0000581J0000000D01*
G01*
X0210758Y0167106D01*
G75*
G02*
X0211339Y0166526I0000000J-000581D01*
G01*
G37*
G36*
G01*
X0207520Y0166526D02*
X0207520Y0165167D01*
G75*
G02*
X0206939Y0164587I-000581J0000000D01*
G01*
X0205778Y0164587D01*
G75*
G02*
X0205197Y0165167I0000000J0000581D01*
G01*
X0205197Y0166526D01*
G75*
G02*
X0205778Y0167106I0000581J0000000D01*
G01*
X0206939Y0167106D01*
G75*
G02*
X0207520Y0166526I0000000J-000581D01*
G01*
G37*
G36*
G01*
X0218416Y0143130D02*
X0219774Y0143130D01*
G75*
G02*
X0220355Y0142549I0000000J-000581D01*
G01*
X0220355Y0141388D01*
G75*
G02*
X0219774Y0140807I-000581J0000000D01*
G01*
X0218416Y0140807D01*
G75*
G02*
X0217835Y0141388I0000000J0000581D01*
G01*
X0217835Y0142549D01*
G75*
G02*
X0218416Y0143130I0000581J0000000D01*
G01*
G37*
G36*
G01*
X0218416Y0139311D02*
X0219774Y0139311D01*
G75*
G02*
X0220355Y0138730I0000000J-000581D01*
G01*
X0220355Y0137569D01*
G75*
G02*
X0219774Y0136988I-000581J0000000D01*
G01*
X0218416Y0136988D01*
G75*
G02*
X0217835Y0137569I0000000J0000581D01*
G01*
X0217835Y0138730D01*
G75*
G02*
X0218416Y0139311I0000581J0000000D01*
G01*
G37*
G36*
G01*
X0194772Y0165167D02*
X0194772Y0166526D01*
G75*
G02*
X0195353Y0167106I0000581J0000000D01*
G01*
X0196514Y0167106D01*
G75*
G02*
X0197095Y0166526I0000000J-000581D01*
G01*
X0197095Y0165167D01*
G75*
G02*
X0196514Y0164587I-000581J0000000D01*
G01*
X0195353Y0164587D01*
G75*
G02*
X0194772Y0165167I0000000J0000581D01*
G01*
G37*
G36*
G01*
X0198591Y0165167D02*
X0198591Y0166526D01*
G75*
G02*
X0199172Y0167106I0000581J0000000D01*
G01*
X0200333Y0167106D01*
G75*
G02*
X0200914Y0166526I0000000J-000581D01*
G01*
X0200914Y0165167D01*
G75*
G02*
X0200333Y0164587I-000581J0000000D01*
G01*
X0199172Y0164587D01*
G75*
G02*
X0198591Y0165167I0000000J0000581D01*
G01*
G37*
D180*
X0196260Y0170768D03*
X0203741Y0170768D03*
X0200000Y0178642D03*
G36*
G01*
X0255325Y0145000D02*
X0256683Y0145000D01*
G75*
G02*
X0257264Y0144419I0000000J-000581D01*
G01*
X0257264Y0143258D01*
G75*
G02*
X0256683Y0142677I-000581J0000000D01*
G01*
X0255325Y0142677D01*
G75*
G02*
X0254744Y0143258I0000000J0000581D01*
G01*
X0254744Y0144419D01*
G75*
G02*
X0255325Y0145000I0000581J0000000D01*
G01*
G37*
G36*
G01*
X0255325Y0141181D02*
X0256683Y0141181D01*
G75*
G02*
X0257264Y0140600I0000000J-000581D01*
G01*
X0257264Y0139439D01*
G75*
G02*
X0256683Y0138858I-000581J0000000D01*
G01*
X0255325Y0138858D01*
G75*
G02*
X0254744Y0139439I0000000J0000581D01*
G01*
X0254744Y0140600D01*
G75*
G02*
X0255325Y0141181I0000581J0000000D01*
G01*
G37*
G36*
G01*
X0209198Y0180039D02*
X0211216Y0180039D01*
G75*
G02*
X0212077Y0179178I0000000J-000861D01*
G01*
X0212077Y0177456D01*
G75*
G02*
X0211216Y0176595I-000861J0000000D01*
G01*
X0209198Y0176595D01*
G75*
G02*
X0208337Y0177456I0000000J0000861D01*
G01*
X0208337Y0179178D01*
G75*
G02*
X0209198Y0180039I0000861J0000000D01*
G01*
G37*
G36*
G01*
X0209198Y0173839D02*
X0211216Y0173839D01*
G75*
G02*
X0212077Y0172977I0000000J-000861D01*
G01*
X0212077Y0171255D01*
G75*
G02*
X0211216Y0170394I-000861J0000000D01*
G01*
X0209198Y0170394D01*
G75*
G02*
X0208337Y0171255I0000000J0000861D01*
G01*
X0208337Y0172977D01*
G75*
G02*
X0209198Y0173839I0000861J0000000D01*
G01*
G37*
D104*
X0193445Y0137894D03*
X0213445Y0133894D03*
X0213445Y0141894D03*
D101*
X0198445Y0135394D03*
X0198445Y0140394D03*
X0203445Y0135394D03*
X0203445Y0140394D03*
X0208445Y0135394D03*
X0208445Y0140394D03*
D181*
X0282933Y0176772D03*
D182*
X0272933Y0176772D03*
X0262933Y0176772D03*
X0399193Y0247001D02*
G01*
G75*
D192*
X0442500Y0248084D02*
D03*
D193*
X0401752Y0248281D02*
D03*
X0403721Y0248281D02*
D03*
D194*
X0410610Y0260013D02*
D03*
X0406870Y0250761D02*
D03*
D194*
X0403130Y0260013D02*
D03*
D195*
X0418169Y0271627D02*
D03*
X0418169Y0266627D02*
D03*
X0418169Y0261627D02*
D03*
X0418169Y0256627D02*
D03*
X0437067Y0271627D02*
D03*
X0437067Y0266627D02*
D03*
X0437067Y0261627D02*
D03*
X0437067Y0256627D02*
D03*
D196*
X0433878Y0251332D02*
D03*
X0440098Y0251332D02*
D03*
X0425532Y0251332D02*
D03*
X0419311Y0251332D02*
D03*
D197*
X0403720Y0264914D02*
D03*
X0410020Y0264914D02*
D03*
D198*
X0414350Y0248871D02*
D03*
X0430394Y0271410D02*
D03*
X0430689Y0257434D02*
D03*
X0429508Y0252414D02*
D03*
X0426063Y0254481D02*
D03*
X0344587Y0135679D02*
%LPD*%
G01*
D10*
X0402855Y0162844D03*
X0402855Y0158120D03*
X0402855Y0167569D03*
X0402855Y0172293D03*
X0346063Y0146860D03*
X0346063Y0142923D03*
G36*
G01*
X0362028Y0153297D02*
X0362028Y0154754D01*
G75*
G02*
X0362559Y0155285I0000531J0000000D01*
G01*
X0363622Y0155285D01*
G75*
G02*
X0364154Y0154754I0000000J-000531D01*
G01*
X0364154Y0153297D01*
G75*
G02*
X0363622Y0152766I-000531J0000000D01*
G01*
X0362559Y0152766D01*
G75*
G02*
X0362028Y0153297I0000000J0000531D01*
G01*
G37*
G36*
G01*
X0358012Y0153297D02*
X0358012Y0154754D01*
G75*
G02*
X0358544Y0155285I0000531J0000000D01*
G01*
X0359607Y0155285D01*
G75*
G02*
X0360138Y0154754I0000000J-000531D01*
G01*
X0360138Y0153297D01*
G75*
G02*
X0359607Y0152766I-000531J0000000D01*
G01*
X0358544Y0152766D01*
G75*
G02*
X0358012Y0153297I0000000J0000531D01*
G01*
G37*
G36*
G01*
X0385276Y0137608D02*
X0383819Y0137608D01*
G75*
G02*
X0383288Y0138140I0000000J0000531D01*
G01*
X0383288Y0139203D01*
G75*
G02*
X0383819Y0139734I0000531J0000000D01*
G01*
X0385276Y0139734D01*
G75*
G02*
X0385807Y0139203I0000000J-000531D01*
G01*
X0385807Y0138140D01*
G75*
G02*
X0385276Y0137608I-000531J0000000D01*
G01*
G37*
G36*
G01*
X0385276Y0141624D02*
X0383819Y0141624D01*
G75*
G02*
X0383288Y0142155I0000000J0000531D01*
G01*
X0383288Y0143218D01*
G75*
G02*
X0383819Y0143750I0000531J0000000D01*
G01*
X0385276Y0143750D01*
G75*
G02*
X0385807Y0143218I0000000J-000531D01*
G01*
X0385807Y0142155D01*
G75*
G02*
X0385276Y0141624I-000531J0000000D01*
G01*
G37*
G36*
G01*
X0374304Y0169951D02*
X0374304Y0171132D01*
G75*
G02*
X0374894Y0171722I0000591J0000000D01*
G01*
X0381390Y0171722D01*
G75*
G02*
X0381981Y0171132I0000000J-000591D01*
G01*
X0381981Y0169951D01*
G75*
G02*
X0381390Y0169360I-000591J0000000D01*
G01*
X0374894Y0169360D01*
G75*
G02*
X0374304Y0169951I0000000J0000591D01*
G01*
G37*
G36*
G01*
X0374304Y0164951D02*
X0374304Y0166132D01*
G75*
G02*
X0374894Y0166722I0000591J0000000D01*
G01*
X0381390Y0166722D01*
G75*
G02*
X0381981Y0166132I0000000J-000591D01*
G01*
X0381981Y0164951D01*
G75*
G02*
X0381390Y0164360I-000591J0000000D01*
G01*
X0374894Y0164360D01*
G75*
G02*
X0374304Y0164951I0000000J0000591D01*
G01*
G37*
G36*
G01*
X0374304Y0159951D02*
X0374304Y0161132D01*
G75*
G02*
X0374894Y0161722I0000591J0000000D01*
G01*
X0381390Y0161722D01*
G75*
G02*
X0381981Y0161132I0000000J-000591D01*
G01*
X0381981Y0159951D01*
G75*
G02*
X0381390Y0159360I-000591J0000000D01*
G01*
X0374894Y0159360D01*
G75*
G02*
X0374304Y0159951I0000000J0000591D01*
G01*
G37*
G36*
G01*
X0374304Y0154951D02*
X0374304Y0156132D01*
G75*
G02*
X0374894Y0156722I0000591J0000000D01*
G01*
X0381390Y0156722D01*
G75*
G02*
X0381981Y0156132I0000000J-000591D01*
G01*
X0381981Y0154951D01*
G75*
G02*
X0381390Y0154360I-000591J0000000D01*
G01*
X0374894Y0154360D01*
G75*
G02*
X0374304Y0154951I0000000J0000591D01*
G01*
G37*
G36*
G01*
X0393792Y0154951D02*
X0393792Y0156132D01*
G75*
G02*
X0394382Y0156722I0000591J0000000D01*
G01*
X0400878Y0156722D01*
G75*
G02*
X0401469Y0156132I0000000J-000591D01*
G01*
X0401469Y0154951D01*
G75*
G02*
X0400878Y0154360I-000591J0000000D01*
G01*
X0394382Y0154360D01*
G75*
G02*
X0393792Y0154951I0000000J0000591D01*
G01*
G37*
G36*
G01*
X0393792Y0159951D02*
X0393792Y0161132D01*
G75*
G02*
X0394382Y0161722I0000591J0000000D01*
G01*
X0400878Y0161722D01*
G75*
G02*
X0401469Y0161132I0000000J-000591D01*
G01*
X0401469Y0159951D01*
G75*
G02*
X0400878Y0159360I-000591J0000000D01*
G01*
X0394382Y0159360D01*
G75*
G02*
X0393792Y0159951I0000000J0000591D01*
G01*
G37*
G36*
G01*
X0393792Y0164951D02*
X0393792Y0166132D01*
G75*
G02*
X0394382Y0166722I0000591J0000000D01*
G01*
X0400878Y0166722D01*
G75*
G02*
X0401469Y0166132I0000000J-000591D01*
G01*
X0401469Y0164951D01*
G75*
G02*
X0400878Y0164360I-000591J0000000D01*
G01*
X0394382Y0164360D01*
G75*
G02*
X0393792Y0164951I0000000J0000591D01*
G01*
G37*
G36*
G01*
X0393792Y0169951D02*
X0393792Y0171132D01*
G75*
G02*
X0394382Y0171722I0000591J0000000D01*
G01*
X0400878Y0171722D01*
G75*
G02*
X0401469Y0171132I0000000J-000591D01*
G01*
X0401469Y0169951D01*
G75*
G02*
X0400878Y0169360I-000591J0000000D01*
G01*
X0394382Y0169360D01*
G75*
G02*
X0393792Y0169951I0000000J0000591D01*
G01*
G37*
D199*
X0359784Y0170679D03*
X0359784Y0168120D03*
X0359784Y0165561D03*
X0367264Y0165561D03*
X0367264Y0168120D03*
X0367264Y0170679D03*
G36*
G01*
X0375945Y0151591D02*
X0377402Y0151591D01*
G75*
G02*
X0377933Y0151059I0000000J-000531D01*
G01*
X0377933Y0149996D01*
G75*
G02*
X0377402Y0149465I-000531J0000000D01*
G01*
X0375945Y0149465D01*
G75*
G02*
X0375414Y0149996I0000000J0000531D01*
G01*
X0375414Y0151059D01*
G75*
G02*
X0375945Y0151591I0000531J0000000D01*
G01*
G37*
G36*
G01*
X0375945Y0147575D02*
X0377402Y0147575D01*
G75*
G02*
X0377933Y0147044I0000000J-000531D01*
G01*
X0377933Y0145981D01*
G75*
G02*
X0377402Y0145449I-000531J0000000D01*
G01*
X0375945Y0145449D01*
G75*
G02*
X0375414Y0145981I0000000J0000531D01*
G01*
X0375414Y0147044D01*
G75*
G02*
X0375945Y0147575I0000531J0000000D01*
G01*
G37*
G36*
G01*
X0381280Y0145528D02*
X0379941Y0145528D01*
G75*
G02*
X0379390Y0146079I0000000J0000551D01*
G01*
X0379390Y0147181D01*
G75*
G02*
X0379941Y0147733I0000551J0000000D01*
G01*
X0381280Y0147733D01*
G75*
G02*
X0381831Y0147181I0000000J-000551D01*
G01*
X0381831Y0146079D01*
G75*
G02*
X0381280Y0145528I-000551J0000000D01*
G01*
G37*
G36*
G01*
X0381280Y0149307D02*
X0379941Y0149307D01*
G75*
G02*
X0379390Y0149859I0000000J0000551D01*
G01*
X0379390Y0150961D01*
G75*
G02*
X0379941Y0151512I0000551J0000000D01*
G01*
X0381280Y0151512D01*
G75*
G02*
X0381831Y0150961I0000000J-000551D01*
G01*
X0381831Y0149859D01*
G75*
G02*
X0381280Y0149307I-000551J0000000D01*
G01*
G37*
G36*
G01*
X0377402Y0137608D02*
X0375945Y0137608D01*
G75*
G02*
X0375414Y0138140I0000000J0000531D01*
G01*
X0375414Y0139203D01*
G75*
G02*
X0375945Y0139734I0000531J0000000D01*
G01*
X0377402Y0139734D01*
G75*
G02*
X0377933Y0139203I0000000J-000531D01*
G01*
X0377933Y0138140D01*
G75*
G02*
X0377402Y0137608I-000531J0000000D01*
G01*
G37*
G36*
G01*
X0377402Y0141624D02*
X0375945Y0141624D01*
G75*
G02*
X0375414Y0142155I0000000J0000531D01*
G01*
X0375414Y0143218D01*
G75*
G02*
X0375945Y0143750I0000531J0000000D01*
G01*
X0377402Y0143750D01*
G75*
G02*
X0377933Y0143218I0000000J-000531D01*
G01*
X0377933Y0142155D01*
G75*
G02*
X0377402Y0141624I-000531J0000000D01*
G01*
G37*
G36*
G01*
X0388996Y0143671D02*
X0390335Y0143671D01*
G75*
G02*
X0390886Y0143120I0000000J-000551D01*
G01*
X0390886Y0142018D01*
G75*
G02*
X0390335Y0141466I-000551J0000000D01*
G01*
X0388996Y0141466D01*
G75*
G02*
X0388445Y0142018I0000000J0000551D01*
G01*
X0388445Y0143120D01*
G75*
G02*
X0388996Y0143671I0000551J0000000D01*
G01*
G37*
G36*
G01*
X0388996Y0139892D02*
X0390335Y0139892D01*
G75*
G02*
X0390886Y0139340I0000000J-000551D01*
G01*
X0390886Y0138238D01*
G75*
G02*
X0390335Y0137687I-000551J0000000D01*
G01*
X0388996Y0137687D01*
G75*
G02*
X0388445Y0138238I0000000J0000551D01*
G01*
X0388445Y0139340D01*
G75*
G02*
X0388996Y0139892I0000551J0000000D01*
G01*
G37*
G36*
G01*
X0365867Y0147529D02*
X0367205Y0147529D01*
G75*
G02*
X0367756Y0146978I0000000J-000551D01*
G01*
X0367756Y0145876D01*
G75*
G02*
X0367205Y0145325I-000551J0000000D01*
G01*
X0365867Y0145325D01*
G75*
G02*
X0365315Y0145876I0000000J0000551D01*
G01*
X0365315Y0146978D01*
G75*
G02*
X0365867Y0147529I0000551J0000000D01*
G01*
G37*
G36*
G01*
X0365867Y0143750D02*
X0367205Y0143750D01*
G75*
G02*
X0367756Y0143199I0000000J-000551D01*
G01*
X0367756Y0142096D01*
G75*
G02*
X0367205Y0141545I-000551J0000000D01*
G01*
X0365867Y0141545D01*
G75*
G02*
X0365315Y0142096I0000000J0000551D01*
G01*
X0365315Y0143199D01*
G75*
G02*
X0365867Y0143750I0000551J0000000D01*
G01*
G37*
G36*
G01*
X0371634Y0150777D02*
X0371634Y0149321D01*
G75*
G02*
X0371103Y0148789I-000531J0000000D01*
G01*
X0370040Y0148789D01*
G75*
G02*
X0369508Y0149321I0000000J0000531D01*
G01*
X0369508Y0150777D01*
G75*
G02*
X0370040Y0151309I0000531J0000000D01*
G01*
X0371103Y0151309D01*
G75*
G02*
X0371634Y0150777I0000000J-000531D01*
G01*
G37*
G36*
G01*
X0367618Y0150777D02*
X0367618Y0149321D01*
G75*
G02*
X0367087Y0148789I-000531J0000000D01*
G01*
X0366024Y0148789D01*
G75*
G02*
X0365493Y0149321I0000000J0000531D01*
G01*
X0365493Y0150777D01*
G75*
G02*
X0366024Y0151309I0000531J0000000D01*
G01*
X0367087Y0151309D01*
G75*
G02*
X0367618Y0150777I0000000J-000531D01*
G01*
G37*
G36*
G01*
X0402461Y0151506D02*
X0402461Y0150167D01*
G75*
G02*
X0401910Y0149616I-000551J0000000D01*
G01*
X0400807Y0149616D01*
G75*
G02*
X0400256Y0150167I0000000J0000551D01*
G01*
X0400256Y0151506D01*
G75*
G02*
X0400807Y0152057I0000551J0000000D01*
G01*
X0401910Y0152057D01*
G75*
G02*
X0402461Y0151506I0000000J-000551D01*
G01*
G37*
G36*
G01*
X0398681Y0151506D02*
X0398681Y0150167D01*
G75*
G02*
X0398130Y0149616I-000551J0000000D01*
G01*
X0397028Y0149616D01*
G75*
G02*
X0396477Y0150167I0000000J0000551D01*
G01*
X0396477Y0151506D01*
G75*
G02*
X0397028Y0152057I0000551J0000000D01*
G01*
X0398130Y0152057D01*
G75*
G02*
X0398681Y0151506I0000000J-000551D01*
G01*
G37*
G36*
G01*
X0353406Y0157269D02*
X0353406Y0159286D01*
G75*
G02*
X0354267Y0160148I0000861J0000000D01*
G01*
X0355990Y0160148D01*
G75*
G02*
X0356851Y0159286I0000000J-000861D01*
G01*
X0356851Y0157269D01*
G75*
G02*
X0355990Y0156407I-000861J0000000D01*
G01*
X0354267Y0156407D01*
G75*
G02*
X0353406Y0157269I0000000J0000861D01*
G01*
G37*
G36*
G01*
X0347205Y0157269D02*
X0347205Y0159286D01*
G75*
G02*
X0348066Y0160148I0000861J0000000D01*
G01*
X0349789Y0160148D01*
G75*
G02*
X0350650Y0159286I0000000J-000861D01*
G01*
X0350650Y0157269D01*
G75*
G02*
X0349789Y0156407I-000861J0000000D01*
G01*
X0348066Y0156407D01*
G75*
G02*
X0347205Y0157269I0000000J0000861D01*
G01*
G37*
G36*
G01*
X0372185Y0162490D02*
X0370847Y0162490D01*
G75*
G02*
X0370296Y0163041I0000000J0000551D01*
G01*
X0370296Y0164144D01*
G75*
G02*
X0370847Y0164695I0000551J0000000D01*
G01*
X0372185Y0164695D01*
G75*
G02*
X0372737Y0164144I0000000J-000551D01*
G01*
X0372737Y0163041D01*
G75*
G02*
X0372185Y0162490I-000551J0000000D01*
G01*
G37*
G36*
G01*
X0372185Y0166270D02*
X0370847Y0166270D01*
G75*
G02*
X0370296Y0166821I0000000J0000551D01*
G01*
X0370296Y0167923D01*
G75*
G02*
X0370847Y0168474I0000551J0000000D01*
G01*
X0372185Y0168474D01*
G75*
G02*
X0372737Y0167923I0000000J-000551D01*
G01*
X0372737Y0166821D01*
G75*
G02*
X0372185Y0166270I-000551J0000000D01*
G01*
G37*
G36*
G01*
X0354548Y0165344D02*
X0354548Y0163888D01*
G75*
G02*
X0354016Y0163356I-000531J0000000D01*
G01*
X0352953Y0163356D01*
G75*
G02*
X0352422Y0163888I0000000J0000531D01*
G01*
X0352422Y0165344D01*
G75*
G02*
X0352953Y0165876I0000531J0000000D01*
G01*
X0354016Y0165876D01*
G75*
G02*
X0354548Y0165344I0000000J-000531D01*
G01*
G37*
G36*
G01*
X0350532Y0165344D02*
X0350532Y0163888D01*
G75*
G02*
X0350000Y0163356I-000531J0000000D01*
G01*
X0348937Y0163356D01*
G75*
G02*
X0348406Y0163888I0000000J0000531D01*
G01*
X0348406Y0165344D01*
G75*
G02*
X0348937Y0165876I0000531J0000000D01*
G01*
X0350000Y0165876D01*
G75*
G02*
X0350532Y0165344I0000000J-000531D01*
G01*
G37*
G36*
G01*
X0365493Y0153258D02*
X0365493Y0154714D01*
G75*
G02*
X0366024Y0155246I0000531J0000000D01*
G01*
X0367087Y0155246D01*
G75*
G02*
X0367618Y0154714I0000000J-000531D01*
G01*
X0367618Y0153258D01*
G75*
G02*
X0367087Y0152726I-000531J0000000D01*
G01*
X0366024Y0152726D01*
G75*
G02*
X0365493Y0153258I0000000J0000531D01*
G01*
G37*
G36*
G01*
X0369508Y0153258D02*
X0369508Y0154714D01*
G75*
G02*
X0370040Y0155246I0000531J0000000D01*
G01*
X0371103Y0155246D01*
G75*
G02*
X0371634Y0154714I0000000J-000531D01*
G01*
X0371634Y0153258D01*
G75*
G02*
X0371103Y0152726I-000531J0000000D01*
G01*
X0370040Y0152726D01*
G75*
G02*
X0369508Y0153258I0000000J0000531D01*
G01*
G37*
G36*
G01*
X0370630Y0147467D02*
X0372087Y0147467D01*
G75*
G02*
X0372618Y0146936I0000000J-000531D01*
G01*
X0372618Y0145873D01*
G75*
G02*
X0372087Y0145341I-000531J0000000D01*
G01*
X0370630Y0145341D01*
G75*
G02*
X0370099Y0145873I0000000J0000531D01*
G01*
X0370099Y0146936D01*
G75*
G02*
X0370630Y0147467I0000531J0000000D01*
G01*
G37*
G36*
G01*
X0370630Y0143451D02*
X0372087Y0143451D01*
G75*
G02*
X0372618Y0142920I0000000J-000531D01*
G01*
X0372618Y0141857D01*
G75*
G02*
X0372087Y0141326I-000531J0000000D01*
G01*
X0370630Y0141326D01*
G75*
G02*
X0370099Y0141857I0000000J0000531D01*
G01*
X0370099Y0142920D01*
G75*
G02*
X0370630Y0143451I0000531J0000000D01*
G01*
G37*
G36*
G01*
X0353288Y0154065D02*
X0353288Y0152726D01*
G75*
G02*
X0352737Y0152175I-000551J0000000D01*
G01*
X0351634Y0152175D01*
G75*
G02*
X0351083Y0152726I0000000J0000551D01*
G01*
X0351083Y0154065D01*
G75*
G02*
X0351634Y0154616I0000551J0000000D01*
G01*
X0352737Y0154616D01*
G75*
G02*
X0353288Y0154065I0000000J-000551D01*
G01*
G37*
G36*
G01*
X0349508Y0154065D02*
X0349508Y0152726D01*
G75*
G02*
X0348957Y0152175I-000551J0000000D01*
G01*
X0347855Y0152175D01*
G75*
G02*
X0347304Y0152726I0000000J0000551D01*
G01*
X0347304Y0154065D01*
G75*
G02*
X0347855Y0154616I0000551J0000000D01*
G01*
X0348957Y0154616D01*
G75*
G02*
X0349508Y0154065I0000000J-000551D01*
G01*
G37*
G36*
G01*
X0390335Y0145528D02*
X0388996Y0145528D01*
G75*
G02*
X0388445Y0146079I0000000J0000551D01*
G01*
X0388445Y0147181D01*
G75*
G02*
X0388996Y0147733I0000551J0000000D01*
G01*
X0390335Y0147733D01*
G75*
G02*
X0390886Y0147181I0000000J-000551D01*
G01*
X0390886Y0146079D01*
G75*
G02*
X0390335Y0145528I-000551J0000000D01*
G01*
G37*
G36*
G01*
X0390335Y0149307D02*
X0388996Y0149307D01*
G75*
G02*
X0388445Y0149859I0000000J0000551D01*
G01*
X0388445Y0150961D01*
G75*
G02*
X0388996Y0151512I0000551J0000000D01*
G01*
X0390335Y0151512D01*
G75*
G02*
X0390886Y0150961I0000000J-000551D01*
G01*
X0390886Y0149859D01*
G75*
G02*
X0390335Y0149307I-000551J0000000D01*
G01*
G37*
G36*
G01*
X0365315Y0138002D02*
X0365315Y0139459D01*
G75*
G02*
X0365847Y0139990I0000531J0000000D01*
G01*
X0366910Y0139990D01*
G75*
G02*
X0367441Y0139459I0000000J-000531D01*
G01*
X0367441Y0138002D01*
G75*
G02*
X0366910Y0137470I-000531J0000000D01*
G01*
X0365847Y0137470D01*
G75*
G02*
X0365315Y0138002I0000000J0000531D01*
G01*
G37*
G36*
G01*
X0369331Y0138002D02*
X0369331Y0139459D01*
G75*
G02*
X0369863Y0139990I0000531J0000000D01*
G01*
X0370926Y0139990D01*
G75*
G02*
X0371457Y0139459I0000000J-000531D01*
G01*
X0371457Y0138002D01*
G75*
G02*
X0370926Y0137470I-000531J0000000D01*
G01*
X0369863Y0137470D01*
G75*
G02*
X0369331Y0138002I0000000J0000531D01*
G01*
G37*
D200*
X0394574Y0139222D03*
X0397133Y0139222D03*
X0399692Y0139222D03*
X0399692Y0146703D03*
X0397133Y0146703D03*
X0394574Y0146703D03*
G36*
G01*
X0348625Y0148008D02*
X0348625Y0149189D01*
G75*
G02*
X0349216Y0149780I0000591J0000000D01*
G01*
X0353251Y0149780D01*
G75*
G02*
X0353842Y0149189I0000000J-000591D01*
G01*
X0353842Y0148008D01*
G75*
G02*
X0353251Y0147418I-000591J0000000D01*
G01*
X0349216Y0147418D01*
G75*
G02*
X0348625Y0148008I0000000J0000591D01*
G01*
G37*
G36*
G01*
X0348625Y0144268D02*
X0348625Y0145449D01*
G75*
G02*
X0349216Y0146040I0000591J0000000D01*
G01*
X0353251Y0146040D01*
G75*
G02*
X0353842Y0145449I0000000J-000591D01*
G01*
X0353842Y0144268D01*
G75*
G02*
X0353251Y0143677I-000591J0000000D01*
G01*
X0349216Y0143677D01*
G75*
G02*
X0348625Y0144268I0000000J0000591D01*
G01*
G37*
G36*
G01*
X0348625Y0140528D02*
X0348625Y0141709D01*
G75*
G02*
X0349216Y0142299I0000591J0000000D01*
G01*
X0353251Y0142299D01*
G75*
G02*
X0353842Y0141709I0000000J-000591D01*
G01*
X0353842Y0140528D01*
G75*
G02*
X0353251Y0139937I-000591J0000000D01*
G01*
X0349216Y0139937D01*
G75*
G02*
X0348625Y0140528I0000000J0000591D01*
G01*
G37*
G36*
G01*
X0357582Y0140528D02*
X0357582Y0141709D01*
G75*
G02*
X0358172Y0142299I0000591J0000000D01*
G01*
X0362208Y0142299D01*
G75*
G02*
X0362798Y0141709I0000000J-000591D01*
G01*
X0362798Y0140528D01*
G75*
G02*
X0362208Y0139937I-000591J0000000D01*
G01*
X0358172Y0139937D01*
G75*
G02*
X0357582Y0140528I0000000J0000591D01*
G01*
G37*
G36*
G01*
X0357582Y0144268D02*
X0357582Y0145449D01*
G75*
G02*
X0358172Y0146040I0000591J0000000D01*
G01*
X0362208Y0146040D01*
G75*
G02*
X0362798Y0145449I0000000J-000591D01*
G01*
X0362798Y0144268D01*
G75*
G02*
X0362208Y0143677I-000591J0000000D01*
G01*
X0358172Y0143677D01*
G75*
G02*
X0357582Y0144268I0000000J0000591D01*
G01*
G37*
G36*
G01*
X0357582Y0148008D02*
X0357582Y0149189D01*
G75*
G02*
X0358172Y0149780I0000591J0000000D01*
G01*
X0362208Y0149780D01*
G75*
G02*
X0362798Y0149189I0000000J-000591D01*
G01*
X0362798Y0148008D01*
G75*
G02*
X0362208Y0147418I-000591J0000000D01*
G01*
X0358172Y0147418D01*
G75*
G02*
X0357582Y0148008I0000000J0000591D01*
G01*
G37*
G36*
G01*
X0359744Y0159892D02*
X0359744Y0161230D01*
G75*
G02*
X0360296Y0161781I0000551J0000000D01*
G01*
X0361398Y0161781D01*
G75*
G02*
X0361949Y0161230I0000000J-000551D01*
G01*
X0361949Y0159892D01*
G75*
G02*
X0361398Y0159340I-000551J0000000D01*
G01*
X0360296Y0159340D01*
G75*
G02*
X0359744Y0159892I0000000J0000551D01*
G01*
G37*
G36*
G01*
X0363524Y0159892D02*
X0363524Y0161230D01*
G75*
G02*
X0364075Y0161781I0000551J0000000D01*
G01*
X0365178Y0161781D01*
G75*
G02*
X0365729Y0161230I0000000J-000551D01*
G01*
X0365729Y0159892D01*
G75*
G02*
X0365178Y0159340I-000551J0000000D01*
G01*
X0364075Y0159340D01*
G75*
G02*
X0363524Y0159892I0000000J0000551D01*
G01*
G37*
G36*
G01*
X0381280Y0137687D02*
X0379941Y0137687D01*
G75*
G02*
X0379390Y0138238I0000000J0000551D01*
G01*
X0379390Y0139340D01*
G75*
G02*
X0379941Y0139892I0000551J0000000D01*
G01*
X0381280Y0139892D01*
G75*
G02*
X0381831Y0139340I0000000J-000551D01*
G01*
X0381831Y0138238D01*
G75*
G02*
X0381280Y0137687I-000551J0000000D01*
G01*
G37*
G36*
G01*
X0381280Y0141466D02*
X0379941Y0141466D01*
G75*
G02*
X0379390Y0142018I0000000J0000551D01*
G01*
X0379390Y0143120D01*
G75*
G02*
X0379941Y0143671I0000551J0000000D01*
G01*
X0381280Y0143671D01*
G75*
G02*
X0381831Y0143120I0000000J-000551D01*
G01*
X0381831Y0142018D01*
G75*
G02*
X0381280Y0141466I-000551J0000000D01*
G01*
G37*
G36*
G01*
X0385276Y0145449D02*
X0383819Y0145449D01*
G75*
G02*
X0383288Y0145981I0000000J0000531D01*
G01*
X0383288Y0147044D01*
G75*
G02*
X0383819Y0147575I0000531J0000000D01*
G01*
X0385276Y0147575D01*
G75*
G02*
X0385807Y0147044I0000000J-000531D01*
G01*
X0385807Y0145981D01*
G75*
G02*
X0385276Y0145449I-000531J0000000D01*
G01*
G37*
G36*
G01*
X0385276Y0149465D02*
X0383819Y0149465D01*
G75*
G02*
X0383288Y0149996I0000000J0000531D01*
G01*
X0383288Y0151059D01*
G75*
G02*
X0383819Y0151591I0000531J0000000D01*
G01*
X0385276Y0151591D01*
G75*
G02*
X0385807Y0151059I0000000J-000531D01*
G01*
X0385807Y0149996D01*
G75*
G02*
X0385276Y0149465I-000531J0000000D01*
G01*
G37*
X0344587Y0092175D02*
%LPD*%
G01*
D10*
X0402855Y0119340D03*
X0402855Y0114616D03*
X0402855Y0124065D03*
X0402855Y0128789D03*
X0346063Y0103356D03*
X0346063Y0099419D03*
G36*
G01*
X0362028Y0109793D02*
X0362028Y0111250D01*
G75*
G02*
X0362559Y0111781I0000531J0000000D01*
G01*
X0363622Y0111781D01*
G75*
G02*
X0364154Y0111250I0000000J-000531D01*
G01*
X0364154Y0109793D01*
G75*
G02*
X0363622Y0109262I-000531J0000000D01*
G01*
X0362559Y0109262D01*
G75*
G02*
X0362028Y0109793I0000000J0000531D01*
G01*
G37*
G36*
G01*
X0358012Y0109793D02*
X0358012Y0111250D01*
G75*
G02*
X0358544Y0111781I0000531J0000000D01*
G01*
X0359607Y0111781D01*
G75*
G02*
X0360138Y0111250I0000000J-000531D01*
G01*
X0360138Y0109793D01*
G75*
G02*
X0359607Y0109262I-000531J0000000D01*
G01*
X0358544Y0109262D01*
G75*
G02*
X0358012Y0109793I0000000J0000531D01*
G01*
G37*
G36*
G01*
X0385276Y0094104D02*
X0383819Y0094104D01*
G75*
G02*
X0383288Y0094636I0000000J0000531D01*
G01*
X0383288Y0095699D01*
G75*
G02*
X0383819Y0096230I0000531J0000000D01*
G01*
X0385276Y0096230D01*
G75*
G02*
X0385807Y0095699I0000000J-000531D01*
G01*
X0385807Y0094636D01*
G75*
G02*
X0385276Y0094104I-000531J0000000D01*
G01*
G37*
G36*
G01*
X0385276Y0098120D02*
X0383819Y0098120D01*
G75*
G02*
X0383288Y0098651I0000000J0000531D01*
G01*
X0383288Y0099714D01*
G75*
G02*
X0383819Y0100246I0000531J0000000D01*
G01*
X0385276Y0100246D01*
G75*
G02*
X0385807Y0099714I0000000J-000531D01*
G01*
X0385807Y0098651D01*
G75*
G02*
X0385276Y0098120I-000531J0000000D01*
G01*
G37*
G36*
G01*
X0374304Y0126447D02*
X0374304Y0127628D01*
G75*
G02*
X0374894Y0128218I0000591J0000000D01*
G01*
X0381390Y0128218D01*
G75*
G02*
X0381981Y0127628I0000000J-000591D01*
G01*
X0381981Y0126447D01*
G75*
G02*
X0381390Y0125856I-000591J0000000D01*
G01*
X0374894Y0125856D01*
G75*
G02*
X0374304Y0126447I0000000J0000591D01*
G01*
G37*
G36*
G01*
X0374304Y0121447D02*
X0374304Y0122628D01*
G75*
G02*
X0374894Y0123218I0000591J0000000D01*
G01*
X0381390Y0123218D01*
G75*
G02*
X0381981Y0122628I0000000J-000591D01*
G01*
X0381981Y0121447D01*
G75*
G02*
X0381390Y0120856I-000591J0000000D01*
G01*
X0374894Y0120856D01*
G75*
G02*
X0374304Y0121447I0000000J0000591D01*
G01*
G37*
G36*
G01*
X0374304Y0116447D02*
X0374304Y0117628D01*
G75*
G02*
X0374894Y0118218I0000591J0000000D01*
G01*
X0381390Y0118218D01*
G75*
G02*
X0381981Y0117628I0000000J-000591D01*
G01*
X0381981Y0116447D01*
G75*
G02*
X0381390Y0115856I-000591J0000000D01*
G01*
X0374894Y0115856D01*
G75*
G02*
X0374304Y0116447I0000000J0000591D01*
G01*
G37*
G36*
G01*
X0374304Y0111447D02*
X0374304Y0112628D01*
G75*
G02*
X0374894Y0113218I0000591J0000000D01*
G01*
X0381390Y0113218D01*
G75*
G02*
X0381981Y0112628I0000000J-000591D01*
G01*
X0381981Y0111447D01*
G75*
G02*
X0381390Y0110856I-000591J0000000D01*
G01*
X0374894Y0110856D01*
G75*
G02*
X0374304Y0111447I0000000J0000591D01*
G01*
G37*
G36*
G01*
X0393792Y0111447D02*
X0393792Y0112628D01*
G75*
G02*
X0394382Y0113218I0000591J0000000D01*
G01*
X0400878Y0113218D01*
G75*
G02*
X0401469Y0112628I0000000J-000591D01*
G01*
X0401469Y0111447D01*
G75*
G02*
X0400878Y0110856I-000591J0000000D01*
G01*
X0394382Y0110856D01*
G75*
G02*
X0393792Y0111447I0000000J0000591D01*
G01*
G37*
G36*
G01*
X0393792Y0116447D02*
X0393792Y0117628D01*
G75*
G02*
X0394382Y0118218I0000591J0000000D01*
G01*
X0400878Y0118218D01*
G75*
G02*
X0401469Y0117628I0000000J-000591D01*
G01*
X0401469Y0116447D01*
G75*
G02*
X0400878Y0115856I-000591J0000000D01*
G01*
X0394382Y0115856D01*
G75*
G02*
X0393792Y0116447I0000000J0000591D01*
G01*
G37*
G36*
G01*
X0393792Y0121447D02*
X0393792Y0122628D01*
G75*
G02*
X0394382Y0123218I0000591J0000000D01*
G01*
X0400878Y0123218D01*
G75*
G02*
X0401469Y0122628I0000000J-000591D01*
G01*
X0401469Y0121447D01*
G75*
G02*
X0400878Y0120856I-000591J0000000D01*
G01*
X0394382Y0120856D01*
G75*
G02*
X0393792Y0121447I0000000J0000591D01*
G01*
G37*
G36*
G01*
X0393792Y0126447D02*
X0393792Y0127628D01*
G75*
G02*
X0394382Y0128218I0000591J0000000D01*
G01*
X0400878Y0128218D01*
G75*
G02*
X0401469Y0127628I0000000J-000591D01*
G01*
X0401469Y0126447D01*
G75*
G02*
X0400878Y0125856I-000591J0000000D01*
G01*
X0394382Y0125856D01*
G75*
G02*
X0393792Y0126447I0000000J0000591D01*
G01*
G37*
D199*
X0359784Y0127175D03*
X0359784Y0124616D03*
X0359784Y0122057D03*
X0367264Y0122057D03*
X0367264Y0124616D03*
X0367264Y0127175D03*
G36*
G01*
X0375945Y0108087D02*
X0377402Y0108087D01*
G75*
G02*
X0377933Y0107555I0000000J-000531D01*
G01*
X0377933Y0106492D01*
G75*
G02*
X0377402Y0105961I-000531J0000000D01*
G01*
X0375945Y0105961D01*
G75*
G02*
X0375414Y0106492I0000000J0000531D01*
G01*
X0375414Y0107555D01*
G75*
G02*
X0375945Y0108087I0000531J0000000D01*
G01*
G37*
G36*
G01*
X0375945Y0104071D02*
X0377402Y0104071D01*
G75*
G02*
X0377933Y0103540I0000000J-000531D01*
G01*
X0377933Y0102477D01*
G75*
G02*
X0377402Y0101945I-000531J0000000D01*
G01*
X0375945Y0101945D01*
G75*
G02*
X0375414Y0102477I0000000J0000531D01*
G01*
X0375414Y0103540D01*
G75*
G02*
X0375945Y0104071I0000531J0000000D01*
G01*
G37*
G36*
G01*
X0381280Y0102024D02*
X0379941Y0102024D01*
G75*
G02*
X0379390Y0102575I0000000J0000551D01*
G01*
X0379390Y0103677D01*
G75*
G02*
X0379941Y0104229I0000551J0000000D01*
G01*
X0381280Y0104229D01*
G75*
G02*
X0381831Y0103677I0000000J-000551D01*
G01*
X0381831Y0102575D01*
G75*
G02*
X0381280Y0102024I-000551J0000000D01*
G01*
G37*
G36*
G01*
X0381280Y0105803D02*
X0379941Y0105803D01*
G75*
G02*
X0379390Y0106355I0000000J0000551D01*
G01*
X0379390Y0107457D01*
G75*
G02*
X0379941Y0108008I0000551J0000000D01*
G01*
X0381280Y0108008D01*
G75*
G02*
X0381831Y0107457I0000000J-000551D01*
G01*
X0381831Y0106355D01*
G75*
G02*
X0381280Y0105803I-000551J0000000D01*
G01*
G37*
G36*
G01*
X0377402Y0094104D02*
X0375945Y0094104D01*
G75*
G02*
X0375414Y0094636I0000000J0000531D01*
G01*
X0375414Y0095699D01*
G75*
G02*
X0375945Y0096230I0000531J0000000D01*
G01*
X0377402Y0096230D01*
G75*
G02*
X0377933Y0095699I0000000J-000531D01*
G01*
X0377933Y0094636D01*
G75*
G02*
X0377402Y0094104I-000531J0000000D01*
G01*
G37*
G36*
G01*
X0377402Y0098120D02*
X0375945Y0098120D01*
G75*
G02*
X0375414Y0098651I0000000J0000531D01*
G01*
X0375414Y0099714D01*
G75*
G02*
X0375945Y0100246I0000531J0000000D01*
G01*
X0377402Y0100246D01*
G75*
G02*
X0377933Y0099714I0000000J-000531D01*
G01*
X0377933Y0098651D01*
G75*
G02*
X0377402Y0098120I-000531J0000000D01*
G01*
G37*
G36*
G01*
X0388996Y0100167D02*
X0390335Y0100167D01*
G75*
G02*
X0390886Y0099616I0000000J-000551D01*
G01*
X0390886Y0098514D01*
G75*
G02*
X0390335Y0097962I-000551J0000000D01*
G01*
X0388996Y0097962D01*
G75*
G02*
X0388445Y0098514I0000000J0000551D01*
G01*
X0388445Y0099616D01*
G75*
G02*
X0388996Y0100167I0000551J0000000D01*
G01*
G37*
G36*
G01*
X0388996Y0096388D02*
X0390335Y0096388D01*
G75*
G02*
X0390886Y0095836I0000000J-000551D01*
G01*
X0390886Y0094734D01*
G75*
G02*
X0390335Y0094183I-000551J0000000D01*
G01*
X0388996Y0094183D01*
G75*
G02*
X0388445Y0094734I0000000J0000551D01*
G01*
X0388445Y0095836D01*
G75*
G02*
X0388996Y0096388I0000551J0000000D01*
G01*
G37*
G36*
G01*
X0365867Y0104025D02*
X0367205Y0104025D01*
G75*
G02*
X0367756Y0103474I0000000J-000551D01*
G01*
X0367756Y0102372D01*
G75*
G02*
X0367205Y0101821I-000551J0000000D01*
G01*
X0365867Y0101821D01*
G75*
G02*
X0365315Y0102372I0000000J0000551D01*
G01*
X0365315Y0103474D01*
G75*
G02*
X0365867Y0104025I0000551J0000000D01*
G01*
G37*
G36*
G01*
X0365867Y0100246D02*
X0367205Y0100246D01*
G75*
G02*
X0367756Y0099695I0000000J-000551D01*
G01*
X0367756Y0098592D01*
G75*
G02*
X0367205Y0098041I-000551J0000000D01*
G01*
X0365867Y0098041D01*
G75*
G02*
X0365315Y0098592I0000000J0000551D01*
G01*
X0365315Y0099695D01*
G75*
G02*
X0365867Y0100246I0000551J0000000D01*
G01*
G37*
G36*
G01*
X0371634Y0107273D02*
X0371634Y0105817D01*
G75*
G02*
X0371103Y0105285I-000531J0000000D01*
G01*
X0370040Y0105285D01*
G75*
G02*
X0369508Y0105817I0000000J0000531D01*
G01*
X0369508Y0107273D01*
G75*
G02*
X0370040Y0107805I0000531J0000000D01*
G01*
X0371103Y0107805D01*
G75*
G02*
X0371634Y0107273I0000000J-000531D01*
G01*
G37*
G36*
G01*
X0367618Y0107273D02*
X0367618Y0105817D01*
G75*
G02*
X0367087Y0105285I-000531J0000000D01*
G01*
X0366024Y0105285D01*
G75*
G02*
X0365493Y0105817I0000000J0000531D01*
G01*
X0365493Y0107273D01*
G75*
G02*
X0366024Y0107805I0000531J0000000D01*
G01*
X0367087Y0107805D01*
G75*
G02*
X0367618Y0107273I0000000J-000531D01*
G01*
G37*
G36*
G01*
X0402461Y0108002D02*
X0402461Y0106663D01*
G75*
G02*
X0401910Y0106112I-000551J0000000D01*
G01*
X0400807Y0106112D01*
G75*
G02*
X0400256Y0106663I0000000J0000551D01*
G01*
X0400256Y0108002D01*
G75*
G02*
X0400807Y0108553I0000551J0000000D01*
G01*
X0401910Y0108553D01*
G75*
G02*
X0402461Y0108002I0000000J-000551D01*
G01*
G37*
G36*
G01*
X0398681Y0108002D02*
X0398681Y0106663D01*
G75*
G02*
X0398130Y0106112I-000551J0000000D01*
G01*
X0397028Y0106112D01*
G75*
G02*
X0396477Y0106663I0000000J0000551D01*
G01*
X0396477Y0108002D01*
G75*
G02*
X0397028Y0108553I0000551J0000000D01*
G01*
X0398130Y0108553D01*
G75*
G02*
X0398681Y0108002I0000000J-000551D01*
G01*
G37*
G36*
G01*
X0353406Y0113765D02*
X0353406Y0115782D01*
G75*
G02*
X0354267Y0116644I0000861J0000000D01*
G01*
X0355990Y0116644D01*
G75*
G02*
X0356851Y0115782I0000000J-000861D01*
G01*
X0356851Y0113765D01*
G75*
G02*
X0355990Y0112903I-000861J0000000D01*
G01*
X0354267Y0112903D01*
G75*
G02*
X0353406Y0113765I0000000J0000861D01*
G01*
G37*
G36*
G01*
X0347205Y0113765D02*
X0347205Y0115782D01*
G75*
G02*
X0348066Y0116644I0000861J0000000D01*
G01*
X0349789Y0116644D01*
G75*
G02*
X0350650Y0115782I0000000J-000861D01*
G01*
X0350650Y0113765D01*
G75*
G02*
X0349789Y0112903I-000861J0000000D01*
G01*
X0348066Y0112903D01*
G75*
G02*
X0347205Y0113765I0000000J0000861D01*
G01*
G37*
G36*
G01*
X0372185Y0118986D02*
X0370847Y0118986D01*
G75*
G02*
X0370296Y0119537I0000000J0000551D01*
G01*
X0370296Y0120640D01*
G75*
G02*
X0370847Y0121191I0000551J0000000D01*
G01*
X0372185Y0121191D01*
G75*
G02*
X0372737Y0120640I0000000J-000551D01*
G01*
X0372737Y0119537D01*
G75*
G02*
X0372185Y0118986I-000551J0000000D01*
G01*
G37*
G36*
G01*
X0372185Y0122766D02*
X0370847Y0122766D01*
G75*
G02*
X0370296Y0123317I0000000J0000551D01*
G01*
X0370296Y0124419D01*
G75*
G02*
X0370847Y0124970I0000551J0000000D01*
G01*
X0372185Y0124970D01*
G75*
G02*
X0372737Y0124419I0000000J-000551D01*
G01*
X0372737Y0123317D01*
G75*
G02*
X0372185Y0122766I-000551J0000000D01*
G01*
G37*
G36*
G01*
X0354548Y0121840D02*
X0354548Y0120384D01*
G75*
G02*
X0354016Y0119852I-000531J0000000D01*
G01*
X0352953Y0119852D01*
G75*
G02*
X0352422Y0120384I0000000J0000531D01*
G01*
X0352422Y0121840D01*
G75*
G02*
X0352953Y0122372I0000531J0000000D01*
G01*
X0354016Y0122372D01*
G75*
G02*
X0354548Y0121840I0000000J-000531D01*
G01*
G37*
G36*
G01*
X0350532Y0121840D02*
X0350532Y0120384D01*
G75*
G02*
X0350000Y0119852I-000531J0000000D01*
G01*
X0348937Y0119852D01*
G75*
G02*
X0348406Y0120384I0000000J0000531D01*
G01*
X0348406Y0121840D01*
G75*
G02*
X0348937Y0122372I0000531J0000000D01*
G01*
X0350000Y0122372D01*
G75*
G02*
X0350532Y0121840I0000000J-000531D01*
G01*
G37*
G36*
G01*
X0365493Y0109754D02*
X0365493Y0111210D01*
G75*
G02*
X0366024Y0111742I0000531J0000000D01*
G01*
X0367087Y0111742D01*
G75*
G02*
X0367618Y0111210I0000000J-000531D01*
G01*
X0367618Y0109754D01*
G75*
G02*
X0367087Y0109222I-000531J0000000D01*
G01*
X0366024Y0109222D01*
G75*
G02*
X0365493Y0109754I0000000J0000531D01*
G01*
G37*
G36*
G01*
X0369508Y0109754D02*
X0369508Y0111210D01*
G75*
G02*
X0370040Y0111742I0000531J0000000D01*
G01*
X0371103Y0111742D01*
G75*
G02*
X0371634Y0111210I0000000J-000531D01*
G01*
X0371634Y0109754D01*
G75*
G02*
X0371103Y0109222I-000531J0000000D01*
G01*
X0370040Y0109222D01*
G75*
G02*
X0369508Y0109754I0000000J0000531D01*
G01*
G37*
G36*
G01*
X0370630Y0103963D02*
X0372087Y0103963D01*
G75*
G02*
X0372618Y0103432I0000000J-000531D01*
G01*
X0372618Y0102369D01*
G75*
G02*
X0372087Y0101837I-000531J0000000D01*
G01*
X0370630Y0101837D01*
G75*
G02*
X0370099Y0102369I0000000J0000531D01*
G01*
X0370099Y0103432D01*
G75*
G02*
X0370630Y0103963I0000531J0000000D01*
G01*
G37*
G36*
G01*
X0370630Y0099947D02*
X0372087Y0099947D01*
G75*
G02*
X0372618Y0099416I0000000J-000531D01*
G01*
X0372618Y0098353D01*
G75*
G02*
X0372087Y0097822I-000531J0000000D01*
G01*
X0370630Y0097822D01*
G75*
G02*
X0370099Y0098353I0000000J0000531D01*
G01*
X0370099Y0099416D01*
G75*
G02*
X0370630Y0099947I0000531J0000000D01*
G01*
G37*
G36*
G01*
X0353288Y0110561D02*
X0353288Y0109222D01*
G75*
G02*
X0352737Y0108671I-000551J0000000D01*
G01*
X0351634Y0108671D01*
G75*
G02*
X0351083Y0109222I0000000J0000551D01*
G01*
X0351083Y0110561D01*
G75*
G02*
X0351634Y0111112I0000551J0000000D01*
G01*
X0352737Y0111112D01*
G75*
G02*
X0353288Y0110561I0000000J-000551D01*
G01*
G37*
G36*
G01*
X0349508Y0110561D02*
X0349508Y0109222D01*
G75*
G02*
X0348957Y0108671I-000551J0000000D01*
G01*
X0347855Y0108671D01*
G75*
G02*
X0347304Y0109222I0000000J0000551D01*
G01*
X0347304Y0110561D01*
G75*
G02*
X0347855Y0111112I0000551J0000000D01*
G01*
X0348957Y0111112D01*
G75*
G02*
X0349508Y0110561I0000000J-000551D01*
G01*
G37*
G36*
G01*
X0390335Y0102024D02*
X0388996Y0102024D01*
G75*
G02*
X0388445Y0102575I0000000J0000551D01*
G01*
X0388445Y0103677D01*
G75*
G02*
X0388996Y0104229I0000551J0000000D01*
G01*
X0390335Y0104229D01*
G75*
G02*
X0390886Y0103677I0000000J-000551D01*
G01*
X0390886Y0102575D01*
G75*
G02*
X0390335Y0102024I-000551J0000000D01*
G01*
G37*
G36*
G01*
X0390335Y0105803D02*
X0388996Y0105803D01*
G75*
G02*
X0388445Y0106355I0000000J0000551D01*
G01*
X0388445Y0107457D01*
G75*
G02*
X0388996Y0108008I0000551J0000000D01*
G01*
X0390335Y0108008D01*
G75*
G02*
X0390886Y0107457I0000000J-000551D01*
G01*
X0390886Y0106355D01*
G75*
G02*
X0390335Y0105803I-000551J0000000D01*
G01*
G37*
G36*
G01*
X0365315Y0094498D02*
X0365315Y0095955D01*
G75*
G02*
X0365847Y0096486I0000531J0000000D01*
G01*
X0366910Y0096486D01*
G75*
G02*
X0367441Y0095955I0000000J-000531D01*
G01*
X0367441Y0094498D01*
G75*
G02*
X0366910Y0093966I-000531J0000000D01*
G01*
X0365847Y0093966D01*
G75*
G02*
X0365315Y0094498I0000000J0000531D01*
G01*
G37*
G36*
G01*
X0369331Y0094498D02*
X0369331Y0095955D01*
G75*
G02*
X0369863Y0096486I0000531J0000000D01*
G01*
X0370926Y0096486D01*
G75*
G02*
X0371457Y0095955I0000000J-000531D01*
G01*
X0371457Y0094498D01*
G75*
G02*
X0370926Y0093966I-000531J0000000D01*
G01*
X0369863Y0093966D01*
G75*
G02*
X0369331Y0094498I0000000J0000531D01*
G01*
G37*
D200*
X0394574Y0095718D03*
X0397133Y0095718D03*
X0399692Y0095718D03*
X0399692Y0103199D03*
X0397133Y0103199D03*
X0394574Y0103199D03*
G36*
G01*
X0348625Y0104504D02*
X0348625Y0105685D01*
G75*
G02*
X0349216Y0106276I0000591J0000000D01*
G01*
X0353251Y0106276D01*
G75*
G02*
X0353842Y0105685I0000000J-000591D01*
G01*
X0353842Y0104504D01*
G75*
G02*
X0353251Y0103914I-000591J0000000D01*
G01*
X0349216Y0103914D01*
G75*
G02*
X0348625Y0104504I0000000J0000591D01*
G01*
G37*
G36*
G01*
X0348625Y0100764D02*
X0348625Y0101945D01*
G75*
G02*
X0349216Y0102536I0000591J0000000D01*
G01*
X0353251Y0102536D01*
G75*
G02*
X0353842Y0101945I0000000J-000591D01*
G01*
X0353842Y0100764D01*
G75*
G02*
X0353251Y0100173I-000591J0000000D01*
G01*
X0349216Y0100173D01*
G75*
G02*
X0348625Y0100764I0000000J0000591D01*
G01*
G37*
G36*
G01*
X0348625Y0097024D02*
X0348625Y0098205D01*
G75*
G02*
X0349216Y0098795I0000591J0000000D01*
G01*
X0353251Y0098795D01*
G75*
G02*
X0353842Y0098205I0000000J-000591D01*
G01*
X0353842Y0097024D01*
G75*
G02*
X0353251Y0096433I-000591J0000000D01*
G01*
X0349216Y0096433D01*
G75*
G02*
X0348625Y0097024I0000000J0000591D01*
G01*
G37*
G36*
G01*
X0357582Y0097024D02*
X0357582Y0098205D01*
G75*
G02*
X0358172Y0098795I0000591J0000000D01*
G01*
X0362208Y0098795D01*
G75*
G02*
X0362798Y0098205I0000000J-000591D01*
G01*
X0362798Y0097024D01*
G75*
G02*
X0362208Y0096433I-000591J0000000D01*
G01*
X0358172Y0096433D01*
G75*
G02*
X0357582Y0097024I0000000J0000591D01*
G01*
G37*
G36*
G01*
X0357582Y0100764D02*
X0357582Y0101945D01*
G75*
G02*
X0358172Y0102536I0000591J0000000D01*
G01*
X0362208Y0102536D01*
G75*
G02*
X0362798Y0101945I0000000J-000591D01*
G01*
X0362798Y0100764D01*
G75*
G02*
X0362208Y0100173I-000591J0000000D01*
G01*
X0358172Y0100173D01*
G75*
G02*
X0357582Y0100764I0000000J0000591D01*
G01*
G37*
G36*
G01*
X0357582Y0104504D02*
X0357582Y0105685D01*
G75*
G02*
X0358172Y0106276I0000591J0000000D01*
G01*
X0362208Y0106276D01*
G75*
G02*
X0362798Y0105685I0000000J-000591D01*
G01*
X0362798Y0104504D01*
G75*
G02*
X0362208Y0103914I-000591J0000000D01*
G01*
X0358172Y0103914D01*
G75*
G02*
X0357582Y0104504I0000000J0000591D01*
G01*
G37*
G36*
G01*
X0359744Y0116388D02*
X0359744Y0117726D01*
G75*
G02*
X0360296Y0118277I0000551J0000000D01*
G01*
X0361398Y0118277D01*
G75*
G02*
X0361949Y0117726I0000000J-000551D01*
G01*
X0361949Y0116388D01*
G75*
G02*
X0361398Y0115836I-000551J0000000D01*
G01*
X0360296Y0115836D01*
G75*
G02*
X0359744Y0116388I0000000J0000551D01*
G01*
G37*
G36*
G01*
X0363524Y0116388D02*
X0363524Y0117726D01*
G75*
G02*
X0364075Y0118277I0000551J0000000D01*
G01*
X0365178Y0118277D01*
G75*
G02*
X0365729Y0117726I0000000J-000551D01*
G01*
X0365729Y0116388D01*
G75*
G02*
X0365178Y0115836I-000551J0000000D01*
G01*
X0364075Y0115836D01*
G75*
G02*
X0363524Y0116388I0000000J0000551D01*
G01*
G37*
G36*
G01*
X0381280Y0094183D02*
X0379941Y0094183D01*
G75*
G02*
X0379390Y0094734I0000000J0000551D01*
G01*
X0379390Y0095836D01*
G75*
G02*
X0379941Y0096388I0000551J0000000D01*
G01*
X0381280Y0096388D01*
G75*
G02*
X0381831Y0095836I0000000J-000551D01*
G01*
X0381831Y0094734D01*
G75*
G02*
X0381280Y0094183I-000551J0000000D01*
G01*
G37*
G36*
G01*
X0381280Y0097962D02*
X0379941Y0097962D01*
G75*
G02*
X0379390Y0098514I0000000J0000551D01*
G01*
X0379390Y0099616D01*
G75*
G02*
X0379941Y0100167I0000551J0000000D01*
G01*
X0381280Y0100167D01*
G75*
G02*
X0381831Y0099616I0000000J-000551D01*
G01*
X0381831Y0098514D01*
G75*
G02*
X0381280Y0097962I-000551J0000000D01*
G01*
G37*
G36*
G01*
X0385276Y0101945D02*
X0383819Y0101945D01*
G75*
G02*
X0383288Y0102477I0000000J0000531D01*
G01*
X0383288Y0103540D01*
G75*
G02*
X0383819Y0104071I0000531J0000000D01*
G01*
X0385276Y0104071D01*
G75*
G02*
X0385807Y0103540I0000000J-000531D01*
G01*
X0385807Y0102477D01*
G75*
G02*
X0385276Y0101945I-000531J0000000D01*
G01*
G37*
G36*
G01*
X0385276Y0105961D02*
X0383819Y0105961D01*
G75*
G02*
X0383288Y0106492I0000000J0000531D01*
G01*
X0383288Y0107555D01*
G75*
G02*
X0383819Y0108087I0000531J0000000D01*
G01*
X0385276Y0108087D01*
G75*
G02*
X0385807Y0107555I0000000J-000531D01*
G01*
X0385807Y0106492D01*
G75*
G02*
X0385276Y0105961I-000531J0000000D01*
G01*
G37*
X0399193Y0229114D02*
G01*
G75*
D203*
X0413898Y0239338D02*
D03*
X0413898Y0231858D02*
D03*
X0405433Y0231858D02*
D03*
X0405433Y0235598D02*
D03*
X0429547Y0239338D02*
D03*
X0429547Y0231858D02*
D03*
X0421083Y0231858D02*
D03*
X0421083Y0235598D02*
D03*
D203*
X0405433Y0239338D02*
D03*
X0421083Y0239338D02*
D03*
D198*
X0434626Y0239350D02*
D03*
X0434626Y0235610D02*
D03*
X0434626Y0231870D02*
D03*
X0400374Y0235807D02*
D03*
X0400374Y0239350D02*
D03*
X0403937Y0006102D02*
G01*
G75*
D219*
X0449016Y0030469D02*
D03*
X0449016Y0012752D02*
D03*
D220*
X0445689Y0054921D02*
D03*
X0418327Y0054921D02*
D03*
D221*
X0434449Y0031693D02*
D03*
X0418307Y0031693D02*
D03*
D222*
X0436220Y0013582D02*
D03*
X0420472Y0013582D02*
D03*
D223*
X0413281Y0075360D02*
D03*
X0422533Y0071620D02*
D03*
D223*
X0422533Y0079100D02*
D03*
D203*
X0445368Y0085039D02*
D03*
D203*
X0445368Y0081299D02*
D03*
X0445368Y0077559D02*
D03*
X0453832Y0077559D02*
D03*
X0453832Y0085039D02*
D03*
D224*
X0457684Y0071038D02*
D03*
X0444692Y0071038D02*
D03*
D225*
X0439398Y0071326D02*
D03*
X0427980Y0071326D02*
D03*
D196*
X0458583Y0038779D02*
D03*
X0452362Y0038779D02*
D03*
X0447992Y0038779D02*
D03*
X0441772Y0038779D02*
D03*
D226*
X0407906Y0015890D02*
D03*
X0407906Y0020024D02*
D03*
X0458461Y0057764D02*
D03*
X0458461Y0061898D02*
D03*
X0458461Y0053051D02*
D03*
X0458461Y0048917D02*
D03*
X0459353Y0033402D02*
D03*
X0459353Y0029268D02*
D03*
D227*
X0440250Y0077609D02*
D03*
X0440250Y0081546D02*
D03*
X0426575Y0078511D02*
D03*
X0435236Y0078511D02*
D03*
X0426575Y0084908D02*
D03*
X0435236Y0084908D02*
D03*
D211*
X0418202Y0085039D02*
D03*
X0421746Y0085039D02*
D03*
D209*
X0454203Y0061701D02*
D03*
X0454203Y0058157D02*
D03*
X0454203Y0052657D02*
D03*
X0454203Y0049114D02*
D03*
X0459353Y0021101D02*
D03*
X0459353Y0024645D02*
D03*
D198*
X0469685Y0024212D02*
D03*
X0469685Y0020275D02*
D03*
D228*
X0406890Y0077755D02*
D03*
X0406890Y0010826D02*
D03*
X0406890Y0058267D02*
D03*
X0467913Y0058070D02*
D03*
X0467913Y0083267D02*
D03*
X0467913Y0033661D02*
D03*
X0467913Y0050590D02*
D03*
X0467913Y0009055D02*
D03*
X0406890Y0085039D02*
D03*
X0481201Y0136713D02*
%LPD*%
G01*
D173*
X0490689Y0165493D03*
X0490689Y0161556D03*
X0490689Y0157619D03*
X0490689Y0153682D03*
X0490689Y0149744D03*
X0490689Y0145807D03*
X0528484Y0145807D03*
X0528484Y0149744D03*
X0528484Y0153682D03*
X0528484Y0157619D03*
X0528484Y0161556D03*
X0528484Y0165493D03*
D174*
X0509587Y0155650D03*
X0399193Y0211201D02*
G01*
G75*
D203*
X0413898Y0221425D02*
D03*
X0413898Y0213945D02*
D03*
X0405433Y0213945D02*
D03*
X0405433Y0217685D02*
D03*
X0429547Y0221425D02*
D03*
X0429547Y0213945D02*
D03*
X0421083Y0213945D02*
D03*
X0421083Y0217685D02*
D03*
D203*
X0405433Y0221425D02*
D03*
X0421083Y0221425D02*
D03*
D198*
X0434626Y0221437D02*
D03*
X0434626Y0217697D02*
D03*
X0434626Y0213957D02*
D03*
X0400374Y0217894D02*
D03*
X0400374Y0221437D02*
D03*
X0475787Y0006102D02*
G01*
G75*
D219*
X0520866Y0030469D02*
D03*
X0520866Y0012752D02*
D03*
D220*
X0517539Y0054921D02*
D03*
X0490177Y0054921D02*
D03*
D221*
X0506299Y0031693D02*
D03*
X0490157Y0031693D02*
D03*
D222*
X0508070Y0013582D02*
D03*
X0492322Y0013582D02*
D03*
D223*
X0485131Y0075360D02*
D03*
X0494383Y0071620D02*
D03*
D223*
X0494383Y0079100D02*
D03*
D203*
X0517218Y0085039D02*
D03*
D203*
X0517218Y0081299D02*
D03*
X0517218Y0077559D02*
D03*
X0525682Y0077559D02*
D03*
X0525682Y0085039D02*
D03*
D224*
X0529534Y0071038D02*
D03*
X0516542Y0071038D02*
D03*
D225*
X0511248Y0071326D02*
D03*
X0499830Y0071326D02*
D03*
D196*
X0530433Y0038779D02*
D03*
X0524212Y0038779D02*
D03*
X0519842Y0038779D02*
D03*
X0513622Y0038779D02*
D03*
D226*
X0479756Y0015890D02*
D03*
X0479756Y0020024D02*
D03*
X0530311Y0057764D02*
D03*
X0530311Y0061898D02*
D03*
X0530311Y0053051D02*
D03*
X0530311Y0048917D02*
D03*
X0531203Y0033402D02*
D03*
X0531203Y0029268D02*
D03*
D227*
X0512100Y0077609D02*
D03*
X0512100Y0081546D02*
D03*
X0498425Y0078511D02*
D03*
X0507086Y0078511D02*
D03*
X0498425Y0084908D02*
D03*
X0507086Y0084908D02*
D03*
D211*
X0490052Y0085039D02*
D03*
X0493596Y0085039D02*
D03*
D209*
X0526053Y0061701D02*
D03*
X0526053Y0058157D02*
D03*
X0526053Y0052657D02*
D03*
X0526053Y0049114D02*
D03*
X0531203Y0021101D02*
D03*
X0531203Y0024645D02*
D03*
D198*
X0541535Y0024212D02*
D03*
X0541535Y0020275D02*
D03*
D228*
X0478740Y0077755D02*
D03*
X0478740Y0010826D02*
D03*
X0478740Y0058267D02*
D03*
X0539763Y0058070D02*
D03*
X0539763Y0083267D02*
D03*
X0539763Y0033661D02*
D03*
X0539763Y0050590D02*
D03*
X0539763Y0009055D02*
D03*
X0478740Y0085039D02*
D03*
M02*
